<svg width="15" height="15" viewBox="0 0 15 15" fill="none" xmlns="http://www.w3.org/2000/svg">
<path d="M7.46181 0.00107956C7.46013 0.00276375 7.32516 0.00949764 7.16319 0.0162315C7.00122 0.0229664 6.846 0.0297003 6.81732 0.0330677C6.7026 0.043169 6.5575 0.0600052 6.46302 0.0751572C6.08847 0.137449 5.93832 0.162703 5.92819 0.169437C5.91807 0.176171 5.77129 0.208159 5.7038 0.218261C5.66837 0.223311 5.20103 0.356314 5.15548 0.373149C5.14198 0.379884 5.1268 0.384934 5.12174 0.386618C5.11667 0.388301 5.09811 0.395036 5.07956 0.40177C5.061 0.408504 4.98845 0.435441 4.91928 0.462379C4.8501 0.487632 4.77418 0.514569 4.75056 0.521303C4.71007 0.533089 4.66452 0.553291 4.41313 0.667774C4.2596 0.736801 3.9711 0.884955 3.8395 0.959032C3.77876 0.994388 3.69609 1.04153 3.65391 1.0651C3.52906 1.13581 3.3924 1.22504 3.38734 1.24019C3.38397 1.24692 3.37385 1.25366 3.36372 1.25366C3.3536 1.25366 3.31817 1.27554 3.28274 1.30416C3.24731 1.3311 3.21019 1.35467 3.20007 1.35467C3.18995 1.35467 3.18151 1.35972 3.18151 1.36646C3.17982 1.37488 3.14102 1.40686 3.09547 1.43885C2.62306 1.76715 1.99207 2.36818 1.62933 2.83622C1.59727 2.8783 1.56691 2.91534 1.56184 2.92039C1.53485 2.94396 1.1738 3.4625 1.12487 3.54837C1.108 3.57867 1.03883 3.69484 0.973029 3.80932C0.49219 4.63764 0.141263 5.70671 0.0450949 6.64109C0.034972 6.73874 0.0231619 6.84817 0.0181005 6.88521C-0.000458183 7.04515 -0.00720679 7.7977 0.00966473 8.0132C0.0484692 8.53679 0.169944 9.222 0.289732 9.58902C0.303229 9.63111 0.316726 9.67993 0.320101 9.69845C0.350469 9.83819 0.590045 10.4561 0.716581 10.7187C1.12487 11.5588 1.59727 12.2188 2.24852 12.8535C2.53533 13.1346 2.57245 13.1683 2.8019 13.3518C3.94242 14.266 5.24827 14.8047 6.71778 14.9697C7.04846 15.0068 7.88529 15.0101 8.21766 14.9781C9.71248 14.8283 11.1162 14.2458 12.2753 13.2929C12.5654 13.0538 12.9619 12.6615 13.2555 12.3198C13.2808 12.2928 13.3719 12.175 13.4596 12.0605C14.3235 10.9325 14.838 9.61764 14.9764 8.18997C15 7.93744 15.0084 7.29431 14.9899 7.02831C14.9561 6.51314 14.8701 6.01985 14.7132 5.43733C14.6997 5.38178 14.6845 5.3279 14.6828 5.31612C14.6795 5.30433 14.6727 5.28918 14.666 5.28413C14.6592 5.2774 14.6541 5.26056 14.6541 5.24709C14.6541 5.22184 14.5209 4.84472 14.477 4.74707C14.4652 4.71845 14.4382 4.65616 14.4179 4.60565C14.3403 4.40699 14.1362 3.99451 14.0333 3.82279C13.9945 3.7605 13.9624 3.70662 13.9624 3.70325C13.9624 3.68979 13.6823 3.25206 13.6385 3.19818C13.6317 3.18808 13.5777 3.11737 13.5204 3.03993C13.3264 2.78234 13.2808 2.72342 13.1256 2.54664C12.9349 2.33114 12.5368 1.93719 12.3765 1.80924C12.0559 1.54997 11.9868 1.49441 11.9547 1.47252C11.9345 1.45905 11.9058 1.43717 11.8923 1.4237C11.8788 1.41023 11.8214 1.36982 11.7641 1.33279C11.7067 1.29575 11.6561 1.26208 11.651 1.25534C11.646 1.25029 11.6156 1.23009 11.5835 1.21325C11.5515 1.19473 11.5025 1.16274 11.4772 1.14086C11.4502 1.11897 11.4216 1.10214 11.4131 1.10214C11.4047 1.10214 11.3659 1.08193 11.3288 1.05836C11.29 1.03479 11.2242 0.996071 11.182 0.972501C11.1381 0.948931 11.0993 0.921993 11.0943 0.915259C11.0892 0.906841 11.0689 0.898423 11.0521 0.895057C11.0335 0.893373 10.9998 0.878221 10.9762 0.863069C10.907 0.817613 10.3485 0.553291 10.2675 0.528038C10.2439 0.521303 10.1832 0.499417 10.1326 0.479215C9.99423 0.42534 9.79346 0.35968 9.7361 0.349579C9.7091 0.344528 9.68211 0.336111 9.67705 0.329376C9.67198 0.320958 9.65005 0.310857 9.62643 0.305806C9.60281 0.300756 9.50833 0.277185 9.41722 0.253615C9.23839 0.206475 9.20296 0.198058 9.04436 0.167753C9.0258 0.164387 9.00893 0.161019 9.00725 0.159335C8.99881 0.152601 8.84865 0.123981 8.79129 0.117247C8.78286 0.115562 8.74743 0.110512 8.71537 0.103778C8.58208 0.0785246 8.25309 0.0414858 8.02364 0.0246496C7.81274 0.00949764 7.47025 -0.0039711 7.46181 0.00107956ZM8.20922 0.773839C8.80985 0.839499 9.2755 0.945563 9.81708 1.14254C11.6206 1.79408 13.107 3.2268 13.8089 4.98782C13.9354 5.30433 14.0991 5.83129 14.1379 6.0451C14.1429 6.06699 14.1497 6.09898 14.1547 6.11581C14.1598 6.13097 14.1666 6.17474 14.1733 6.21178C14.1784 6.24882 14.1851 6.2909 14.1902 6.30437C14.202 6.3431 14.2459 6.66297 14.2678 6.85995C14.2914 7.08555 14.3015 7.7573 14.283 7.98795C14.2543 8.33139 14.2425 8.42062 14.1716 8.79606C14.1176 9.08058 13.9928 9.55872 13.9455 9.6631C13.9371 9.68162 13.9152 9.74223 13.8966 9.79778C13.7684 10.1816 13.4866 10.749 13.215 11.1733C13.1576 11.2642 13.0986 11.3517 13.0851 11.3669C13.0716 11.3837 13.0294 11.4393 12.9923 11.4898C12.8826 11.6413 12.751 11.808 12.6329 11.9427C12.4136 12.1952 11.9091 12.675 11.7252 12.808C11.6949 12.8282 11.6122 12.8905 11.5397 12.9461C11.29 13.1346 10.8665 13.3989 10.664 13.4949C10.5999 13.5252 10.5426 13.5555 10.5375 13.5606C10.4987 13.6077 9.64668 13.9478 9.57076 13.9478C9.55557 13.9478 9.54207 13.9562 9.54207 13.968C9.54207 13.9781 9.5387 13.9831 9.53195 13.9781C9.52689 13.973 9.48808 13.9798 9.44422 13.9932C9.34974 14.0219 9.14222 14.0808 9.09498 14.0909C9.07642 14.0959 9.02749 14.106 8.98531 14.1161C8.90264 14.1347 8.63607 14.1818 8.55509 14.1936C8.5281 14.197 8.46736 14.2071 8.42012 14.2155C8.27334 14.2441 7.92072 14.2677 7.59341 14.2727C7.22055 14.2778 6.81564 14.2508 6.48833 14.2003C6.05979 14.133 5.58739 14.0202 5.32419 13.9225C4.92434 13.7761 4.46206 13.5791 4.43 13.542C4.42494 13.537 4.39457 13.5235 4.36252 13.5101C4.30853 13.4899 4.20561 13.4343 4.07064 13.3518C4.04027 13.3333 4.00147 13.3114 3.98291 13.3013C3.96435 13.2895 3.89349 13.2441 3.82432 13.1986C3.75683 13.1515 3.68259 13.1026 3.66066 13.0892C3.51557 12.9949 3.1174 12.6868 2.98749 12.5673C2.92338 12.5083 2.70911 12.3097 2.66862 12.271C2.6315 12.2356 2.34637 11.9225 2.31263 11.882C2.29407 11.8585 2.24177 11.7911 2.19453 11.7339C1.82335 11.2726 1.5416 10.8147 1.29527 10.2776C0.998336 9.62774 0.843118 9.04354 0.726704 8.13947C0.706459 7.97279 0.704771 7.14953 0.726704 6.91888C0.854928 5.52151 1.37963 4.2622 2.29407 3.15609C2.44591 2.9709 2.90988 2.50792 3.10559 2.34461C4.24779 1.39171 5.55027 0.863069 7.04509 0.748586C7.30154 0.728383 7.92409 0.741852 8.20922 0.773839Z" fill="#FF9800"/>
<path d="M6.33154 2.32442C6.32985 2.3261 6.25899 2.33115 6.17295 2.33789C6.08691 2.34294 6.00592 2.35304 5.99074 2.35809C5.92663 2.38334 5.92325 2.42375 5.91819 3.1056C5.91482 3.55174 5.90807 3.78239 5.89457 3.80764C5.85745 3.88004 5.82371 3.88341 4.94976 3.88677C4.49255 3.89014 4.10619 3.89687 4.08932 3.90361C4.03702 3.92718 4.02521 4.00294 4.02014 4.30935C4.0134 4.68142 4.02858 4.96426 4.05726 4.99793C4.07413 5.01813 4.15174 5.02318 4.49423 5.02823C4.88734 5.03329 4.91602 5.03497 4.99532 5.07201C5.1033 5.12251 5.14885 5.1646 5.20284 5.26899L5.24502 5.35316L5.2467 7.36335C5.24839 8.46946 5.24333 9.44593 5.23658 9.53347C5.22646 9.69005 5.22477 9.69341 5.16066 9.75065C5.05437 9.8483 5.03918 9.85167 4.56847 9.86345C4.37613 9.8685 4.26816 9.87861 4.25128 9.89207C4.21417 9.92238 4.14499 10.2086 4.10281 10.5133C4.09775 10.5453 4.08257 10.6446 4.06738 10.7322C4.03027 10.9611 4.03364 11.079 4.07413 11.1026C4.09607 11.1127 4.39807 11.1194 4.93964 11.1194C5.65499 11.1194 5.87939 11.1278 5.90638 11.1564C5.90975 11.1581 5.91482 11.4864 5.91819 11.8854C5.92325 12.4191 5.93 12.6195 5.94518 12.6481L5.96712 12.6851H6.44458C6.80732 12.6851 6.92711 12.6801 6.93892 12.6649C6.97266 12.6228 6.97941 12.4848 6.97941 11.8871C6.97772 11.5521 6.98278 11.2558 6.98784 11.2255C6.99459 11.1867 7.01146 11.1682 7.04352 11.1564C7.10257 11.1362 7.56148 11.1531 7.59184 11.1766C7.61209 11.1918 7.61715 11.313 7.6239 11.8938C7.62727 12.3703 7.63571 12.6077 7.64921 12.638L7.66945 12.6851H8.1486C8.57208 12.6851 8.62944 12.6818 8.64969 12.6565C8.66825 12.6346 8.675 12.4831 8.68174 11.8922C8.68681 11.4881 8.69524 11.1514 8.70199 11.1447C8.71211 11.1345 8.89264 11.1093 9.17102 11.079C9.6721 11.0268 10.1394 10.9005 10.4769 10.7271C11.2108 10.3517 11.555 9.6951 11.528 8.72031C11.5212 8.42905 11.4925 8.24891 11.4335 8.11422C11.4251 8.0957 11.4014 8.03678 11.3812 7.98459C11.3103 7.80108 11.1214 7.56033 10.951 7.43574C10.9054 7.40207 10.8615 7.36672 10.8548 7.35661C10.848 7.3482 10.8413 7.34651 10.8413 7.35493C10.8413 7.36335 10.8261 7.35661 10.8092 7.34146C10.7721 7.30779 10.5882 7.21014 10.5882 7.22361C10.5882 7.22866 10.5629 7.21856 10.5342 7.20004C10.5039 7.17984 10.4718 7.16637 10.4651 7.16637C10.4448 7.16637 10.3689 7.10745 10.3689 7.09061C10.3689 7.08219 10.4364 7.00812 10.5207 6.9273C10.8312 6.62258 10.9611 6.32459 10.9864 5.8616C11.01 5.44239 10.8919 5.00803 10.676 4.71846C10.5899 4.60229 10.4195 4.44235 10.293 4.35649C10.1901 4.28746 9.96567 4.16625 9.92686 4.15951C9.91505 4.15783 9.87456 4.14268 9.83744 4.12584C9.65017 4.04335 9.19126 3.9356 8.98206 3.9255C8.94663 3.92381 8.91795 3.91708 8.91795 3.90866C8.91795 3.90193 8.89601 3.89687 8.86902 3.89687C8.78803 3.89687 8.73911 3.86994 8.71043 3.80764C8.68512 3.75546 8.68174 3.66791 8.68006 3.11065C8.68006 2.6443 8.67331 2.4591 8.65812 2.41533C8.63619 2.35641 8.6345 2.35641 8.51134 2.34294C8.44217 2.33452 8.23296 2.33284 8.044 2.3362C7.6627 2.34294 7.66102 2.34294 7.63571 2.4591C7.62727 2.49446 7.62053 2.79582 7.61884 3.12748C7.61884 3.50629 7.61209 3.74199 7.60197 3.76219C7.59184 3.78071 7.56822 3.80428 7.54629 3.81438C7.49736 3.84132 7.11944 3.84805 7.06545 3.82448C6.98278 3.78576 6.97941 3.76387 6.97772 3.08203C6.97772 2.43722 6.97097 2.37829 6.91192 2.35641C6.89674 2.34967 6.80563 2.34294 6.70778 2.33789C6.4682 2.3261 6.33492 2.32273 6.33154 2.32442ZM7.97314 5.11073C8.21272 5.13262 8.50965 5.20838 8.6615 5.28414C8.98206 5.44408 9.13559 5.73197 9.08835 6.07542C9.0681 6.21515 9.04448 6.27239 8.95844 6.38519C8.8977 6.46432 8.76948 6.57375 8.73742 6.57375C8.72561 6.57375 8.71549 6.5788 8.71549 6.58722C8.71549 6.61079 8.45567 6.71686 8.35781 6.73369C8.32744 6.73874 8.27177 6.75221 8.23465 6.76063C8.13848 6.78757 8.11824 6.79093 7.98326 6.80272C7.91746 6.80777 7.85673 6.81787 7.84829 6.82124C7.84154 6.82629 7.67283 6.83302 7.47712 6.83639L7.11944 6.84313L7.06545 6.79599L7.01146 6.75053L7.00978 6.00134C7.00978 5.58886 7.00978 5.22353 7.00978 5.18817C7.01146 5.13935 7.0199 5.12083 7.05027 5.10905C7.10257 5.08884 7.74031 5.08884 7.97314 5.11073ZM8.11655 7.93745C8.97362 8.01152 9.43084 8.27079 9.52532 8.73714C9.54894 8.85163 9.53713 9.01662 9.49664 9.1412C9.4629 9.24727 9.43928 9.28599 9.32792 9.41226C9.29081 9.45435 9.12209 9.56883 9.02761 9.61597C8.92132 9.66984 8.64125 9.75907 8.51303 9.77927C8.48097 9.78433 8.43542 9.79274 8.4118 9.79779C8.31732 9.81631 8.2802 9.82136 8.15873 9.82978C8.08955 9.83483 7.97145 9.84493 7.89722 9.85167C7.6762 9.87019 7.12282 9.86345 7.08232 9.84157C7.06208 9.83147 7.03677 9.80621 7.02665 9.78601C7.00472 9.7456 7.00134 7.9728 7.02327 7.9526C7.03171 7.94586 7.05533 7.93745 7.07895 7.9324C7.16499 7.91724 7.92084 7.9223 8.11655 7.93745Z" fill="#FF9800"/>
</svg>
