<svg width="110" height="110" viewBox="0 0 110 110" fill="none" xmlns="http://www.w3.org/2000/svg">
<path fill-rule="evenodd" clip-rule="evenodd" d="M55 0C85.3778 0 110 24.6222 110 55C110 85.3778 85.3778 110 55 110C24.6222 110 0 85.3778 0 55C0 24.6222 24.6222 0 55 0Z" fill="#F0B90B"/>
<path d="M30.228 55L30.2676 69.5432L42.625 76.8149V85.3293L23.0357 73.8401V50.7472L30.228 55ZM30.228 40.4567V48.9314L23.0312 44.6742V36.1995L30.228 31.9423L37.4599 36.1995L30.228 40.4567ZM47.7857 36.1995L54.9824 31.9423L62.2143 36.1995L54.9824 40.4567L47.7857 36.1995Z" fill="white"/>
<path d="M35.4282 66.5288V58.0144L42.6249 62.2716V70.7464L35.4282 66.5288ZM47.7856 79.8645L54.9823 84.1217L62.2143 79.8645V88.3393L54.9823 92.5965L47.7856 88.3393V79.8645ZM72.5356 36.1995L79.7323 31.9423L86.9643 36.1995V44.6742L79.7323 48.9314V40.4567L72.5356 36.1995ZM79.7323 69.5432L79.772 55L86.9687 50.7427V73.8357L67.3793 85.3249V76.8105L79.7323 69.5432Z" fill="white"/>
<path d="M74.5717 66.5288L67.375 70.7464V62.2716L74.5717 58.0144V66.5288Z" fill="white"/>
<path d="M74.5716 43.4711L74.6113 51.9856L62.2187 59.2572V73.8357L55.022 78.0533L47.8253 73.8357V59.2572L35.4326 51.9856V43.4711L42.6602 39.2139L54.9779 46.5208L67.3705 39.2139L74.6025 43.4711H74.5716ZM35.4282 28.9323L54.9823 17.4034L74.5716 28.9323L67.3749 33.1895L54.9823 25.8826L42.6249 33.1895L35.4282 28.9323Z" fill="white"/>
</svg>
