<svg width="119" height="119" viewBox="0 0 119 119" fill="none" xmlns="http://www.w3.org/2000/svg">
<path d="M59.5 119C92.3609 119 119 92.3609 119 59.5C119 26.6391 92.3609 0 59.5 0C26.6391 0 0 26.6391 0 59.5C0 92.3609 26.6391 119 59.5 119Z" fill="#988430"/>
<path d="M59.5 117.096C91.3094 117.096 117.096 91.3094 117.096 59.5C117.096 27.6906 91.3094 1.90399 59.5 1.90399C27.6907 1.90399 1.90405 27.6906 1.90405 59.5C1.90405 91.3094 27.6907 117.096 59.5 117.096Z" fill="#7A6A2A"/>
<path d="M59.5 115.877C90.6364 115.877 115.877 90.6364 115.877 59.5C115.877 28.3636 90.6364 3.12256 59.5 3.12256C28.3636 3.12256 3.12256 28.3636 3.12256 59.5C3.12256 90.6364 28.3636 115.877 59.5 115.877Z" fill="#BA9F33"/>
<path fill-rule="evenodd" clip-rule="evenodd" d="M26.0151 53.147C25.6787 52.8424 25.3233 52.5314 24.9933 52.2204C24.6632 51.9094 24.3269 51.6048 23.9905 51.2938L22.9877 50.3418C22.8227 50.1768 22.6513 50.0371 22.4863 49.8721C22.3213 49.7261 22.1309 49.5675 21.9659 49.4215C20.6394 48.1585 19.3003 46.9019 17.9865 45.6389C19.3447 46.8828 20.6712 48.1141 22.0294 49.3771L22.499 49.8467C22.664 50.0117 22.8354 50.1514 23.0004 50.3164L24.0032 51.243C24.3396 51.5476 24.6696 51.8586 25.006 52.195C25.3423 52.5314 25.6787 52.8424 26.0151 53.147ZM8.37769 52.9566C8.37769 52.9566 13.2075 53.458 15.5685 53.7944C17.7517 54.1053 24.5871 55.1525 24.5871 55.1525L8.37769 52.9566ZM8.37769 52.9566C9.73587 53.0708 11.0941 53.2168 12.4522 53.3628C13.144 53.4326 13.8104 53.5088 14.4768 53.5722L15.4986 53.6865C15.835 53.7372 16.165 53.7817 16.5014 53.8324L20.5442 54.4798L22.5688 54.8162C23.2352 54.9304 23.8953 55.0573 24.5934 55.1716C23.927 55.1018 23.2352 55.0066 22.5688 54.9114L20.5506 54.6194L16.5078 54.0228C16.1714 53.9721 15.8414 53.9086 15.505 53.8578L14.4832 53.7372C13.8168 53.6674 13.125 53.5722 12.4586 53.4961C11.0877 53.3437 9.72953 53.166 8.37769 52.9566ZM24.1047 56.4092C24.1047 56.4092 18.9449 57.7166 17.1996 58.218C15.486 58.6876 10.2944 60.268 10.2944 60.268L24.1047 56.4092Z" fill="#CFB66C"/>
<path fill-rule="evenodd" clip-rule="evenodd" d="M24.1047 56.4091C22.9623 56.7455 21.8199 57.0755 20.6584 57.3802L17.2122 58.3068C16.0634 58.6431 14.9274 58.9732 13.785 59.3095L12.0714 59.7792C11.5002 59.9442 10.9226 60.0838 10.3387 60.2489C10.9036 60.0585 11.4875 59.8617 12.0523 59.6967L13.7659 59.1509C14.9147 58.7955 16.0507 58.4591 17.1931 58.1037C18.3609 57.8117 19.5033 57.5071 20.6711 57.2278C21.7754 56.9486 22.9432 56.6757 24.1047 56.4091ZM11.0242 63.4476C11.589 63.2381 18.1388 60.1854 19.662 59.4682C20.4236 59.1128 22.6386 58.3258 22.6386 58.3258L11.0242 63.4476Z" fill="#CFB66C"/>
<path fill-rule="evenodd" clip-rule="evenodd" d="M11.0242 63.4476C11.5256 63.2572 11.9952 63.0224 12.4776 62.8003L13.9056 62.1339L16.7679 60.7566C17.7199 60.306 18.6465 59.8046 19.6239 59.3794C20.1253 59.17 20.6267 58.9923 21.1281 58.8336L21.8897 58.5924C22.1499 58.5226 22.391 58.4465 22.6513 58.383C21.6993 58.8336 20.6965 59.2208 19.7445 59.665C18.7925 60.1347 17.8214 60.5218 16.8377 60.947L13.9309 62.2291C12.9472 62.6226 11.9952 63.0478 11.0242 63.4476ZM11.6588 66.1132C11.6588 66.1132 17.5866 62.6353 19.6302 61.5182C20.6965 60.9217 24.1554 59.2081 24.1554 59.2081L11.6588 66.1132Z" fill="#CFB66C"/>
<path fill-rule="evenodd" clip-rule="evenodd" d="M11.6588 66.1196C12.6616 65.504 13.6771 64.8756 14.6989 64.241L16.2221 63.3144C16.7425 63.0097 17.2439 62.7178 17.7707 62.4068C18.2911 62.0958 18.7925 61.7912 19.3192 61.4992C19.5731 61.3405 19.8333 61.2073 20.1062 61.093L20.9123 60.6868C21.9785 60.1664 23.0511 59.6396 24.1744 59.1827C23.1526 59.83 22.1054 60.3758 21.0519 60.947C20.5315 61.239 20.0047 61.4992 19.4843 61.7848C18.9638 62.0704 18.4624 62.3814 17.9357 62.6606C17.4152 62.9653 16.9139 63.2572 16.3871 63.5365L14.8195 64.3933L11.6588 66.1196ZM24.1046 59.976C24.1046 59.976 20.4172 62.8066 19.224 63.7142C18.0309 64.6218 14.5148 67.1604 14.5148 67.1604L24.1046 59.976Z" fill="#CFB66C"/>
<path fill-rule="evenodd" clip-rule="evenodd" d="M45.2708 82.805L43.3795 79.2318L44.4775 74.7637L52.3093 71.7427L48.9773 64.9074L50.6211 58.0022L53.7119 51.8205L63.2636 50.3164L70.283 43.627L85.4389 44.7694L88.4091 60.9788L82.6844 81.377L79.4159 91.9378L66.1894 92.4392L60.0459 88.1869L52.8551 85.1786L45.2708 82.805Z" fill="#E2CC85"/>
<path fill-rule="evenodd" clip-rule="evenodd" d="M68.4742 82.6844C68.4742 82.6844 66.6463 83.5221 63.5238 83.3317C62.6225 82.1195 56.2949 81.5483 56.2949 81.5483C56.2949 81.5483 55.5079 81.3071 54.1117 81.8847C52.709 82.4559 51.3762 82.3861 50.1323 82.6907C48.8883 82.9954 47.6571 81.3833 46.7051 81.0469C45.7531 80.6915 44.4901 79.8347 44.4901 79.8347L41.8245 79.5745L36.4743 77.3087L27.9697 68.8359L25.6596 72.4535L24.9487 76.9279L27.5191 82.2337L34.4433 88.5423L47.9427 91.9695L55.9458 89.6149L65.9672 85.3753L68.4742 82.6844Z" fill="#F1D789"/>
<path fill-rule="evenodd" clip-rule="evenodd" d="M20.5124 52.7472L22.226 47.5556L24.2696 44.2046L30.8448 43.6524L28.8709 49.4152L23.3747 59.1954L25.6595 67.9284L21.6104 69.9466L20.3728 68.0426L19.37 63.6698L19.3002 58.7638L20.5124 52.7472Z" fill="#F4ECB4"/>
<path fill-rule="evenodd" clip-rule="evenodd" d="M27.8873 82.3289L26.6243 80.5646C26.6243 80.5646 26.2879 79.7268 26.4783 78.9969C26.6687 78.2544 26.6433 78.2099 26.5481 77.9307C26.4529 77.6514 25.6405 76.6867 25.6913 75.8617C25.7421 75.0239 25.6215 74.7447 26.2371 74.0783C26.8845 73.4309 26.6877 72.3139 26.6877 72.3139L27.5255 72.8343L27.7159 72.5424C27.7159 72.5424 28.0269 72.7835 28.0269 73.158C28.0967 72.6376 27.8174 70.2322 28.4521 69.68C29.0868 69.1279 30.2165 72.2504 30.2165 72.2504L29.5247 67.7252L27.7413 63.0858L24.5743 58.8463L24.3839 54.1751V53.7689C24.3839 53.7689 22.9305 56.0029 22.5243 57.7673C22.2387 58.9795 22.9305 60.452 22.7845 62.1973C22.6703 63.9299 22.5243 63.7967 22.9496 64.4821C23.3748 65.1675 24.4029 66.5828 23.9968 67.6047C23.6413 68.4805 22.4291 67.8649 22.4291 67.8649C22.4291 67.8649 22.188 68.5757 21.8579 68.8359C21.7437 68.4107 21.6168 68.1441 21.3883 67.8839C21.3692 68.0489 21.3185 68.2711 21.3185 68.2711C21.3185 68.2711 21.109 67.6047 20.8932 66.7669C20.6076 65.6499 20.2966 64.1775 20.0174 63.3905C19.9032 63.8411 19.6112 65.2183 19.6112 65.2183L19.7762 67.3381L20.5632 70.2449L21.3248 72.1489L22.0674 74.4781L22.7084 76.0457L23.2288 77.2389L23.6794 79.9235L25.8627 82.2337L27.0305 82.7542L27.8873 82.3289Z" fill="#F3E19D"/>
<path fill-rule="evenodd" clip-rule="evenodd" d="M21.6612 48.5076C21.6612 48.5076 20.0935 51.1732 19.6429 53.8578C19.1923 56.5425 18.7861 59.3858 19.0717 63.0414C19.3573 66.7289 19.9095 68.9946 20.3537 70.6067C21.1153 73.2913 23.0892 77.0295 23.0892 77.0295L23.159 76.8835C22.8289 76.2552 22.5624 75.5951 22.372 74.9097C22.1118 73.8879 22.0166 72.6757 21.7754 72.1299C21.566 71.5841 21.2042 71.1081 21.0328 70.4353C20.8678 69.7879 20.8424 68.7725 20.3411 68.0109C20.1316 67.6999 19.8714 66.8939 19.7952 66.0878C19.7 64.8756 19.846 63.5174 19.7254 62.4004C19.516 60.5409 19.37 59.2779 19.5604 58.3068C19.7508 57.3358 20.7536 54.575 21.3692 52.379C21.7754 50.9701 21.5342 49.7896 22.2768 48.5647C23.0193 47.3525 23.47 46.2799 23.635 45.5437C23.8127 44.8709 21.6612 48.5076 21.6612 48.5076Z" fill="#F2E8B0"/>
<path fill-rule="evenodd" clip-rule="evenodd" d="M29.1058 47.4414C29.1058 47.4414 28.2998 47.6825 27.9127 48.1078C27.5255 48.514 27.3605 48.8503 26.8464 49.5358C26.3324 50.2212 26.3006 50.7797 25.8754 51.6365C25.4502 52.4743 24.5172 53.7373 24.403 54.1879C24.2887 54.6385 24.0983 56.7583 23.8572 57.7611C23.6477 58.7638 24.0983 59.9951 24.0983 59.9951L24.6441 59.8808C24.6441 59.8808 24.6441 60.5917 25.19 61.074C25.7358 61.5437 25.8373 59.4747 25.8373 59.4747L27.8873 52.5504L30.9781 50.4497L31.3145 48.7551L29.1058 47.4414Z" fill="#F5EEC0"/>
<path fill-rule="evenodd" clip-rule="evenodd" d="M30.6036 50.5766C30.6036 50.5766 29.1502 50.6718 28.4394 51.1922C28.1538 51.4016 28.0332 51.5793 27.7286 51.8396C27.1574 52.3092 26.5798 52.7471 26.3006 53.3627C25.9896 53.9784 25.6532 54.9113 25.4248 56.6757C25.3296 57.4183 25.3295 58.1037 25.2597 58.7003C25.1645 59.5063 25.0186 60.1537 25.0947 60.6043C25.1899 61.5309 26.1419 62.0133 26.2371 63.0605L28.2109 62.0577L30.0705 54.7273L34.0181 52.2521L31.7841 49.7515L30.6036 50.5766Z" fill="#E6DB9D"/>
<path fill-rule="evenodd" clip-rule="evenodd" d="M20.1952 99.9156C20.2015 99.8457 20.2142 99.7696 20.2206 99.6998C20.5062 97.2246 20.557 95.346 20.7664 94.1718C21.0774 92.509 21.2868 91.887 21.236 91.2651C21.1662 90.2623 21.0901 89.5324 21.1853 88.7645C21.3312 87.7427 22.3277 86.5304 22.3023 85.6927C22.2832 85.0263 21.9469 84.5947 21.6549 84.1885C21.3693 83.7823 21.1345 83.446 21.1345 83.446C21.1345 83.446 23.1083 82.0878 23.0893 76.6169C23.1273 76.6296 23.1654 76.6423 23.2035 76.6677L24.1746 79.4285L24.841 80.2345L27.3923 84.9882L30.6735 88.1742L35.5287 91.4364L38.5688 94.7494L38.8734 103.578L34.8941 108.737L34.2404 109.918C29.0869 107.328 24.3396 103.952 20.1952 99.9156Z" fill="#E5CB7A"/>
<path fill-rule="evenodd" clip-rule="evenodd" d="M32.3363 108.363C32.3363 108.363 32.4061 107.265 33.3073 106.554C33.4533 106.795 33.5485 107.024 33.5168 107.202C33.6818 106.916 34.8242 105.063 37.4136 104.58C40.0031 104.111 40.6314 102.219 40.6314 102.219L46.1276 97.2246L52.4171 91.4364L60.0585 88.7518L63.6317 87.8759C63.6317 87.8759 63.7015 88.1361 63.5619 88.7137C64.2283 88.6629 65.7007 88.3265 67.2303 87.7871C67.8459 87.5459 68.4234 87.4507 68.7344 87.768C69.185 88.1933 69.2549 89.1897 69.2802 89.7863C70.0228 89.6213 70.8796 88.9104 71.565 88.9803C72.663 89.0945 73.6341 90.3892 74.7511 90.3892C76.2235 90.3892 76.8899 89.4816 77.9181 88.7708C78.5337 88.3456 79.4222 87.8188 79.9236 87.4634C81.1168 86.5876 93.7466 82.7288 93.7466 82.7288L98.1766 83.0207L98.8874 87.7744L98.5066 100.208C98.4622 100.252 98.4114 100.296 98.367 100.347L78.229 110.864L50.3164 115.141C44.0649 114.119 38.0293 112.044 32.4696 109.004L32.3363 108.363Z" fill="#D8C173"/>
<path fill-rule="evenodd" clip-rule="evenodd" d="M21.8833 101.502C22.2831 100.671 22.6386 99.979 22.702 99.7315C22.7528 100.233 22.8416 101.331 23.0257 102.499C22.6386 102.169 22.2578 101.832 21.8833 101.502Z" fill="#F1D789"/>
<path fill-rule="evenodd" clip-rule="evenodd" d="M42.2751 113.199L45.8864 112.196L46.191 112.292C46.191 112.292 46.356 112.387 46.356 112.717C46.8067 112.457 47.1938 112.507 47.4731 112.33C47.619 112.634 47.7587 113.656 48.3997 113.783C49.0661 113.929 49.7769 113.491 50.5004 112.945C51.2112 112.38 52.0236 111.663 52.6392 111.378C52.8614 111.79 53.0645 112.222 53.2358 112.66C54.0419 112.012 55.4508 109.398 57.45 109.442C58.0276 108.077 58.9986 106.903 60.2299 106.085C62.0894 104.822 63.2509 104.726 64.7043 104.841C65.2818 104.092 65.9926 103.457 66.805 102.962C67.0462 103.057 67.7126 103.463 68.5376 103.076C69.3754 102.689 70.3211 101.198 71.5587 101.007C72.2251 100.912 72.9105 101.058 73.4817 101.413C73.4817 101.413 77.0993 97.8212 79.5935 96.628C79.4983 96.3361 79.3016 95.2508 82.2338 92.8454C82.3988 92.9914 82.2845 93.3976 82.3988 93.4166C82.4495 93.4166 83.1604 93.112 84.0616 92.4138C85.1786 91.5761 86.5177 90.7002 87.3238 90.4591C88.847 90.0084 90.4654 90.9287 90.4654 90.9287C90.605 90.8335 90.7573 90.7637 90.916 90.7193C91.3031 90.6495 91.5824 90.605 91.7918 90.5289C91.7728 91.0303 92.052 91.8871 91.7918 92.6296C92.0901 92.801 92.4138 92.9343 92.7438 93.0358C92.5788 93.3912 92.2234 94.2988 91.6268 94.7304C92.1282 94.9715 92.1917 95.2508 92.9088 95.492C92.6169 95.8982 92.1472 96.5899 91.9378 97.0152C91.7284 97.4658 90.9668 99.3444 90.6304 100.055C90.275 100.766 89.7926 102.08 89.5642 102.34C89.3357 102.6 88.4979 103.717 87.8506 104.263C88.4218 104.054 90.7573 103.336 91.7474 103.07C91.4491 103.501 89.9576 105.723 88.517 107.855C74.586 116.207 57.7356 118.156 42.2688 113.212L42.2751 113.199Z" fill="#E0CD81"/>
<path fill-rule="evenodd" clip-rule="evenodd" d="M30.8448 50.3164C30.8448 50.3164 30.0071 50.3164 29.8421 50.4306C29.677 50.5448 30.6798 50.786 30.9845 50.9003C31.2891 51.0145 31.9555 51.5476 32.1332 51.9665C32.2982 52.3727 38.1498 54.7273 38.1498 54.7273L42.2879 54.5179L43.7159 52.544L40.9995 50.164L42.9035 44.5536L40.3839 44.9598L34.3165 48.5774L31.2764 49.7452L30.8448 50.3164Z" fill="#DFC57C"/>
<path fill-rule="evenodd" clip-rule="evenodd" d="M39.9332 52.1759C40.0538 52.3727 40.2696 52.4932 40.5044 52.4806C41.3612 52.4806 42.1482 52.69 42.4782 53.1279C43.0304 53.8197 44.5473 56.0347 44.5473 56.0347L48.1839 57.3421L48.4187 53.0581L44.4394 50.2973L39.9142 51.9601V52.1696L39.9332 52.1759Z" fill="#E5CC7C"/>
<path fill-rule="evenodd" clip-rule="evenodd" d="M39.2224 53.7626C39.2224 53.7626 39.8888 53.8134 40.7266 53.5024C41.5644 53.1914 42.9416 52.5314 43.5382 52.7916C44.3759 53.147 44.2046 54.264 45.1058 55.2668C45.6516 55.8824 46.6544 55.8634 47.2256 56.5298C47.7904 57.1962 49.7452 56.8852 49.7452 56.8852L50.4878 60.8836L47.5112 64.6979L46.5401 69.4325H42.5164L38.8416 67.9728L37.0328 63.5936L37.9404 59.1636L39.2224 53.7626Z" fill="#D2C281"/>
<path fill-rule="evenodd" clip-rule="evenodd" d="M47.0034 53.9594C47.1049 53.9911 47.2065 54.0038 47.308 54.0101C47.1938 54.1053 46.9526 54.3148 47.0478 54.8669C47.143 55.4191 47.454 56.1109 47.1938 56.5298C47.4032 56.7582 47.5556 57.0248 47.6444 57.3168C47.8094 57.7864 47.8539 58.2243 48.9264 58.2878C48.7741 58.383 48.6281 58.4972 48.5012 58.6242C48.5012 58.6242 49.2438 59.2715 49.6182 59.8681C50.0054 59.8491 51.0208 59.5317 51.0208 59.5317L51.2303 59.6777L51.6809 59.4873C51.6809 59.4873 51.2557 59.3223 51.5667 58.2941C51.8523 57.3866 52.1188 57.4373 52.1379 57.3675C52.1569 57.2977 52.3473 56.3457 52.3473 55.9586C52.4933 55.4572 52.6075 53.9403 52.6075 53.9403L52.3029 50.5829L50.5702 49.5357L49.1613 48.1776L47.8348 50.6781L46.959 51.554L46.8892 53.7182L47.0034 53.9594Z" fill="#E2C270"/>
<path fill-rule="evenodd" clip-rule="evenodd" d="M51.1732 51.1478C51.1732 51.1478 51.4779 52.0236 51.5984 52.6964C51.6365 52.5631 51.6619 52.4298 51.6683 52.2902C51.6683 52.2902 51.9094 53.6167 51.9539 54.1688C52.0491 54.1498 52.1443 54.118 52.1633 54.2196C52.1823 54.3148 52.4045 55.3874 52.3537 55.984C52.7535 55.3239 53.312 54.7654 53.9721 54.3656C54.3592 54.1244 54.8099 53.8642 55.2795 53.8451C56.0221 53.8261 56.5615 54.3148 57.4437 54.3148C59.5826 54.3148 61.5183 52.7472 62.9399 52.2648C63.9871 51.9094 64.8947 51.6492 65.5294 51.0716C65.8404 50.8114 66.3862 50.2339 66.8876 49.3771C67.554 48.2347 68.2457 47.2383 68.9375 47.1177C68.6265 47.1748 68.3029 47.2002 67.9855 47.1875C67.9855 47.1875 68.195 46.978 68.5567 46.6861C68.9185 46.3941 69.3437 46.0387 69.9593 46.0387C71.0573 46.0387 71.6031 46.2037 72.2251 46.2037C72.8407 46.1847 73.1961 46.0387 73.1961 46.0387C73.1961 46.0387 73.8435 46.4893 75.2969 46.4893C76.7503 46.5084 77.7213 46.6353 78.4829 46.6988C79.2445 46.7623 81.7959 46.4893 82.5257 46.5084C83.0017 46.5274 83.4714 46.6417 83.903 46.8448L81.542 39.9904L73.0692 32.5838L68.0236 36.157L60.2616 43.9189L52.7535 46.6988L51.1859 48.4632V51.1478H51.1732Z" fill="#CCB360"/>
<path fill-rule="evenodd" clip-rule="evenodd" d="M68.0172 47.2192C68.0172 47.2192 68.2267 47.0097 68.5821 46.7178C68.9375 46.4258 69.3691 46.0704 69.991 46.0704C71.089 46.0704 71.6348 46.2354 72.2568 46.2354C72.8724 46.2164 73.2278 46.0704 73.2278 46.0704C73.2278 46.0704 73.8752 46.521 75.3286 46.521C76.782 46.5401 77.753 46.667 78.5146 46.7305C79.2762 46.7939 81.8276 46.521 82.5574 46.5401C83.0334 46.5591 83.5031 46.6734 83.9347 46.8764L82.8684 43.7856L81.6245 41.4247L78.083 37.5468C78.083 37.5468 73.8308 35.0463 73.799 35.0272C73.78 35.0082 72.3266 34.621 72.3266 34.621L68.4742 36.9503L64.9772 45.9943L64.9073 47.8983L67.1668 48.9645C67.7316 48.0125 68.3599 47.2509 68.9502 47.1557C68.4234 47.2192 68.0172 47.2192 68.0172 47.2192Z" fill="#D5B457"/>
<path fill-rule="evenodd" clip-rule="evenodd" d="M67.9728 47.8602C67.6364 47.8793 67.3572 47.8095 67.281 47.5746C66.9891 46.7686 66.7606 46.648 66.5194 46.648C66.2782 46.648 65.9546 47.1684 65.7578 47.2129C65.5611 47.2573 65.3326 46.6163 65.3326 46.6163L65.1232 46.5211C65.1232 46.5211 63.8792 47.3271 63.0034 48.2855C62.1275 49.2375 60.6932 50.8559 60.0458 51.1415C59.3985 51.4271 57.1835 51.5286 56.4282 51.6936C55.673 51.8586 54.8289 52.4044 54.7146 52.5314C54.6004 52.6583 55.051 52.7916 55.1208 52.9185C55.1906 53.0328 54.3782 52.9883 54.3084 53.1089C54.2577 53.2041 54.4988 53.7563 54.6194 54.0355C54.8289 53.934 55.051 53.8769 55.2858 53.8705C56.0284 53.8515 56.5678 54.3402 57.45 54.3402C59.5889 54.3402 61.5246 52.7726 62.9462 52.2902C63.9934 51.9348 64.901 51.6746 65.5357 51.097C65.8403 50.8368 66.3925 50.2593 66.8939 49.4025C67.262 48.8122 67.6174 48.2664 67.9728 47.8602Z" fill="#D2B257"/>
<path fill-rule="evenodd" clip-rule="evenodd" d="M37.3184 95.511C37.3184 95.511 37.128 94.8001 35.3636 92.9596C34.8622 92.4392 34.5576 92.0076 34.2212 91.6966C33.3834 90.9096 32.8947 90.6938 32.2982 90.2432C30.9907 89.2722 29.5627 89.2722 28.4648 88.079C27.3668 86.8858 26.0911 84.601 25.2026 82.2718C24.3267 79.9426 24.0856 79.2 24.0856 79.1366C24.0856 79.0731 24.3267 78.6161 24.6314 78.6859C24.9424 78.7558 24.9424 79.3523 25.0185 79.492C25.1709 79.7268 25.3486 79.9489 25.539 80.1584C25.9896 80.6788 26.6369 81.3008 26.967 82.2274C26.8971 81.4404 26.6306 80.5646 26.6306 80.5646C26.6306 80.5646 28.3251 81.6308 29.7722 82.7478C31.2256 83.8648 31.8222 84.252 32.2474 84.9628C32.6726 85.6736 33.669 87.5522 34.1514 88.1044C34.6274 88.6502 41.1962 90.7256 41.1962 90.7256L44.3187 93.0548L45.8673 96.4566L44.6551 98.3606L42.3259 98.862L38.5433 97.1674L37.3184 95.511Z" fill="#D2B159"/>
<path fill-rule="evenodd" clip-rule="evenodd" d="M28.9091 83.8014C28.9091 83.8014 29.696 85.0644 31.6254 86.2575C33.3581 87.3047 36.0998 88.2631 38.5496 88.8279C39.9523 89.1643 41.3612 89.4245 42.6242 89.4436C46.0197 89.4943 48.3616 88.517 51.262 88.1996C52.8296 88.0346 54.759 87.9077 56.7582 87.438C59.3286 86.8224 60.8518 86.1306 62.9208 85.1532C64.425 84.4614 65.8022 83.941 66.9129 83.2746C68.4805 82.348 69.6293 81.3198 70.9557 81.0152C70.7907 81.4658 70.6194 82.2782 69.3119 83.1159C70.0037 83.0969 70.9557 83.0461 70.9557 83.0461C70.9557 83.0461 70.0291 83.5919 68.4044 84.8295C67.4016 85.5911 66.0751 86.8795 64.7169 87.7363C63.8411 88.2885 62.8891 88.6883 62.2608 89.0183C60.7376 89.8561 60.122 90.2813 59.1255 91.3031C59.481 91.2841 59.5127 91.3031 59.5127 91.3031C59.5127 91.3031 58.2497 91.4682 57.3485 91.9505C57.1581 91.9505 56.828 91.8807 56.2505 92.0457C55.7999 92.1917 55.2033 92.5154 54.5877 92.6931C53.7118 92.9533 53.4262 92.839 53.4262 92.839L53.5722 93.131C53.5722 93.131 52.4298 93.1119 52.049 93.15C52.1188 93.1691 52.0998 93.2008 52.0998 93.2008C52.03 93.2135 51.9665 93.2325 51.9094 93.2706C51.7253 93.3912 51.5222 93.48 51.3128 93.5308C51.1986 93.5499 51.1033 93.5499 50.9574 93.5816C51.0081 93.6958 51.3826 94.3432 51.554 94.724C51.408 94.8192 49.2438 96.4566 49.2438 96.4566C49.3136 96.5645 49.3644 96.6724 49.4088 96.793C49.4786 97.0024 49.504 97.3134 49.5738 97.4594C49.7388 97.7514 49.834 97.7958 49.834 97.7958C49.834 97.7958 49.5738 97.8466 49.1232 97.9608C48.736 98.056 48.2664 98.221 47.6 98.3162C47.3969 98.3416 47.1875 98.3606 46.9844 98.367C47.0796 98.5764 47.5048 99.3888 46.7241 100.322C45.9435 101.255 45.7023 101.388 45.4612 101.991C45.3406 101.902 45.2136 101.82 45.074 101.75C44.8138 101.636 44.4584 101.464 44.3315 101.229C44.2616 101.54 44.1601 101.839 44.0395 102.137C43.7983 102.784 43.4429 103.419 43.3731 103.901C43.1129 103.609 42.6306 103.044 41.9642 103.159C41.2978 103.273 40.771 104.181 40.6567 104.441C40.6567 104.276 40.5425 104.149 40.5108 104.346C40.4917 104.555 40.1236 106.77 38.0863 108.56C38.0673 108.109 38.0673 107.106 38.0165 106.776C37.8261 106.967 37.5913 107.246 36.2077 107.843C34.8495 108.439 35.0653 109.036 35.0653 109.036C35.0653 109.036 34.9511 108.084 35.681 107.081C36.4235 106.078 36.8741 105.609 36.8741 105.532C36.8614 105.456 36.8297 105.38 36.7789 105.323C36.6837 105.228 36.4933 105.113 36.4933 105.031C36.6076 104.98 37.7563 104.434 37.6865 103.298C37.6167 102.277 37.1851 101.75 36.8805 101.375C36.8297 101.325 37.3311 100.969 37.2676 100.855C37.2168 100.785 36.6012 100.334 36.5251 100.093C36.5441 99.9473 36.5758 99.8077 36.6203 99.6681C36.6901 99.4586 36.7345 99.3126 36.7155 99.1667C36.6647 98.9255 36.4045 98.2591 36.3283 98.1956C36.3981 98.2147 36.8741 98.1956 36.8741 98.1956C36.8741 98.1956 36.487 97.58 36.4235 97.2881C36.3537 96.9961 36.2141 96.2408 36.1316 96.0949C36.2966 96.1139 36.7028 96.1456 36.7028 96.0949C36.7218 95.9489 36.3473 95.7077 36.5124 95.5237C36.6266 95.5427 36.8487 95.6379 37.0582 95.9108C36.9439 95.5998 36.7535 95.0032 36.3474 94.7621C36.5378 94.6923 37.1851 94.5209 37.7563 94.8573C38.3212 95.1936 38.5179 95.6633 38.5179 95.6633C38.5179 95.6633 38.8543 95.9235 39.3747 96.3107C39.9713 96.7803 40.7329 97.4531 41.9451 97.9291C42.2053 98.075 42.8717 98.075 43.3541 97.9798C43.5635 97.9291 43.7666 97.8466 43.9507 97.7387C44.0205 97.7006 44.0903 97.6688 44.1601 97.6435C44.0585 97.434 43.938 97.2373 43.8047 97.0469C43.9697 97.0469 44.1601 97.0659 44.1601 97.0659C44.1601 97.0659 44.2743 96.8057 43.7539 96.3043C43.8681 96.1901 44.0141 96.1139 44.0141 95.9172C43.8491 95.8981 43.5635 95.657 43.4937 95.5618C43.5889 95.4919 43.7349 95.2698 43.8999 95.2063C43.7539 95.0921 43.3985 94.6098 43.2335 94.559C43.3921 94.5019 43.5381 94.432 43.6841 94.3495C43.6841 94.3495 42.8781 94.1401 42.6179 93.9624C42.3576 93.772 41.9705 93.442 41.742 93.3468C41.5008 93.2516 41.0756 93.2008 40.9043 93.0104C41.0693 93.0612 41.3295 93.0104 41.5199 93.0104C41.6659 93.0104 41.7293 93.0294 41.7801 93.0294C41.7611 92.9596 41.7611 92.82 42.1355 92.7692C42.3132 92.7438 42.4909 92.6867 42.6559 92.6042C42.6559 92.6042 42.3005 92.5852 41.8943 92.198C41.4882 91.8109 41.1518 91.5062 40.9233 91.4555C40.6821 91.4047 40.2315 91.6205 39.9523 91.6014C39.5651 91.5507 39.4001 91.3603 39.4001 91.3603C39.4001 91.3603 38.1181 91.4745 35.2811 89.7419C32.8249 88.2377 31.7587 86.9113 31.7587 86.9113C31.5302 86.8287 31.3081 86.7272 31.0923 86.6003C30.1657 86.1179 28.89 85.1151 28.9281 83.8077L28.9091 83.8014Z" fill="#C2A44D"/>
<path fill-rule="evenodd" clip-rule="evenodd" d="M64.3298 26.015C64.5519 26.0848 64.7487 26.2181 64.901 26.4022C65.3516 26.9226 65.6435 27.9063 64.609 28.9535C65.0152 29.0995 65.1802 29.1439 65.5357 29.0995C65.1802 29.5247 64.3742 30.4259 64.3234 31.2193C64.2727 31.8666 64.6789 32.057 64.6789 32.057C64.6789 32.057 64.0632 32.7679 64.0315 33.961C64.3234 33.631 64.6408 33.3327 64.9835 33.0535C65.6943 32.4823 66.6781 31.8412 67.3445 31.4351C67.3381 31.6064 67.3571 31.7714 67.4143 31.9364C67.4143 31.9364 68.6582 30.9146 69.6991 31.3716C70.1687 31.581 69.9593 32.2474 69.9593 32.2474C69.9593 32.2474 70.6066 32.0063 71.0573 32.4569C71.5079 32.9075 72.1489 34.0753 72.4789 34.5322C72.6249 34.7417 72.9993 35.1479 73.3865 35.7762C73.9132 36.652 74.3512 37.5786 74.6939 38.537C74.7129 38.0356 74.8399 37.255 76.2615 37.75C77.6832 38.2514 79.3016 39.2986 80.6598 41.3676C82.0179 43.4366 82.3543 45.7658 83.0398 46.6544C83.7315 47.5112 84.4487 48.9392 84.4931 49.5358C84.5376 50.1323 84.2837 52.0554 85.7054 57.266C86.1115 55.6476 86.7272 52.0554 86.7272 52.0554L87.0635 48.8884L87.4507 39.0891L77.2135 30.5846L69.2104 24.7774L63.9998 25.2788L64.3298 26.015Z" fill="#CAA13E"/>
<path fill-rule="evenodd" clip-rule="evenodd" d="M83.3444 40.6059C83.3444 40.6059 83.1984 39.6539 80.793 38.0355C78.3876 36.4362 76.509 36.4362 74.7764 35.078C73.4499 34.0118 72.06 31.5556 71.1588 30.7432C70.2829 29.9435 70.137 27.6334 70.137 27.6334L73.0945 25.1582L77.4928 18.8051L81.2119 14.7115L82.9953 17.1867L85.4705 20.0935L86.8477 25.9261L87.3491 34.4687L83.3444 40.6059Z" fill="#B59544"/>
<path fill-rule="evenodd" clip-rule="evenodd" d="M86.321 50.8368C86.3909 49.542 86.2322 48.241 85.8514 47.0034C85.2167 45.0296 83.8331 41.5262 83.1858 40.2124C82.9256 38.7591 83.116 38.6448 83.3952 38.4798C83.6745 38.3148 84.7217 37.7182 85.2992 35.6238C85.8768 33.5294 87.6602 33.4596 87.6602 33.4596L88.7582 32.6536L90.4273 36.8233L91.8807 40.5869L92.3313 43.4683L92.6677 45.9244L91.8807 51.116L87.9839 54.6384L86.321 50.8368Z" fill="#C89D3A"/>
<path fill-rule="evenodd" clip-rule="evenodd" d="M31.9174 108.68V108.572C31.9999 108.522 32.0697 108.458 32.1268 108.382C32.1966 108.287 32.241 108.173 32.2918 108.141C32.387 108.09 32.844 107.95 33.0788 107.995C33.32 108.039 33.9546 108.299 34.291 108.287C34.9828 108.268 35.7952 107.735 37.0709 107.982C38.9939 108.338 39.4509 109.645 40.5679 110.388C41.3295 110.908 42.1165 110.679 42.2307 110.679H42.4909C42.5417 110.679 42.8971 110.273 43.0875 110.292C43.4746 110.311 43.5127 110.629 43.7539 110.648C44.3251 110.718 45.4231 110.356 45.9689 110.502C46.2989 110.603 46.5591 110.864 46.6607 111.194C46.7749 111.549 46.6797 112 46.4005 112.26C45.8039 112.806 45.239 113.326 45.1184 113.783C45.2644 113.897 45.404 114.011 45.5437 114.138C40.7837 112.933 36.2014 111.098 31.9174 108.68Z" fill="#CEB052"/>
<path fill-rule="evenodd" clip-rule="evenodd" d="M83.1857 89.4435C83.1857 89.4435 84.6898 87.438 85.2103 86.4479C85.7307 85.4261 83.5665 72.4789 83.5665 72.4789L87.9203 58.2179L87.806 53.5785C87.806 53.5785 88.0155 49.2945 88.5169 47.4349C89.1135 48.5012 90.973 49.7959 91.3792 50.475C91.5696 49.1676 92.217 46.4004 92.1218 43.4556C92.4772 44.0014 93.334 49.523 93.334 49.523L94.1908 53.2358L95.3078 57.1834L96.5518 61.3532L97.2943 64.2346L97.7195 64.9263L98.075 66.1386L98.4113 67.446L99.3824 70.5178L99.9536 73.0374L100.404 77.6133C100.506 77.9624 100.576 78.3178 100.614 78.6796C100.633 79.181 100.544 79.4666 100.544 79.5554C100.544 79.6443 100.709 80.6534 100.639 81.415C100.544 82.1766 100.544 82.7732 99.9472 83.319C99.3506 83.8648 98.9762 87.1333 98.9762 87.1333L97.9099 86.4225C97.9099 86.4225 98.1194 85.4515 97.618 84.5629C97.1166 83.6744 96.1456 83.4967 95.5934 83.6363C95.0476 83.7505 93.9496 83.9219 93.5942 84.2329C93.2578 84.5375 92.4328 85.4959 91.6712 85.9275C90.7192 86.4987 89.1706 86.5431 88.3392 86.7335C87.5014 86.9239 86.5748 87.4951 85.6037 88.1551C84.8295 88.6692 84.0234 89.0944 83.1857 89.4435Z" fill="#CCA847"/>
<path fill-rule="evenodd" clip-rule="evenodd" d="M83.1857 110.483C83.1857 110.483 83.2491 110.527 83.3697 110.591C90.2114 107.386 96.336 102.841 101.394 97.2309C101.337 95.2825 101.267 93.2833 101.191 92.5471C101.026 90.9795 101.14 89.3801 101.096 88.4535C101.052 87.5269 100.531 83.7633 100.29 82.7923C100.03 81.8212 99.5283 81.3389 99.4522 81.3389C99.3824 81.3579 98.9825 83.1667 98.9825 83.6237C98.9825 84.0806 98.8873 85.1723 98.8873 85.4515C98.8175 85.4325 98.7921 85.2611 98.7921 85.1913C98.6969 85.4325 98.5827 85.8577 98.5319 85.9021C98.4811 85.9465 98.6017 85.4959 98.5319 85.4007C98.4621 85.3055 98.3415 85.35 98.3669 85.1088C98.3796 84.9692 98.3986 84.8232 98.4367 84.6836C98.4367 84.6836 98.1448 85.1088 97.9353 86.1877C97.7259 87.254 97.7259 87.2857 97.6434 87.3809C97.5736 87.4951 97.1928 87.8823 97.1737 88.0283C97.1547 88.2885 97.5291 88.5487 97.5609 88.6947C97.5799 88.9358 97.2245 90.0528 97.1102 90.5987C96.996 91.1445 97.0404 92.2171 96.9198 92.7629C96.8246 93.2643 96.7295 93.5499 96.3994 93.7656C96.6406 93.8164 96.8691 93.8799 96.8691 93.8799C96.8691 93.8799 97.2054 95.3015 96.3486 96.5201C96.0377 96.9453 95.9615 97.1357 95.6378 97.5229C94.9905 98.2337 94.4891 99.0461 94.4446 99.5728C94.4129 99.4142 94.3875 99.2619 94.3748 99.1032C94.3748 99.1032 93.3721 100.271 92.9532 100.931C92.4074 101.788 91.6458 101.737 91.43 101.953C91.2142 102.169 91.1698 102.549 91.2396 102.86C91.0492 102.911 90.6938 102.975 90.4526 103.717C90.3384 104.104 90.0464 104.479 89.5958 104.739C89.1452 104.999 88.593 105.075 88.3138 105.145C88.555 105.215 88.6501 105.215 88.7644 105.291C88.6184 105.532 87.9584 105.907 87.2158 106.389C86.4732 106.84 86.1178 107.506 85.9338 107.938C85.7434 108.344 85.4641 108.604 85.0072 108.649C85.1976 108.763 85.4768 109.036 85.6228 109.118C85.4134 109.169 85.0516 109.169 84.4106 109.715C83.7251 110.273 83.4967 110.432 83.1857 110.483Z" fill="#C39D3C"/>
<path fill-rule="evenodd" clip-rule="evenodd" d="M69.788 114.944C70.1561 114.684 70.5559 114.475 70.9748 114.316C72.4789 113.72 74.0656 113.605 74.6939 113.409C75.2905 113.218 75.7602 112.958 76.5027 112.812C76.4837 112.983 76.4647 113.142 76.452 113.288C74.2624 113.973 72.0347 114.532 69.788 114.944Z" fill="#D2BA6B"/>
<path fill-rule="evenodd" clip-rule="evenodd" d="M97.4849 75.4492C97.4849 75.4492 97.1739 77.112 96.6281 78.1655C96.0759 79.2127 95.4857 80.6661 95.4857 80.6661C95.492 80.3361 95.5301 80.0124 95.5999 79.6951C94.9081 80.1013 93.2199 81.0723 92.7439 81.5039C92.2933 81.9101 91.5317 82.6209 91.3349 82.9573C91.7856 81.6308 92.2615 80.4376 92.3377 79.8855C91.6459 80.3869 88.4091 83.0525 86.7273 84.8168L81.4786 89.0628C80.8756 89.3864 80.2473 89.6784 79.6126 89.9386C78.7051 90.3257 77.6388 90.6494 76.8518 90.9604C77.0613 90.3956 77.3977 89.8942 77.8737 89.4118C78.375 88.9422 79.8792 87.3111 80.1077 86.5558C80.3171 85.7688 80.3679 85.2928 80.0886 84.6328C79.8284 84.7026 79.2318 84.728 78.8257 84.8422C78.4195 84.9565 77.9879 85.388 77.9879 85.388C77.9879 85.388 78.2925 83.6237 78.9589 81.9608C78.4576 81.9799 77.6008 82.1259 77.6008 82.1259C77.6008 82.1259 78.7939 80.1203 80.8376 78.7304C80.2092 78.8637 79.5999 79.0541 79.0097 79.2952C77.8165 79.7966 76.5091 80.5392 75.5317 80.939C76.0776 80.1774 79.93 74.6812 82.2211 69.5595C84.5059 64.444 85.3564 63.1366 85.8578 60.3949C86.118 59.0367 86.0482 57.0311 86.118 55.235C86.1878 53.4516 86.4099 51.8586 86.264 50.786C86.8605 51.5286 89.0946 53.6166 89.1707 58.2878C89.2405 62.9589 87.0319 69.2612 84.6963 72.663C85.2675 72.828 86.7463 73.0184 88.2695 70.3782C89.7927 67.738 89.7737 67.0017 90.3195 65.9038C90.3893 66.4559 90.3702 66.6463 90.3702 66.6463C90.3702 66.6463 92.5852 63.9617 93.6324 60.5789C93.8419 62.0323 94.4702 63.3143 93.4865 65.9799C92.6106 68.3853 91.4682 68.9756 91.4682 68.9756C91.4682 68.9756 92.0331 68.8804 92.8708 68.379C93.0168 68.7344 92.9851 69.1406 93.2262 69.2865C93.4674 69.4325 93.7911 69.6737 93.8419 69.9022C94.1021 69.515 94.5083 69.0263 94.6289 68.6582C94.5337 69.4198 94.4638 72.7518 94.8193 74.4464C95.5618 74.3766 96.3234 74.3321 96.8438 72.993C96.4884 74.3004 96.4884 75.0937 96.7296 76.2108C97.1231 75.9252 97.4785 75.4428 97.4849 75.4492Z" fill="#C0993A"/>
<path fill-rule="evenodd" clip-rule="evenodd" d="M72.4663 22.3783C72.4663 22.3783 71.7237 22.683 70.4608 22.683C69.3628 22.683 69.6738 22.2578 67.9602 22.2578C65.32 22.2578 56.1109 23.781 54.4925 23.7619C53.4453 23.7429 58.034 24.2125 58.034 24.2125L69.769 24.3775L72.1299 24.1871L73.0058 22.4037L72.4663 22.3783Z" fill="#A88F33"/>
<path fill-rule="evenodd" clip-rule="evenodd" d="M42.0339 45.3215C42.0339 45.3215 40.5298 46.4639 39.8951 47.3461C39.2605 48.2283 38.9241 48.7995 38.2006 49.5103C38.3719 49.5167 38.5369 49.4913 38.7019 49.4405C38.7019 49.4405 38.702 49.6309 38.5877 49.6817C38.7908 49.6563 38.9939 49.7261 39.1335 49.8721C38.9241 49.9863 38.3465 50.5639 38.7971 51.2493C39.1335 51.7698 39.8443 51.8142 39.8443 51.8142C39.8443 51.8142 39.6793 52.2838 40.3648 52.2394C41.8372 52.1696 43.4873 51.5286 44.2426 51.6872C45.0042 51.8776 45.4358 51.9475 45.9752 52.8804C46.5464 53.807 47.0415 53.9467 47.0415 53.9467C47.0415 53.9467 47.3778 53.0899 47.3017 51.8078C47.5809 51.116 47.7333 50.3862 47.7523 49.6436L47.2509 45.9562L45.0677 43.1954L42.237 44.763L42.0339 45.3215Z" fill="#E3C571"/>
<path fill-rule="evenodd" clip-rule="evenodd" d="M44.7186 44.7694C44.7186 44.7694 44.9281 45.2708 45.8166 45.3152C45.7214 45.5246 45.7214 45.5564 45.7468 45.7214C45.7658 45.8864 45.7976 46.1276 45.7976 46.1276C45.8928 46.0831 45.9816 46.0133 46.0578 45.9372C46.1085 46.1466 46.007 46.483 46.0578 46.7242C46.0895 46.8701 46.1339 47.0161 46.2037 47.1494C46.2164 47.1177 46.2355 47.0859 46.2545 47.0542C46.2736 47.0034 46.4449 47.5746 46.9209 48.0062C46.9209 47.9427 46.94 47.8729 46.9717 47.8158C46.978 47.9364 47.0161 48.0506 47.0859 48.1522C47.0478 48.1331 47.0161 48.1141 46.9907 48.0823C46.9907 48.0823 47.0415 49.6056 47.2954 50.3925C47.3398 50.3418 47.3779 50.2846 47.4096 50.2275C47.4096 50.1767 47.3906 50.6527 47.3398 50.9891C47.27 51.3255 47.3208 51.7951 47.3208 51.7951C47.4921 51.6555 47.6825 51.5476 47.8856 51.4588C48.1776 51.3445 48.6472 50.9891 48.9328 50.1958C49.0978 49.7515 49.2311 49.2882 49.32 48.8186C49.4152 48.9963 49.4786 49.193 49.5104 49.3898C49.5294 49.6309 49.98 49.504 49.98 49.504L50.0752 48.4568L50.6464 46.0768L51.1668 44.6044L53.6674 40.7075L58.1926 37.2232L62.1402 38.1308L65.4722 33.6056L59.7348 30.1594L54.3021 30.7306L49.3707 37.5532L45.4231 43.7412L44.7186 44.7694Z" fill="#D8B65B"/>
<path fill-rule="evenodd" clip-rule="evenodd" d="M73.158 34.8939C73.158 34.8939 72.8216 34.9637 71.8506 35.4651C70.8795 35.9665 70.2068 36.1315 69.826 36.8677C69.4452 37.604 69.4198 38.1942 69.4198 38.1942C69.4198 38.1942 70.0862 37.9086 70.467 37.807C70.8732 37.7118 71.3238 37.7372 71.273 37.9022C71.2286 38.0165 71.1651 38.118 71.0826 38.2069C71.0826 38.2069 71.8442 38.1878 71.8252 38.5623C71.8062 38.9368 71.6792 39.3493 71.5396 39.5333C71.3936 39.7237 70.797 40.003 70.7336 40.2251C70.5686 40.6757 70.8034 40.6948 70.7145 41.0629C70.6447 41.4183 70.3274 42.1101 69.2929 43.3286C68.2266 44.5409 67.7697 45.3977 67.7697 45.3977C67.7697 45.3977 67.2492 44.4266 66.9827 43.5889C66.7923 43.6841 65.7705 44.2553 65.7705 44.2553L63.4032 36.0046L63.4539 35.4524C63.4539 35.4524 63.6634 35.1922 63.7142 34.7099C63.3587 34.5956 63.308 34.5004 62.8383 34.0435C62.3687 33.5929 61.9815 33.0407 61.1945 32.6662C61.0803 32.4568 60.9343 32.1649 60.3568 32.0506C59.7792 31.9364 59.4302 31.8412 59.4302 31.8412C59.4302 31.8412 59.7348 31.7269 59.8808 31.4858C59.5254 31.5365 59.2334 31.6508 58.4591 31.6317C57.6721 31.6127 57.5833 31.581 57.1517 31.6508C56.7201 31.7206 56.1997 31.911 56.003 31.2446C55.7935 31.0796 55.3366 31.2256 54.9558 31.7904C54.5686 32.3553 54.4353 32.8122 53.6928 33.0344C53.642 33.358 53.5278 33.6754 53.3564 33.961C53.147 34.3164 52.8042 34.6718 52.3536 35.2049C51.6428 36.0427 51.757 37.4199 50.621 38.4671C49.4722 39.5143 50.8114 35.5603 50.8114 35.5603L52.6392 31.1811L57.8498 26.0848L65.9355 25.5389L66.7225 29.7277L70.6701 31.0859L73.158 34.8939Z" fill="#D3AE4D"/>
<path fill-rule="evenodd" clip-rule="evenodd" d="M74.44 35.8206L71.0382 30.921L68.6582 29.0931C68.6582 29.0931 66.9637 25.9769 66.8494 25.8754C66.7542 25.8056 65.1549 25.6342 64.133 25.5707L64.3234 26.0404C64.5456 26.1102 64.7423 26.2435 64.8946 26.4275C65.3453 26.948 65.6372 27.9317 64.6027 28.9789C65.0089 29.1249 65.1739 29.1693 65.5293 29.1249C65.1739 29.5501 64.3679 30.4513 64.3171 31.2447C64.2663 31.892 64.6725 32.0824 64.6725 32.0824C64.6725 32.0824 64.0569 32.7932 64.0251 33.9864C64.3171 33.6564 64.6344 33.3581 64.9771 33.0788C65.688 32.5076 66.6717 31.8666 67.3381 31.4604C67.3318 31.6318 67.3508 31.7968 67.4079 31.9618C67.4079 31.9618 68.6519 30.94 69.6927 31.3906C70.1624 31.6001 69.9529 32.2665 69.9529 32.2665C69.9529 32.2665 70.6003 32.0253 71.0509 32.4759C71.5015 32.9265 72.1489 34.0943 72.4726 34.5449C72.6185 34.7544 72.993 35.1606 73.3801 35.7889C73.9069 36.6647 74.3448 37.5913 74.6875 38.5497C74.7066 38.1625 74.7827 37.6231 75.4491 37.6231L74.44 35.8206Z" fill="#CAA13E"/>
<path fill-rule="evenodd" clip-rule="evenodd" d="M23.489 49.7388C23.489 49.7388 23.2479 49.1423 23.489 47.9745C23.7302 46.8067 24.1046 46.2609 24.2316 44.5473C24.3585 42.8337 25.4755 40.6948 25.4755 40.6948L28.5664 39.2922L30.7496 39.8888L31.397 42.8146L28.6362 44.3378C28.6362 44.3378 28.4902 44.9852 27.7096 45.4993C26.9289 46.0197 25.85 46.4259 25.5898 46.9527C25.4374 47.2763 25.3232 47.6191 25.2534 47.9745C25.2534 47.9745 24.4664 47.8095 23.9904 48.3299C23.489 48.8694 23.5081 49.339 23.489 49.7388Z" fill="#F4EFC8"/>
<path fill-rule="evenodd" clip-rule="evenodd" d="M29.7277 48.9582C29.7277 48.9582 29.4675 49.1232 29.2771 49.5294C29.0867 49.2247 28.6297 47.3905 28.6107 45.7468C28.5916 44.103 28.4901 43.6904 28.8709 43.1256C29.2517 42.5607 30.7432 41.9578 30.5337 40.936C30.3243 39.9649 29.4358 39.5587 28.3505 39.838C27.5889 40.0284 27.024 41.6468 26.2307 42.4592C25.6341 43.0748 24.9233 42.9796 24.7265 43.316C24.4663 43.7666 24.7075 44.2236 24.6313 44.5092C24.6123 44.6044 24.3711 45.1248 23.9395 45.7531C23.0637 47.0161 21.5786 48.7931 21.3882 50.3925C21.458 49.4849 21.4072 49.4659 21.6484 48.4695L21.5024 48.2283L22.4544 45.1057L23.0701 42.5353L24.4473 38.2323L26.8717 33.8341L29.2327 31.1938L31.6888 31.3589L31.9744 35.0463L33.3834 41.9705L36.3409 45.6071L31.6063 48.7931L29.7277 48.9582Z" fill="#EBCC73"/>
<path fill-rule="evenodd" clip-rule="evenodd" d="M31.2003 50.2656C31.2003 50.2656 30.7941 50.3608 30.6545 50.2846C30.5085 50.2085 30.3688 50.1196 30.4133 50.0244C30.4577 49.9292 30.7179 49.7642 30.7179 49.688C30.7306 49.5421 30.6227 49.4151 30.4767 49.4024C30.2546 49.3707 30.1911 49.5167 30.1911 49.5167C30.1911 49.5167 29.9817 49.3517 29.804 49.3263C29.9055 49.3136 30.0071 49.3072 30.115 49.3072C29.8484 49.1866 29.5692 49.1041 29.2772 49.0661C29.5184 48.9201 29.988 48.4949 30.299 48.4949C30.61 48.4949 30.8004 48.4441 30.7497 48.2854C30.6989 48.1268 30.464 47.8792 30.2038 47.784C30.299 47.6698 30.3688 47.4984 30.134 47.0224C29.8928 46.5528 29.988 46.2354 30.0642 46.1149C30.134 45.9689 30.3752 45.7087 30.4894 45.5437C30.6037 45.3786 30.6989 45.1565 30.8956 45.0423C30.9908 44.9725 31.3018 44.8519 31.6065 44.7376C31.9428 44.6234 32.2221 44.4774 32.4125 44.6234C32.6219 44.7694 32.5267 44.9598 32.5267 44.9598C32.5267 44.9598 33.1931 44.7186 33.7897 45.0296C34.3863 45.3152 35.8397 45.4992 35.8397 45.4992L36.3601 46.5464L32.9139 49.504L31.4922 50.2148L31.2003 50.2656Z" fill="#E5C66B"/>
<path fill-rule="evenodd" clip-rule="evenodd" d="M35.9856 45.4358C35.9856 45.4358 34.9193 46.1466 34.6782 46.4068C34.8241 46.4259 35.0653 46.5211 34.9638 46.6671C34.8495 46.813 34.1577 47.3144 33.7706 47.7841C33.3644 48.2537 32.9836 48.8503 32.844 49.1423C32.698 49.4025 31.6 50.1641 31.2256 50.2593C32.0126 50.2593 33.6056 49.2882 34.2022 49.2882C34.1831 49.5738 34.3672 49.9038 34.7036 49.9356C35.0399 49.961 36.011 50.145 37.3247 49.339C38.6321 48.552 38.2006 47.9618 38.7464 47.5746C39.7936 46.8828 40.2188 46.2672 40.7964 45.8801C41.3739 45.4929 41.6722 45.4104 41.6722 45.4104C41.6722 45.4104 41.6912 45.1248 41.8626 45.1502C41.9578 45.1629 42.0403 45.2264 42.072 45.3152C42.072 45.3152 43.0748 44.6044 44.3568 44.4076C44.3251 44.3949 44.3061 44.3696 44.287 44.3378C44.287 44.3378 44.3822 44.287 44.4013 44.2426C44.4013 44.2426 44.4711 44.1474 44.5155 44.1919C44.5599 44.2363 44.6297 44.598 44.7249 44.744C44.9344 44.6488 45.3406 43.7412 45.3406 43.7412L46.3116 40.9614V38.4227L45.55 38.5687L39.838 40.9931L36.3727 44.5853L35.9856 45.4358Z" fill="#E6BD62"/>
<path fill-rule="evenodd" clip-rule="evenodd" d="M52.4298 32.9709C52.7408 32.8948 53.0328 32.7742 53.3057 32.6155C53.1914 32.9265 53.1914 33.2629 52.69 33.9927C52.1887 34.7226 52.1696 34.8305 51.7634 35.5921C51.3572 36.3791 51.3128 37.5151 50.9257 38.0165C51.097 37.934 51.2811 37.8769 51.4715 37.8515C51.4715 37.8515 51.0843 38.1879 50.9257 38.5433C50.7606 38.8987 50.4751 39.6413 49.7642 40.0919C49.0534 40.5425 48.1458 40.8344 47.1748 41.9007C46.2037 42.9479 45.201 44.2807 44.6996 44.7567C44.9598 44.3061 45.3152 43.3985 45.4104 42.8019C45.5056 42.2053 45.3914 41.4945 45.5564 40.7012C45.7214 39.9142 45.7214 39.343 46.5084 37.9657C47.2954 36.5885 48.6472 31.8031 48.6472 31.8031L51.554 30.8765L52.4298 32.9709Z" fill="#B6933F"/>
<path fill-rule="evenodd" clip-rule="evenodd" d="M50.3355 31.2066C50.3355 31.2066 49.4596 32.4696 49.2185 33.5866C48.9773 34.7036 49.1994 34.6084 49.0535 35.1542C48.9646 35.4906 48.9646 35.8397 49.0535 36.176C49.3581 35.6873 49.7706 35.2748 50.2657 34.9829C51.0907 34.4815 51.7698 34.1261 52.1697 33.7008C52.5759 33.2502 52.9122 32.5077 53.7881 31.9365C53.4327 31.8857 52.9313 31.727 52.8361 31.7461C53.1915 31.3399 54.2577 30.7242 55.3367 29.9817C56.4029 29.2201 56.3394 28.9154 58.0721 28.1538C57.5009 28.249 57.2343 28.1031 56.7647 28.1538C56.9551 27.7477 57.6215 27.5573 58.2879 26.8909C58.9543 26.2245 57.8626 25.2471 57.8626 25.2471L52.7853 28.3189L50.3355 31.2066Z" fill="#C49937"/>
<path fill-rule="evenodd" clip-rule="evenodd" d="M36.5569 28.9154L36.6711 27.9888L38.1245 25.6596L39.6477 21.5723V15.9745L39.5335 12.7377L39.7683 10.6243L39.9524 9.95156L40.1491 9.69135L41.3867 10.3324L43.1003 12.6616L43.2653 17.1614L41.6025 24.2569L36.8425 29.4422L36.5569 28.9154Z" fill="#DFC068"/>
<path fill-rule="evenodd" clip-rule="evenodd" d="M40.3394 9.43108C40.3394 9.43108 39.5778 9.45013 39.4128 12.6171C39.2478 15.7841 39.1716 17.4533 39.0574 19.0209C38.9432 20.5885 38.6703 21.5405 38.537 22.4671C38.4037 23.3938 38.3275 24.6504 37.8896 25.4247C37.6992 25.7801 37.293 26.8971 36.341 27.7349C35.2748 28.6615 33.6754 29.3025 33.4343 29.3533C33.009 29.4485 30.8639 29.6643 29.988 30.1403C29.677 30.3053 29.1503 30.4957 28.56 31.0478C27.3922 32.095 25.8437 33.9736 24.7266 36.2394C23.013 39.6222 21.2994 49.1612 21.2994 49.1612L21.6866 48.5139C21.6866 48.5139 21.7374 47.6571 22.5942 46.1529C23.4319 44.6487 23.1907 42.9669 24.3585 40.0855C24.8091 38.9875 25.3803 37.5659 26.0721 36.3473C27.1701 34.3735 28.4966 32.6789 29.8357 31.7523C32.019 30.2481 34.4307 29.9245 34.4307 29.9245L37.0201 28.2109C37.0201 28.2109 37.4707 27.335 38.0673 26.3323C38.9051 24.9296 39.9713 23.3557 40.2062 21.0772C40.5616 17.7008 39.7048 15.4858 39.7555 13.4803C39.8063 11.4747 39.8254 10.0023 40.2252 9.64687C40.6314 9.29146 40.3394 9.43108 40.3394 9.43108Z" fill="#A88F33"/>
<path fill-rule="evenodd" clip-rule="evenodd" d="M40.3395 24.5426C40.3395 24.5426 41.4819 21.731 42.0023 19.2368C42.0975 18.7354 42.2879 18.234 42.3387 17.8342C42.5799 15.4732 42.6433 14.5022 42.3387 13.2138C42.0975 12.2618 41.1773 11.405 40.6949 10.7386C40.2253 10.0468 40.0031 9.78658 40.0983 9.6406C40.1935 9.49463 40.568 9.25346 40.9361 9.28519C41.7231 9.31058 42.4656 9.6533 42.9861 10.2372C43.7286 11.094 44.3125 14.0008 44.3125 14.0008L44.9281 17.8405L46.4958 22.6703L40.3395 24.5426Z" fill="#C99E3D"/>
<path fill-rule="evenodd" clip-rule="evenodd" d="M51.0717 21.6167C51.0717 21.6167 50.8623 21.7119 50.4751 21.6167C50.5068 21.9341 50.3609 22.2514 50.088 22.4228C49.6818 22.2577 45.8992 22.5878 45.8992 22.5878C45.8992 22.5878 44.1348 22.2768 43.589 19.9476C43.2018 18.399 43.8746 16.2601 43.6588 14.8512C43.3224 12.7822 42.8528 12.376 42.802 11.735C42.7512 11.094 42.7068 10.9289 42.7068 10.5228C42.4974 10.472 42.3704 10.4085 42.161 10.4085C42.1102 10.2181 42.2118 10.0531 41.996 9.71674C42.1102 9.76751 42.9035 9.86271 43.8238 10.7385C44.5854 11.4494 44.5854 11.7096 44.6996 11.8556C44.8456 12.0015 46.0071 12.998 46.5084 13.9944C47.0098 14.9908 47.9809 18.1641 48.203 18.6846C48.2728 18.894 48.4125 19.1098 48.7742 19.5921C49.3327 20.2776 50.1514 21.4263 51.0717 21.6167Z" fill="#B58634"/>
<path fill-rule="evenodd" clip-rule="evenodd" d="M44.8328 11.9C45.4167 12.8393 45.9371 13.8167 46.4004 14.8258C46.9652 16.1079 47.308 17.1551 48.0188 18.0119C47.6316 16.8949 46.9526 14.6989 46.5464 13.9183C46.0958 13.0995 45.1755 12.211 44.8328 11.9Z" fill="#A88F33"/>
<path fill-rule="evenodd" clip-rule="evenodd" d="M38.2894 27.7286C38.2894 27.7286 37.3184 27.9698 35.5096 28.9218C34.913 29.2328 34.3481 29.4867 33.796 29.7278C32.368 30.3752 30.8384 30.9718 29.6262 31.2955C29.7214 31.4097 29.7722 31.4605 29.7722 31.4605C29.7722 31.4605 29.7722 31.9301 30.0324 32.203C29.8864 32.349 27.9634 33.6564 28.5282 38.0356C28.9154 37.8897 29.366 37.6993 29.4358 37.6993C29.5501 37.7183 29.5818 38.0356 29.7214 38.0356C29.861 38.0356 30.337 37.8452 30.8384 37.1979C30.8194 37.4581 30.5338 40.0792 32.0824 41.8373C32.368 41.5009 33.1042 40.3839 33.1042 40.3839L33.1232 40.0285C33.1232 40.0285 33.193 38.7845 33.5929 37.6485C33.9927 36.5124 34.7861 35.6747 34.7861 35.6747L38.9051 29.7913L38.2894 27.7286Z" fill="#E6C367"/>
<path fill-rule="evenodd" clip-rule="evenodd" d="M34.4371 36.3664C34.2467 36.4997 34.0436 36.6012 33.8214 36.671C33.7516 36.4298 33.6564 35.6048 34.2276 34.7924C34.894 33.8214 36.3474 32.5584 36.7473 31.5556C37.0075 30.9082 36.8932 29.2898 39.2034 27.2208C41.5136 25.1518 42.4212 24.441 42.4212 24.441L46.153 22.5687L50.748 24.3775L48.4695 33.32L46.6988 37.5088L39.654 36.1823L34.4371 36.3664Z" fill="#DCBA5A"/>
<path fill-rule="evenodd" clip-rule="evenodd" d="M37.1281 33.942L38.0039 32.844V32.0634C38.0039 32.0634 38.9749 31.8032 40.0221 30.7369C41.0693 29.6707 42.5227 27.6207 43.8047 27.7413C45.0868 27.8873 45.2137 30.5211 45.2581 31.2637C45.3089 32.0063 45.4676 33.6881 45.7278 34.5957C46.0197 35.5033 42.6052 38.9305 42.6052 38.9305L40.2887 40.6948L37.1281 33.942Z" fill="#E9CE77"/>
<path fill-rule="evenodd" clip-rule="evenodd" d="M39.838 43.0749C39.838 43.0749 40.5488 41.9579 40.0284 41.7167C40.3331 41.0249 40.9043 40.2887 40.9043 40.2887C40.9043 40.2887 41.3104 39.2859 42.6179 38.0547C43.9253 36.8234 44.7376 36.0047 44.9471 35.1733C45.0804 34.6338 45.1502 34.0816 45.1565 33.5295C45.2961 33.6437 45.4485 33.7453 45.6071 33.8341C45.8166 33.9293 46.8193 34.7607 46.6734 36.4236C46.5274 38.0927 45.9118 38.7845 45.9118 38.7845C45.9118 38.7845 45.3152 39.3811 44.89 39.6921C44.4393 39.9967 44.2743 40.3585 43.5127 40.3839C43.5889 40.3204 43.6777 40.2696 43.7729 40.2379C43.7729 40.2379 42.986 40.1427 42.5607 40.5235C42.1355 40.9107 41.2343 42.0911 40.7837 42.4529C40.3394 42.7512 39.838 43.0812 39.838 43.0749Z" fill="#CDAE50"/>
<path fill-rule="evenodd" clip-rule="evenodd" d="M71.8506 24.3521C70.7146 23.9396 69.5151 23.7048 68.3092 23.6604C66.2846 23.5905 63.3334 23.7111 60.433 23.7302C57.3104 23.7492 54.4798 22.6639 50.5576 22.4672C49.9102 22.08 48.2728 20.3982 43.151 23.9713C43.4556 23.9523 46.8702 23.1844 48.0506 24.6631C49.2438 26.1356 48.9074 28.6361 48.7424 29.2327C48.4314 30.5592 47.435 32.4949 47.0288 33.8531C46.6226 35.2113 46.7178 35.9221 46.4322 36.8741C46.1403 37.8261 45.5056 38.3021 45.8801 39.3937C46.3815 39.0891 46.6417 39.0891 47.4794 37.2105C48.3172 35.3319 48.1458 33.9927 49.5294 32.4061C50.8876 30.8067 53.147 28.6234 54.0038 28.0713C54.8606 27.5255 61.6896 23.9777 68.8296 27.3605C70.5623 27.1827 71.8506 24.3521 71.8506 24.3521Z" fill="#D2A83E"/>
<path fill-rule="evenodd" clip-rule="evenodd" d="M46.026 23.0384C46.0197 22.9686 46.0006 22.8925 45.9753 22.829C45.9054 22.6894 45.8229 22.5561 45.715 22.4419C45.715 22.4419 44.0205 22.1372 43.1637 22.2324C41.6595 22.3974 40.3013 24.257 39.6667 25.209C39.032 26.161 38.2387 27.6334 37.3819 28.395C37.3882 28.3189 37.3755 28.2427 37.3311 28.1856C37.3311 28.1856 37.3819 28.2554 37.2803 28.3506C37.1851 28.4458 37.1851 28.4966 37.2296 28.541L37.3755 28.687C37.4263 28.687 38.7528 28.0904 40.5616 26.4022C42.4846 24.6378 43.957 23.7366 44.7313 23.4256C45.1629 23.2479 45.5881 23.121 46.026 23.0384Z" fill="#C29637"/>
<path fill-rule="evenodd" clip-rule="evenodd" d="M78.9017 15.8032C78.9017 15.8032 78.5907 16.1903 78.2099 16.6092C77.3531 17.5168 76.2361 18.5322 75.2841 19.5858C74.3765 20.5885 73.3611 21.3692 72.2123 22.6766C71.0636 23.984 69.7371 25.4374 69.4007 25.8626C69.0961 26.2879 68.8549 26.9796 68.8549 27.3351C68.6899 27.2208 68.4995 27.0939 68.4995 27.0939C68.582 27.2462 68.6772 27.3858 68.7915 27.5191C69.0326 27.8555 69.4071 28.2807 69.5975 28.5409C69.8323 28.8709 70.0037 29.2454 70.0989 29.6389C70.2131 29.6579 70.9557 29.8039 71.8823 28.2807C72.8089 26.7575 74.0211 25.0947 74.0211 25.0947L75.9442 22.2323L77.1564 19.8079L78.6796 17.0915L78.9017 15.8032Z" fill="#AC8132"/>
<path fill-rule="evenodd" clip-rule="evenodd" d="M80.8756 13.8547C80.8756 13.8547 79.7078 14.8067 79.2572 15.3779C78.8066 15.9491 77.734 17.4469 77.734 17.4469L78.1212 17.3962L80.0759 15.6635L80.8375 14.3053L80.8756 13.8547Z" fill="#A88F33"/>
<path fill-rule="evenodd" clip-rule="evenodd" d="M80.5138 90.3702C80.5138 90.3702 80.4947 89.5832 80.939 89.1072C81.3896 88.6376 82.5384 87.9394 83.6554 85.3436C84.7724 82.7478 84.8993 82.1576 84.8993 82.1576C84.8993 82.1576 82.8938 83.8712 81.6625 84.2774C81.9545 83.6808 82.1132 83.2556 82.2591 82.9509C82.0941 82.805 81.4023 82.6463 81.3325 82.5638C81.7197 82.1767 81.9291 81.2373 82.7097 80.609C83.7125 79.8474 85.5403 78.54 86.962 77.3722C88.3837 76.2044 91.1762 73.4944 91.5379 72.7011C91.7474 73.0057 91.7982 73.2025 91.7982 73.2025C91.7982 73.2025 90.3955 75.0303 89.6593 76.1981C89.012 77.2009 89.0627 77.7657 89.0627 77.7657L90.3892 77.1945C90.3892 77.1945 90.7763 78.6162 89.031 80.7867C89.7926 80.4948 90.0973 80.6725 90.5352 80.4313C89.8244 80.8819 88.8406 81.4976 87.914 83.1921C87.0064 84.8867 85.7752 86.8605 83.6998 88.0917C81.6752 89.3928 80.5138 90.3639 80.5138 90.3702Z" fill="#A67A2E"/>
<path fill-rule="evenodd" clip-rule="evenodd" d="M75.2968 25.3549C75.2968 25.3549 74.5099 26.9987 74.3893 28.2807C74.3702 28.5917 74.2941 28.8265 74.2941 29.1883C74.275 30.3307 74.3639 31.6127 74.1037 32.2093C74.0085 31.9681 73.9577 31.8031 73.8625 31.7079C73.7165 32.1141 73.4563 33.3708 73.2469 33.8468C73.1517 33.5421 72.9422 32.4695 72.9613 31.2065C72.9803 29.9436 73.012 29.7024 73.012 29.4422C72.9613 29.8293 72.7074 30.3497 72.6059 30.6544C72.4599 30.3942 72.3012 30.0578 72.1045 29.7785C71.9902 29.9689 71.8443 30.2482 71.7173 30.3942C71.6983 30.2799 71.6475 29.9689 71.6221 29.5374C71.6031 29.036 71.5714 28.395 71.6031 28.2553C71.6539 27.9951 72.0537 26.9733 72.9105 26.0404C73.9323 24.9233 74.9795 22.7782 75.2905 22.1118C75.6015 21.4454 76.9089 18.6846 76.9089 18.6846H77.9117L76.4583 21.9975C76.4583 21.9975 75.5824 23.8063 75.1318 24.4727C74.6812 25.1391 73.7229 27.0431 73.304 27.7857C73.6086 27.3795 73.8688 27.1701 74.1798 26.7829C74.4718 26.5164 75.2968 25.3549 75.2968 25.3549Z" fill="#8C6228"/>
<path fill-rule="evenodd" clip-rule="evenodd" d="M80.8946 13.7342C80.7296 14.2356 80.4694 14.7052 80.133 15.1114C79.5364 15.8222 78.2544 16.7742 77.6324 17.5358C77.0612 18.2784 75.9188 20.2966 76.4392 22.6957C76.6296 22.1753 76.9914 21.1471 77.9434 19.9793C78.8954 18.8115 79.9172 17.4787 80.4186 16.4379C80.92 15.3907 80.9834 14.5593 80.9834 14.5593L81.1738 14.3181L81.0596 13.7723L80.8946 13.7342Z" fill="#CBA94C"/>
<path fill-rule="evenodd" clip-rule="evenodd" d="M100.385 77.5944C100.385 77.5944 99.9982 76.5472 99.884 75.5888C99.7697 74.6305 100.074 74.4464 99.7189 73.3548C99.5095 72.6884 99.1224 72.7836 99.0272 72.6884C98.932 72.5932 98.8621 71.5904 98.8812 71.0446C98.9002 70.4988 98.8621 69.7816 98.7669 69.477C98.621 69.3627 98.5258 69.2675 98.3163 68.5504C98.0751 67.8395 97.9609 67.4841 97.8467 67.2683C97.7324 67.0526 97.3961 66.8622 97.3961 66.6527C97.3961 66.2275 97.7832 66.0054 97.7832 65.8911C97.7642 65.6499 97.4722 65.8403 97.3961 65.7769C97.3009 65.6626 97.6372 64.9708 97.5103 64.8693C97.4595 64.8185 97.1232 65.2247 97.0406 65.1105C96.9454 64.9962 96.8312 63.8475 96.6535 63.0859C96.4885 62.3433 96.3171 61.8039 96.2981 61.5817C96.2791 61.3723 94.9716 57.6341 94.6543 56.7265C94.4004 55.9649 94.1846 55.1843 94.0069 54.3973C93.9117 53.9467 93.8419 53.0201 93.7975 53.1153C93.7531 53.2105 93.7785 53.6801 93.7023 53.6674C93.6325 53.6484 93.3977 52.0046 93.3152 51.7444C93.2453 51.4842 92.8455 50.602 92.744 49.961C92.6488 49.3136 92.4393 47.6318 92.2933 46.483C92.1474 45.3343 92.0839 44.8646 92.0839 44.579C92.1093 43.8745 92.0712 43.1764 91.9697 42.4783C91.7793 41.2661 91.3985 39.7936 91.0621 38.9368C90.4147 37.3184 88.7011 33.1804 88.3965 32.1459C88.3965 31.8857 88.7329 32.0317 88.7329 32.0317C88.7329 32.0317 89.5706 34.1324 90.1862 35.7445C90.7828 37.3629 91.354 38.7845 91.4937 38.9305C91.6079 39.0765 92.5155 40.6631 92.9153 43.2653C93.3152 45.8674 93.4611 48.2601 93.7023 49.8594C93.8165 50.621 93.9117 51.4271 94.1529 52.2394C94.4131 53.1153 94.8193 54.0229 95.3461 55.4064C95.7967 56.5742 96.1331 57.5453 96.3171 58.383C96.5266 59.4493 96.5266 60.2616 96.6535 60.7884C96.7677 61.239 96.9455 62.1466 97.3453 63.454C97.7515 64.7614 98.3481 66.4496 98.7479 67.4968C99.5349 69.5976 99.8903 71.3493 100.011 72.2822C100.125 73.2596 100.481 76.5916 100.385 77.5944Z" fill="#A88F33"/>
<path fill-rule="evenodd" clip-rule="evenodd" d="M80.9391 13.6136L80.8883 13.7279C80.8883 13.7279 81.0343 13.7786 81.0025 13.969C81.0025 14.2356 80.9899 14.4958 80.9518 14.756C80.901 15.0924 80.8058 15.3526 80.7868 15.5621C80.7868 16.0127 80.8566 16.5331 80.2156 17.8215C80.0252 18.1769 79.9109 18.4879 79.8094 18.6973C79.5682 19.2177 79.5174 19.2939 79.308 19.5351C79.6444 19.3447 80.8566 18.5831 81.4722 18.6973C81.047 18.9385 80.406 19.4081 79.9998 20.0238C80.095 20.0428 80.5012 20.119 81.1422 20.0238C82.2084 19.8587 83.4079 19.478 84.4551 19.5541C85.6039 19.6239 85.1469 18.1769 85.1469 18.1769L83.8268 15.2701L81.3262 13.5057L80.9391 13.6136Z" fill="#BE9C44"/>
<path fill-rule="evenodd" clip-rule="evenodd" d="M87.4698 35.3953C87.4698 35.3953 86.3528 34.2783 85.9022 30.4449C85.4516 26.5925 85.5468 20.9249 85.5468 20.9249L84.6392 18.71C84.6392 18.71 84.4488 17.2375 83.9728 16.6854C83.4968 16.1332 82.5702 15.2129 82.145 14.7623C81.7197 14.3117 81.2374 13.6961 80.9518 13.5945C81.0978 13.3534 81.7388 11.9952 84.214 11.9761C86.6892 11.9571 87.4508 13.3343 87.711 13.8357C87.9712 14.3371 89.1326 16.5013 89.5706 20.6267C89.9767 24.7456 89.9958 25.0566 89.926 26.4783C89.8752 27.2653 89.615 29.0995 89.1644 31.0542C88.7455 32.7107 88.2949 34.5639 87.4698 35.3953Z" fill="#A17C34"/>
<path fill-rule="evenodd" clip-rule="evenodd" d="M83.9664 38.6766C84.3408 38.702 84.709 38.6195 85.0326 38.4354C85.388 38.4164 86.6764 38.5814 87.6728 37.3184C87.7427 37.604 87.914 38.3847 87.4634 39.0828C87.7046 38.8416 88.06 38.7464 88.1108 38.6766C88.1298 39.032 88.4662 40.13 87.0445 42.7956C87.4317 42.3704 87.8823 42.3894 88.2885 42.345C88.3075 42.8464 88.5804 44.5282 87.8632 45.4358C87.3936 46.0514 86.6193 45.861 86.6193 45.861C86.632 45.7278 86.632 45.5881 86.6193 45.4548C86.6003 45.1946 86.5051 44.9344 86.5685 44.7631C86.1941 44.5917 85.8577 44.3569 85.5658 44.0713C84.728 43.2843 83.6427 41.9324 83.5602 40.9297C83.465 39.8127 84.4678 39.5715 84.4678 39.5715C84.3853 39.4953 84.3155 39.4065 84.2583 39.3113C84.2076 39.1526 84.1568 38.8924 83.9664 38.6766Z" fill="#8C6228"/>
<path fill-rule="evenodd" clip-rule="evenodd" d="M76.5407 26.5671C76.5407 26.5671 76.49 26.4973 76.2361 26.8083C76.2869 26.4973 76.3313 26.2117 76.3503 25.9325C76.4709 25.6723 76.6296 25.4311 76.82 25.2216C76.674 25.5072 76.5788 25.7675 76.5788 25.7675C76.5788 25.7675 76.9342 25.1011 77.4546 24.7012C77.8101 24.4156 78.2607 24.276 78.4574 24.0094C78.6669 23.7238 78.6224 23.6731 78.6669 23.6223C78.6669 23.6223 79.1365 23.3176 79.86 22.4101C79.9552 22.2958 80.1012 22.1689 80.1964 22.0547C80.3614 21.9848 80.7422 21.8135 81.1992 21.585C81.6688 21.3248 82.2019 20.9694 82.5256 20.8234C83.173 20.5378 83.8521 20.5632 84.1694 20.1126C84.4106 20.0428 84.6708 19.3256 84.62 18.71C84.9754 18.8559 86.8033 19.992 87.4316 22.4735C87.8822 24.2379 87.0762 26.9479 86.7398 28.2617C86.4034 29.5691 86.3527 30.5465 85.883 31.1367C85.2864 31.9301 83.3634 33.0407 82.8874 33.5929C82.4812 34.0435 81.269 35.1923 81.3198 36.0173C81.3705 36.6329 82.1258 36.9693 82.2908 37.0836C82.4558 37.1978 82.4558 37.3438 82.7605 37.274C83.0651 37.2041 83.1857 37.0645 83.3126 37.0645C83.4586 37.0836 83.4586 37.1153 83.5221 37.1153C83.5728 37.1153 83.6173 37.1089 83.668 37.0963C83.668 37.0963 83.6173 37.9721 81.5673 38.2387C81.4213 38.2577 81.2753 38.3085 81.0976 38.3339C81.3388 38.2196 81.4848 38.2196 81.745 37.8642C81.453 37.8134 80.628 37.769 80.4185 37.6992C80.4884 37.5849 80.7105 37.274 80.8882 37.128C81.0532 36.982 80.8691 36.9376 80.7232 37.0137C80.4757 37.1851 80.2345 37.3628 80.0124 37.5596C79.7712 37.769 79.5617 38.0609 79.1746 38.3212C79.0604 37.934 79.0794 37.2041 79.53 36.6774C79.4158 36.6964 79.1936 37.0328 78.9778 36.963C78.9398 36.6139 78.9652 36.2585 79.0477 35.9158C79.1619 35.4842 79.7902 34.7226 79.7902 34.7226L82.8112 29.3216L83.4586 25.228L76.5407 26.5671Z" fill="#92723A"/>
<path fill-rule="evenodd" clip-rule="evenodd" d="M76.3758 26.7956C76.3758 26.7956 76.2108 26.9099 76.5408 27.132C76.4901 27.2018 76.3758 27.4367 76.2299 27.6017C76.0648 27.7921 75.8935 27.9127 75.8237 28.0713C75.6777 28.4077 75.5635 28.6425 75.5635 28.7822C75.5635 28.9281 75.5127 29.8484 75.1128 30.445C74.9669 30.6544 74.8019 31.0162 74.6876 31.251C74.4464 31.6762 74.237 32.0126 74.1862 32.203C74.091 32.5394 74.0212 33.466 74.0212 33.466C74.0212 33.466 74.2307 33.2058 74.3132 33.1106C74.1989 33.3518 74.072 33.612 73.8879 33.8024C74.0022 33.7072 74.3386 33.466 74.9098 32.9646C75.6967 32.2982 76.9343 31.1812 78.4322 30.299C77.9815 30.464 77.5944 30.464 77.2834 30.5084C77.5246 30.2673 79.6888 27.7286 80.8248 27.4874C80.8947 27.3986 80.9264 27.2907 80.92 27.1764L79.949 27.0812L77.9752 27.5065L77.6896 25.9833L76.3758 26.7956Z" fill="#B18E3E"/>
<path fill-rule="evenodd" clip-rule="evenodd" d="M79.5174 35.4652C79.5174 35.4652 79.2572 35.7254 79.016 36.3728C78.832 36.1824 78.6733 35.9602 78.5464 35.7254C78.191 35.1288 77.6388 34.3672 76.3631 34.7988C76.3441 34.3926 76.3123 34.1832 76.3631 33.8912C76.5725 33.8404 77.2199 33.3264 77.8673 32.5648C78.3179 32.0443 78.7431 31.4478 79.0351 30.6862C79.2255 30.5402 79.5555 30.299 79.9871 30.0198C80.6027 29.5945 81.3452 29.017 81.4595 28.376C81.1675 28.4902 80.5519 28.7822 79.6316 28.7314C79.9871 28.5664 80.5392 28.395 80.4694 27.6842C80.6154 27.589 80.7296 27.5192 80.7296 27.5192C80.6217 27.4811 80.5075 27.4684 80.3932 27.4684C80.3742 27.3986 80.3425 27.3034 80.1838 27.3542C80.0251 27.4049 79.9934 27.4049 79.9744 27.4684C79.9046 27.4874 79.6824 27.4684 79.5238 27.5826C79.3587 27.6969 78.9081 28.084 78.7368 28.1475C78.8066 28.0332 78.9018 27.8619 78.9018 27.8619C78.9018 27.8619 78.4321 27.9127 78.0958 28.0523C77.4801 28.2617 76.7693 28.6489 76.0458 29.0233C76.1156 28.9091 76.141 28.8329 76.1918 28.8139C76.2425 28.7948 76.3568 28.7631 76.3568 28.7441C76.3568 28.725 76.306 28.5537 76.3377 28.4839C76.5535 28.0269 76.8074 27.589 77.0993 27.1764C77.4357 26.7258 77.5055 26.0785 77.5055 26.0785L78.9779 25.3359L83.116 24.3839L85.8006 24.5489L85.4642 26.4085L83.8776 29.6516L82.5194 32.6092L80.9708 34.418L79.5174 35.4652Z" fill="#543E26"/>
<path fill-rule="evenodd" clip-rule="evenodd" d="M86.2259 27.4176C86.2259 27.4176 84.6075 29.4168 84.1569 29.7278C84.4488 29.1121 86.2259 25.4438 86.8732 24.4219C86.7273 24.3077 86.5369 24.3077 86.9875 22.5179C86.6003 23.4255 86.467 23.8952 86.1497 24.1363C85.8324 24.3775 85.7943 24.3014 85.5785 24.3014C85.6166 24.2252 85.6356 24.1427 85.6293 24.0602C85.6293 24.0602 84.2711 23.8952 83.3445 23.8952C82.4179 23.8952 80.5837 24.3966 79.5619 24.8027C78.7558 25.1391 78.2989 25.1391 78.0133 25.3486C77.7213 25.5897 77.5627 25.8499 77.4167 25.9198C77.3025 25.9896 76.7503 26.1609 76.6297 26.345C76.5155 26.5354 76.3251 26.7512 76.3251 26.7956C76.3251 26.84 76.2743 26.9098 76.4203 26.8654C76.471 26.8464 76.8265 26.656 77.2263 26.4148C77.7721 26.1102 78.4385 25.7484 78.9209 25.539C80.2981 24.9931 80.7297 25.0883 81.3453 24.9678C81.9926 24.8535 82.9129 24.5806 83.5285 24.5806C84.1442 24.5616 85.3119 24.5806 85.5785 24.6314C85.4643 24.7266 85.3691 24.8408 85.4135 25.247C85.4135 25.3613 85.3183 25.4882 85.2231 25.7674C84.9375 26.5544 84.3853 27.8682 84.0807 28.5282C83.6555 29.4358 83.1731 30.1911 82.9383 30.6671C82.6971 31.1367 82.1767 32.3807 81.6563 33.0471C81.1358 33.7135 80.8693 34.1133 80.7043 34.2593C80.5393 34.4052 79.3778 35.262 79.4603 35.5667C79.6698 35.4969 81.0089 34.9955 81.98 33.9039C82.951 32.8122 83.1477 32.1395 83.903 31.5429C84.6582 30.9463 85.2612 29.9435 85.6166 29.1185C85.9212 28.3442 85.8514 28.103 86.2259 27.4176Z" fill="#806031"/>
<path fill-rule="evenodd" clip-rule="evenodd" d="M51.3636 42.364C51.3636 42.364 51.1541 43.2399 50.6718 43.6714C50.2021 44.0967 49.3644 44.4584 49.2692 45.1756C49.1549 45.8864 50.1069 46.2418 50.1069 46.2418C50.1069 46.2418 49.5865 47.0986 49.5865 47.746C49.5865 48.4124 49.5675 48.533 49.6373 49.174C49.5611 49.2248 49.4976 49.2882 49.4469 49.3644C49.4469 49.3644 49.4976 49.98 49.9673 50.3672C50.4369 50.7543 50.8431 50.9828 51.0843 50.8876C51.1224 50.9637 51.1541 51.0463 51.1795 51.1288C51.1795 51.1288 51.5349 50.2212 51.7761 49.4342C52.0173 48.6282 52.2267 48.7424 52.3219 47.6508C52.4171 46.5592 53.4643 44.6932 53.4643 44.6932L54.1815 43.1002L53.02 42.1927L51.3636 42.364Z" fill="#B6903C"/>
<path fill-rule="evenodd" clip-rule="evenodd" d="M53.5278 43.9317C53.2866 44.1792 53.0645 44.4394 52.8677 44.7187C52.5631 45.1439 52.3219 45.5247 51.865 45.6897C51.408 45.8547 51.1224 45.8547 51.1541 46.3053C51.1795 46.7559 51.6047 46.9527 51.8459 47.1812C52.1061 47.4223 52.3156 47.8285 52.2013 48.2791C52.3473 48.2093 52.6075 48.1332 52.8487 47.6127C53.0899 47.0923 54.7717 43.9253 54.7717 43.9253L53.5278 43.9317Z" fill="#685026"/>
<path fill-rule="evenodd" clip-rule="evenodd" d="M60.1665 36.6266C60.1665 36.6266 60.3125 36.2395 60.1665 35.9602C60.0205 35.6746 59.1447 35.5731 58.7131 35.2494C58.2625 34.913 57.7103 34.6782 57.2597 34.8242C57.3295 34.6591 57.5961 34.3037 57.374 34.2276C57.1645 34.1578 56.3712 34.5132 56.1617 34.6782C55.9523 34.8432 55.47 35.0336 55.3748 35.1478C55.2796 35.2621 55.1145 35.4842 55.0193 35.389C54.9241 35.3192 54.8734 35.1478 54.7147 35.243C54.556 35.3382 53.7627 35.9856 53.6167 36.36C53.4708 36.7345 53.1471 37.5723 52.1633 38.5243C51.1796 39.4763 50.7544 40.0919 51.0463 40.4473C51.3383 40.8027 51.4716 40.5425 51.516 40.8535C51.5541 41.1581 51.535 41.4628 51.4652 41.7611C51.351 42.2625 51.1606 42.7321 51.4144 42.8273C52.0808 43.0367 52.7219 42.6369 52.8678 42.7575C53.1534 43.0177 52.7028 43.9507 53.3883 44.1347C54.08 44.3251 54.7655 43.9697 54.7655 43.9697L57.2851 42.6115L59.7095 41.3295L60.9535 38.8733L60.2871 36.8234L60.1665 36.6266Z" fill="#D4B968"/>
<path fill-rule="evenodd" clip-rule="evenodd" d="M57.7863 42.4909C57.7863 42.4909 57.3611 41.8436 57.8815 41.2787C58.402 40.7075 59.1445 40.4727 59.4301 40.1173C59.373 40.0475 59.3032 39.9967 59.2207 39.9713C59.4111 39.6286 59.703 39.3493 60.0584 39.178C59.9125 39.032 59.7221 38.9178 59.5126 38.9178C59.043 38.9178 58.751 39.2034 58.3194 39.2034C57.8942 39.2034 57.8498 38.9939 57.8498 38.9939C57.8498 38.9939 58.5606 38.9241 58.4972 38.6068C58.4273 38.2704 58.3068 38.2704 58.3068 38.2704C58.3068 38.2704 59.684 37.6992 59.9252 37.3946C60.1663 37.0899 60.1346 36.7282 60.1854 36.5885C60.3504 36.5885 61.3024 36.0871 61.6895 36.3029C62.0767 36.5187 61.8038 37.0899 61.8038 37.0899C61.8038 37.0899 62.9716 36.2141 63.5618 35.3573C64.0822 35.408 64.3234 35.0019 64.7042 35.0019C65.1739 35.0019 65.9164 35.6492 66.0624 37.0201C66.1576 37.8071 66.3036 38.264 66.1576 39.6603C66.0878 40.4473 66.1068 42.1355 66.348 42.9733C66.513 43.6397 66.8938 43.5699 66.8938 43.5699C66.8367 43.773 66.7161 43.9507 66.5574 44.0903C66.2972 44.3315 66.2655 44.9661 66.2972 45.2073C66.3353 45.385 66.3861 45.5564 66.4432 45.7277C66.4432 45.7277 66.1385 46.0831 66.056 46.3243C65.9862 46.5655 65.6689 46.7305 65.4404 46.7305C65.2119 46.7305 65.3262 46.7115 65.0152 46.7305C64.7042 46.7495 64.609 46.8003 64.4186 46.7305C64.2282 46.6607 64.0822 46.5845 64.1584 45.9689C64.2282 45.3533 61.7784 43.9189 61.7784 43.9189L57.78 42.4909H57.7863Z" fill="#CCA849"/>
<path fill-rule="evenodd" clip-rule="evenodd" d="M53.1914 48.5774C53.1914 48.5774 54.0672 49.7451 57.6658 49.7451C59.3794 49.7451 59.976 49.5801 60.3314 49.4849C60.7186 49.3897 62.1592 48.8185 63.6126 47.1049C64.92 45.5563 64.6344 44.9217 64.6344 44.9217L63.8728 44.8074L61.3976 45.1438L54.0736 48.2664L53.1914 48.5774Z" fill="#585136"/>
<path fill-rule="evenodd" clip-rule="evenodd" d="M55.876 48.863C55.876 48.863 52.7534 49.5547 52.7534 47.5809C52.7534 45.6579 54.6765 43.6333 55.1588 43.2779C55.6602 42.9225 56.8534 42.5163 56.8534 42.5163H59.7348L60.2806 43.9697L60.0394 47.1113L55.876 48.863Z" fill="#252211"/>
<path fill-rule="evenodd" clip-rule="evenodd" d="M58.7575 43.1066C58.7575 43.1066 58.1609 42.5544 56.8027 43.297C55.4445 44.0395 54.3465 45.5818 54.2767 46.9844C54.2069 48.2283 55.2985 49.1486 56.9931 49.1994C58.2561 49.2501 59.0177 49.1042 59.3985 49.009C59.3033 48.8947 58.8019 48.2664 58.8019 48.2664L58.7575 43.1066Z" fill="#C3B378"/>
<path fill-rule="evenodd" clip-rule="evenodd" d="M58.1672 43.4112C58.1672 43.4112 58.0212 43.297 57.596 43.5255C57.2406 43.7159 56.7202 44.2172 56.314 44.5727C56.0538 44.7821 55.8888 44.8773 55.7428 45.0423C55.1462 45.7531 54.6448 46.9209 54.9368 47.4985C55.2287 48.076 56.1807 48.7424 58.6051 48.2855L58.1609 43.4049L58.1672 43.4112Z" fill="#E6D89C"/>
<path fill-rule="evenodd" clip-rule="evenodd" d="M57.3801 44.6107C57.3801 44.6107 56.993 45.2073 56.993 46.1593C56.993 47.1303 57.5452 48.6789 59.5634 48.7995C61.112 48.8947 62.1528 46.5655 63.2825 45.6579C64.1393 44.9661 64.6598 44.9471 64.6598 44.9471C64.6598 44.9471 63.7839 43.9951 61.442 42.7638C59.1318 41.5199 56.5424 41.3549 55.1334 43.2652C55.7998 43.2144 57.945 42.6686 57.945 42.6686L58.9922 43.005L57.3801 44.6107Z" fill="#252211"/>
<path fill-rule="evenodd" clip-rule="evenodd" d="M60.4013 45.8674C60.3314 45.7214 60.287 45.531 60.5663 45.4802C60.8455 45.4295 60.9725 45.4612 61.0677 45.6706C61.1629 45.8801 61.2581 46.0578 61.1184 46.1403C60.9725 46.2228 60.598 46.1466 60.4013 45.8674ZM59.9507 44.5092C59.9507 44.5092 59.8554 44.579 59.8999 44.4394C59.9189 44.2744 60.0458 43.9888 60.3505 44.0522C60.6551 44.1157 60.5917 44.4584 60.5409 44.5536C60.4901 44.6488 60.2363 44.8138 60.0395 44.744C59.9507 44.725 59.8999 44.6361 59.9253 44.5473C59.9316 44.5409 59.938 44.5219 59.9507 44.5092Z" fill="#6F674D"/>
<path fill-rule="evenodd" clip-rule="evenodd" d="M33.8912 45.1248C33.8912 45.1248 34.6528 45.696 35.535 45.6769C36.4109 45.6579 37.5406 44.7503 38.0546 44.1728C38.3593 43.8364 38.6258 43.481 38.9114 43.2017C39.1526 42.9605 39.3176 42.8463 39.4319 42.6813C39.5969 42.4909 39.7682 42.1355 39.8571 42.0149C39.6477 42.1799 39.3367 42.4655 39.0193 42.6622C38.7147 42.8526 38.0483 43.2081 37.7754 43.3096C37.5152 43.4048 34.8178 44.8328 34.8178 44.8328L33.8912 45.1248Z" fill="#AC924C"/>
<path fill-rule="evenodd" clip-rule="evenodd" d="M35.0526 38.0165C35.0526 38.0165 35.4778 37.7309 36.2966 37.5469C37.0835 37.3565 38.6766 37.2105 38.6766 37.2105L39.984 37.7817L40.5044 39.7555L39.5524 41.8055L38.3402 42.5671L36.963 40.3521L35.0526 38.0165Z" fill="#9F8E57"/>
<path fill-rule="evenodd" clip-rule="evenodd" d="M33.339 39.7746L32.8884 40.1109C32.8884 40.1109 33.0027 39.9015 33.0979 39.2541C33.1931 38.6068 33.6945 37.0391 34.4243 36.1316C35.1542 35.224 35.1351 35.2748 35.1351 35.2748C35.0019 35.2494 34.8559 35.2875 34.748 35.37C34.8432 35.1542 35.4588 34.3926 36.0745 34.0118C36.6901 33.631 36.9313 33.5104 37.5786 33.8214C38.226 34.1324 38.3846 34.291 38.8606 34.272C39.3303 34.253 39.7365 33.7516 39.7365 33.7516C39.7365 33.7516 39.8317 34.0562 39.4763 34.7734C39.1209 35.4842 37.7119 36.9376 37.7119 36.9376L34.7861 38.9368L33.339 39.7746Z" fill="#EAC970"/>
<path fill-rule="evenodd" clip-rule="evenodd" d="M35.5032 37.7754C35.5032 37.7754 37.623 38.061 38.264 37.4707C38.283 37.5406 38.3592 37.5406 38.3592 37.585C38.3528 37.6231 38.3401 37.6548 38.3084 37.6802C38.3782 37.6675 38.448 37.6611 38.5178 37.6611C38.6003 37.6865 38.6892 37.7056 38.7781 37.7119C38.8479 37.7119 38.9177 37.7056 38.9875 37.6929C38.9748 37.7881 38.924 37.8769 38.8415 37.934C38.9367 37.934 39.0319 37.9531 39.0319 38.0292C39.0319 38.1054 39.051 38.3402 38.9367 38.3847C38.8415 38.41 38.74 38.4037 38.6448 38.3656C38.6511 38.5497 38.7019 38.7274 38.7907 38.886C38.9811 39.2415 39.3873 39.6476 39.9331 39.5334C39.9331 39.5334 40.2188 40.2252 39.0065 41.7674C38.8415 41.9769 38.6702 42.2688 38.4607 42.51C38.3782 42.694 38.3148 42.8844 38.2703 43.0812C38.2703 43.0812 40.3203 42.2942 40.9105 40.4918C41.5071 38.683 41.6214 36.8995 41.5071 35.2367C41.4881 34.7671 41.4119 34.4307 41.2977 34.1895C41.0121 33.5929 40.1997 33.6881 39.876 34.0245C39.4064 34.4942 38.613 35.6683 37.5151 36.4807C36.4108 37.274 36.36 37.4136 35.5032 37.7754Z" fill="#D7BC6B"/>
<path fill-rule="evenodd" clip-rule="evenodd" d="M32.9645 40.3711C32.9645 40.3711 32.5584 40.6123 32.3489 41.5135C32.1395 42.4401 32.5393 43.5635 32.7741 43.9189C33.009 44.2743 33.5358 45.2454 34.6337 45.2961C34.9066 45.2961 35.1732 45.239 35.4207 45.1311C35.8015 44.9534 36.1633 44.7313 36.4869 44.4647C36.9566 44.1093 37.3438 43.7983 37.293 43.7729C37.1787 43.7222 34.3862 41.412 34.3862 41.412L33.339 40.2379L32.9645 40.3711Z" fill="#585136"/>
<path fill-rule="evenodd" clip-rule="evenodd" d="M35.6048 44.2045C35.6048 44.2045 36.1697 44.1537 36.5124 43.9443C36.8488 43.7349 34.5386 41.4437 34.5386 41.4437L34.7036 43.9189L35.6048 44.2045Z" fill="#453A25"/>
<path fill-rule="evenodd" clip-rule="evenodd" d="M33.1486 40.1998C33.1486 40.1998 32.863 40.7519 32.863 40.8916C32.8123 41.3612 32.9582 42.8463 33.0725 43.316C33.1867 43.8174 33.815 44.579 34.6211 44.579C35.1225 44.579 35.8142 44.2743 35.8142 44.1918C35.8142 44.0966 35.1034 44.0014 34.9067 43.6397C34.7924 43.4493 34.7417 42.9733 34.7163 42.4973C34.6972 42.1926 34.6972 41.8499 34.8115 41.7357C35.0717 41.4501 35.1161 40.6187 35.1161 40.6187L36.0427 38.9051H34.8242L33.3708 39.8126L33.1486 40.1998Z" fill="#84754B"/>
<path fill-rule="evenodd" clip-rule="evenodd" d="M32.7932 40.7265C32.7932 40.7265 33.7452 39.4635 34.602 39.1779C35.4588 38.8923 35.846 39.0637 35.846 39.0637L35.3446 40.3457L34.6337 41.1327L34.6845 41.5389C34.6845 41.5389 34.5703 42.6052 35.2811 43.3477C35.9919 44.0903 36.5251 44.0585 36.8297 44.0585C37.1343 44.0585 38.0229 43.7983 38.4735 42.7321C38.8797 41.7293 39.216 40.4473 38.4037 39.1589C37.6103 37.8769 36.2204 37.8261 35.9475 37.8261C35.6746 37.8261 33.5612 37.934 32.7932 40.7265Z" fill="#252211"/>
<path fill-rule="evenodd" clip-rule="evenodd" d="M57.2343 45.0106C56.8788 44.8456 57.2152 43.8491 57.5706 43.5381C57.9261 43.2272 58.3767 42.8717 59.17 42.8273C59.4556 42.8083 59.7349 42.9923 59.6904 43.1827C59.6206 43.5381 59.1256 44.0395 58.6686 44.3949C58.0466 44.89 57.6404 45.1946 57.2343 45.0106Z" fill="#F7F7E7"/>
<path fill-rule="evenodd" clip-rule="evenodd" d="M37.9784 39.5524C38.2386 39.5334 38.575 39.7428 38.6448 40.0221C38.7146 40.3267 38.4798 40.9487 37.9784 40.9487C37.5722 40.9487 37.3628 40.4473 37.3628 40.3014C37.3691 40.1808 37.4009 40.0665 37.458 39.965C37.477 39.9396 37.5278 39.6032 37.9784 39.5524Z" fill="#F8F6DE"/>
<path fill-rule="evenodd" clip-rule="evenodd" d="M34.2276 39.7745C34.2276 39.7745 33.5612 40.0792 33.2566 40.7265C33.0344 41.2025 32.971 41.7357 33.0662 42.2497C33.1169 42.4909 33.3518 43.0875 33.5168 43.2969C33.6818 43.5064 33.9039 43.6524 34.0689 43.6333C34.2339 43.6143 34.5703 43.1827 34.5703 42.9225C34.5703 42.6623 34.5894 41.5643 34.9067 40.9677C35.1796 40.3711 34.2276 39.7745 34.2276 39.7745Z" fill="#D4C38B"/>
<path fill-rule="evenodd" clip-rule="evenodd" d="M34.3228 39.7301C34.2086 39.7999 34.0182 39.8951 34.0626 40.0157C34.1134 40.13 34.5132 40.2061 34.6592 40.4854C34.8242 40.771 34.8242 41.082 34.7734 41.2279C34.9004 41.1708 35.0146 41.0883 35.1098 40.9868C35.3193 40.7456 35.5795 40.4219 35.8016 40.4219C35.9476 40.4219 36.0936 40.4917 36.2268 40.4917C36.4363 40.4917 36.6521 40.4219 36.6774 40.2061C36.7282 39.9205 36.2713 39.654 36.011 39.7047C36.0618 39.5143 36.1253 39.2351 35.9158 39.0383C35.7064 38.8479 35.04 39.1843 34.894 39.2795C34.7481 39.3747 34.3228 39.7301 34.3228 39.7301Z" fill="#E2D59D"/>
<path fill-rule="evenodd" clip-rule="evenodd" d="M49.6182 59.9569L51.0398 59.5381L51.446 59.8237C51.446 59.8237 51.7316 60.4393 52.1886 60.5154C52.0426 60.8201 51.6681 61.0866 51.6872 61.3024C51.7062 61.5182 51.8966 61.6896 51.8966 61.6896C51.8966 61.6896 50.6146 63.8094 53.1406 65.9418C52.544 66.183 51.7824 66.513 51.3762 66.7034C51.6618 66.7733 52.2838 66.8938 52.5376 67.1287C52.7915 67.3635 52.7978 67.4333 53.039 67.5793C53.2802 67.7253 53.4262 67.9157 53.3754 68.0045C53.2104 67.9093 52.6646 67.6174 52.5694 67.8903C52.4742 68.1632 50.1894 68.0553 50.1894 68.0553L46.3369 68.7978C46.3369 68.7978 46.4829 68.4107 46.0767 68.0553C45.6071 67.6301 45.0295 68.0743 44.4139 67.6047C43.6079 66.989 43.5761 66.2782 43.3159 66.0053C43.5761 65.8403 44.1029 65.5991 45.3659 65.4341C45.3151 65.3389 45.1565 65.047 45.2517 64.7867C45.3659 64.4504 45.8482 64.2346 45.7023 63.8347C45.9117 63.784 46.0069 63.784 46.54 63.1239C47.0414 62.4575 47.346 62.3179 47.7332 62.2671C48.1203 62.2163 48.3488 62.2671 49.0597 61.6007C49.561 61.1311 49.396 60.7249 49.396 60.7249C49.396 60.7249 49.7387 60.617 49.6182 59.9569Z" fill="#CBAC5A"/>
<path fill-rule="evenodd" clip-rule="evenodd" d="M45.4104 60.1664C45.4295 60.0712 45.5056 60.0204 46.0261 60.0712C46.5465 60.122 49.8404 59.7666 50.7353 59.7158C51.6428 59.646 54.8289 59.6967 56.3775 60.0204C57.9261 60.3504 59.5 60.7313 60.2553 60.928C61.0169 61.1374 61.2581 61.2136 61.2263 61.3151C61.2073 61.4103 61.0359 61.5055 60.9344 61.4802C60.8392 61.4611 58.3132 60.6932 57.5389 60.5282C56.7583 60.3631 54.0609 59.9316 52.5885 59.957C51.2113 59.976 50.6655 59.9379 49.4977 60.0712C48.3299 60.2172 46.4069 60.4076 45.8293 60.3314C45.2645 60.2616 45.385 60.2616 45.4104 60.1664Z" fill="#D6BC6F"/>
<path fill-rule="evenodd" clip-rule="evenodd" d="M53.1659 67.7126C53.1659 67.7126 55.1398 68.7788 55.8506 70.0926C56.371 71.0636 55.5459 71.546 55.5459 71.546C55.5459 71.546 56.663 71.546 56.517 72.1616C56.4472 72.5488 54.5939 73.5833 53.35 74.1354C52.087 74.6876 52.1378 74.6558 51.5222 74.751C50.9256 74.8462 49.2881 74.5606 48.9518 75.043C48.6154 75.5253 48.7614 76.014 48.8566 76.0902C48.9518 76.16 49.7324 76.2552 49.7324 76.2552C49.7324 76.2552 49.5674 76.7058 47.949 76.7566C46.3306 76.8074 45.9244 76.9216 45.8292 77.093C45.734 77.258 46.1338 77.1628 46.8764 77.2834C47.619 77.3976 48.6598 77.4738 48.6598 77.4738C48.6598 77.4738 48.3234 77.7657 47.4476 77.9942C46.4448 78.2544 44.8772 78.4956 44.4075 78.7812C44.6487 78.9462 45.0041 79.1874 45.1691 79.2064C44.763 79.3016 44.1981 79.5174 44.1029 79.5935C44.2489 79.6887 44.4393 79.803 44.4393 79.803C44.4393 79.803 43.6269 80.774 43.1573 81.0152C42.6876 81.2564 39.9712 82.5194 39.0383 82.2782C36.709 81.6626 36.4171 79.1112 35.8522 78.9208C34.9954 78.6289 34.5893 79.2064 33.8277 78.8066C34.164 78.5654 34.3481 78.4194 34.7035 78.2607C34.3163 78.0703 32.3235 76.8074 32.3235 76.8074C32.1141 76.3504 31.8856 75.9125 31.6317 75.4809C31.2446 74.8145 30.6797 73.9323 30.2545 73.1517C29.3279 71.4381 29.2834 70.6511 28.4457 69.6737C28.5917 69.4833 29.093 69.5087 29.093 69.5087L36.1125 71.8189L48.5583 72.1806L51.7951 67.5603L53.1659 67.7126Z" fill="#DFC677"/>
<path fill-rule="evenodd" clip-rule="evenodd" d="M34.729 74.7637C34.8052 74.8462 34.894 74.916 34.9892 74.9732C35.2304 75.1382 35.5858 75.3286 35.827 75.6205C35.9222 75.4745 36.1634 75.2143 36.5886 75.6205C37.0138 76.0267 37.5406 75.7348 37.8706 75.83C38.207 75.9442 38.226 75.995 38.226 75.995C38.226 75.995 38.4164 75.83 38.8416 75.6586C39.1019 75.5634 39.4128 75.4936 39.7492 75.3984C40.0539 75.3286 40.3966 75.2334 40.6251 75.2334C40.8345 75.3793 41.5961 76.1854 44.6488 74.9922C47.5302 73.8752 48.1903 73.7482 48.6726 73.926C48.7234 73.8117 48.7678 73.5896 49.5104 73.6213C49.5104 73.3167 48.8948 72.2631 48.8948 72.2631L45.4929 71.1017H43.6334L38.061 72.1235L34.9702 73.8879L34.729 74.7637Z" fill="#C4A859"/>
<path fill-rule="evenodd" clip-rule="evenodd" d="M32.8694 72.809C32.8694 72.809 32.9392 73.3294 33.7071 73.8752C34.4687 74.421 34.7099 74.751 34.7099 74.751C34.7099 74.751 34.8559 74.5606 34.9701 74.3639C35.0844 74.1544 35.1796 73.9133 35.3763 73.8435C35.7635 73.6785 36.6393 73.9894 36.8297 73.9387C36.9947 73.8879 36.9439 73.5515 37.1153 73.5515C37.5215 73.5325 37.7817 73.8117 37.9213 73.8117C38.0673 73.8117 38.4227 73.7927 38.4671 73.7165C38.5116 73.6404 38.537 72.8407 39.0828 72.4535C39.6794 72.0283 40.4092 72.2124 40.606 72.3076C40.606 72.4535 40.625 72.809 41.0122 72.828C41.3993 72.847 41.4374 72.7772 41.7738 72.8978C42.1101 73.012 42.5163 72.8788 42.7004 73.4436C42.8654 73.3928 43.2525 73.3484 43.151 72.7963C43.3414 72.6503 43.5064 72.5551 43.9126 71.9902C44.0078 71.8443 44.1728 71.6856 44.2997 71.4698C44.6361 71.4698 45.0423 71.4 45.5818 71.876C45.4167 71.9902 45.3215 72.0664 45.2771 72.1806C45.4167 72.3203 45.5437 72.4726 45.6643 72.6313C45.8102 72.8217 45.9054 73.0565 46.0895 73.1009C46.4957 73.2151 47.1557 73.0501 47.8983 73.1009C48.6091 73.1517 49.2057 73.4055 49.4659 73.5706C49.5611 73.5198 49.5611 73.5007 49.8023 73.5515C50.0435 73.6023 50.2275 73.6213 49.9673 73.3103C50.1133 73.3802 50.2719 73.5198 50.4179 73.3802C50.5639 73.2405 50.6781 73.0247 51.0843 72.974C51.4905 72.9232 51.6365 72.993 51.7951 72.5678C52.0046 72.0474 51.2747 72.0474 51.2747 72.0474C51.2747 72.0474 51.6111 71.7364 51.9855 71.3365C52.4362 70.9113 52.9566 70.3655 53.0835 69.6927C53.293 68.4488 52.0807 68.2901 52.0807 68.2901L46.1974 70.0989L39.0066 69.7435L32.8694 72.809Z" fill="#927D49"/>
<path fill-rule="evenodd" clip-rule="evenodd" d="M27.5826 55.8126C27.5826 55.8126 27.3922 56.0537 27.278 56.6186C27.1574 57.1834 27.2082 57.12 27.113 57.5262C27.0178 57.9324 25.8309 61.9561 26.2752 63.3143C26.7195 64.6725 27.4874 65.1739 27.9698 66.2719C28.065 66.513 28.1602 66.659 28.2109 66.8685C28.3759 67.5793 28.23 68.1314 28.4204 68.8423C28.4902 69.0834 28.6615 69.3627 28.9218 69.6483C29.493 70.2449 30.4259 70.8097 30.8258 71.2159C31.3906 71.8125 32.203 73.0247 33.2311 73.139C33.7833 73.2088 34.5576 72.9739 35.205 72.5931C35.7762 72.2377 36.1316 71.7363 36.7282 71.4507C37.1534 71.2413 37.604 71.1588 38.0102 71.0636C38.8479 70.8986 39.6095 70.8732 40.0602 70.9684C40.7519 71.1144 42.3894 71.6158 43.297 71.6158C44.0078 71.6031 44.7123 71.5079 45.3977 71.3238C46.7749 70.9176 48.4378 70.2258 49.5357 69.9149C50.1831 69.7245 50.6972 69.6737 51.2303 69.5594C52.1379 69.35 52.8931 69.0581 53.331 68.5122C53.0454 68.1759 52.6837 67.6554 50.7606 67.6745C48.5774 67.7253 46.0514 68.9375 44.8075 69.1279C43.5635 69.3183 43.0241 69.4833 41.6405 68.9819C40.2823 68.4742 40.2379 68.1441 40.2379 68.1441C40.2379 68.1441 38.8099 67.1477 38.2133 64.6027C37.6167 62.0577 38.2133 60.2045 39.7619 58.4401C40.1681 57.9895 40.0665 57.5833 40.0665 57.5833C40.0665 57.5833 41.0883 56.2061 40.8091 54.9177C40.5044 53.6357 38.5243 53.8959 38.5243 53.8959L27.5826 55.8126Z" fill="#6E6342"/>
<path fill-rule="evenodd" clip-rule="evenodd" d="M29.2264 60.1029C29.1439 60.2616 29.0994 60.4393 29.1121 60.6234C29.1312 60.8836 29.2073 61.2199 29.988 61.9815C30.6544 62.6479 30.5084 63.3842 30.5084 63.3842C30.5084 63.3842 30.8448 63.454 31.7523 63.0287C32.4632 62.6924 32.7043 63.289 32.7043 63.289C32.9138 63.1811 33.1359 63.1113 33.3707 63.0795C33.5802 63.0605 33.7833 62.997 33.9673 62.8891C33.9673 62.8891 34.8051 63.7459 35.535 64.1521C36.2014 64.5075 36.5822 64.7487 36.9122 64.5075C37.2168 64.2981 37.2168 63.8602 37.1978 63.6698C37.1216 63.4921 37.0264 63.327 36.9122 63.1684C36.7027 62.8637 36.36 62.502 36.341 62.2164C36.2902 61.55 36.8424 60.763 36.7281 60.5726C36.6139 60.3822 36.1823 60.3314 35.1097 60.7186C33.9991 61.074 29.2264 60.1029 29.2264 60.1029Z" fill="#39331F"/>
<path fill-rule="evenodd" clip-rule="evenodd" d="M31.7523 64.4059C31.7523 64.4059 31.2065 63.8855 31.3969 61.3659C31.6317 61.3595 31.8602 61.3849 32.0887 61.4357C32.0887 61.4294 32.387 63.3841 31.7523 64.4059Z" fill="#292311"/>
<path fill-rule="evenodd" clip-rule="evenodd" d="M27.8429 53.8895C27.919 53.8324 27.9888 53.7689 28.0523 53.6991C27.8619 54.0545 26.9861 55.4826 27.6969 57.7229C28.4077 59.957 30.1975 61.6198 32.4061 61.7023C34.6084 61.7784 35.7698 60.6995 37.0963 59.0811C37.6167 58.4338 38.2133 57.6277 38.7401 57.0756C39.5271 56.2188 40.149 55.9776 40.149 55.1525C40.149 53.458 38.4164 52.6964 35.865 51.9348C33.3137 51.1732 31.0098 51.2684 29.8167 51.7888C28.6489 52.36 28.1475 52.9566 27.8429 53.8895Z" fill="#252211"/>
<path fill-rule="evenodd" clip-rule="evenodd" d="M36.0364 65.1613L36.2268 65.0661C36.2268 65.0661 36.2775 64.3045 36.5822 64.3235C36.8868 64.3743 37.0328 64.7741 37.0074 64.9201C36.9884 65.0661 36.9122 65.3072 36.6012 65.2755C36.195 65.2882 36.0364 65.1613 36.0364 65.1613Z" fill="#3F3824"/>
<path fill-rule="evenodd" clip-rule="evenodd" d="M35.1796 61.9307C35.1796 61.9307 35.37 61.8609 35.6048 62.0957C35.7952 62.0957 36.6266 62.0005 36.8868 62.1656C37.147 62.3306 37.2232 62.4702 37.2232 62.4702C37.2232 62.4702 36.2522 62.6796 35.719 62.4702C35.1796 62.2861 35.1796 61.9307 35.1796 61.9307Z" fill="#2D2815"/>
<path fill-rule="evenodd" clip-rule="evenodd" d="M39.4637 62.0704C39.4637 62.0196 38.9432 61.6642 38.3974 61.55C38.3022 61.5309 38.2832 61.6007 38.207 61.6007C38.1562 61.5817 38.1372 61.4357 38.1372 61.4357L37.8262 61.6007C37.8262 61.6007 37.7754 61.6706 37.9405 61.7911C38.0864 61.9054 38.3276 62.0006 38.3911 62.1973C38.4609 62.3877 38.4609 62.4575 38.4863 62.4893C38.5053 62.5083 38.8417 62.4893 39.0067 62.3941C39.1717 62.2925 39.4827 62.1339 39.4637 62.0704Z" fill="#82764F"/>
<path fill-rule="evenodd" clip-rule="evenodd" d="M34.6021 64.0252C34.6021 64.0252 34.6972 63.3588 35.3446 63.3334C36.011 63.2826 36.1316 63.93 36.1316 63.93L35.7445 64.3171C35.7445 64.3044 35.4589 63.9046 34.6021 64.0252Z" fill="#2D2816"/>
<path fill-rule="evenodd" clip-rule="evenodd" d="M38.7909 61.1692C38.7909 61.1692 38.4354 61.5563 37.6485 61.6706C37.5786 61.5754 37.439 61.3786 37.6485 61.074C37.8579 60.763 38.0991 60.6678 38.3402 60.763C38.556 60.8011 38.7274 60.9597 38.7909 61.1692Z" fill="#574F35"/>
<path fill-rule="evenodd" clip-rule="evenodd" d="M40.2442 61.6388C40.2633 61.5436 40.1935 61.5246 40.2442 61.4738C40.295 61.4231 40.5552 61.3279 40.5996 61.3786C40.6187 61.3977 40.5996 61.4738 40.5996 61.569C40.5996 61.6642 40.5996 61.7594 40.5489 61.8292C40.4791 61.9244 40.2887 61.9752 40.1935 61.9435C40.0983 61.9118 40.0792 61.7785 40.0792 61.7531C40.13 61.7341 40.2442 61.6896 40.2442 61.6388ZM41.888 60.598C41.888 60.5472 42.053 60.452 42.1482 60.452C42.2942 60.452 42.2942 60.5663 42.3132 60.598C42.364 60.617 42.364 60.579 42.4084 60.6678C42.4529 60.7567 42.5227 60.909 42.4783 61.0042C42.4338 61.0994 42.2371 61.1692 42.1927 61.1502C42.1165 61.0994 41.9071 60.6678 41.888 60.598Z" fill="#82764F"/>
<path fill-rule="evenodd" clip-rule="evenodd" d="M38.5751 61.861C38.5751 61.861 38.7845 61.9117 39.0765 62.1529C38.9813 62.2227 38.8353 62.2989 38.8353 62.2989C38.8353 62.2989 38.8162 62.0704 38.5751 61.861Z" fill="#6E6342"/>
<path fill-rule="evenodd" clip-rule="evenodd" d="M38.1054 59.7412C38.0546 59.6904 38.2514 59.5762 38.3656 59.5952C38.4798 59.6143 38.5306 59.6904 38.6512 59.7095C38.7781 59.7285 38.7972 59.6587 38.8416 59.6143C38.886 59.5698 39.051 59.5952 39.0828 59.6143C39.1018 59.6333 39.1145 59.6587 39.1335 59.6841C39.1399 59.6079 39.1716 59.5381 39.2287 59.4937C39.3049 59.4366 39.4001 59.4239 39.489 59.4429C39.508 59.5127 39.6032 59.7475 39.5842 59.7983C39.5651 59.8491 39.2795 59.9125 39.2287 59.8681C39.2795 59.9824 39.489 60.2235 39.5143 60.2743C39.5461 60.3251 39.3049 60.4393 39.2097 60.4203C39.0764 60.4076 38.245 59.9252 38.1054 59.7412ZM39.3684 58.1482C39.3493 58.0974 39.3176 58.0593 39.2732 58.0339C39.2034 58.0149 38.9876 58.0339 38.9876 58.1482C38.9876 58.2624 39.178 58.9098 39.3938 59.2462C39.6349 59.5825 39.7999 59.8618 39.9586 59.9379C40.0665 59.9887 40.1934 59.9443 40.2506 59.8427C40.2696 59.792 40.3204 59.4365 40.3013 58.5988C40.2823 57.761 40.2506 56.955 40.2061 56.9042C40.1617 56.8535 39.965 56.8535 39.9015 56.955C39.819 57.0502 39.3874 58.0022 39.3684 58.1482Z" fill="#585136"/>
<path fill-rule="evenodd" clip-rule="evenodd" d="M38.5116 63.0732C38.5116 63.0732 38.1752 62.8637 37.8452 63.0033C37.5405 63.1493 37.5596 63.7142 37.5596 63.7142C37.6992 63.7713 37.8579 63.7523 37.9848 63.6634C38.1942 63.5301 38.4608 63.2889 38.5116 63.0732Z" fill="#574F35"/>
<path fill-rule="evenodd" clip-rule="evenodd" d="M39.1462 63.8348C39.1272 63.6444 38.9558 63.6444 38.9558 63.5428C38.9812 63.4476 39.0701 63.3778 39.1653 63.3778C39.2605 63.3778 39.3557 63.492 39.4762 63.5682C39.5905 63.638 39.7618 63.7586 39.7809 63.9046C39.7999 64.0505 39.5905 64.4504 39.3557 64.4504C39.1272 64.4567 39.197 64.0252 39.1462 63.8348ZM41.0058 63.5745C41.0058 63.5745 40.6186 63.6888 40.6504 63.5745C40.6821 63.4603 40.7646 63.4286 40.8915 63.4286C40.955 63.3651 41.0375 63.3207 41.1327 63.3143C41.1835 63.3143 41.2343 63.327 41.2787 63.3651C41.2787 63.3651 41.5389 63.2509 41.6151 63.3143C41.6912 63.3841 41.6341 63.3841 41.6849 63.4603C41.7483 63.5492 41.7864 63.6444 41.7991 63.7523C41.7991 63.8284 41.5072 63.9934 41.2787 63.9617C41.0058 63.9046 41.0502 63.6253 41.0058 63.5745ZM43.2462 63.143C43.2462 63.143 43.3604 63.2128 43.2652 63.2889C43.1954 63.3588 42.859 63.4793 42.5734 63.4984C42.2815 63.4984 42.0276 63.5492 42.0276 63.4476C42.0276 63.3461 42.2688 63.1557 42.4147 63.1112C42.4719 63.0351 42.5607 62.997 42.6559 62.997C42.7702 62.997 43.2208 62.9462 43.3477 62.9272C43.4619 62.9081 43.5571 62.978 43.4937 63.0732C43.4556 63.143 43.2462 63.143 43.2462 63.143ZM43.9126 60.1664C43.9126 60.1664 43.7666 60.471 43.6079 60.471C43.4429 60.452 43.4429 60.4012 43.4429 60.3568C43.4429 60.287 43.6079 60.1156 43.5889 60.0712C43.5381 60.0712 43.4239 60.0712 43.4429 59.9569C43.4429 59.8617 43.6079 59.7475 43.7475 59.7665C43.8554 59.6777 43.9951 59.6269 44.1347 59.6206C44.2997 59.6206 44.4393 59.6713 44.4393 59.7665C44.4393 59.8617 44.2489 60.0712 44.1791 60.122C44.103 60.1981 44.0078 60.2489 43.9126 60.1664ZM41.7166 65.8593C41.7166 65.8593 41.5262 65.8784 41.5262 65.9736C41.5262 66.0244 41.577 66.0244 41.6405 65.9926C41.6785 65.9926 41.7166 65.9863 41.7547 65.9736C41.7737 65.9926 41.7737 66.0878 41.9197 66.0878C42.0403 66.0688 42.1545 66.0307 42.2561 65.9736C42.3703 65.9228 42.4655 65.8784 42.4655 65.7832C42.4147 65.6182 42.3195 65.542 42.1736 65.542C42.0974 65.5357 42.0276 65.5547 41.9641 65.5928C41.9641 65.5928 41.9134 65.4976 41.7547 65.5928C41.5897 65.688 41.6087 65.688 41.6595 65.7388C41.7483 65.8149 41.7166 65.8657 41.7166 65.8593ZM40.625 66.8621C40.625 66.8113 40.8662 66.7161 40.9296 66.7479C40.9994 66.7669 41.1898 67.135 41.1898 67.1731C41.1898 67.2239 40.9487 67.3381 40.8535 67.3381C40.7583 67.3381 40.5933 67.1731 40.5933 67.1477C40.5933 67.1287 40.7075 67.0969 40.7075 67.0779C40.7456 67.0271 40.625 66.9129 40.625 66.8621ZM39.8634 65.4532C39.9142 65.4341 39.9142 65.3833 39.9776 65.3389C40.022 65.3135 40.0728 65.3008 40.1236 65.3199C40.1553 65.2564 40.2188 65.2183 40.2886 65.2056C40.4029 65.1866 40.4981 65.2056 40.479 65.2564C40.479 65.4024 40.5742 65.4976 40.5742 65.6118C40.5742 65.7261 40.5044 65.872 40.2696 65.9672C40.0284 66.0371 39.7047 66.037 39.6539 66.018C39.6032 65.999 39.5587 65.8086 39.6032 65.707C39.6476 65.6055 39.7872 65.5039 39.8634 65.4532Z" fill="#82764F"/>
<path fill-rule="evenodd" clip-rule="evenodd" d="M40.1744 65.523C40.1744 65.523 40.0094 65.6182 40.0094 65.6689C39.9967 65.7134 39.9904 65.7642 39.9904 65.8149C39.9904 65.8403 40.1998 65.7959 40.2315 65.7641C40.2379 65.7388 40.1744 65.5674 40.1744 65.523Z" fill="#6E6342"/>
<path fill-rule="evenodd" clip-rule="evenodd" d="M38.74 65.066C38.8352 65.0851 39.0002 65.066 39.1271 65.1168C39.2223 65.1676 39.2922 65.2628 39.197 65.377C39.1018 65.4912 39.0066 65.6689 38.7908 65.6372C38.5496 65.6182 38.3211 65.4912 38.3211 65.396C38.3148 65.2755 38.3529 65.1485 38.4354 65.0597C38.5306 64.9835 38.575 65.0279 38.74 65.066Z" fill="#585136"/>
<path fill-rule="evenodd" clip-rule="evenodd" d="M38.6258 65.1612C38.6258 65.1612 38.3212 65.4024 38.2387 65.5166C38.1435 65.6309 37.6738 66.2275 37.5278 66.3544C37.5786 66.2719 37.6294 66.1894 37.6928 66.1132C37.5024 66.2338 37.3628 66.4179 37.2867 66.6337C37.1724 66.9891 37.934 67.1858 38.4291 67.3254C38.9241 67.4651 39.1208 67.5158 39.1208 67.5158C38.9368 67.2366 38.7781 66.9446 38.6512 66.64C38.4608 66.1894 38.3656 66.1386 38.4862 65.9292C38.5814 65.7197 38.7274 65.5738 38.7274 65.4087C38.6766 65.2628 38.6258 65.1612 38.6258 65.1612Z" fill="#574F35"/>
<path fill-rule="evenodd" clip-rule="evenodd" d="M27.6523 65.9228C27.7222 65.9355 27.792 65.9355 27.8618 65.9228C28.0078 65.9038 29.5056 65.3516 31.0795 65.4532C32.2537 65.523 33.4215 65.7134 34.5575 66.0244C36.5313 66.5448 38.9875 67.573 40.5742 68.1632C40.9994 68.3282 41.4119 68.6138 41.7166 68.728C42.9288 69.1977 42.9795 69.1977 43.6904 69.3246C44.5281 69.4389 45.3849 69.1596 46.2798 68.9692C47.3778 68.728 49.2564 68.6138 50.9002 68.3726C51.4333 68.2965 51.9601 68.1822 52.4678 68.0172C52.4678 68.0172 51.1604 69.3246 48.0188 69.8006C46.7495 69.991 45.4611 70.0101 44.1854 69.8514C43.1826 69.7562 42.5226 69.6102 42.0212 69.4643C41.45 69.2992 40.2886 68.8677 38.8542 68.5123C37.8514 68.252 36.7344 68.0616 35.4587 67.8205C32.2981 67.2366 28.8709 66.5765 27.6523 65.9228Z" fill="#252211"/>
<path fill-rule="evenodd" clip-rule="evenodd" d="M24.1046 59.976C23.343 60.6234 22.537 61.239 21.7436 61.8356L19.3636 63.6634C18.5576 64.26 17.7643 64.8756 16.9582 65.4722C16.1522 66.0688 15.3398 66.6337 14.483 67.1858C15.2446 66.5385 16.0507 65.9419 16.863 65.358C17.6754 64.7741 18.5132 64.1965 19.2875 63.6L21.6675 61.7721C22.4862 61.1692 23.2795 60.5536 24.1046 59.976ZM19.8967 66.7162C19.8967 66.7162 20.7535 66.0053 21.8198 65.0026C23.1462 63.7586 24.7773 62.172 25.2978 61.8864L19.8967 66.7162Z" fill="#CFB66C"/>
<path fill-rule="evenodd" clip-rule="evenodd" d="M19.8967 66.7161C20.322 66.2909 20.7726 65.8784 21.2232 65.4722L21.915 64.8756C22.1244 64.6852 22.3656 64.4694 22.5814 64.26C23.0066 63.8348 23.4191 63.3841 23.8444 62.9526C24.0538 62.7368 24.2759 62.5273 24.5108 62.3369C24.625 62.2354 24.7583 62.1465 24.8979 62.0767C25.0121 62.0069 25.1391 61.8863 25.3041 61.8673C25.2089 62.0133 25.0946 62.0767 24.9931 62.2037C24.8789 62.2989 24.7837 62.4131 24.6885 62.5083C24.479 62.7177 24.2378 62.9145 24.0221 63.1049C23.5714 63.492 23.0954 63.8665 22.6448 64.2663C22.1942 64.6662 21.769 65.1041 21.3184 65.5103C20.8233 65.9228 20.3727 66.329 19.8967 66.7161ZM25.6595 62.8637C25.6595 62.8637 22.5179 65.9355 21.8769 66.4369L25.6595 62.8637Z" fill="#CFB66C"/>
<path fill-rule="evenodd" clip-rule="evenodd" d="M25.6596 62.8637C25.3803 63.1874 25.0757 63.4984 24.752 63.7903L23.8 64.6979C23.4953 65.0025 23.2034 65.3135 22.8734 65.6245C22.537 65.9165 22.226 66.1957 21.8706 66.4623L22.7972 65.5547C23.1082 65.2501 23.4446 64.9898 23.7683 64.6789L24.6949 63.7713C25.0122 63.4476 25.3168 63.143 25.6596 62.8637ZM25.7992 64.5265C25.5072 65.3326 25.1709 66.1195 24.7774 66.8875C23.9714 68.5059 22.7528 70.5241 22.226 71.5586L25.7992 64.5265Z" fill="#CFB66C"/>
<path fill-rule="evenodd" clip-rule="evenodd" d="M25.7991 64.5266C25.7991 64.882 25.7039 65.193 25.5897 65.4976C25.4754 65.8086 25.3485 66.1069 25.2025 66.4052C25.0566 66.6971 24.8916 67.0018 24.7329 67.281C24.5742 67.5603 24.3775 67.8459 24.2315 68.1378L23.2605 69.8514C22.9241 70.4226 22.5941 71.0001 22.2386 71.546C22.4798 70.9303 22.8098 70.3528 23.1145 69.7816C23.4509 69.2104 23.7618 68.6392 24.0665 68.049C24.2188 67.757 24.3521 67.4524 24.4727 67.1414C24.6186 66.8304 24.7583 66.5448 24.8789 66.2655C25.0248 65.9609 25.1391 65.6689 25.285 65.3897C25.4437 65.0977 25.577 64.8058 25.7991 64.5266Z" fill="#CFB66C"/>
<path fill-rule="evenodd" clip-rule="evenodd" d="M29.2264 72.4218C29.2264 72.4218 28.2744 73.6848 28.3696 75.2842C28.6298 74.4464 28.9598 73.1644 29.2264 72.4218ZM30.134 73.6848C30.134 73.6848 29.7976 77.112 29.5184 78.8002C29.9118 76.8518 29.988 77.0168 30.134 73.6848ZM36.4426 79.0033C36.4426 79.0033 35.0209 83.1921 34.9892 84.3535C35.2938 83.1604 35.8904 80.7106 36.4426 79.0033Z" fill="#DEC270"/>
<path fill-rule="evenodd" clip-rule="evenodd" d="M39.7683 72.1616C39.7683 72.1616 42.0785 75.9759 43.8111 79.2254C43.3478 77.5943 42.2689 74.5923 39.7683 72.1616Z" fill="#CBAF59"/>
<path fill-rule="evenodd" clip-rule="evenodd" d="M45.9816 77.7784C47.2509 80.0188 48.3933 82.3289 49.4088 84.7026C49.2184 83.0652 48.6979 80.2599 45.9816 77.7784Z" fill="#E3C677"/>
<path fill-rule="evenodd" clip-rule="evenodd" d="M64.2346 83.3952C64.6218 83.154 65.3834 81.8466 66.0434 81.5166C66.7098 81.1802 67.2048 81.1104 67.8078 80.4503C68.4044 79.7585 68.5694 79.3333 69.8768 78.7875C71.7046 78.0005 70.448 76.9787 70.448 76.9787C70.6511 76.782 70.8669 76.5979 71.0954 76.4329C71.565 76.0775 72.1172 75.6459 72.0664 74.8843C71.9966 73.6023 71.7618 71.749 70.7082 70.6701C71.73 70.4607 73.6848 70.3147 74.897 70.0037C76.2996 69.6483 76.947 69.1469 76.947 69.1469C76.947 69.1469 76.141 67.7697 77.4484 66.3861C78.7558 65.0025 79.8284 64.1711 80.6154 62.6225C79.7078 62.5083 78.3306 62.026 74.8082 63.3651C74.9986 63.454 75.1826 63.5555 75.3603 63.6697C75.3603 63.6697 73.1961 64.2663 72.4028 64.9327C71.0255 66.0942 70.8542 67.0525 69.3627 67.7633C67.8712 68.4742 66.3671 68.2838 65.1295 68.8613C63.8919 69.4389 63.7015 69.9276 63.2509 70.1433C63.3461 70.2576 63.2318 70.448 63.4159 70.613C63.3017 70.778 62.6289 71.876 61.9435 71.876C62.0133 72.1362 62.5908 72.3266 62.5908 72.3266C62.5908 72.3266 62.1656 72.6376 61.0867 72.7137C61.6325 73.2849 62.1529 73.9069 63.5872 74.8145C63.473 75.0557 62.9907 75.4111 63.1811 75.8617C63.3905 76.3123 63.9427 76.9279 66.1386 77.4293C65.0216 77.4801 63.7142 77.734 61.9498 77.4991C60.1854 77.2897 59.8998 77.1628 58.8082 77.4293C58.9225 77.5436 59.2334 77.5436 59.5 77.8545C59.2081 77.8736 57.3993 77.6451 56.7836 78.4511C56.1363 79.2889 55.857 80.6661 55.9078 81.5864C55.5714 81.7514 55.2414 82.037 55.4064 82.6336C55.5714 83.2302 56.4282 83.4206 56.974 83.795C57.5198 84.2012 57.5706 84.3408 58.091 84.2456C58.6368 84.1314 59.4492 83.5792 59.9189 83.5792C60.3885 83.5792 60.7249 83.9347 60.7249 83.9347C60.7249 83.9347 62.0069 83.319 62.1339 83.4333C62.2481 83.5475 62.1529 84.2901 62.2798 84.4043C62.4131 84.4932 63.8538 83.6364 64.2346 83.3952Z" fill="#ECD592"/>
<path fill-rule="evenodd" clip-rule="evenodd" d="M92.2234 44.8709C86.2068 29.3343 71.3302 26.4529 71.3302 26.4529H28.89L29.055 42.2815H37.5088V77.626H28.89V93.4229H70.156C80.1013 93.4229 88.0727 83.4269 88.0727 83.4269C100.842 65.3072 92.2234 44.8709 92.2234 44.8709ZM70.3782 72.7772C70.3782 72.7772 67.1414 77.4483 63.619 77.4483H56.5742L56.4092 42.3195H65.4468C65.4468 42.3195 69.6356 43.1954 72.5614 51.4841C72.5614 51.4841 76.4456 63.3524 70.3782 72.7772Z" fill="white" fill-opacity="0.8"/>
</svg>
