<svg width="102" height="104" viewBox="0 0 102 104" fill="none" xmlns="http://www.w3.org/2000/svg">
<path d="M0.0528481 99.5013C0.0528481 101.456 1.65189 103.055 3.60636 103.055H26.7042C26.7042 103.055 32.0345 103.41 33.2781 96.6584L37.72 77.6473C37.72 77.6473 39.1413 72.1393 45.0047 72.1393C51.0456 72.1393 92.2662 73.7383 101.328 44.5998C103.282 38.0259 100.261 20.969 91.7331 12.6184C96.7079 20.4361 95.2866 30.0305 93.5099 35.7162C84.4484 65.0323 43.2277 63.4332 37.3645 63.4332C31.3236 63.4332 29.5468 68.7635 29.5468 68.7635L25.1049 87.7747C23.8611 94.3485 18.1756 94.171 18.1756 94.171H4.67225C-0.658018 94.171 0.0526433 89.5514 0.0526433 89.5514V99.5013H0.0528481Z" fill="#00ADE5"/>
<path d="M25.4604 87.9524L29.9023 68.9412C29.9023 68.9412 31.3236 63.611 37.187 63.611C43.2279 63.611 84.4486 65.21 93.5098 36.0715C97.0634 25.2332 99.3731 0.0033844 57.6195 0.0033844H27.5924C27.5924 0.0033844 21.3737 -0.352049 19.7747 6.22203L0.0528476 89.0185C0.0528476 89.0185 -0.83553 94.1711 4.67245 94.1711H18.1758C17.9979 94.1711 24.2166 94.5263 25.4604 87.9524Z" fill="#004398"/>
<path d="M36.8314 39.8025L40.7403 22.9233C40.7403 22.9233 41.9841 18.3037 46.0706 17.593C50.1571 16.8823 57.2641 17.7707 59.0408 18.1259C70.7675 20.2581 68.2798 31.0962 68.2798 31.0962C65.9701 47.7976 39.3188 45.4879 39.3188 45.4879C35.2323 43.8889 36.8314 39.8025 36.8314 39.8025Z" fill="white"/>
</svg>
