<svg width="106" height="106" viewBox="0 0 106 106" fill="none" xmlns="http://www.w3.org/2000/svg">
<path d="M106 87.45C106 97.7188 97.7188 106 87.45 106H18.55C8.28125 106 0 97.7188 0 87.45V18.55C0 8.28125 8.28125 0 18.55 0H87.45C97.7188 0 106 8.28125 106 18.55V87.45Z" fill="#FF4800"/>
<path d="M23.0268 27.825C23.2918 33.9035 28.5487 57.1075 28.5487 57.1075C30.4866 61.8063 32.1329 57.1075 32.1329 57.1075C38.5028 38.0474 25.4963 27.0035 25.4963 27.0035C22.2003 25.0657 23.0252 27.8267 23.0252 27.8267L23.0268 27.825ZM98.4176 24.5092C98.4176 24.5092 104.788 28.9414 98.4176 29.7645C98.4176 29.7645 74.6587 32.5255 56.9783 49.0929C56.9783 49.0929 30.4832 72.297 20.5292 97.7006C20.5292 97.7006 17.2117 97.7006 18.3264 92.7351C19.441 87.7697 26.0528 65.9453 55.6003 39.1604C55.6003 39.1604 84.058 13.1987 98.4193 24.5076" fill="white"/>
</svg>
