<svg width="132" height="129" viewBox="0 0 132 129" fill="none" xmlns="http://www.w3.org/2000/svg">
<path d="M118.85 19.9069C106.787 7.84437 87.6201 0 66.0851 0C34.9296 0 9.62045 13.5426 1.85009 38.3338C0.888042 42.848 0.296014 47.5102 0.0740035 52.2465C1.65411e-08 53.2825 0 54.3926 0 55.4286C0 94.9465 28.9354 127.952 64.013 128.1C64.383 128.1 66.6031 128.1 66.6031 127.138C66.6031 126.398 63.643 125.584 63.643 125.584C53.2825 122.624 45.1421 115.371 42.552 104.937C42.256 103.753 42.034 102.495 41.886 101.237C41.886 101.089 41.886 100.941 41.812 100.867C41.738 97.1666 41.812 96.9445 45.7341 97.9066C45.8081 97.9066 45.8081 97.9066 45.8821 97.9806C46.5482 98.1286 47.2882 98.2766 47.9542 98.4986C53.6525 99.6827 59.6468 100.349 65.8631 100.349C78.3697 100.349 89.9882 97.7586 99.9787 93.1704C110.857 88.2121 119.664 80.8858 125.288 72.2274C129.58 65.5671 131.948 58.1667 131.948 50.2484C132.17 38.7778 127.212 28.3433 118.85 19.9069ZM84.512 71.8574C78.0737 74.5215 70.3033 76.0756 62.0149 76.0756C58.5367 76.0756 55.4286 75.7796 52.7645 75.2615C38.1858 72.4494 35.0776 62.5329 35.0776 50.6924C35.0776 38.6298 42.33 27.3813 61.5709 26.5672C86.7321 25.5312 102.939 36.7057 102.939 50.6924C102.791 59.5728 95.5385 67.3432 84.512 71.8574Z" fill="#11A44D"/>
</svg>
