<svg width="15" height="15" viewBox="0 0 15 15" fill="none" xmlns="http://www.w3.org/2000/svg">
<path d="M7.5 15C11.6421 15 15 11.6421 15 7.5C15 3.35786 11.6421 0 7.5 0C3.35786 0 0 3.35786 0 7.5C0 11.6421 3.35786 15 7.5 15Z" fill="#E33E23"/>
<path fill-rule="evenodd" clip-rule="evenodd" d="M1.72279 7.59749C1.72279 7.59749 5.06164 8.31839 5.53084 6.76669C5.99086 5.24529 4.46529 4.93064 4.46529 4.93064H3.79509V7.48174H3.07699V5.01354H2.44109V4.75273C2.44109 4.75273 4.85024 4.74314 5.11629 4.77424C6.45389 4.93061 7.10489 7.32694 4.96263 7.80439C3.29638 8.17578 1.72278 7.59746 1.72278 7.59746L1.72279 7.59749ZM3.07294 8.14709V9.67844C3.07294 9.67844 3.06875 10.0043 2.7748 10.0043C2.48085 10.0043 2.40882 10.0043 2.40882 10.0043V10.2599H4.48117V9.97869H4.02274C4.02274 9.97869 3.78628 9.95187 3.78628 9.71143V8.13298H3.07703L3.07293 8.14708L3.07294 8.14709ZM5.72159 10.2726H7.80884V9.95255H7.20884C7.20884 9.95255 7.01393 9.84247 7.01393 9.61955V5.7653L9.34033 10.2678L11.6161 5.85155L11.5661 9.66135C11.5661 9.66135 11.6232 9.97623 11.3012 9.97623C10.9792 9.97623 10.9109 9.98597 10.9109 9.98597L10.907 10.2311H12.9943V9.93971H12.5071C12.5071 9.93971 12.304 9.95962 12.304 9.7366C12.304 9.51357 12.304 5.1125 12.304 5.1125C12.304 5.1125 12.307 5.01148 12.4867 5.01148H12.9097V4.70001H11.6146L9.48245 9.11891L7.36355 4.73121H6.2047V4.99529H6.57264C6.57264 4.99529 6.70023 4.98123 6.70023 5.17513C6.70023 5.36904 6.65023 9.64003 6.65023 9.64003C6.65023 9.64003 6.66705 9.97156 6.30313 9.97156C5.93921 9.97156 5.72233 9.97156 5.72233 9.97156V10.2938L5.72157 10.2726L5.72159 10.2726Z" fill="white"/>
</svg>
