<svg width="15" height="15" viewBox="0 0 15 15" fill="none" xmlns="http://www.w3.org/2000/svg">
<path fill-rule="evenodd" clip-rule="evenodd" d="M10.3759 13.152C11.6912 13.152 13.1038 13.5778 14.7114 14.9497C14.8575 15.0917 15.1011 14.9024 14.9549 14.7605C13.3961 12.8681 11.9347 12.4897 10.522 12.2058C8.76837 11.8273 7.84282 10.8811 7.20955 9.84033C7.06341 9.65109 7.01469 9.65109 7.01469 9.93495C7.01469 10.2661 7.01469 10.6919 7.11212 11.1177C7.06341 11.1177 6.96598 11.1177 6.91727 11.1177C4.38418 11.1177 2.38694 9.13069 2.38694 6.71792C2.38694 4.30515 4.4329 2.31816 6.91727 2.31816C9.45035 2.31816 11.4476 4.30515 11.4476 6.71792C11.4476 6.90716 11.4476 7.04908 11.3989 7.23832C11.0579 7.19101 10.4246 7.19101 9.93748 7.19101C9.74263 7.19101 9.79134 7.28563 9.93748 7.28563C11.4476 7.56949 12.4706 8.46836 12.7141 10.0769C12.7141 10.1242 12.7628 10.1242 12.8116 10.0769C13.4448 9.03607 13.7858 7.85334 13.7858 6.67061C13.7858 2.98048 10.7169 0 6.91727 0C3.06893 0 0 2.98048 0 6.67061C0 10.3607 3.06893 13.3412 6.86856 13.3412C7.89153 13.3412 8.86579 13.152 10.3759 13.152ZM10.863 10.7392C11.1553 10.9758 11.2527 11.3069 11.1066 11.4962C11.0092 11.5908 10.863 11.6381 10.7169 11.6381C10.522 11.6381 10.3759 11.5908 10.2298 11.4962C9.93748 11.2596 9.88877 10.8811 10.0349 10.6446C10.0836 10.55 10.2298 10.5027 10.3759 10.5027C10.522 10.5027 10.7169 10.5973 10.863 10.7392ZM12.2757 10.0769C12.3244 10.3607 12.227 10.5027 12.1296 10.5027C12.0321 10.5027 11.886 10.408 11.7399 10.1715C11.5937 9.93495 11.545 9.6984 11.5937 9.55648C11.6424 9.46186 11.7399 9.41455 11.886 9.46186C12.1783 9.50917 12.2757 9.88764 12.2757 10.0769Z" fill="#FF8C00"/>
</svg>
