<svg width="110" height="92" viewBox="0 0 110 92" fill="none" xmlns="http://www.w3.org/2000/svg">
<path d="M93.8867 0H109.785L76.6992 32.7594C64.7173 44.6166 45.2912 44.6166 33.3007 32.7594L0.201904 0H16.1132L41.25 24.8854C44.9124 28.495 49.8481 30.5184 54.9903 30.5184C60.1325 30.5184 65.0682 28.495 68.7306 24.8854L93.8867 0Z" fill="#23292F"/>
<path d="M15.9092 91.0938H0L33.3008 58.1324C45.2826 46.2752 64.7088 46.2752 76.6992 58.1324L110 91.0938H94.1016L68.75 66.0065C65.0876 62.3968 60.1519 60.3734 55.0097 60.3734C49.8675 60.3734 44.9317 62.3968 41.2693 66.0065L15.9092 91.0938Z" fill="#23292F"/>
</svg>
