<svg width="81" height="105" viewBox="0 0 81 105" fill="none" xmlns="http://www.w3.org/2000/svg">
<path d="M41.0556 38.6466C37.6417 38.4234 29.7402 37.9116 29.7402 30.7781C29.7402 22.173 41.1145 22.173 45.3861 22.173C52.8882 22.173 62.6063 24.3928 69.5455 26.4764C69.5455 26.4764 73.4177 27.8447 76.7138 29.2458L77.0198 29.3278V5.74219L76.5992 5.6175C68.4031 2.76281 58.8814 0 41.2258 0C10.7852 0 0 17.7762 0 33.0061C0 41.7834 3.75271 62.4488 38.6171 64.8342C41.5712 64.9983 49.4137 65.4691 49.4137 72.8372C49.4137 78.9075 42.9934 82.5103 32.1935 82.5103C20.3609 82.5103 8.87198 79.4866 1.90009 76.6172V100.89C12.3432 103.628 24.1087 105 37.9035 105C67.6667 105 81 88.1803 81 71.5099C81 52.6099 66.0824 40.3266 41.0556 38.6449" fill="#862565"/>
</svg>
