<svg width="120" height="105" viewBox="0 0 120 105" fill="none" xmlns="http://www.w3.org/2000/svg">
<path fill-rule="evenodd" clip-rule="evenodd" d="M21.9709 0.512709L0.0899574 46.4736C0.00669418 46.6446 -0.0196914 46.8377 0.0146593 47.0247C0.04901 47.2117 0.142295 47.3828 0.280872 47.513L59.376 104.14C59.5439 104.301 59.7674 104.391 60 104.391C60.2326 104.391 60.4562 104.301 60.624 104.14L119.719 47.5166C119.858 47.3864 119.951 47.2152 119.985 47.0282C120.02 46.8412 119.993 46.6481 119.91 46.4772L98.0291 0.516245C97.9585 0.361889 97.8449 0.231129 97.702 0.139595C97.5591 0.0480598 97.3928 -0.000378643 97.223 6.84194e-05H22.784C22.6135 -0.00205343 22.446 0.0452182 22.3017 0.136181C22.1574 0.227143 22.0425 0.357911 21.9709 0.512709Z" fill="#50AF95"/>
<path fill-rule="evenodd" clip-rule="evenodd" d="M67.5924 51.1935C67.1681 51.2253 64.9761 51.3561 60.0866 51.3561C56.1976 51.3561 53.4364 51.2395 52.4677 51.1935C37.4385 50.5324 26.2205 47.9161 26.2205 44.7837C26.2205 41.6513 37.4385 39.0386 52.4677 38.3669V48.5879C53.4506 48.6586 56.2648 48.8248 60.1538 48.8248C64.8206 48.8248 67.1575 48.6303 67.5782 48.5914V38.374C82.5756 39.0422 93.7689 41.6584 93.7689 44.7837C93.7689 47.9091 82.5792 50.5253 67.5782 51.19L67.5924 51.1935ZM67.5924 37.3169V28.1706H88.5223V14.2233H31.5378V28.1706H52.4642V37.3133C35.4551 38.0947 22.6638 41.4639 22.6638 45.5014C22.6638 49.5389 35.4551 52.9047 52.4642 53.6895V82.9985H67.5888V53.6789C84.559 52.8976 97.3291 49.5318 97.3291 45.4979C97.3291 41.4639 84.5696 38.0982 67.5888 37.3133L67.5924 37.3169Z" fill="white"/>
</svg>
