<svg width="100" height="106" viewBox="0 0 100 106" fill="none" xmlns="http://www.w3.org/2000/svg">
<path d="M98.6399 31.6977C93.7079 27.1438 86.8853 20.1897 81.3286 15.2577L80.9998 15.0275C80.4527 14.5882 79.8359 14.2437 79.1749 14.0083C65.7764 11.5094 3.41952 -0.146564 2.20296 0.00139619C1.86207 0.049138 1.53623 0.172731 1.24944 0.363076L0.937079 0.609675C0.552456 1.00029 0.260329 1.47219 0.0822 1.99063L0 2.20435V3.37159V3.55243C7.01987 23.0996 34.7377 87.1333 40.1958 102.159C40.5246 103.179 41.1493 105.119 42.3165 105.217H42.5795C43.2043 105.217 45.8675 101.699 45.8675 101.699C45.8675 101.699 93.4777 43.9619 98.2946 37.8133C98.9181 37.056 99.4686 36.2413 99.9386 35.3802C100.059 34.7065 100.002 34.0132 99.7744 33.3678C99.5468 32.7225 99.156 32.1471 98.6399 31.6977ZM58.0825 38.4216L78.4023 21.5707L90.3213 32.5526L58.0825 38.4216ZM50.1913 37.3201L15.207 8.64883L71.8098 19.0882L50.1913 37.3201ZM53.3477 44.8332L89.154 39.0628L48.2185 88.3827L53.3477 44.8332ZM10.4558 11.5094L47.2649 42.7453L41.9384 88.4156L10.4558 11.5094Z" fill="#FF060A"/>
</svg>
