<svg width="15" height="15" viewBox="0 0 15 15" fill="none" xmlns="http://www.w3.org/2000/svg">
<path d="M7.46781 0C8.63734 0 9.75322 0.272331 10.7511 0.762527C10.912 0.83878 11.0622 0.915033 11.2232 1.00218L10.5365 1.62309L9.50644 0.544662L7.73605 2.12418L6.69528 0.991286L3.44421 3.92157L5.52575 6.23094L4.7103 6.94989L6.75966 9.25926L5.94421 9.97821L8.88412 13.2571L10.6223 11.6558L12.1352 13.3769C11.8348 13.6057 11.5129 13.8344 11.1481 14.0305C10.0644 14.6514 8.80901 15 7.46781 15C3.34764 15 0 11.634 0 7.50545C0 3.37691 3.34764 0 7.46781 0ZM6.10515 7.02614L7.88627 5.42484L9.48498 7.21133L7.70386 8.81264L6.10515 7.02614ZM7.37125 10.1198L9.14163 8.50763L10.7511 10.2941L8.96996 11.8954L7.37125 10.1198ZM4.83906 3.97603L6.62017 2.37473L8.21888 4.16122L6.42704 5.76253L4.83906 3.97603ZM8.10086 3.11547L9.43133 1.91721L10.633 3.24619L9.30258 4.46623L8.10086 3.11547ZM10.4614 8.62745L11.7918 7.42919L12.9936 8.76906L11.6631 9.96732L10.4614 8.62745ZM11.6309 11.329L12.9614 10.1307L14.1631 11.4597L12.8326 12.6797L11.6309 11.329ZM12.1781 5.15251L13.0579 4.34641L13.8519 5.22876L12.9721 6.03486L12.1781 5.15251ZM11.0408 2.50545L11.9206 1.68845L12.7146 2.59259L11.8348 3.39869L11.0408 2.50545ZM13.3047 7.79956L14.1846 6.99346L15 7.87582L14.0987 8.68192L13.3047 7.79956ZM9.32404 5.8061L10.6545 4.60784L11.8562 5.93682L10.5258 7.13508L9.32404 5.8061Z" fill="#006CB4"/>
</svg>
