<svg width="23" height="20" viewBox="0 0 23 20" fill="none" xmlns="http://www.w3.org/2000/svg">
<path d="M22.2325 17.177C22.9531 18.426 22.0486 19.9872 20.6095 19.9872H1.87592C0.433991 19.9872 -0.466292 18.4235 0.252857 17.177L9.61975 0.936314C10.3407 -0.313237 12.1463 -0.310972 12.8659 0.936314L22.2325 17.177ZM11.2428 13.8193C10.2511 13.8193 9.44708 14.6232 9.44708 15.615C9.44708 16.6067 10.2511 17.4107 11.2428 17.4107C12.2346 17.4107 13.0385 16.6067 13.0385 15.615C13.0385 14.6232 12.2346 13.8193 11.2428 13.8193ZM9.53792 7.36458L9.8275 12.6737C9.84105 12.9221 10.0465 13.1166 10.2952 13.1166H12.1904C12.4391 13.1166 12.6446 12.9221 12.6581 12.6737L12.9477 7.36458C12.9623 7.09623 12.7487 6.8706 12.4799 6.8706H10.0056C9.7369 6.8706 9.52328 7.09623 9.53792 7.36458Z" fill="white"/>
</svg>
