<svg width="16" height="16" viewBox="0 0 16 16" fill="none" xmlns="http://www.w3.org/2000/svg">
<path d="M6.70229 1.16679L7.465 0.404077C7.78796 0.0811274 8.31017 0.0811274 8.62969 0.404077L15.3086 7.07952C15.6315 7.40247 15.6315 7.92469 15.3086 8.24421L8.63312 14.9197C8.31017 15.2426 7.78795 15.2426 7.46844 14.9197L6.70573 14.1569C6.37934 13.8306 6.38621 13.298 6.71947 12.9785L10.856 9.03784L0.981954 9.03784C0.525014 9.03784 0.157401 8.67022 0.157401 8.21328L0.157401 7.11388C0.157401 6.65694 0.525015 6.28933 0.981954 6.28933L10.856 6.28933L6.71604 2.34521C6.37934 2.0257 6.37247 1.49317 6.70229 1.16679Z" fill="#85CE36"/>
</svg>
