<svg width="20" height="20" viewBox="0 0 20 20" fill="none" xmlns="http://www.w3.org/2000/svg">
<path d="M10 0.914634C12.3171 0.914634 14.6341 1.79878 16.4024 3.56707C19.939 7.10366 19.939 12.8659 16.4024 16.4024C14.6341 18.1707 12.3171 19.0549 10 19.0549C7.68293 19.0549 5.36585 18.1707 3.59756 16.4024C0.0609756 12.8659 0.0609756 7.13415 3.59756 3.59756C5.36585 1.79878 7.68293 0.914634 10 0.914634ZM15.9146 14.3598C16.8293 13.1098 17.3476 11.5854 17.3476 10C17.3476 8.04878 16.5854 6.18902 15.1829 4.81707C13.7805 3.44512 11.9512 2.65244 10 2.65244C8.41463 2.65244 6.92073 3.14024 5.67073 4.05488L15.9146 14.3598ZM10 17.3476C11.7683 17.3476 13.4146 16.7378 14.7256 15.6098L4.39024 5.2439C3.2622 6.58536 2.65244 8.23171 2.65244 10C2.65244 11.9512 3.41463 13.811 4.81707 15.1829C6.18902 16.5854 8.04878 17.3476 10 17.3476ZM10 0C7.34756 0 4.81707 1.03659 2.92683 2.92683C1.03659 4.81707 0 7.31707 0 10C0 12.6524 1.03659 15.1829 2.92683 17.0732C4.81707 18.9634 7.31707 20 10 20C12.6524 20 15.1829 18.9634 17.0732 17.0732C18.9634 15.1829 20 12.6829 20 10C20 7.34756 18.9634 4.81707 17.0732 2.92683C15.1829 1.06707 12.6829 0 10 0ZM7.13415 4.2378C8.01829 3.81098 8.9939 3.56707 10 3.56707C11.7073 3.56707 13.3232 4.2378 14.5427 5.45732C15.7622 6.67683 16.4329 8.29268 16.4329 10C16.4329 11.0061 16.189 11.9817 15.7622 12.8963L7.13415 4.2378ZM10 16.4329C8.29268 16.4329 6.67683 15.7622 5.45732 14.5427C4.23781 13.3232 3.56707 11.7073 3.56707 10C3.56707 8.78049 3.90244 7.65244 4.5122 6.64634L13.3232 15.4878C12.3476 16.0976 11.2195 16.4329 10 16.4329Z" fill="#B81D1D"/>
</svg>
