<svg width="20" height="16" viewBox="0 0 20 16" fill="none" xmlns="http://www.w3.org/2000/svg">
<path d="M6.50003 11C6.42535 11 6.35066 11.0109 6.27941 11.034C5.87441 11.1656 5.44847 11.25 5.00004 11.25C4.5516 11.25 4.12567 11.1656 3.72035 11.034C3.6491 11.0109 3.57473 11 3.50004 11C1.56067 11 -0.010262 12.5775 5.04836e-05 14.5193C0.00442547 15.34 0.679111 16 1.50005 16H8.50003C9.32096 16 9.99565 15.34 10 14.5193C10.0103 12.5775 8.4394 11 6.50003 11ZM5.00004 9.99998C6.65691 9.99998 8.00003 8.65685 8.00003 6.99998C8.00003 5.34311 6.65691 3.99999 5.00004 3.99999C3.34317 3.99999 2.00005 5.34311 2.00005 6.99998C2.00005 8.65685 3.34317 9.99998 5.00004 9.99998ZM18.5 0H6.50003C5.67285 0 5.00004 0.695311 5.00004 1.54968V2.99999C5.73191 2.99999 6.40941 3.21187 7.00003 3.55624V1.99999H18V11H16V8.99998H12V11H9.61753C10.2144 11.5215 10.6525 12.2103 10.8578 13H18.5C19.3272 13 20 12.3047 20 11.4503V1.54968C20 0.695311 19.3272 0 18.5 0Z" fill="#85CE36"/>
</svg>
