<svg width="52" height="25" viewBox="0 0 52 25" fill="none" xmlns="http://www.w3.org/2000/svg">
<path d="M5.82697 24.3673C9.04512 24.3673 11.6539 21.7585 11.6539 18.5404C11.6539 15.3222 9.04512 12.7134 5.82697 12.7134C2.60883 12.7134 0 15.3222 0 18.5404C0 21.7585 2.60883 24.3673 5.82697 24.3673Z" fill="#85CE36"/>
<path d="M35.4916 11.6539C38.7097 11.6539 41.3186 9.04512 41.3186 5.82697C41.3186 2.60883 38.7097 0 35.4916 0C32.2734 0 29.6646 2.60883 29.6646 5.82697C29.6646 9.04512 32.2734 11.6539 35.4916 11.6539Z" fill="#85CE36"/>
<path d="M46.0861 24.3673C49.3042 24.3673 51.913 21.7585 51.913 18.5404C51.913 15.3222 49.3042 12.7134 46.0861 12.7134C42.8679 12.7134 40.2591 15.3222 40.2591 18.5404C40.2591 21.7585 42.8679 24.3673 46.0861 24.3673Z" fill="#85CE36"/>
<path d="M15.7593 11.6539C17.5878 11.6539 19.0701 10.1716 19.0701 8.34313C19.0701 6.51464 17.5878 5.03235 15.7593 5.03235C13.9308 5.03235 12.4485 6.51464 12.4485 8.34313C12.4485 10.1716 13.9308 11.6539 15.7593 11.6539Z" fill="#85CE36"/>
<path d="M22.9106 19.3349C24.7391 19.3349 26.2214 17.8527 26.2214 16.0242C26.2214 14.1957 24.7391 12.7134 22.9106 12.7134C21.0821 12.7134 19.5998 14.1957 19.5998 16.0242C19.5998 17.8527 21.0821 19.3349 22.9106 19.3349Z" fill="#85CE36"/>
</svg>
