<svg width="20" height="20" viewBox="0 0 20 20" fill="none" xmlns="http://www.w3.org/2000/svg">
<path d="M11.5152 8.24675V7.40259C11.5152 6.29869 10.6576 5.3896 9.61625 5.3896C8.5749 5.3896 7.71732 6.29869 7.71732 7.40259V8.24675H7.16602V13.1493H12.0665V8.24675H11.5152ZM8.48301 7.40259C8.48301 6.75324 8.97306 6.23376 9.58562 6.23376C10.1982 6.23376 10.6882 6.75324 10.6882 7.40259V8.24675H8.45239V7.40259H8.48301ZM11.2702 12.3377H7.93171V9.0909H11.2702V12.3377Z" fill="#85CE36"/>
<path d="M10.0151 9.87013H9.21875V11.2013H10.0151V9.87013Z" fill="#85CE36"/>
<path d="M18.8361 10C18.8361 4.48052 14.6095 0 9.40276 0C4.19602 0 0 4.48052 0 10C0 15.5195 4.22665 20 9.43338 20V18.6039C4.96172 18.6039 1.317 14.7403 1.317 10C1.317 5.25974 4.96172 1.3961 9.43338 1.3961C13.9051 1.3961 17.5498 5.25974 17.5498 10H16.4165L18.193 13.4091L20 10H18.8361Z" fill="#85CE36"/>
</svg>
