<svg width="12" height="12" viewBox="0 0 12 12" fill="none" xmlns="http://www.w3.org/2000/svg">
<path d="M5.387 5.79L5.293 5.707L1.293 1.707C1.11365 1.52704 1.00953 1.28556 1.00177 1.03161C0.994017 0.777665 1.08322 0.530285 1.25125 0.33972C1.41928 0.149155 1.65355 0.0296932 1.90647 0.0055996C2.1594 -0.018494 2.41201 0.0545867 2.613 0.209999L2.707 0.292999L6 3.585L9.293 0.292999C9.46519 0.120822 9.69429 0.0173907 9.93732 0.00210954C10.1803 -0.0131716 10.4206 0.0607472 10.613 0.209999L10.707 0.292999C10.8792 0.465191 10.9826 0.694291 10.9979 0.937317C11.0132 1.18034 10.9393 1.42059 10.79 1.613L10.707 1.707L8.707 3.707L6.707 5.707C6.53481 5.87918 6.30571 5.98261 6.06268 5.99789C5.81966 6.01317 5.5794 5.93925 5.387 5.79ZM5.387 11.79L5.293 11.707L1.293 7.707C1.11365 7.52704 1.00953 7.28556 1.00177 7.03161C0.994017 6.77767 1.08322 6.53029 1.25125 6.33972C1.41928 6.14915 1.65355 6.02969 1.90647 6.0056C2.1594 5.98151 2.41201 6.05459 2.613 6.21L2.707 6.293L6 9.585L9.293 6.293C9.46519 6.12082 9.69429 6.01739 9.93732 6.00211C10.1803 5.98683 10.4206 6.06075 10.613 6.21L10.707 6.293C10.8792 6.46519 10.9826 6.69429 10.9979 6.93732C11.0132 7.18034 10.9393 7.42059 10.79 7.613L10.707 7.707L6.707 11.707C6.53481 11.8792 6.30571 11.9826 6.06268 11.9979C5.81966 12.0132 5.5794 11.9392 5.387 11.79Z" fill="#8DC640"/>
</svg>
