<svg width="7" height="7" viewBox="0 0 7 7" fill="none" xmlns="http://www.w3.org/2000/svg">
<path d="M5.01067 1.16398C3.33088 2.84377 1.66471 4.50993 0.00244141 6.1722C0.276891 6.44665 0.551341 6.7211 0.833577 7.00334C2.49585 5.34107 4.16201 3.6749 5.83791 2.00095C5.83791 2.81652 5.83791 3.62235 5.83791 4.43013C6.23109 4.43013 6.61649 4.43013 6.99994 4.43013C6.99994 2.94888 6.99994 1.47347 6.99994 0C5.52064 0 4.04717 0 2.57176 0C2.57176 0.389291 2.57176 0.774688 2.57176 1.16398C3.37954 1.16398 4.18342 1.16398 5.01067 1.16398Z" fill="white"/>
<path d="M5.01017 1.16398C4.18293 1.16398 3.37904 1.16398 2.56932 1.16398C2.56932 0.774688 2.56932 0.389291 2.56932 0C4.04473 0 5.51819 0 6.9975 0C6.9975 1.47347 6.9975 2.94888 6.9975 4.43013C6.61405 4.43013 6.22865 4.43013 5.83547 4.43013C5.83547 3.62235 5.83547 2.81652 5.83547 2.00095C4.15957 3.6749 2.49341 5.34107 0.831136 7.00334C0.5489 6.7211 0.276396 6.4486 0 6.1722C1.66422 4.50993 3.33038 2.84377 5.01017 1.16398Z" fill="white"/>
</svg>
