<?xml version="1.0" encoding="UTF-8"?>
<svg id="_Шар_2" data-name="Шар 2" xmlns="http://www.w3.org/2000/svg" xmlns:xlink="http://www.w3.org/1999/xlink" viewBox="0 0 389.33 403.82">
  <defs>
    <style>
      .cls-1 {
        fill: url(#_Градієнт_без_назви_23-2);
      }

      .cls-1, .cls-2 {
        stroke: #fff;
        stroke-miterlimit: 10;
        stroke-width: 13.52px;
      }

      .cls-3 {
        fill: url(#_Градієнт_без_назви_13);
      }

      .cls-3, .cls-4, .cls-5, .cls-6 {
        stroke-width: 0px;
      }

      .cls-4 {
        fill: url(#_Градієнт_без_назви_23);
      }

      .cls-5 {
        fill: #fff;
      }

      .cls-6 {
        fill: url(#_Градієнт_без_назви_13-2);
      }

      .cls-2 {
        fill: url(#_Градієнт_без_назви_23-3);
      }
    </style>
    <linearGradient id="_Градієнт_без_назви_23" data-name="Градієнт без назви 23" x1="0" y1="232.17" x2="389.33" y2="232.17" gradientUnits="userSpaceOnUse">
      <stop offset="0" stop-color="#a355fe"/>
      <stop offset="1" stop-color="#7560fe"/>
    </linearGradient>
    <linearGradient id="_Градієнт_без_назви_23-2" data-name="Градієнт без назви 23" x1="88.12" y1="60.52" x2="131.53" y2="60.52" xlink:href="#_Градієнт_без_назви_23"/>
    <linearGradient id="_Градієнт_без_назви_23-3" data-name="Градієнт без назви 23" x1="255.17" y1="60.52" x2="298.57" y2="60.52" xlink:href="#_Градієнт_без_назви_23"/>
    <linearGradient id="_Градієнт_без_назви_13" data-name="Градієнт без назви 13" x1="112.77" y1="265.43" x2="199.71" y2="265.43" gradientUnits="userSpaceOnUse">
      <stop offset="0" stop-color="#649c29"/>
      <stop offset="1" stop-color="#85ce36"/>
    </linearGradient>
    <linearGradient id="_Градієнт_без_назви_13-2" data-name="Градієнт без назви 13" x1="228.13" x2="276.56" xlink:href="#_Градієнт_без_назви_13"/>
  </defs>
  <g id="_Шар_1-2" data-name="Шар 1">
    <rect class="cls-4" y="60.52" width="389.33" height="343.29" rx="53.93" ry="53.93"/>
    <path class="cls-5" d="M30.25,155.98h328.82v179.76c0,21.61-17.54,39.15-39.15,39.15H69.4c-21.61,0-39.15-17.54-39.15-39.15v-179.76h0Z"/>
    <rect class="cls-1" x="88.12" y="6.76" width="43.4" height="107.53" rx="21.7" ry="21.7"/>
    <rect class="cls-2" x="255.17" y="6.76" width="43.4" height="107.53" rx="21.7" ry="21.7"/>
    <g>
      <path class="cls-3" d="M127.4,291.24c5.21,4.04,10.05,7.04,14.5,9,4.46,1.96,8.62,2.94,12.49,2.94,5.05,0,9.1-1.32,12.15-3.95,3.06-2.63,4.58-6.08,4.58-10.34,0-4.88-2.1-8.55-6.31-11.01-4.2-2.47-10.43-3.7-18.67-3.7h-3.28v-20.94c9.31-.39,16.23-1.92,20.77-4.58s6.81-6.54,6.81-11.65c0-3.53-1.16-6.42-3.49-8.66-2.33-2.24-5.31-3.36-8.95-3.36-3.25,0-6.75,1.04-10.51,3.11s-7.88,5.27-12.36,9.59l-15.47-16.31c5.72-7.06,11.84-12.33,18.37-15.81,6.53-3.48,13.55-5.21,21.06-5.21,10.93,0,20,3.38,27.2,10.13,7.2,6.75,10.8,15.21,10.8,25.35,0,5.49-1.25,10.48-3.74,14.97-2.49,4.48-6.07,8.16-10.72,11.01,5.44,2.69,9.64,6.61,12.61,11.77,2.97,5.16,4.46,11.16,4.46,17.99,0,11.55-4.05,20.92-12.15,28.13-8.1,7.2-18.68,10.8-31.74,10.8-7.57,0-15.11-1.42-22.62-4.25-7.51-2.83-14.32-6.85-20.43-12.07l14.63-22.95Z"/>
      <path class="cls-6" d="M249.49,326.39v-99.72h-21.36l3.95-22.2h44.48v121.92h-27.07Z"/>
    </g>
  </g>
</svg>