<svg width="24" height="24" viewBox="0 0 24 24" fill="none" xmlns="http://www.w3.org/2000/svg">
<g clip-path="url(#clip0_2013_4684)">
<path d="M20.9436 23.0625H3.0564C1.8882 23.0625 0.9375 22.1118 0.9375 20.9432V4.55677C0.9375 3.3882 1.8882 2.4375 3.0564 2.4375H20.9436C22.1118 2.4375 23.0625 3.3882 23.0625 4.55677V20.9432C23.0625 22.1118 22.1118 23.0625 20.9436 23.0625ZM3.0564 3.5625C2.50853 3.5625 2.0625 4.00852 2.0625 4.55677V20.9432C2.0625 21.4915 2.50853 21.9375 3.0564 21.9375H20.9436C21.4915 21.9375 21.9375 21.4915 21.9375 20.9432V4.55677C21.9375 4.00852 21.4915 3.5625 20.9436 3.5625H3.0564Z" fill="#4958CD"/>
<path d="M22.5 8.0625H1.5C1.18942 8.0625 0.9375 7.81058 0.9375 7.5C0.9375 7.18942 1.18942 6.9375 1.5 6.9375H22.5C22.8106 6.9375 23.0625 7.18942 23.0625 7.5C23.0625 7.81058 22.8106 8.0625 22.5 8.0625Z" fill="#4958CD"/>
<path d="M12 5.0625C11.6894 5.0625 11.4375 4.81058 11.4375 4.5V1.5C11.4375 1.18942 11.6894 0.9375 12 0.9375C12.3106 0.9375 12.5625 1.18942 12.5625 1.5V4.5C12.5625 4.81058 12.3106 5.0625 12 5.0625Z" fill="#4958CD"/>
<path d="M4.5 5.0625C4.18942 5.0625 3.9375 4.81058 3.9375 4.5V1.5C3.9375 1.18942 4.18942 0.9375 4.5 0.9375C4.81058 0.9375 5.0625 1.18942 5.0625 1.5V4.5C5.0625 4.81058 4.81058 5.0625 4.5 5.0625Z" fill="#4958CD"/>
<path d="M19.5 5.0625C19.1894 5.0625 18.9375 4.81058 18.9375 4.5V1.5C18.9375 1.18942 19.1894 0.9375 19.5 0.9375C19.8106 0.9375 20.0625 1.18942 20.0625 1.5V4.5C20.0625 4.81058 19.8106 5.0625 19.5 5.0625Z" fill="#4958CD"/>
<path d="M7.5 14.0625H4.5C4.18942 14.0625 3.9375 13.8106 3.9375 13.5V10.5C3.9375 10.1894 4.18942 9.9375 4.5 9.9375H7.5C7.81058 9.9375 8.0625 10.1894 8.0625 10.5V13.5C8.0625 13.8106 7.81058 14.0625 7.5 14.0625ZM5.0625 12.9375H6.9375V11.0625H5.0625V12.9375Z" fill="#4958CD"/>
<path d="M13.5 14.0625H10.5C10.1894 14.0625 9.9375 13.8106 9.9375 13.5V10.5C9.9375 10.1894 10.1894 9.9375 10.5 9.9375H13.5C13.8106 9.9375 14.0625 10.1894 14.0625 10.5V13.5C14.0625 13.8106 13.8106 14.0625 13.5 14.0625ZM11.0625 12.9375H12.9375V11.0625H11.0625V12.9375Z" fill="#4958CD"/>
<path d="M19.5 14.0625H16.5C16.1894 14.0625 15.9375 13.8106 15.9375 13.5V10.5C15.9375 10.1894 16.1894 9.9375 16.5 9.9375H19.5C19.8106 9.9375 20.0625 10.1894 20.0625 10.5V13.5C20.0625 13.8106 19.8106 14.0625 19.5 14.0625ZM17.0625 12.9375H18.9375V11.0625H17.0625V12.9375Z" fill="#4958CD"/>
<path d="M7.5 20.0625H4.5C4.18942 20.0625 3.9375 19.8106 3.9375 19.5V16.5C3.9375 16.1894 4.18942 15.9375 4.5 15.9375H7.5C7.81058 15.9375 8.0625 16.1894 8.0625 16.5V19.5C8.0625 19.8106 7.81058 20.0625 7.5 20.0625ZM5.0625 18.9375H6.9375V17.0625H5.0625V18.9375Z" fill="#4958CD"/>
<path d="M13.5 20.0625H10.5C10.1894 20.0625 9.9375 19.8106 9.9375 19.5V16.5C9.9375 16.1894 10.1894 15.9375 10.5 15.9375H13.5C13.8106 15.9375 14.0625 16.1894 14.0625 16.5V19.5C14.0625 19.8106 13.8106 20.0625 13.5 20.0625ZM11.0625 18.9375H12.9375V17.0625H11.0625V18.9375Z" fill="#4958CD"/>
<path d="M19.5 20.0625H16.5C16.1894 20.0625 15.9375 19.8106 15.9375 19.5V16.5C15.9375 16.1894 16.1894 15.9375 16.5 15.9375H19.5C19.8106 15.9375 20.0625 16.1894 20.0625 16.5V19.5C20.0625 19.8106 19.8106 20.0625 19.5 20.0625ZM17.0625 18.9375H18.9375V17.0625H17.0625V18.9375Z" fill="#4958CD"/>
</g>
<defs>
<clipPath id="clip0_2013_4684">
<rect width="24" height="24" fill="white"/>
</clipPath>
</defs>
</svg>
