<?xml version="1.0" encoding="UTF-8"?>
<svg id="_Шар_2" data-name="Шар 2" xmlns="http://www.w3.org/2000/svg" xmlns:xlink="http://www.w3.org/1999/xlink" viewBox="0 0 989.28 975.05">
  <defs>
    <style>
      .cls-1, .cls-2 {
        stroke: #fff;
        stroke-miterlimit: 10;
        stroke-width: 28px;
      }

      .cls-1, .cls-3 {
        fill: #fff;
      }

      .cls-4 {
        fill: url(#_Градієнт_без_назви_13);
      }

      .cls-4, .cls-5, .cls-3 {
        stroke-width: 0px;
      }

      .cls-2 {
        fill: none;
      }

      .cls-5 {
        fill: url(#_Градієнт_без_назви_23);
      }
    </style>
    <linearGradient id="_Градієнт_без_назви_23" data-name="Градієнт без назви 23" x1="18.81" y1="523.73" x2="514.81" y2="523.73" gradientUnits="userSpaceOnUse">
      <stop offset="0" stop-color="#a355fe"/>
      <stop offset="1" stop-color="#7560fe"/>
    </linearGradient>
    <linearGradient id="_Градієнт_без_назви_13" data-name="Градієнт без назви 13" x1="248.81" y1="309.74" x2="943.86" y2="309.74" gradientUnits="userSpaceOnUse">
      <stop offset="0" stop-color="#649c29"/>
      <stop offset="1" stop-color="#85ce36"/>
    </linearGradient>
  </defs>
  <g id="_Шар_1-2" data-name="Шар 1">
    <g>
      <path class="cls-5" d="M52.1,819.82c-19.55-8.34-33.29-27.75-33.29-50.31V176.17c0-30.14,24.52-54.67,54.67-54.67h386.67c30.14,0,54.67,24.52,54.67,54.67v593.33c0,30.14-24.52,54.67-54.67,54.67H146.21l-117.13,101.77,23.03-106.13Z"/>
      <path class="cls-3" d="M460.15,139.51c20.25,0,36.67,16.42,36.67,36.67v593.33c0,20.25-16.42,36.67-36.67,36.67H139.48l-81.33,70.67,15.33-70.67c-20.25,0-36.67-16.42-36.67-36.67V176.17c0-20.25,16.42-36.67,36.67-36.67h386.67M460.15,103.51H73.48C33.41,103.51.81,136.11.81,176.17v593.33c0,24.53,12.22,46.26,30.89,59.43l-8.74,40.27L0,975.05l81.76-71.04,71.18-61.84h307.21c40.07,0,72.67-32.6,72.67-72.67V176.17c0-40.07-32.6-72.67-72.67-72.67h0Z"/>
    </g>
    <g>
      <circle class="cls-3" cx="119.16" cy="683.86" r="24.89"/>
      <circle class="cls-3" cx="119.16" cy="578.16" r="24.89" transform="translate(-470.92 561.3) rotate(-76.72)"/>
      <circle class="cls-3" cx="119.15" cy="472.46" r="24.89" transform="translate(-368.04 479.88) rotate(-76.72)"/>
      <circle class="cls-3" cx="119.15" cy="366.76" r="24.89" transform="translate(-265.17 398.46) rotate(-76.72)"/>
      <circle class="cls-3" cx="119.15" cy="261.06" r="24.89" transform="translate(-162.29 317.04) rotate(-76.72)"/>
    </g>
    <g>
      <line class="cls-1" x1="173.16" y1="683.86" x2="430.52" y2="683.86"/>
      <line class="cls-1" x1="173.16" y1="578.16" x2="430.52" y2="578.16"/>
      <line class="cls-1" x1="173.16" y1="472.46" x2="430.52" y2="472.46"/>
      <line class="cls-1" x1="173.16" y1="366.76" x2="430.52" y2="366.76"/>
      <line class="cls-2" x1="173.16" y1="261.06" x2="430.52" y2="261.06"/>
    </g>
    <g>
      <path class="cls-4" d="M892.92,585.1c-42.6-13.7-108.98-34.94-128.91-41.04-51.3,23.09-109.4,35.27-168.53,35.27-91.86,0-178.38-28.72-243.64-80.87-32.12-25.67-57.39-55.66-75.11-89.13-18.53-35-27.92-72.24-27.92-110.66s9.39-75.66,27.92-110.66c17.71-33.47,42.98-63.46,75.11-89.13,65.25-52.15,151.78-80.87,243.64-80.87s178.39,28.72,243.64,80.87c32.12,25.67,57.39,55.66,75.11,89.13,18.53,35,27.92,72.24,27.92,110.66,0,67.29-29.26,131.41-82.74,182.14l84.45,120.69-50.94-16.39Z"/>
      <path class="cls-3" d="M595.48,36c181.52,0,328.67,117.6,328.67,262.67,0,69.37-33.65,132.46-88.62,179.41l62.9,89.89s-133.84-43.05-135.88-43.05c-48.96,23.14-106.07,36.42-167.07,36.42-181.52,0-328.67-117.6-328.67-262.67S413.96,36,595.48,36M595.48,0c-48.3,0-95.22,7.58-139.46,22.54-43.12,14.58-81.95,35.53-115.42,62.27-34.06,27.22-60.9,59.11-79.78,94.77-19.91,37.63-30.01,77.69-30.01,119.08s10.1,81.46,30.01,119.08c18.88,35.67,45.72,67.55,79.78,94.77,33.47,26.75,72.3,47.7,115.42,62.27,44.24,14.95,91.16,22.54,139.46,22.54,59.26,0,117.59-11.76,169.63-34.09,24.9,7.76,83.75,26.6,122.3,39l101.88,32.77-61.36-87.68-45.1-64.45c50.09-52.32,77.32-116.7,77.32-184.22,0-41.39-10.1-81.46-30.01-119.08-18.88-35.67-45.72-67.55-79.78-94.77-33.47-26.75-72.3-47.7-115.42-62.27C690.7,7.58,643.78,0,595.48,0h0Z"/>
    </g>
    <circle class="cls-3" cx="438.18" cy="301.98" r="49.79"/>
    <circle class="cls-3" cx="585.24" cy="301.98" r="49.79"/>
    <circle class="cls-3" cx="735.37" cy="301.98" r="49.79"/>
  </g>
</svg>