<svg width="27" height="30" viewBox="0 0 27 30" fill="none" xmlns="http://www.w3.org/2000/svg">
<path d="M1.09999 7.99676V11.9999C1.08648 12.1391 1.10225 12.2797 1.14628 12.4125C1.19031 12.5453 1.26162 12.6674 1.35565 12.771C1.44968 12.8745 1.56433 12.9573 1.69225 13.014C1.82017 13.0706 1.95852 13.0999 2.09843 13.0999C2.23833 13.0999 2.37668 13.0706 2.5046 13.014C2.63252 12.9573 2.74717 12.8745 2.8412 12.771C2.93523 12.6674 3.00654 12.5453 3.05057 12.4125C3.0946 12.2797 3.11037 12.1391 3.09686 11.9999V7.99676H4.09999V8.09052C4.12406 8.33863 4.23965 8.56889 4.42422 8.73643C4.6088 8.90396 4.84915 8.99678 5.09843 8.99678C5.3477 8.99678 5.58805 8.90396 5.77263 8.73643C5.95721 8.56889 6.07279 8.33863 6.09686 8.09052V5.90614C6.11037 5.76689 6.0946 5.62636 6.05057 5.49357C6.00654 5.36078 5.93523 5.23867 5.8412 5.13508C5.74717 5.03149 5.63252 4.94871 5.5046 4.89206C5.37668 4.83542 5.23833 4.80615 5.09843 4.80615C4.95853 4.80615 4.82017 4.83542 4.69225 4.89206C4.56433 4.94871 4.44968 5.03149 4.35565 5.13508C4.26163 5.23867 4.19031 5.36078 4.14628 5.49357C4.10225 5.62636 4.08648 5.76689 4.09999 5.90614V5.99989H1.09999C0.960741 5.98638 0.820209 6.00215 0.687418 6.04618C0.554627 6.09021 0.432514 6.16153 0.328924 6.25555C0.225333 6.34958 0.142556 6.46424 0.0859098 6.59216C0.0292633 6.72007 0 6.85843 0 6.99833C0 7.13823 0.0292633 7.27658 0.0859098 7.4045C0.142556 7.53242 0.225333 7.64707 0.328924 7.7411C0.432514 7.83513 0.554627 7.90645 0.687418 7.95048C0.820209 7.99451 0.960741 8.01027 1.09999 7.99676Z" fill="#666C75"/>
<path d="M1.09999 16.0031V20.0062C1.08648 20.1455 1.10225 20.286 1.14628 20.4188C1.19031 20.5516 1.26163 20.6737 1.35565 20.7773C1.44968 20.8809 1.56433 20.9637 1.69225 21.0203C1.82017 21.077 1.95853 21.1062 2.09843 21.1062C2.23833 21.1062 2.37668 21.077 2.5046 21.0203C2.63252 20.9637 2.74717 20.8809 2.8412 20.7773C2.93523 20.6737 3.00655 20.5516 3.05058 20.4188C3.09461 20.286 3.11037 20.1455 3.09686 20.0062V16.0031H4.09999V16.0969C4.08648 16.2361 4.10225 16.3766 4.14628 16.5094C4.19031 16.6422 4.26163 16.7643 4.35565 16.8679C4.44968 16.9715 4.56433 17.0543 4.69225 17.1109C4.82017 17.1676 4.95853 17.1968 5.09843 17.1968C5.23833 17.1968 5.37668 17.1676 5.5046 17.1109C5.63252 17.0543 5.74717 16.9715 5.8412 16.8679C5.93523 16.7643 6.00654 16.6422 6.05057 16.5094C6.0946 16.3766 6.11037 16.2361 6.09686 16.0969V13.9125C6.11037 13.7732 6.0946 13.6327 6.05057 13.4999C6.00654 13.3671 5.93523 13.245 5.8412 13.1414C5.74717 13.0378 5.63252 12.9551 5.5046 12.8984C5.37668 12.8418 5.23833 12.8125 5.09843 12.8125C4.95853 12.8125 4.82017 12.8418 4.69225 12.8984C4.56433 12.9551 4.44968 13.0378 4.35565 13.1414C4.26163 13.245 4.19031 13.3671 4.14628 13.4999C4.10225 13.6327 4.08648 13.7732 4.09999 13.9125V14.0062H1.09999C0.851877 14.0303 0.621616 14.1459 0.454077 14.3305C0.286538 14.5151 0.193726 14.7554 0.193726 15.0047C0.193726 15.254 0.286538 15.4943 0.454077 15.6789C0.621616 15.8635 0.851877 15.979 1.09999 16.0031Z" fill="#666C75"/>
<path d="M21.0969 3.56611e-06H6.09686C4.98848 -0.0013214 3.91123 0.366602 3.03522 1.04567C2.15922 1.72475 1.53438 2.67628 1.25936 3.75C1.20947 4.00162 1.25787 4.26278 1.39461 4.47982C1.53134 4.69685 1.74602 4.85325 1.99452 4.91687C2.24302 4.9805 2.50645 4.94651 2.73066 4.8219C2.95487 4.69728 3.12282 4.49151 3.19999 4.24688C3.36446 3.60342 3.73845 3.03301 4.26298 2.62561C4.7875 2.21822 5.43271 1.99701 6.09686 1.99688H21.0969C21.8925 1.99688 22.6556 2.31295 23.2182 2.87556C23.7808 3.43817 24.0969 4.20123 24.0969 4.99688V25.0031C24.0969 25.7988 23.7808 26.5618 23.2182 27.1244C22.6556 27.6871 21.8925 28.0031 21.0969 28.0031H6.09686C5.30121 28.0031 4.53815 27.6871 3.97554 27.1244C3.41293 26.5618 3.09686 25.7988 3.09686 25.0031V24H4.09999V24.0938C4.08648 24.233 4.10225 24.3735 4.14628 24.5063C4.19031 24.6391 4.26162 24.7612 4.35565 24.8648C4.44968 24.9684 4.56433 25.0512 4.69225 25.1078C4.82017 25.1645 4.95853 25.1937 5.09843 25.1937C5.23833 25.1937 5.37668 25.1645 5.5046 25.1078C5.63252 25.0512 5.74717 24.9684 5.8412 24.8648C5.93523 24.7612 6.00654 24.6391 6.05057 24.5063C6.0946 24.3735 6.11037 24.233 6.09686 24.0938V21.9094C6.07279 21.6613 5.9572 21.431 5.77263 21.2635C5.58805 21.0959 5.3477 21.0031 5.09843 21.0031C4.84915 21.0031 4.6088 21.0959 4.42422 21.2635C4.23964 21.431 4.12406 21.6613 4.09999 21.9094V22.0031H1.09999C0.960741 21.9896 0.820209 22.0054 0.687418 22.0494C0.554627 22.0934 0.432514 22.1648 0.328924 22.2588C0.225333 22.3528 0.142556 22.4675 0.0859098 22.5954C0.0292633 22.7233 0 22.8617 0 23.0016C0 23.1415 0.0292633 23.2798 0.0859098 23.4077C0.142556 23.5357 0.225333 23.6503 0.328924 23.7443C0.432514 23.8384 0.554627 23.9097 0.687418 23.9537C0.820209 23.9977 0.960741 24.0135 1.09999 24V25.0031C1.10247 26.3276 1.62972 27.5972 2.56628 28.5337C3.50283 29.4703 4.77237 29.9975 6.09686 30H21.0969C22.4214 29.9975 23.6909 29.4703 24.6274 28.5337C25.564 27.5972 26.0913 26.3276 26.0937 25.0031V4.99688C26.0913 3.67239 25.564 2.40285 24.6274 1.46629C23.6909 0.529732 22.4214 0.00248158 21.0969 3.56611e-06Z" fill="#666C75"/>
<path d="M14.1031 16.2656C13.3614 16.2656 12.6364 16.0457 12.0197 15.6336C11.403 15.2216 10.9224 14.6359 10.6386 13.9507C10.3547 13.2655 10.2805 12.5115 10.4252 11.784C10.5699 11.0566 10.927 10.3884 11.4515 9.86398C11.9759 9.33953 12.6441 8.98238 13.3715 8.83768C14.099 8.69299 14.853 8.76725 15.5382 9.05108C16.2234 9.33491 16.8091 9.81555 17.2211 10.4322C17.6332 11.0489 17.8531 11.7739 17.8531 12.5156C17.8531 13.5102 17.458 14.464 16.7548 15.1673C16.0515 15.8705 15.0977 16.2656 14.1031 16.2656ZM14.1031 10.8281C13.7638 10.8281 13.4321 10.9287 13.15 11.1173C12.8678 11.3058 12.6479 11.5737 12.5181 11.8872C12.3882 12.2007 12.3543 12.5457 12.4205 12.8785C12.4867 13.2113 12.6501 13.5169 12.89 13.7569C13.1299 13.9968 13.4356 14.1602 13.7684 14.2264C14.1012 14.2926 14.4462 14.2586 14.7597 14.1288C15.0732 13.9989 15.3411 13.779 15.5296 13.4969C15.7181 13.2148 15.8187 12.8831 15.8187 12.5438C15.8187 12.0887 15.638 11.6524 15.3163 11.3306C14.9945 11.0089 14.5581 10.8281 14.1031 10.8281Z" fill="#666C75"/>
<path d="M18.0969 20.9437C17.958 20.9453 17.8203 20.9177 17.6928 20.8628C17.5652 20.8079 17.4506 20.7269 17.3562 20.625C16.9414 20.1665 16.4351 19.8 15.8699 19.5492C15.3047 19.2984 14.6933 19.1688 14.075 19.1688C13.4567 19.1688 12.8452 19.2984 12.2801 19.5492C11.7149 19.8 11.2086 20.1665 10.7937 20.625C10.7117 20.7441 10.6049 20.844 10.4807 20.918C10.3565 20.992 10.2177 21.0382 10.0739 21.0536C9.9301 21.0689 9.78469 21.053 9.64763 21.0069C9.51058 20.9608 9.38511 20.8856 9.27983 20.7865C9.17454 20.6873 9.09194 20.5666 9.03767 20.4326C8.98341 20.2985 8.95876 20.1543 8.96542 20.0099C8.97208 19.8654 9.0099 19.7241 9.07627 19.5957C9.14265 19.4672 9.23602 19.3546 9.34998 19.2656C9.95159 18.6091 10.6832 18.085 11.4982 17.7264C12.3132 17.3678 13.1939 17.1826 14.0844 17.1826C14.9748 17.1826 15.8555 17.3678 16.6705 17.7264C17.4856 18.085 18.2171 18.6091 18.8187 19.2656C18.9494 19.4093 19.0356 19.5878 19.0668 19.7795C19.098 19.9713 19.0728 20.1679 18.9944 20.3456C18.916 20.5233 18.7876 20.6744 18.625 20.7806C18.4623 20.8868 18.2723 20.9434 18.0781 20.9437H18.0969Z" fill="#666C75"/>
</svg>
