<?xml version="1.0" encoding="utf-8"?>
<!-- Generator: Adobe Illustrator 27.2.0, SVG Export Plug-In . SVG Version: 6.00 Build 0)  -->
<svg version="1.1" id="Layer_1" xmlns="http://www.w3.org/2000/svg" xmlns:xlink="http://www.w3.org/1999/xlink" x="0px" y="0px"
	 width="279.8px" height="293px" viewBox="0 0 279.8 293" style="enable-background:new 0 0 279.8 293;" xml:space="preserve">
<style type="text/css">
	.st0{fill:none;}
	.st1{fill:#EB873F;}
	.st2{fill:#FFFFFF;}
</style>
<path class="st0" d="M148,294c-49.6,0-98.8,0-148,0C0,196.4,0,98.8,0,1.1c93.2,0,186.4,0,279.8,0c0,97.6,0,195.2,0,292.9
	C236.1,294,192.3,294,148,294 M148.3,19c-10.8,0.4-21.7-0.4-32.2,1.3c-20.1,3.3-38.6,11-54.9,23.6C41.6,59,26.9,77.5,18,100.6
	c-8.1,20.9-9.7,42.5-7,64.6c2.2,18.3,8.3,35.3,18.4,50.7c14.4,22,33.3,38.6,57.6,49.3c23.6,10.3,48.2,12.5,73,8.6
	c32.6-5.2,59.1-21.9,79.6-47.8c15.1-19.1,24-41,26-65.1c1.1-13,0.2-26.6-2-39.5c-3.8-22.3-14-42.1-29.1-59.1
	c-13-14.6-28.3-26.1-46.4-33.6C175.7,23.4,162.7,20.1,148.3,19z"/>
<path class="st1" d="M148.8,19c13.9,1.1,26.9,4.4,39.4,9.6c18.2,7.5,33.4,19,46.4,33.6c15.1,17,25.3,36.7,29.1,59.1
	c2.2,12.9,3.1,26.5,2,39.5c-2.1,24.1-10.9,46-26,65.1c-20.5,25.9-47,42.6-79.6,47.8c-24.8,4-49.5,1.7-73-8.6
	c-24.3-10.6-43.3-27.3-57.6-49.3c-10.1-15.4-16.2-32.4-18.4-50.7c-2.7-22.1-1-43.7,7-64.6C26.9,77.5,41.6,59,61.1,43.9
	C77.5,31.3,96,23.7,116.1,20.3C126.6,18.6,137.6,19.4,148.8,19 M150,113.5c0-10.5-0.1-21,0-31.5c0.2-16.7,1.2-16.2-16.9-16
	c-5.1,0-7.1,2.2-7.1,7.2c0,19.1,0,38.3,0,57.4c0,26.1,0,52.3,0,78.4c0,4.9,2,6.8,6.8,6.9c3,0,6,0,9,0c6.7,0,8.1-1.5,8.1-8.1
	C150,176.8,150,145.6,150,113.5 M187.7,101c-6.6,0-9.7,2.5-9.7,8.3c-0.1,32.8-0.1,65.6,0,98.4c0,6.4,2,8.3,8.3,8.3c2.7,0,5.3,0,8,0
	c6.9,0,8.7-1.8,8.7-8.9c0-30.6,0-61.3,0-91.9C203,101,203,101,187.7,101 M73,161.5c0,15.5,0,31,0,46.4c0,6.2,1.9,8,7.8,8.1
	c3,0,6,0,9,0c5.6,0,8.1-2.1,8.1-7.6c0.1-21.6,0.1-43.3,0-64.9c0-4.6-3.3-7.5-7.9-7.5c-3.3,0-6.7-0.1-10,0c-4.8,0.1-6.9,2.2-7,7
	C72.9,148.8,73,154.7,73,161.5z"/>
<path class="st2" d="M150,114c0,31.6,0,62.8,0,93.9c0,6.6-1.5,8.1-8.1,8.1c-3,0-6,0-9,0c-4.8-0.1-6.8-2-6.8-6.9
	c0-26.1,0-52.3,0-78.4c0-19.1,0-38.3,0-57.4c0-5,2-7.2,7.1-7.2c18.1-0.2,17.1-0.7,16.9,16C149.9,92.5,150,103,150,114z"/>
<path class="st2" d="M188.1,101c14.8,0,14.8,0,14.8,14.2c0,30.6,0,61.3,0,91.9c0,7-1.8,8.8-8.7,8.9c-2.7,0-5.3,0-8,0
	c-6.3,0-8.3-1.9-8.3-8.3c-0.1-32.8-0.1-65.6,0-98.4C178,103.5,181.1,101,188.1,101z"/>
<path class="st2" d="M73,161c0-6.3-0.1-12.2,0-18c0.1-4.8,2.2-6.9,7-7c3.3-0.1,6.7,0,10,0c4.6,0,7.9,2.9,7.9,7.5
	c0.1,21.6,0.1,43.3,0,64.9c0,5.5-2.5,7.5-8.1,7.6c-3,0-6,0-9,0c-6,0-7.8-1.9-7.8-8.1C72.9,192.5,73,177,73,161z"/>
</svg>
