<svg version="1.1" id="Layer_1" xmlns="http://www.w3.org/2000/svg" xmlns:xlink="http://www.w3.org/1999/xlink" x="0px" y="0px"
	 width="100%" viewBox="0 0 280 293" enable-background="new 0 0 280 293" xml:space="preserve">
<path fill="#FFFFFF" opacity="1.000000" stroke="none" 
	d="
M149.000000,294.000000 
	C99.354790,294.000000 50.209576,294.000000 1.032182,294.000000 
	C1.032182,196.397415 1.032182,98.794815 1.032182,1.096110 
	C94.228447,1.096110 187.457031,1.096110 280.842804,1.096110 
	C280.842804,98.666466 280.842804,196.333206 280.842804,294.000000 
	C237.128311,294.000000 193.314163,294.000000 149.000000,294.000000 
M149.348358,18.999523 
	C138.585052,19.359768 127.630219,18.571075 117.099518,20.326618 
	C97.033760,23.671719 78.500732,31.324856 62.169636,43.915337 
	C42.666790,58.951092 27.910944,77.489014 19.004930,100.553566 
	C10.933229,121.457443 9.301600,143.038544 11.972004,165.120132 
	C14.190013,183.460876 20.320829,200.406540 30.378809,215.826569 
	C44.740463,237.844574 63.704681,254.472321 88.006798,265.098724 
	C111.583626,275.407959 136.221588,277.644104 161.045593,273.660980 
	C193.614258,268.435181 220.105331,251.772751 240.637756,225.851761 
	C255.779404,206.736328 264.609222,184.804428 266.673645,160.745148 
	C267.792725,147.702789 266.908051,134.170319 264.718140,121.232872 
	C260.935822,98.888084 250.706192,79.137939 235.595032,62.158730 
	C222.625076,47.585438 207.338104,36.101826 189.184265,28.584084 
	C176.692749,23.411167 163.775253,20.128473 149.348358,18.999523 
z"/>
<path fill="#EB873F" opacity="1.000000" stroke="none" 
	d="
M149.827515,18.999531 
	C163.775253,20.128473 176.692749,23.411167 189.184265,28.584084 
	C207.338104,36.101826 222.625076,47.585438 235.595032,62.158730 
	C250.706192,79.137939 260.935822,98.888084 264.718140,121.232872 
	C266.908051,134.170319 267.792725,147.702789 266.673645,160.745148 
	C264.609222,184.804428 255.779404,206.736328 240.637756,225.851761 
	C220.105331,251.772751 193.614258,268.435181 161.045593,273.660980 
	C136.221588,277.644104 111.583626,275.407959 88.006798,265.098724 
	C63.704681,254.472321 44.740463,237.844574 30.378809,215.826569 
	C20.320829,200.406540 14.190013,183.460876 11.972004,165.120132 
	C9.301600,143.038544 10.933229,121.457443 19.004930,100.553566 
	C27.910944,77.489014 42.666790,58.951092 62.169636,43.915337 
	C78.500732,31.324856 97.033760,23.671719 117.099518,20.326618 
	C127.630219,18.571075 138.585052,19.359768 149.827515,18.999531 
M150.997665,113.500000 
	C150.997665,103.011398 150.894562,92.521561 151.021286,82.034485 
	C151.222946,65.345558 152.237091,65.849167 134.153793,66.023590 
	C129.026138,66.073044 127.011040,68.207298 127.007111,73.251038 
	C126.992195,92.396927 127.001534,111.542831 127.001366,130.688736 
	C127.001122,156.827057 126.989296,182.965408 127.010025,209.103699 
	C127.013878,213.964203 129.019943,215.937958 133.858643,215.992874 
	C136.854996,216.026886 139.852066,216.002335 142.848816,215.998474 
	C149.530045,215.989868 150.995682,214.540298 150.996384,207.898712 
	C150.999680,176.765808 150.997742,145.632904 150.997665,113.500000 
M188.716095,101.000732 
	C182.084152,101.015411 179.034256,103.483177 179.025330,109.264694 
	C178.974670,142.076935 178.967255,174.889374 179.029922,207.701584 
	C179.042160,214.112839 181.052811,215.955948 187.303757,215.996307 
	C189.968613,216.013519 192.633698,216.006393 195.298630,215.997849 
	C202.224716,215.975662 203.995010,214.187485 203.996582,207.139252 
	C204.003433,176.492203 203.999527,145.845154 203.999542,115.198097 
	C203.999542,101.000610 203.999557,101.000610 188.716095,101.000732 
M74.000000,161.500153 
	C74.000023,176.980499 73.979393,192.460892 74.010262,207.941177 
	C74.022583,214.118683 75.886566,215.984161 81.840393,215.998123 
	C84.836578,216.005157 87.832909,216.016159 90.828964,215.995193 
	C96.422409,215.956070 98.919571,213.882706 98.949097,208.413055 
	C99.065880,186.774490 99.057556,165.134613 98.947830,143.495972 
	C98.924301,138.856796 95.665054,136.045151 91.022377,136.005920 
	C87.693504,135.977783 84.361992,135.923813 81.035629,136.019669 
	C76.239792,136.157837 74.116440,138.229721 74.026627,143.022980 
	C73.917496,148.846878 74.000252,154.674362 74.000000,161.500153 
z"/>
<path fill="#FFFFFF" opacity="1.000000" stroke="none" 
	d="
M150.997665,114.000000 
	C150.997742,145.632904 150.999680,176.765808 150.996384,207.898712 
	C150.995682,214.540298 149.530045,215.989868 142.848816,215.998474 
	C139.852066,216.002335 136.854996,216.026886 133.858643,215.992874 
	C129.019943,215.937958 127.013878,213.964203 127.010025,209.103699 
	C126.989296,182.965408 127.001122,156.827057 127.001366,130.688736 
	C127.001534,111.542831 126.992195,92.396927 127.007111,73.251038 
	C127.011040,68.207298 129.026138,66.073044 134.153793,66.023590 
	C152.237091,65.849167 151.222946,65.345558 151.021286,82.034485 
	C150.894562,92.521561 150.997665,103.011398 150.997665,114.000000 
z"/>
<path fill="#FFFFFF" opacity="1.000000" stroke="none" 
	d="
M189.179626,101.000717 
	C203.999557,101.000610 203.999542,101.000610 203.999542,115.198097 
	C203.999527,145.845154 204.003433,176.492203 203.996582,207.139252 
	C203.995010,214.187485 202.224716,215.975662 195.298630,215.997849 
	C192.633698,216.006393 189.968613,216.013519 187.303757,215.996307 
	C181.052811,215.955948 179.042160,214.112839 179.029922,207.701584 
	C178.967255,174.889374 178.974670,142.076935 179.025330,109.264694 
	C179.034256,103.483177 182.084152,101.015411 189.179626,101.000717 
z"/>
<path fill="#FFFFFF" opacity="1.000000" stroke="none" 
	d="
M74.000000,161.000229 
	C74.000252,154.674362 73.917496,148.846878 74.026627,143.022980 
	C74.116440,138.229721 76.239792,136.157837 81.035629,136.019669 
	C84.361992,135.923813 87.693504,135.977783 91.022377,136.005920 
	C95.665054,136.045151 98.924301,138.856796 98.947830,143.495972 
	C99.057556,165.134613 99.065880,186.774490 98.949097,208.413055 
	C98.919571,213.882706 96.422409,215.956070 90.828964,215.995193 
	C87.832909,216.016159 84.836578,216.005157 81.840393,215.998123 
	C75.886566,215.984161 74.022583,214.118683 74.010262,207.941177 
	C73.979393,192.460892 74.000023,176.980499 74.000000,161.000229 
z"/>
</svg>