<svg width="82" height="35" viewBox="0 0 82 35" fill="none" xmlns="http://www.w3.org/2000/svg">
<path d="M81.2598 15.5306C80.8666 12.8313 79.9063 10.3436 78.1597 8.21895C76.1409 5.75402 73.5928 4.42326 70.3264 4.46107C65.2604 4.52155 60.1944 4.47619 55.136 4.47619C54.9924 4.47619 54.8412 4.47619 54.6899 4.47619C54.6899 6.5555 54.6899 8.58945 54.6899 10.6612C55.9073 10.6612 57.0944 10.6612 58.289 10.6612C58.289 15.6364 58.289 20.5587 58.289 25.534C57.0717 25.534 55.877 25.534 54.6748 25.534C54.6748 27.5982 54.6748 29.6246 54.6748 31.6887C54.7731 31.6963 54.8411 31.7039 54.9016 31.7039C60.2927 31.7039 65.6838 31.7114 71.0749 31.6963C72.3528 31.6963 73.5701 31.3712 74.7043 30.789C77.1919 29.5187 78.8553 27.4772 79.9895 24.982C81.3656 21.9651 81.7361 18.797 81.2598 15.5306ZM72.0503 22.6683C71.4984 23.7117 70.7725 24.6191 69.6761 25.1181C69.1922 25.3374 68.6478 25.4508 68.1185 25.5037C67.4078 25.5642 66.6895 25.5189 65.956 25.5189C65.956 20.5512 65.956 15.6213 65.956 10.699C66.8634 10.699 67.7631 10.6158 68.6402 10.7217C69.8425 10.8654 70.7271 11.6139 71.4379 12.5591C72.4511 13.9049 72.935 15.455 73.0786 17.1109C73.2525 19.0541 72.9728 20.9292 72.0503 22.6683Z" fill="#F7931A"/>
<path d="M21.8139 18.4946C21.6627 18.366 21.5039 18.245 21.3149 18.0787C21.4585 18.0106 21.5493 17.9728 21.64 17.935C24.9215 16.5135 25.8667 12.302 23.5152 9.61778C22.7061 8.69532 21.6854 8.09042 20.5588 7.65188C20.2714 7.53846 19.9765 7.44017 19.6741 7.32675C20.1126 5.6633 20.5436 4.03009 20.9822 2.35908C19.9161 2.07931 18.8877 1.80711 17.8443 1.52735C17.3982 3.20593 16.9672 4.83157 16.5287 6.48746C15.6516 6.25307 14.8047 6.03379 13.9276 5.7994C14.3662 4.13595 14.7972 2.50274 15.2357 0.831726C14.1696 0.551964 13.1413 0.279762 12.0978 0C11.6517 1.66345 11.2207 3.29666 10.7822 4.96767C9.0885 4.52156 7.41748 4.08302 5.72379 3.63691C5.44402 4.70303 5.17182 5.73135 4.89962 6.76722C5.95818 7.05455 6.95625 7.31919 7.96945 7.59139C6.62356 12.6725 5.2928 17.7006 3.95448 22.759C2.90348 22.4793 1.90541 22.2222 0.877093 21.95C0.582208 23.0691 0.294885 24.1579 0 25.2693C1.6937 25.723 3.35715 26.1616 5.05084 26.6152C4.6123 28.2938 4.18131 29.9346 3.74277 31.5905C4.81645 31.8778 5.8372 32.1576 6.89576 32.4373C7.34187 30.7663 7.77286 29.1255 8.21896 27.4621C9.10362 27.6965 9.95803 27.9233 10.82 28.1577C10.3739 29.8438 9.93534 31.4846 9.4968 33.1405C10.5705 33.4203 11.5837 33.6925 12.6422 33.9647C13.0883 32.3012 13.5269 30.6529 13.9503 29.0575C14.8652 29.2011 15.7272 29.3902 16.6043 29.4733C19.5531 29.7607 22.2751 28.256 23.4093 25.6323C24.6266 22.7515 24.1049 20.4378 21.8139 18.4946ZM17.9502 22.8876C17.6326 24.2032 16.8462 25.1106 15.4777 25.3223C14.835 25.4206 14.1393 25.3979 13.4966 25.2618C12.0449 24.9518 10.6234 24.5435 9.14142 24.1654C9.70851 22.0256 10.2529 19.9463 10.8124 17.8443C12.4154 18.2829 13.9806 18.6836 15.5382 19.1448C15.9994 19.2809 16.4379 19.5456 16.8235 19.8329C17.8519 20.5966 18.2526 21.6324 17.9502 22.8876ZM18.9407 13.4286C18.676 14.7367 17.8292 15.5684 16.5513 15.8784C16.0296 15.9994 15.4399 15.9994 14.9106 15.8935C13.7915 15.6743 12.6952 15.3416 11.561 15.0542C12.1054 13.0127 12.6347 11.009 13.1866 8.92971C14.5098 9.33045 15.7952 9.70851 17.0806 10.1093C17.2999 10.1773 17.5041 10.3361 17.6931 10.4797C18.6533 11.2207 19.1902 12.1886 18.9407 13.4286Z" fill="#F7931A"/>
<path d="M40.3993 9.01289C42.5391 11.1527 44.6865 13.3001 46.8112 15.4247C48.157 14.0789 49.45 12.7859 50.69 11.5459C47.2573 8.11312 43.7943 4.65011 40.3615 1.20979C36.9287 4.64255 33.4657 8.10556 30.0557 11.5156C31.3335 12.7935 32.6265 14.094 33.9723 15.4399C36.097 13.3152 38.2519 11.1603 40.3993 9.01289Z" fill="#F7931A"/>
<path d="M40.3917 27.205C38.2217 25.0349 36.0743 22.88 33.9345 20.7402C32.5886 22.0861 31.2957 23.3791 30.0405 24.6418C33.4884 28.0897 36.9514 31.5527 40.3615 34.9703C43.8094 31.5224 47.2724 28.0594 50.7051 24.6266C49.45 23.3715 48.1646 22.0861 46.8414 20.7629C44.7016 22.8876 42.5542 25.0425 40.3917 27.205Z" fill="#F7931A"/>
<path d="M27.3415 14.2376C26.0561 15.523 24.7632 16.816 23.4854 18.0938C24.7632 19.3641 26.0561 20.6571 27.3037 21.8971C28.574 20.6268 29.867 19.3339 31.1524 18.056C29.8972 16.7933 28.6118 15.5004 27.3415 14.2376Z" fill="#F7931A"/>
<path d="M53.4575 14.283C52.1872 15.5533 50.8943 16.8462 49.6089 18.1241C50.8716 19.3868 52.157 20.6722 53.4197 21.9349C54.7051 20.6495 56.0056 19.3565 57.2759 18.0863C55.9981 16.816 54.7051 15.523 53.4575 14.283Z" fill="#F7931A"/>
<path d="M36.6035 18.1241C37.836 19.3641 39.1063 20.6344 40.3387 21.8668C41.6241 20.5814 42.902 19.3036 44.1193 18.0862C42.8793 16.8462 41.6014 15.5684 40.3841 14.351C39.1365 15.5911 37.8587 16.8689 36.6035 18.1241Z" fill="#F7931A"/>
</svg>
