<svg width="41" height="35" viewBox="0 0 41 35" fill="none" xmlns="http://www.w3.org/2000/svg">
<path d="M1.00335 24.429C0.813559 24.5634 0.710755 24.6425 0.607952 24.7137C0.0781189 25.0932 -0.0958562 25.5756 0.0939348 26.1134C0.26791 26.6195 0.726571 26.7855 1.13778 27.0149C3.1385 28.1378 5.14712 29.2607 7.15574 30.3757C9.16436 31.4908 11.173 32.6058 13.1816 33.7208C14.0357 34.1953 14.8976 34.1637 15.7359 33.6734C18.4246 32.0918 21.1133 30.5023 23.802 28.9128C26.3088 27.434 28.8156 25.9473 31.3225 24.4685C34.1219 22.8157 36.9292 21.163 39.7286 19.5023C40.5669 19.0041 40.5748 18.0156 39.7682 17.47C39.6653 17.3988 39.5625 17.3197 39.4044 17.209C39.8789 16.869 40.3692 16.5764 40.3692 15.9595C40.3771 15.3269 39.9263 14.9948 39.3648 14.6864C39.9105 14.3384 40.3771 14.03 40.3692 13.4053C40.3613 12.7885 39.9342 12.4642 39.3965 12.1637C39.8868 11.8 40.385 11.5153 40.3692 10.8905C40.3613 10.2737 39.95 9.93369 39.3807 9.649C39.5546 9.52247 39.6495 9.44339 39.7523 9.38013C40.3059 9.00846 40.551 8.4549 40.2584 7.92506C40.0845 7.61665 39.7602 7.34778 39.4439 7.1659C38.321 6.51745 37.1664 5.90854 36.0356 5.2759C33.0701 3.63895 30.1125 1.98619 27.1471 0.349242C26.3167 -0.109419 25.4468 -0.101511 24.6244 0.388782C21.0184 2.50811 17.4203 4.64326 13.8142 6.77841C10.4138 8.78703 7.0213 10.8036 3.62088 12.8201C2.6482 13.3974 1.66762 13.9588 0.710755 14.5519C-0.246108 15.145 -0.230291 16.094 0.718664 16.6792C0.789835 16.7266 0.84519 16.7899 0.947994 16.8769C0.505148 17.2248 0.00694728 17.5174 0.0148552 18.1421C0.0148552 18.759 0.457701 19.0832 0.979626 19.3837C0.513056 19.7554 0.0148552 20.0401 0.0148552 20.6648C0.0148552 21.2816 0.433977 21.6216 0.979626 21.9063C0.520964 22.2859 0.0148552 22.5627 0.0148552 23.1874C0.00694728 23.7884 0.418161 24.1364 1.00335 24.429Z" fill="white"/>
<path d="M1.00335 24.429C0.418161 24.1364 0.00694728 23.7884 0.0148552 23.1716C0.0148552 22.5548 0.520964 22.2701 0.979626 21.8905C0.426069 21.6058 0.0148552 21.2658 0.0148552 20.649C0.0148552 20.0242 0.513056 19.7396 0.979626 19.3679C0.449793 19.0674 0.0148552 18.7432 0.0148552 18.1263C0.0148552 17.5016 0.505148 17.2169 0.947994 16.8611C0.853098 16.7741 0.789835 16.7029 0.718664 16.6634C-0.230291 16.0861 -0.246108 15.1292 0.710755 14.5361C1.66762 13.943 2.6482 13.3816 3.62088 12.8043C7.0213 10.7877 10.4138 8.77913 13.8142 6.7626C17.4124 4.62745 21.0184 2.50021 24.6244 0.372968C25.4468 -0.109418 26.3167 -0.125234 27.1471 0.333428C30.1125 1.97038 33.0701 3.62314 36.0277 5.26799C37.1664 5.90063 38.3131 6.50163 39.436 7.15799C39.7523 7.33988 40.0766 7.60084 40.2505 7.91716C40.5431 8.43908 40.298 8.99264 39.7444 9.37222C39.6416 9.44339 39.5467 9.51457 39.3728 9.64109C39.9421 9.92578 40.3533 10.2737 40.3612 10.8826C40.3692 11.5074 39.871 11.7921 39.3886 12.1558C39.9263 12.4563 40.3533 12.7885 40.3612 13.3974C40.3692 14.0221 39.9105 14.3305 39.3569 14.6785C39.9263 14.9869 40.3692 15.3269 40.3612 15.9516C40.3533 16.5685 39.871 16.8611 39.3965 17.2011C39.5546 17.3197 39.6574 17.3909 39.7602 17.4621C40.5748 17.9998 40.5669 18.9883 39.7207 19.4944C36.9213 21.1551 34.114 22.7999 31.3145 24.4606C28.8077 25.9394 26.3009 27.4261 23.7941 28.9049C21.1054 30.4944 18.4167 32.0839 15.728 33.6655C14.8897 34.1558 14.0278 34.1874 13.1737 33.7129C11.1651 32.6058 9.15645 31.4908 7.14783 30.3678C5.13921 29.2528 3.1385 28.1299 1.12988 27.007C0.718663 26.7776 0.260002 26.6116 0.086027 26.1055C-0.095856 25.5598 0.0702111 25.0853 0.600044 24.7057C0.710756 24.6425 0.813559 24.5634 1.00335 24.429ZM25.9292 1.09259C25.605 1.21121 25.3124 1.2982 25.0514 1.43263C24.7589 1.57498 24.49 1.76477 24.2053 1.93084C20.5834 4.05808 16.9695 6.17741 13.3477 8.31256C9.51231 10.5663 5.68486 12.828 1.86532 15.0897C1.69925 15.1925 1.49364 15.4139 1.50155 15.5721C1.50946 15.7302 1.72297 15.9358 1.89695 16.0386C2.96452 16.6475 4.05582 17.2327 5.1313 17.8337C7.96235 19.4153 10.7855 20.9969 13.6244 22.5785C14.1306 22.8632 14.6525 22.879 15.1665 22.5864C15.3484 22.4836 15.5303 22.3808 15.7121 22.2701C18.385 20.7043 21.05 19.1385 23.7229 17.5728C26.1665 16.1335 28.6021 14.6943 31.0457 13.2629C33.5446 11.7921 36.0435 10.3291 38.5424 8.8503C39.0881 8.52607 39.0881 8.23348 38.5266 7.91716C36.8106 6.9603 35.0866 6.00343 33.3627 5.05448C31.2276 3.86828 29.1003 2.68209 26.9573 1.50381C26.6251 1.32983 26.2693 1.23493 25.9292 1.09259ZM14.352 25.4175C14.7316 25.2593 15.0637 25.1644 15.3484 24.9983C18.8753 22.9423 22.3944 20.8783 25.9055 18.8143C29.298 16.8215 32.6905 14.8208 36.0751 12.8201C36.9371 12.314 37.7912 11.8079 38.6531 11.3018C38.9378 11.1278 38.9853 10.8668 38.8034 10.6454C38.5582 10.3607 38.1945 10.2895 37.8702 10.4793C36.9371 11.0171 36.0119 11.5627 35.0866 12.1084C32.2319 13.7928 29.3771 15.493 26.5223 17.1774C22.9954 19.2572 19.4684 21.3211 15.9573 23.4247C14.9688 24.0178 14.0198 24.0889 13.0234 23.5196C11.9084 22.8869 10.7776 22.2622 9.65465 21.6375C7.84373 20.6252 6.03281 19.613 4.22189 18.6087C3.60507 18.2608 2.98034 17.9207 2.35561 17.5886C2.10256 17.4542 1.64389 17.636 1.52527 17.9128C1.39084 18.2212 1.55691 18.4031 1.81787 18.5455C3.67624 19.5735 5.53461 20.6173 7.39298 21.6533C9.25135 22.6892 11.1018 23.7252 12.9681 24.7532C13.403 24.9904 13.8775 25.196 14.352 25.4175ZM14.3441 30.4786C14.6999 30.3441 15.0004 30.273 15.2535 30.1227C18.3692 28.3118 21.485 26.485 24.5928 24.6583C28.4044 22.4204 32.2081 20.1666 36.0198 17.9286C36.8897 17.4146 37.7674 16.9085 38.6294 16.3945C39.009 16.1652 39.009 15.833 38.6452 15.5879C38.3526 15.3823 38.0917 15.3981 37.7833 15.5879C34.8099 17.3593 31.8286 19.1227 28.8473 20.8862C24.5137 23.4484 20.1722 26.0106 15.8387 28.5727C14.9609 29.0947 14.0673 29.1817 13.1421 28.6676C11.7819 27.9006 10.4138 27.1493 9.04574 26.3901C6.84733 25.1644 4.64101 23.9387 2.4426 22.7129C2.13419 22.539 1.69925 22.6655 1.52527 22.9581C1.37502 23.2111 1.47783 23.4326 1.88904 23.654C3.54971 24.5792 5.21038 25.5045 6.87896 26.4297C8.91131 27.5605 10.9357 28.6993 12.9681 29.8222C13.4109 30.0594 13.8933 30.2571 14.3441 30.4786ZM14.352 27.948C14.7078 27.8057 15.0083 27.7345 15.2614 27.5922C17.1672 26.485 19.0651 25.37 20.9709 24.255C24.1895 22.3571 27.408 20.4592 30.6345 18.5613C33.2362 17.035 35.8379 15.5088 38.4396 13.9747C38.6531 13.8481 39.009 13.7453 38.8904 13.4211C38.8192 13.2155 38.5741 13.0099 38.3605 12.9229C38.2103 12.8596 37.9572 12.9624 37.7912 13.0573C36.518 13.7928 35.2606 14.5519 33.9953 15.3032C31.014 17.0588 28.0248 18.8143 25.0435 20.5699C21.9594 22.3887 18.8832 24.2234 15.7991 26.0422C14.9451 26.5483 14.0594 26.6116 13.1737 26.1292C12.2959 25.6468 11.426 25.1723 10.5483 24.682C7.85164 23.1795 5.16293 21.677 2.46632 20.1745C2.12628 19.9847 1.68343 20.0954 1.51737 20.4117C1.31176 20.8071 1.62017 20.9574 1.88113 21.1076C3.32829 21.9142 4.77545 22.7129 6.21469 23.5116C8.45265 24.7611 10.6827 26.0106 12.9206 27.2521C13.3951 27.5131 13.8854 27.7187 14.352 27.948ZM14.3757 33.0091C14.7711 32.843 15.0953 32.7402 15.3879 32.5742C16.1313 32.155 16.8588 31.7122 17.5942 31.2773C20.1011 29.7985 22.6158 28.3197 25.1226 26.8488C27.0917 25.6942 29.0608 24.5397 31.0299 23.3772C33.5209 21.9142 36.004 20.4592 38.495 18.9962C38.7085 18.8697 39.0169 18.7511 38.8983 18.4585C38.8113 18.2529 38.5661 18.0631 38.3526 17.9682C38.2182 17.9128 37.973 18.0077 37.8149 18.1026C35.1025 19.7 32.39 21.3053 29.6855 22.9027C25.0673 25.631 20.449 28.3671 15.8308 31.0875C14.9767 31.5936 14.0989 31.6806 13.2053 31.1903C11.8373 30.439 10.4692 29.6799 9.109 28.9207C6.89478 27.687 4.68846 26.4534 2.47423 25.2198C2.15 25.0379 1.67553 25.1723 1.53318 25.4807C1.34339 25.884 1.66762 26.0264 1.92858 26.1687C3.6367 27.1256 5.34482 28.0666 7.05294 29.0235C9.02202 30.1227 10.9911 31.2298 12.9681 32.3211C13.4109 32.5821 13.9012 32.7877 14.3757 33.0091Z" fill="#06A716"/>
<path d="M25.9296 1.0926C26.2696 1.22703 26.6255 1.32984 26.9418 1.50381C29.0848 2.67419 31.2121 3.86829 33.3472 5.05448C35.0712 6.01135 36.7951 6.9603 38.5111 7.91716C39.0726 8.23348 39.0805 8.52608 38.5269 8.8503C36.028 10.3212 33.5291 11.7921 31.0302 13.2629C28.5866 14.7022 26.151 16.1414 23.7074 17.5728C21.0424 19.1386 18.3695 20.7043 15.6967 22.2701C15.5148 22.3729 15.3329 22.4836 15.151 22.5864C14.637 22.879 14.1151 22.8632 13.609 22.5785C10.7779 20.9969 7.94686 19.4153 5.11581 17.8337C4.04033 17.2327 2.94903 16.6475 1.88146 16.0386C1.70748 15.9358 1.49397 15.7381 1.48606 15.5721C1.47815 15.4139 1.68376 15.1846 1.84983 15.0897C5.67728 12.8201 9.50473 10.5663 13.3322 8.31256C16.9461 6.18532 20.568 4.05808 24.1898 1.93084C24.4745 1.76477 24.7434 1.57498 25.036 1.43264C25.3127 1.30611 25.6053 1.21913 25.9296 1.0926ZM16.8749 19.8819C16.9777 19.8345 17.1517 19.7712 17.3099 19.6842C18.757 18.8381 20.2121 17.9919 21.6593 17.1378C23.8339 15.8647 26.0007 14.5836 28.1675 13.3104C29.8677 12.314 31.56 11.3176 33.2602 10.3212C33.4975 10.1788 33.6082 10.0207 33.5212 9.70436C33.3156 8.96892 33.276 8.20185 33.5212 7.48223C33.7347 6.8575 33.5449 6.81005 33.0784 6.54909C31.8526 5.869 30.6032 5.22846 29.3853 4.51674C28.7922 4.16879 28.2703 4.05808 27.5823 4.2795C26.3329 4.68281 25.0439 4.62745 23.7707 4.25578C23.5414 4.19252 23.225 4.1767 23.0273 4.28741C22.2286 4.71444 21.4616 5.18892 20.6787 5.64758C18.3695 7.00775 16.0683 8.36001 13.7592 9.72018C11.5292 11.0329 9.30703 12.3456 7.07699 13.6504C6.76067 13.8323 6.66577 14.03 6.7923 14.3859C7.04536 15.1134 7.07699 15.8647 6.86347 16.6001C6.74485 17.0271 6.8872 17.2327 7.23515 17.4225C8.67439 18.2133 10.1057 19.012 11.5371 19.8186C11.8376 19.9847 12.1144 20.0163 12.4386 19.9056C13.4429 19.5735 14.4709 19.4786 15.5148 19.6368C15.9497 19.7 16.3767 19.787 16.8749 19.8819Z" fill="white"/>
<path d="M14.3517 25.4175C13.8772 25.1881 13.4027 24.9904 12.952 24.7374C11.0857 23.7093 9.23522 22.6734 7.37685 21.6375C5.51848 20.6015 3.66011 19.5656 1.80174 18.5296C1.54078 18.3873 1.37471 18.2133 1.50915 17.897C1.62777 17.6281 2.08643 17.4462 2.33948 17.5728C2.96421 17.9049 3.58894 18.2449 4.20576 18.5929C6.01668 19.6051 7.82761 20.6173 9.63853 21.6216C10.7615 22.2464 11.8923 22.8632 13.0073 23.5037C14.0116 24.0731 14.9527 24.0019 15.9412 23.4088C19.4523 21.3053 22.9872 19.2413 26.5062 17.1616C29.361 15.4772 32.2157 13.7769 35.0705 12.0926C35.9957 11.5469 36.9289 11.0092 37.8541 10.4635C38.1783 10.2737 38.5421 10.3449 38.7873 10.6296C38.977 10.851 38.9217 11.112 38.637 11.2859C37.7829 11.8 36.921 12.2982 36.059 12.8043C32.6665 14.805 29.2819 16.8057 25.8894 18.7985C22.3703 20.8625 18.8513 22.9265 15.3323 24.9825C15.0634 25.1723 14.7313 25.2672 14.3517 25.4175Z" fill="white"/>
<path d="M14.3439 30.4786C13.8852 30.2571 13.4108 30.0594 12.96 29.8143C10.9277 28.6914 8.90322 27.5526 6.87087 26.4218C5.2102 25.4965 3.54162 24.5713 1.88095 23.6461C1.46974 23.4168 1.36694 23.2032 1.51719 22.9502C1.69116 22.6576 2.1261 22.5311 2.43451 22.705C4.64083 23.9308 6.83924 25.1565 9.03765 26.3822C10.4057 27.1414 11.7738 27.8927 13.134 28.6597C14.0513 29.1738 14.9528 29.0868 15.8306 28.5648C20.1641 26.0027 24.5056 23.4405 28.8392 20.8783C31.8205 19.1148 34.8018 17.3593 37.7752 15.58C38.0836 15.3981 38.3445 15.3823 38.6371 15.58C38.993 15.8251 39.0009 16.1573 38.6213 16.3866C37.7514 16.9006 36.8816 17.4146 36.0117 17.9207C32.2001 20.1666 28.3963 22.4124 24.5847 24.6504C21.4769 26.4771 18.3611 28.3039 15.2454 30.1148C15.0003 30.265 14.7077 30.3362 14.3439 30.4786Z" fill="white"/>
<path d="M14.3518 27.948C13.8853 27.7266 13.395 27.521 12.9284 27.26C10.6905 26.0185 8.46041 24.7611 6.22246 23.5196C4.77531 22.7129 3.32815 21.9221 1.8889 21.1155C1.62794 20.9653 1.31953 20.815 1.52514 20.4196C1.6912 20.1033 2.13405 19.9926 2.47409 20.1824C5.1707 21.6849 7.85941 23.1874 10.556 24.6899C11.4259 25.1723 12.3037 25.6547 13.1815 26.1371C14.0751 26.6274 14.9528 26.5562 15.8069 26.0501C18.891 24.2313 21.9672 22.3966 25.0513 20.5778C28.0326 18.8143 31.0218 17.0667 34.0031 15.3111C35.2684 14.5677 36.5258 13.8086 37.7989 13.0652C37.965 12.9703 38.2181 12.8754 38.3683 12.9308C38.5818 13.0178 38.827 13.2155 38.8981 13.429C39.0168 13.7532 38.6609 13.856 38.4474 13.9826C35.8457 15.5167 33.244 17.035 30.6422 18.5692C27.4237 20.4671 24.1973 22.365 20.9787 24.2629C19.0808 25.3779 17.1829 26.4929 15.2692 27.6001C15.0082 27.7345 14.7077 27.8057 14.3518 27.948Z" fill="white"/>
<path d="M14.376 33.0091C13.9015 32.7877 13.4113 32.5821 12.9526 32.329C10.9756 31.2377 9.00652 30.1306 7.03744 29.0314C5.32932 28.0824 3.6212 27.1335 1.91308 26.1766C1.65212 26.0343 1.3358 25.8919 1.51768 25.4886C1.66003 25.1802 2.13451 25.0458 2.45873 25.2277C4.67296 26.4613 6.87928 27.695 9.09351 28.9286C10.4616 29.6878 11.8218 30.4469 13.1898 31.1982C14.0834 31.6885 14.9612 31.6015 15.8153 31.0954C20.4335 28.3671 25.0518 25.6389 29.67 22.9106C32.3824 21.3053 35.087 19.7 37.7994 18.1105C37.9575 18.0156 38.1948 17.9207 38.3371 17.9761C38.5586 18.071 38.8037 18.2529 38.8828 18.4664C39.0014 18.759 38.693 18.8855 38.4795 19.0041C35.9964 20.4671 33.5054 21.9301 31.0144 23.3851C29.0453 24.5397 27.0762 25.6942 25.1071 26.8567C22.6003 28.3355 20.0856 29.8064 17.5787 31.2852C16.8433 31.7201 16.1158 32.1629 15.3724 32.5821C15.0877 32.7481 14.7635 32.8509 14.376 33.0091Z" fill="white"/>
<path d="M16.8746 19.8819C16.3764 19.787 15.9493 19.7 15.5223 19.6368C14.4785 19.4786 13.4504 19.5735 12.4461 19.9056C12.1219 20.0163 11.8372 19.9847 11.5446 19.8186C10.1133 19.012 8.68193 18.2133 7.24268 17.4225C6.90264 17.2327 6.75238 17.0271 6.871 16.6001C7.08452 15.8647 7.05289 15.1055 6.79983 14.3859C6.6733 14.03 6.7682 13.8323 7.08452 13.6504C9.31456 12.3456 11.5367 11.0329 13.7667 9.72018C16.0759 8.36001 18.3771 7.00775 20.6862 5.64758C21.4691 5.18892 22.2362 4.70653 23.0349 4.28741C23.2326 4.18461 23.5489 4.19252 23.7782 4.25578C25.0514 4.61955 26.3404 4.68281 27.5899 4.2795C28.2778 4.05808 28.7998 4.16879 29.3929 4.51674C30.6028 5.22846 31.8522 5.869 33.0859 6.54909C33.5525 6.81005 33.7422 6.8575 33.5287 7.48223C33.2836 8.20185 33.3152 8.96892 33.5287 9.70436C33.6157 10.0207 33.505 10.1788 33.2678 10.3212C31.5676 11.3176 29.8752 12.314 28.175 13.3104C26.0004 14.5836 23.8336 15.8647 21.6668 17.1378C20.2196 17.984 18.7725 18.8381 17.3174 19.6842C17.1513 19.7712 16.9774 19.8345 16.8746 19.8819ZM19.5395 7.62457C19.5554 7.66411 19.5633 7.70365 19.5791 7.74319C19.8242 7.75901 20.0694 7.77482 20.3145 7.79855C21.8882 7.92507 23.367 8.34419 24.6718 9.26152C25.7315 10.0049 26.5302 10.9301 26.633 12.2903C26.6488 12.4642 26.633 12.6382 26.633 12.8517C26.7358 12.8201 26.7911 12.8122 26.8307 12.7806C28.5863 11.7525 30.3418 10.7324 32.0895 9.69646C32.1923 9.63319 32.2555 9.4434 32.2635 9.30896C32.2951 8.76332 32.2951 8.20976 32.2951 7.6562C32.2951 7.53758 32.2239 7.37152 32.1369 7.32407C30.9586 6.6598 29.7724 6.01135 28.5783 5.3708C28.4597 5.30754 28.2699 5.28382 28.1355 5.32336C26.6567 5.7662 25.1858 5.78202 23.6912 5.40243C23.5331 5.36289 23.3196 5.39453 23.1772 5.47361C22.4892 5.85319 21.8091 6.25649 21.137 6.6598C20.6071 6.98403 20.0773 7.30825 19.5395 7.62457ZM13.5453 11.2227C13.3872 11.286 13.2685 11.3097 13.1736 11.365C11.5288 12.3298 9.89184 13.2867 8.2549 14.2673C8.13628 14.3384 8.0572 14.5519 8.0572 14.7101C8.04929 15.2083 8.12046 15.7065 8.08883 16.1968C8.07301 16.4894 8.13628 16.6396 8.40515 16.782C9.52808 17.383 10.6273 18.0235 11.7502 18.6324C11.9242 18.7273 12.1852 18.759 12.3749 18.7115C13.6956 18.3636 15.0241 18.3319 16.3606 18.6008C16.5899 18.6483 16.8904 18.6087 17.096 18.498C18.1715 17.897 19.2311 17.2644 20.2908 16.6317C20.3936 16.5764 20.4648 16.4736 20.6071 16.347C20.4569 16.3233 20.3936 16.3154 20.3303 16.3075C19.2786 16.2442 18.2426 16.0782 17.2383 15.7144C16.1154 15.3111 15.1269 14.7022 14.3519 13.7928C13.743 13.0811 13.4346 12.2428 13.5453 11.2227ZM19.587 8.63679C18.1715 8.66051 16.835 8.86612 15.6646 9.6411C14.431 10.4556 14.0672 11.6181 14.6603 12.7094C14.9767 13.3025 15.4353 13.7611 15.9968 14.1249C17.8156 15.2795 19.8084 15.5958 21.904 15.3348C22.853 15.2162 23.7545 14.9315 24.5532 14.3859C25.8659 13.4923 26.1585 12.1875 25.2807 11.0013C25.0039 10.6296 24.6481 10.2896 24.2764 10.0207C22.8609 9.02428 21.2477 8.67633 19.587 8.63679Z" fill="#06A716"/>
<path d="M19.5396 7.62456C20.0773 7.30825 20.6071 6.98402 21.1449 6.6677C21.825 6.26439 22.4971 5.86109 23.1851 5.48151C23.3275 5.40243 23.541 5.3708 23.6991 5.41034C25.1937 5.78992 26.6646 5.76619 28.1434 5.33126C28.2778 5.29172 28.4676 5.30753 28.5863 5.3787C29.7804 6.01925 30.9666 6.6677 32.1448 7.33197C32.2318 7.37942 32.303 7.55339 32.303 7.6641C32.3109 8.21766 32.303 8.76331 32.2714 9.31687C32.2635 9.4513 32.2002 9.64109 32.0974 9.70436C30.3497 10.7403 28.5942 11.7683 26.8386 12.7885C26.7991 12.8122 26.7437 12.8201 26.6409 12.8596C26.6409 12.6461 26.6488 12.4721 26.6409 12.2982C26.5381 10.9301 25.7394 10.0049 24.6797 9.26942C23.3749 8.35209 21.8961 7.94088 20.3224 7.80645C20.0773 7.78272 19.8321 7.76691 19.587 7.75109C19.5712 7.70364 19.5554 7.6641 19.5396 7.62456ZM27.1312 8.58933C27.5978 8.49444 27.9773 8.37582 28.2462 8.01996C28.4202 7.79063 28.4281 7.5613 28.262 7.33988C27.8192 6.73887 26.6804 6.69933 26.1901 7.2608C25.9213 7.56921 25.9055 7.85389 26.2297 8.10695C26.4906 8.31256 26.8228 8.43118 27.1312 8.58933Z" fill="white"/>
<path d="M13.5453 11.2227C13.4425 12.2428 13.7509 13.0731 14.3598 13.7928C15.1348 14.7101 16.1233 15.319 17.2462 15.7144C18.2426 16.0703 19.2786 16.2442 20.3382 16.3075C20.4015 16.3075 20.4647 16.3233 20.615 16.347C20.4727 16.4736 20.4015 16.5764 20.2987 16.6317C19.239 17.2644 18.1793 17.897 17.1039 18.498C16.8983 18.6087 16.5978 18.6483 16.3684 18.6008C15.0241 18.3319 13.7034 18.3557 12.3828 18.7115C12.193 18.759 11.9321 18.7273 11.7581 18.6324C10.6352 18.0314 9.53595 17.3909 8.41302 16.782C8.15206 16.6396 8.08089 16.4894 8.0967 16.1968C8.12834 15.6986 8.05716 15.2004 8.06507 14.7101C8.06507 14.5598 8.14415 14.3384 8.26277 14.2673C9.89181 13.2867 11.5367 12.3219 13.1815 11.365C13.2685 11.3097 13.3792 11.286 13.5453 11.2227ZM12.6201 16.956C12.9285 16.8215 13.2527 16.7424 13.5137 16.5606C13.917 16.2759 13.8774 15.8014 13.4741 15.5167C12.9522 15.145 12.2721 15.145 11.7423 15.5088C11.2994 15.8093 11.2757 16.3154 11.7265 16.6001C11.9795 16.7662 12.2958 16.8294 12.6201 16.956Z" fill="white"/>
<path d="M19.5873 8.63679C21.248 8.67633 22.8612 9.02428 24.2768 10.0286C24.6563 10.2975 25.0122 10.6375 25.2811 11.0092C26.1589 12.1954 25.8663 13.5002 24.5535 14.3938C23.7548 14.9394 22.8454 15.2241 21.9044 15.3427C19.8088 15.6037 17.8081 15.2874 15.9971 14.1328C15.4357 13.777 14.977 13.3104 14.6607 12.7173C14.0676 11.626 14.4314 10.4635 15.665 9.64901C16.8354 8.87403 18.1639 8.66051 19.5873 8.63679ZM18.4249 10.6612C18.931 10.4003 19.3896 10.3765 19.8404 10.4082C20.1725 10.4319 20.4019 10.3212 20.4335 9.98905C20.4651 9.64901 20.1963 9.55411 19.9116 9.52248C19.1999 9.45131 18.5198 9.57784 17.8792 9.87834C17.6104 10.0049 17.381 10.0365 17.1042 9.87043C16.8275 9.70436 16.5507 9.73599 16.3214 10.0286C16.4242 10.1077 16.5032 10.1947 16.5981 10.25C16.8828 10.3924 16.8749 10.5347 16.6772 10.764C16.3372 11.1436 16.2186 11.5785 16.4163 12.0767C16.6219 12.5908 17.0173 12.8913 17.555 12.9071C18.0058 12.9229 18.5119 12.9308 18.9152 12.7647C19.8878 12.3614 20.6865 12.6066 21.4457 13.2313C21.5169 13.2867 21.5722 13.3657 21.6355 13.429C21.6276 13.4765 21.6118 13.5239 21.6039 13.5714C21.1531 13.603 20.7024 13.6267 20.2516 13.6504C19.9748 13.6662 19.7455 13.7849 19.7218 14.0775C19.706 14.3701 19.9116 14.5124 20.1963 14.544C20.9396 14.631 21.6355 14.4729 22.2998 14.1645C22.5607 14.0458 22.7742 14.0142 23.0273 14.1803C23.312 14.3701 23.5888 14.3147 23.8181 14.0379C23.3436 13.603 23.3436 13.603 23.6599 13.0494C23.6916 12.9941 23.7232 12.9308 23.7469 12.8755C24.087 11.966 23.3436 11.0645 22.276 11.1515C21.596 11.2069 20.9317 11.3967 20.2595 11.5153C20.133 11.539 19.9748 11.5865 19.8799 11.539C19.4213 11.286 18.9626 10.9855 18.4249 10.6612Z" fill="white"/>
<path d="M27.1311 8.58934C26.8306 8.43118 26.4905 8.32047 26.2296 8.10695C25.9053 7.8539 25.9212 7.5613 26.19 7.2608C26.6803 6.69934 27.8112 6.73888 28.2619 7.33988C28.4359 7.56921 28.428 7.79854 28.2461 8.01997C27.9772 8.37582 27.5977 8.49444 27.1311 8.58934Z" fill="#06A716"/>
<path d="M12.6204 16.9559C12.2883 16.8294 11.9799 16.7582 11.7268 16.6001C11.2761 16.3154 11.3077 15.8093 11.7426 15.5088C12.2725 15.145 12.9525 15.145 13.4745 15.5167C13.8857 15.8093 13.9252 16.2759 13.514 16.5605C13.253 16.7424 12.9288 16.8294 12.6204 16.9559Z" fill="#06A716"/>
<path d="M18.4243 10.6612C18.9621 10.9934 19.4207 11.286 19.8952 11.5469C19.9901 11.6023 20.1483 11.5469 20.2748 11.5232C20.947 11.3967 21.6112 11.2148 22.2913 11.1594C23.3589 11.0645 24.1022 11.9739 23.7622 12.8834C23.7385 12.9466 23.7068 13.002 23.6752 13.0573C23.3589 13.6109 23.3589 13.6109 23.8334 14.0458C23.604 14.3147 23.3352 14.378 23.0426 14.1882C22.7895 14.0221 22.576 14.0458 22.315 14.1724C21.6508 14.4808 20.947 14.6389 20.2115 14.5519C19.9189 14.5203 19.7133 14.378 19.737 14.0854C19.7529 13.7928 19.9822 13.6742 20.2669 13.6583C20.7176 13.6346 21.1684 13.603 21.6191 13.5793C21.627 13.5318 21.6429 13.4844 21.6508 13.4369C21.5875 13.3737 21.5321 13.2946 21.461 13.2392C20.7097 12.6145 19.911 12.3693 18.9304 12.7727C18.5271 12.9387 18.021 12.9308 17.5703 12.915C17.0325 12.8992 16.6371 12.5987 16.4315 12.0847C16.2338 11.5865 16.3445 11.1515 16.6925 10.7719C16.8981 10.5426 16.8981 10.4003 16.6134 10.2579C16.5106 10.2105 16.4315 10.1156 16.3366 10.0365C16.566 9.7439 16.8427 9.70436 17.1195 9.87834C17.3884 10.0444 17.6256 10.0128 17.8945 9.88625C18.535 9.58574 19.223 9.46713 19.9268 9.53039C20.2115 9.55411 20.4725 9.65692 20.4488 9.99696C20.4171 10.3291 20.1878 10.4398 19.8557 10.4161C19.3891 10.3765 18.9383 10.4003 18.4243 10.6612ZM18.9858 11.9028C18.9937 11.8474 19.0016 11.7842 19.0095 11.7288C18.6616 11.5153 18.3136 11.278 17.9498 11.0883C17.8312 11.025 17.5782 11.025 17.5149 11.0962C17.3726 11.2543 17.246 11.4837 17.246 11.6893C17.246 11.8 17.507 12.0135 17.6493 12.0135C18.0922 12.0214 18.5429 11.9423 18.9858 11.9028ZM21.1684 12.3456C21.5717 12.5908 21.9513 12.8913 22.3862 13.0494C22.6867 13.1522 22.8528 12.8201 22.9319 12.5512C23.003 12.314 22.9002 12.1242 22.6472 12.0768C22.1569 11.9819 21.6824 12.0768 21.1684 12.3456Z" fill="#06A716"/>
<path d="M18.9859 11.9028C18.5352 11.9502 18.0923 12.0214 17.6416 12.0214C17.4992 12.0214 17.2383 11.8079 17.2383 11.6972C17.2462 11.4915 17.3648 11.2622 17.5072 11.1041C17.5783 11.025 17.8235 11.0329 17.9421 11.0961C18.3059 11.2859 18.6459 11.5153 19.0018 11.7367C19.0018 11.7841 18.9938 11.8395 18.9859 11.9028Z" fill="white"/>
<path d="M21.1685 12.3456C21.6746 12.0688 22.157 11.9818 22.6552 12.0767C22.9003 12.1242 23.011 12.314 22.9398 12.5512C22.8608 12.8201 22.6868 13.1522 22.3942 13.0494C21.9593 12.8913 21.5797 12.5908 21.1685 12.3456Z" fill="white"/>
</svg>
