<svg width="30" height="30" viewBox="0 0 30 30" fill="none" xmlns="http://www.w3.org/2000/svg">
<g clip-path="url(#clip0_2079_74)">
<path d="M6.84785 23.152C6.17174 22.4759 5.17453 22.3106 4.33969 22.6561C2.72531 20.4189 1.875 17.7854 1.875 15.0008C1.875 7.76314 7.7632 1.87494 15.0008 1.87494C17.2875 1.87494 19.5382 2.47172 21.5094 3.6007C21.8464 3.79365 22.276 3.67699 22.469 3.34002C22.662 3.00305 22.5453 2.57344 22.2083 2.38043C20.0246 1.1298 17.5323 0.46875 15.0008 0.46875C11.1195 0.46875 7.47018 1.98041 4.72529 4.72529C1.98041 7.47012 0.46875 11.1193 0.46875 15.0008C0.46875 18.1228 1.43426 21.0735 3.26607 23.5709C2.71986 24.4575 2.82955 25.6369 3.59625 26.4036C4.03113 26.8385 4.60863 27.078 5.22264 27.078H5.22422C5.83799 27.0776 6.41479 26.8379 6.84721 26.4043C7.28203 25.9706 7.52174 25.3938 7.52215 24.78C7.52262 24.1655 7.28314 23.5873 6.84785 23.152ZM5.85287 25.4099C5.68465 25.5786 5.46105 25.6716 5.22328 25.6717H5.2227C4.98434 25.6717 4.75992 25.5785 4.59064 25.4093C4.24301 25.0616 4.24324 24.4948 4.58994 24.1471C4.93898 23.799 5.50582 23.7987 5.85346 24.1464C6.02285 24.3158 6.11602 24.5405 6.1159 24.7791C6.11578 25.0168 6.02279 25.2404 5.85287 25.4099ZM26.7357 6.42926C27.2815 5.54402 27.1721 4.36506 26.4061 3.59689L26.4047 3.59555C25.5083 2.70141 24.0496 2.70141 23.1515 3.59689C22.2567 4.4942 22.2569 5.95254 23.1522 6.84785C23.6007 7.29627 24.1898 7.52045 24.7789 7.52045C25.0798 7.52045 25.3805 7.46156 25.6627 7.34461C27.2755 9.58055 28.1252 12.2143 28.1252 15.0008C28.1252 22.2374 22.2377 28.1249 15.001 28.1249C12.7153 28.1249 10.4646 27.5287 8.49205 26.4006C8.15508 26.2079 7.72547 26.3249 7.53264 26.6619C7.33986 26.999 7.45687 27.4286 7.79396 27.6214C9.97869 28.8708 12.4708 29.5312 15.001 29.5312C18.8824 29.5312 22.5314 28.0198 25.2757 25.2755C28.02 22.5311 29.5314 18.8822 29.5314 15.0008C29.5314 11.8767 28.5666 8.92547 26.7359 6.42926H26.7357ZM24.1465 5.85346C23.7987 5.50576 23.7991 4.93893 24.1458 4.59129C24.3203 4.41721 24.5496 4.3302 24.7788 4.3302C25.008 4.3302 25.2364 4.41691 25.4107 4.59029C25.7585 4.93934 25.7586 5.50588 25.411 5.85346C25.0624 6.20215 24.4951 6.20203 24.1465 5.85346ZM4.51975 15.0008C4.51975 20.78 9.22154 25.4818 15.0008 25.4818C20.7801 25.4818 25.4819 20.78 25.4819 15.0008C25.4819 9.22154 20.7801 4.51969 15.0008 4.51969C9.22154 4.51969 4.51975 9.22148 4.51975 15.0008ZM12.7511 6.20836C12.0734 7.4008 11.5945 9.12516 11.322 11.0538H6.83027C7.98293 8.67727 10.1425 6.87615 12.7511 6.20836ZM24.0756 15.0008C24.0756 15.8825 23.9487 16.7349 23.7131 17.5415H18.8389C18.9111 16.7085 18.9477 15.8539 18.9477 15.0008C18.9477 14.1478 18.9111 13.2932 18.8389 12.4601H23.7131C23.9487 13.2667 24.0756 14.1192 24.0756 15.0008ZM17.5414 15.0008C17.5414 15.8727 17.5031 16.7255 17.429 17.5415H12.5725C12.4983 16.7255 12.4601 15.8728 12.4601 15.0008C12.4601 14.1289 12.4983 13.2761 12.5725 12.4601H17.4291C17.5032 13.2761 17.5415 14.1289 17.5415 15.0008H17.5414ZM11.1626 17.5415H6.2884C6.05279 16.735 5.92588 15.8825 5.92588 15.0008C5.92588 14.1192 6.05279 13.2667 6.2884 12.4601H11.1626C11.0904 13.2932 11.0538 14.1478 11.0538 15.0008C11.0538 15.8538 11.0904 16.7085 11.1626 17.5415ZM6.83016 18.9478H11.322C11.5945 20.8765 12.0733 22.6008 12.7511 23.7932C10.1424 23.1254 7.98287 21.3243 6.83016 18.9478ZM13.3741 21.6933C13.107 20.8878 12.8944 19.9588 12.7416 18.9478H17.2599C17.1071 19.9588 16.8946 20.8878 16.6274 21.6933C16.0815 23.3389 15.4171 24.0756 15.0008 24.0756C14.5844 24.0756 13.9201 23.3389 13.3741 21.6933ZM17.2504 23.7932C17.9282 22.6008 18.407 20.8764 18.6795 18.9478H23.1713C22.0186 21.3243 19.8591 23.1254 17.2504 23.7932ZM23.1712 11.0539H18.6795C18.407 9.12516 17.9282 7.4008 17.2504 6.20842C19.8591 6.87621 22.0186 8.67732 23.1712 11.0539ZM16.6273 8.30771C16.8946 9.11326 17.1071 10.0424 17.26 11.0539H12.7415C12.8943 10.0425 13.1069 9.11332 13.3741 8.30771C13.9199 6.66246 14.5843 5.926 15.0008 5.926C15.4172 5.926 16.0815 6.66246 16.6273 8.30771Z" fill="white"/>
</g>
<defs>
<clipPath id="clip0_2079_74">
<rect width="30" height="30" fill="white"/>
</clipPath>
</defs>
</svg>
