<svg width="21" height="28" viewBox="0 0 21 28" fill="none" xmlns="http://www.w3.org/2000/svg">
<path d="M14.9489 0C14.9489 0 17.3509 5.87639 7.05625 9.82354C1.46237 11.9677 -2.83406 17.4634 2.29587 25.9529C2.72071 22.1583 4.54241 13.7915 12.3756 11.8823C12.3756 11.8823 5.08494 14.6085 4.4409 26.9487C8.18715 27.4747 16.9732 27.8281 19.5817 20.2036C23.0263 10.1298 14.9489 0 14.9489 0Z" fill="#3A7F0D"/>
<path d="M4.4443 26.8974C12.3973 23.7234 18.184 16.2879 18.9827 7.41175C17.3568 3.02611 14.9489 0 14.9489 0C14.9489 0 17.3509 5.87639 7.05625 9.82354C1.46237 11.9677 -2.83406 17.4634 2.29587 25.9529C2.72071 22.1583 4.54241 13.7915 12.3756 11.8823C12.3752 11.8823 5.10619 14.6017 4.4443 26.8974Z" fill="#49A010"/>
<path d="M1.50228 10.0194C1.91289 10.0194 2.24577 9.68658 2.24577 9.27596C2.24577 8.86534 1.91289 8.53247 1.50228 8.53247C1.09166 8.53247 0.758789 8.86534 0.758789 9.27596C0.758789 9.68658 1.09166 10.0194 1.50228 10.0194Z" fill="#3A7F0D"/>
<path d="M3.8389 9.06342C4.13219 9.06342 4.36994 8.82567 4.36994 8.53238C4.36994 8.2391 4.13219 8.00134 3.8389 8.00134C3.54562 8.00134 3.30786 8.2391 3.30786 8.53238C3.30786 8.82567 3.54562 9.06342 3.8389 9.06342Z" fill="#49A010"/>
<path d="M3.36099 4.8151C4.0942 4.8151 4.68859 4.22071 4.68859 3.4875C4.68859 2.75428 4.0942 2.1599 3.36099 2.1599C2.62777 2.1599 2.03339 2.75428 2.03339 3.4875C2.03339 4.22071 2.62777 4.8151 3.36099 4.8151Z" fill="#49A010"/>
<path d="M7.44999 6.93929C7.68462 6.93929 7.87483 6.74908 7.87483 6.51444C7.87483 6.27981 7.68462 6.0896 7.44999 6.0896C7.21536 6.0896 7.02515 6.27981 7.02515 6.51444C7.02515 6.74908 7.21536 6.93929 7.44999 6.93929Z" fill="#49A010"/>
<path d="M11.0085 5.34611C11.683 5.34611 12.2299 4.79927 12.2299 4.12471C12.2299 3.45015 11.683 2.90331 11.0085 2.90331C10.3339 2.90331 9.78705 3.45015 9.78705 4.12471C9.78705 4.79927 10.3339 5.34611 11.0085 5.34611Z" fill="#49A010"/>
</svg>
