<?xml version="1.0" encoding="utf-8"?>
<!-- Generator: Adobe Illustrator 27.2.0, SVG Export Plug-In . SVG Version: 6.00 Build 0)  -->
<svg version="1.1" id="_Шар_2" xmlns="http://www.w3.org/2000/svg" xmlns:xlink="http://www.w3.org/1999/xlink" x="0px" y="0px"
	 width="851px" height="770.5px" viewBox="0 0 851 770.5" style="enable-background:new 0 0 851 770.5;" xml:space="preserve">
<style type="text/css">
	.st0{fill:url(#SVGID_1_);}
	.st1{fill:url(#SVGID_00000171701748999437367350000002210532562521289652_);}
	.st2{fill:#FFFFFF;}
	.st3{fill:url(#SVGID_00000123399365882949327050000001088571776370211505_);}
	.st4{fill:url(#SVGID_00000141425257923266331140000017365728045224234936_);}
	.st5{fill:url(#SVGID_00000081631386167992734610000010965571715859281588_);}
</style>
<g id="_Шар_1-2">
	<linearGradient id="SVGID_1_" gradientUnits="userSpaceOnUse" x1="231.6" y1="335.31" x2="785.1801" y2="335.31">
		<stop  offset="0" style="stop-color:#A355FE"/>
		<stop  offset="1" style="stop-color:#7560FE"/>
	</linearGradient>
	<path class="st0" d="M687,0H231.6v670.6h553.6v-592L687,0z M273.7,628.5V42.1h397.2l0.5,57.2l71.7,0.6v528.6H273.7L273.7,628.5z"/>
	<g>
		
			<linearGradient id="SVGID_00000121976977374381266910000007102204910525485450_" gradientUnits="userSpaceOnUse" x1="515.5883" y1="1707.1699" x2="515.5883" y2="576.7501" gradientTransform="matrix(1 0 0 1 0 -308)">
			<stop  offset="0" style="stop-color:#649C29"/>
			<stop  offset="1" style="stop-color:#85CE36"/>
		</linearGradient>
		<path style="fill:url(#SVGID_00000121976977374381266910000007102204910525485450_);" d="M313.2,611.2c-2.2,0-4.3-1.3-5.2-3.3
			s-0.5-4.4,0.9-6.1l145-162.9c1.1-1.2,2.6-1.9,4.2-1.9c0,0,99.7,0.6,99.7,0.6l93-91.6l-32.3-28.3c-1.7-1.5-2.4-3.9-1.6-6.1
			c0.7-2.2,2.7-3.7,5-3.8l89.7-6c0.1,0,0.2,0,0.4,0c3,0,5.5,2.3,5.7,5.3l6,89.6c0.2,2.3-1.1,4.4-3.1,5.5c-0.8,0.4-1.7,0.6-2.5,0.6
			c-1.3,0-2.7-0.5-3.7-1.4l-32.9-28.8l-103,102.1c-1.1,1-2.5,1.6-4,1.6c0,0-105.4-0.6-105.4-0.6L352.7,609.2c-1.1,1.2-2.6,2-4.3,2
			L313.2,611.2L313.2,611.2L313.2,611.2z"/>
		<path class="st2" d="M712,307.4l6,89.6L681,364.8L574.3,470.6l-108-0.6L348.5,605.5h-35.2l145-162.9l102,0.6l99-97.5l-36.9-32.3
			L712,307.4 M712,296.1c-0.2,0-0.5,0-0.8,0l-89.7,6c-4.6,0.3-8.5,3.3-10,7.7c-1.5,4.3-0.2,9.1,3.3,12.2l27.7,24.2l-87,85.6
			l-97.3-0.6h-0.1c-3.2,0-6.3,1.4-8.5,3.8L304.8,598c-3,3.3-3.7,8.1-1.9,12.2c1.8,4.1,5.9,6.7,10.3,6.7h35.2c3.3,0,6.4-1.4,8.5-3.9
			l114.4-131.6l102.8,0.6h0.1c3,0,5.9-1.2,8-3.3l99.3-98.4l28.9,25.3c2.1,1.9,4.8,2.8,7.5,2.8c1.7,0,3.4-0.4,5-1.2
			c4.1-2,6.6-6.3,6.3-10.9l-6-89.6C722.8,300.7,717.9,296.1,712,296.1L712,296.1L712,296.1L712,296.1z"/>
	</g>
	
		<linearGradient id="SVGID_00000003101534433438624930000013957671687891581859_" gradientUnits="userSpaceOnUse" x1="581.24" y1="640.37" x2="581.24" y2="388.73" gradientTransform="matrix(1 0 0 1 0 -308)">
		<stop  offset="0" style="stop-color:#649C29"/>
		<stop  offset="1" style="stop-color:#85CE36"/>
	</linearGradient>
	<path style="fill:url(#SVGID_00000003101534433438624930000013957671687891581859_);" d="M566.3,305.9c-38.2-4.1-50.7-26-50.7-54.6
		H551c0.8,15,7.4,23.2,29.8,23.2c21.2,0,30.8-8.9,30.8-31.1s-27.5-23.2-48.4-26c-22.2-2.8-45.6-13.8-45.6-54.3
		c0-32.1,17.1-50.7,48.7-54.8V80.7h31.4v27.8c25.5,4.1,42.1,18.6,44.9,51h-35.4c-1-16.6-9.7-21.4-26.8-21.4
		c-19.4,0-27.3,6.1-27.3,24.7c0,24.7,19.6,22.7,49.5,27.3c22.7,3.6,44.4,12.8,44.4,52s-14.8,58.9-49.2,63.5v26.8h-31.4L566.3,305.9
		L566.3,305.9L566.3,305.9z"/>
	<g>
		
			<linearGradient id="SVGID_00000111908661858508052150000011842384062032412572_" gradientUnits="userSpaceOnUse" x1="14.995" y1="288.98" x2="482.825" y2="288.98">
			<stop  offset="0" style="stop-color:#A355FE"/>
			<stop  offset="1" style="stop-color:#7560FE"/>
		</linearGradient>
		<path style="fill:url(#SVGID_00000111908661858508052150000011842384062032412572_);" d="M316.6,512.2c-1.8,0-3.6-0.3-5.3-1
			l-62.3-23.7l-62.3,23.7c-1.7,0.7-3.6,1-5.3,1c-4.9,0-9.7-2.5-12.6-6.8l-36.5-55.8l-64.4-17.4c-6.8-1.8-11.4-8.2-11-15.2l3.3-66.6
			l-41.8-51.9c-4.4-5.5-4.4-13.3,0-18.8l41.8-51.9L56.8,161c-0.3-7,4.2-13.4,11-15.2l64.4-17.4l36.5-55.8c2.8-4.3,7.6-6.8,12.6-6.8
			c1.8,0,3.6,0.3,5.3,1l62.3,23.7l62.3-23.7c1.7-0.7,3.5-1,5.3-1c5,0,9.7,2.5,12.5,6.8l36.5,55.8l64.4,17.4
			c6.8,1.8,11.4,8.2,11,15.2l-3.3,66.6l41.8,51.9c4.4,5.5,4.4,13.3,0,18.8l-41.8,51.9l3.3,66.6c0.4,7-4.2,13.4-11,15.2l-64.4,17.4
			l-36.5,55.8C326.3,509.7,321.5,512.2,316.6,512.2z"/>
		<path class="st2" d="M316.6,80.7l39.6,60.6l69.9,18.9l-3.6,72.3l45.4,56.4l-45.4,56.4l3.6,72.3l-69.9,18.9l-39.6,60.6l-67.7-25.8
			l-67.7,25.8l-39.6-60.6l-69.9-18.9l3.6-72.3L30,289l45.4-56.4l-3.6-72.3l69.9-18.9l39.6-60.6l67.7,25.8L316.6,80.7 M316.5,50.8
			c-3.6,0-7.2,0.6-10.7,2l-57,21.7l-57-21.7c-3.5-1.3-7.1-2-10.7-2c-9.9,0-19.4,4.9-25.1,13.6l-33.3,51.1l-58.9,15.9
			c-13.6,3.7-22.8,16.4-22.1,30.4l3,60.9L6.6,270.2c-8.8,11-8.8,26.6,0,37.6l38.3,47.5l-3,60.9c-0.7,14.1,8.5,26.7,22.1,30.4
			l58.9,15.9l33.3,51.1c5.7,8.7,15.2,13.6,25.1,13.6c3.6,0,7.2-0.6,10.7-2l57-21.7l57,21.7c3.5,1.3,7.1,2,10.7,2
			c9.9,0,19.4-4.9,25.1-13.6l33.3-51.1l58.9-15.9c13.6-3.7,22.8-16.4,22.1-30.4l-3-60.9l38.3-47.5c8.8-11,8.8-26.6,0-37.6
			l-38.3-47.5l3-60.9c0.7-14.1-8.5-26.7-22.1-30.4L375,115.4l-33.3-51.1C336,55.7,326.4,50.8,316.5,50.8L316.5,50.8L316.5,50.8z"/>
	</g>
	<g>
		<path class="st2" d="M110.5,342.5v-93.1h2.1l56.1,52.6v-49.7h19.8V346h-1.9l-56.3-52.6v49.2L110.5,342.5L110.5,342.5L110.5,342.5z
			"/>
		<path class="st2" d="M209.1,342.5v-90.1h55.5V271H230v16.3h29.6v18.5H230v17.8h35.1v19H209.1L209.1,342.5L209.1,342.5z"/>
		<path class="st2" d="M307.7,345.5L270,252.4h21.8l17.5,48.6l18.8-51.5h1.7l19,51.5l17.3-48.6h20.1l-37.4,93.1h-1.4l-19.3-51.5
			l-18.8,51.5L307.7,345.5L307.7,345.5z"/>
	</g>
	<g>
		
			<linearGradient id="SVGID_00000160872552678860691160000006701511772607160983_" gradientUnits="userSpaceOnUse" x1="554.2466" y1="926.05" x2="843.7167" y2="926.05" gradientTransform="matrix(1 0 0 1 0 -308)">
			<stop  offset="0" style="stop-color:#649C29"/>
			<stop  offset="1" style="stop-color:#85CE36"/>
		</linearGradient>
		<path style="fill:url(#SVGID_00000160872552678860691160000006701511772607160983_);" d="M659.5,763.2c-4,0-7.3-3.3-7.3-7.3v-22.1
			c-10.5-4.8-20.3-11.1-29.1-18.8l-15.2,9.7c-1.2,0.8-2.6,1.1-3.9,1.1c-2.4,0-4.8-1.2-6.2-3.4l-42.4-66.5c-1-1.6-1.4-3.6-1-5.5
			c0.4-1.9,1.6-3.5,3.2-4.6l23.2-14.7c-0.4-4.3-0.6-8.7-0.6-13c0-8.6,0.8-17.2,2.5-25.6l-25-15.9c-3.4-2.2-4.4-6.7-2.2-10.1
			l42.4-66.5c1.4-2.2,3.8-3.4,6.2-3.4c1.3,0,2.7,0.4,3.9,1.1l24.9,15.9c6.1-4.4,12.7-8.1,19.4-11.2v-22.1c0-4,3.3-7.3,7.3-7.3h78.9
			c4,0,7.3,3.3,7.3,7.3v22.1c6.8,3.1,13.3,6.8,19.4,11.2l24.9-15.9c1.2-0.8,2.6-1.1,3.9-1.1c2.4,0,4.8,1.2,6.2,3.4l42.4,66.5
			c2.2,3.4,1.2,7.9-2.2,10.1l-25,15.9c1.6,8.4,2.5,17,2.5,25.6c0,4.3-0.2,8.6-0.6,13l23.2,14.7c3.4,2.2,4.4,6.7,2.2,10.1l-42.4,66.5
			c-1.4,2.2-3.8,3.4-6.2,3.4c-1.3,0-2.7-0.4-3.9-1.1l-15.2-9.7c-8.8,7.8-18.6,14.1-29.1,18.8v22.1c0,4-3.3,7.3-7.3,7.3H659.5
			L659.5,763.2z M699,561.4c-31.3,0-56.7,25.4-56.7,56.7s25.4,56.7,56.7,56.7s56.7-25.4,56.7-56.7S730.2,561.4,699,561.4z"/>
		<path class="st2" d="M738.4,480.2v26.9c9.5,3.8,18.4,9,26.4,15.2l29.2-18.6l42.4,66.6L807.1,589c2.2,9.3,3.4,19,3.4,29
			c0,5.7-0.4,11.2-1.1,16.7l27,17.2L794,718.5l-20-12.7c-10.3,10-22.3,17.9-35.6,23.2v26.9h-78.9V729c-13.2-5.3-25.3-13.2-35.6-23.2
			l-20,12.7l-42.4-66.5l27-17.2c-0.7-5.4-1.1-11-1.1-16.7c0-10,1.2-19.7,3.4-29l-29.3-18.7l42.4-66.5l29.2,18.6
			c8-6.3,16.9-11.4,26.4-15.2v-26.9L738.4,480.2 M699,682c35.3,0,64-28.7,64-64s-28.7-64-64-64s-64,28.7-64,64S663.6,682,699,682
			 M738.4,465.6h-78.9c-8.1,0-14.6,6.5-14.6,14.6v17.5c-4.2,2.1-8.3,4.5-12.3,7l-20.9-13.3c-2.4-1.5-5.2-2.3-7.8-2.3
			c-4.8,0-9.5,2.4-12.3,6.8l-42.4,66.5c-2.1,3.3-2.8,7.2-1.9,11s3.1,7.1,6.4,9.2l20.9,13.3c-1.2,7.3-1.7,14.7-1.7,22.1
			c0,3,0.1,6.1,0.3,9.2l-19.4,12.4c-3.3,2.1-5.6,5.4-6.4,9.2s-0.1,7.7,1.9,11l42.4,66.5c2.8,4.4,7.5,6.8,12.3,6.8
			c2.7,0,5.4-0.7,7.8-2.3l10.7-6.8c7,5.6,14.5,10.5,22.4,14.4v17.5c0,8.1,6.5,14.6,14.6,14.6h78.9c8.1,0,14.6-6.5,14.6-14.6v-17.5
			c7.9-4,15.4-8.8,22.4-14.4l10.7,6.8c2.4,1.5,5.1,2.3,7.8,2.3c1.1,0,2.1-0.1,3.2-0.3c3.8-0.8,7.1-3.1,9.2-6.4l42.4-66.5
			c2.1-3.3,2.8-7.2,1.9-11s-3.1-7.1-6.4-9.2l-19.4-12.4c0.2-3.1,0.3-6.1,0.3-9.2c0-7.4-0.6-14.8-1.7-22.1l20.9-13.3
			c6.8-4.3,8.8-13.4,4.5-20.2L806.3,496c-2.1-3.3-5.4-5.6-9.2-6.4c-1-0.2-2.1-0.4-3.2-0.4c-2.8,0-5.5,0.8-7.8,2.3l-20.9,13.3
			c-4-2.6-8.1-4.9-12.3-7v-17.5C753,472.2,746.5,465.6,738.4,465.6L738.4,465.6L738.4,465.6z M699,667.4
			c-27.2,0-49.4-22.2-49.4-49.4s22.2-49.4,49.4-49.4s49.4,22.2,49.4,49.4S726.2,667.4,699,667.4L699,667.4z"/>
	</g>
	<circle class="st2" cx="702.2" cy="621.1" r="51.8"/>
</g>
</svg>
