<svg width="26" height="26" viewBox="0 0 26 26" fill="none" xmlns="http://www.w3.org/2000/svg">
<path d="M12.7551 11.8441C13.8363 11.8441 14.8932 11.5235 15.7921 10.9228C16.6911 10.3222 17.3917 9.4684 17.8055 8.46954C18.2192 7.47067 18.3275 6.37154 18.1165 5.31115C17.9056 4.25076 17.385 3.27673 16.6205 2.51223C15.856 1.74773 14.882 1.2271 13.8216 1.01617C12.7612 0.805247 11.662 0.913501 10.6632 1.32725C9.66431 1.74099 8.81057 2.44164 8.2099 3.3406C7.60924 4.23956 7.28864 5.29644 7.28864 6.37761C7.29008 7.82696 7.86648 9.21654 8.89133 10.2414C9.91618 11.2662 11.3058 11.8426 12.7551 11.8441ZM12.7551 2.73329C13.4759 2.73329 14.1805 2.94703 14.7798 3.34747C15.3791 3.74791 15.8462 4.31708 16.122 4.98299C16.3978 5.6489 16.47 6.38165 16.3294 7.08858C16.1888 7.79551 15.8417 8.44486 15.332 8.95453C14.8224 9.4642 14.173 9.81128 13.4661 9.9519C12.7592 10.0925 12.0264 10.0203 11.3605 9.74452C10.6946 9.46869 10.1254 9.00159 9.72497 8.40228C9.32453 7.80298 9.11079 7.09839 9.11079 6.37761C9.11079 5.41108 9.49475 4.48413 10.1782 3.80069C10.8616 3.11725 11.7886 2.73329 12.7551 2.73329V2.73329Z" fill="white"/>
<path d="M15.3817 13.6663H10.1285C8.40927 13.6684 6.76113 14.3524 5.54556 15.5681C4.32999 16.7839 3.64625 18.4321 3.64432 20.1513C3.64552 21.3306 4.11453 22.4612 4.94841 23.2951C5.78228 24.129 6.91292 24.598 8.0922 24.5992H17.4171C18.5966 24.598 19.7275 24.1289 20.5615 23.2949C21.3956 22.4608 21.8647 21.3299 21.8659 20.1504C21.864 18.4313 21.1802 16.7831 19.9646 15.5676C18.749 14.352 17.1009 13.6682 15.3817 13.6663V13.6663ZM17.4171 22.777H8.0922C7.39596 22.7761 6.72851 22.499 6.23628 22.0066C5.74404 21.5142 5.4672 20.8467 5.46648 20.1504C5.46768 18.9143 5.95924 17.7292 6.83327 16.8552C7.7073 15.9812 8.8924 15.4896 10.1285 15.4884H15.3817C16.6178 15.4901 17.8028 15.9819 18.6767 16.8561C19.5507 17.7302 20.0423 18.9152 20.0437 20.1513C20.0428 20.8476 19.7657 21.515 19.2733 22.0072C18.7809 22.4995 18.1133 22.7763 17.4171 22.777V22.777Z" fill="white"/>
</svg>
