<svg width="30" height="27" viewBox="0 0 30 27" fill="none" xmlns="http://www.w3.org/2000/svg">
<path d="M28.0048 16.0465L28.4348 16.2947L28.686 15.8665C28.8077 15.6592 29.0737 15.5887 29.2819 15.7088C29.4912 15.8297 29.5628 16.0973 29.442 16.3064L29.442 16.3065L26.3845 21.6024L26.0398 22.1995C26.0398 22.1995 26.0398 22.1995 26.0398 22.1995C25.959 22.3393 25.8127 22.4184 25.66 22.4184C25.5863 22.4184 25.5117 22.3998 25.4421 22.3597L25.4421 22.3597C25.269 22.2597 25.1893 22.0575 25.2384 21.8704L25.3352 21.5013L25.0048 21.3105L22.5675 19.9033L22.1345 19.6533L21.8845 20.0863L21.7587 20.3041C21.4071 20.9132 20.7475 21.2937 20.0382 21.2937C19.6926 21.2937 19.3513 21.2022 19.0519 21.0294C19.0519 21.0294 19.0519 21.0294 19.0519 21.0294L11.6773 16.7717L10.9273 16.3387V17.2047V22.2435C10.9273 22.4852 10.7314 22.681 10.4898 22.681H5.67136H5.26751L5.18255 23.0758C4.79913 24.8575 3.21113 26.1967 1.31837 26.1967C1.07676 26.1967 0.880871 26.0008 0.880871 25.7592V18.7279C0.880871 18.4863 1.07678 18.2904 1.31837 18.2904C3.21119 18.2904 4.79918 19.6295 5.18255 21.4112L5.2675 21.806H5.67136H9.55226H10.0523V21.306V16.1222V15.8335L9.80226 15.6892L1.49028 10.8902C1.49027 10.8902 1.49027 10.8902 1.49027 10.8902C0.544406 10.3441 0.218896 9.12921 0.76501 8.18337L0.765016 8.18336L4.62974 1.4895C4.98136 0.880492 5.64095 0.5 6.35017 0.5C6.69587 0.5 7.03715 0.591446 7.33656 0.764303L24.8981 10.9033C25.8438 11.4494 26.1694 12.6643 25.6235 13.6102C25.6235 13.6102 25.6234 13.6102 25.6234 13.6102L25.4138 13.9733L25.1638 14.4063L25.5968 14.6563L28.0048 16.0465ZM1.75593 24.6453V25.3782L2.43831 25.1108C3.58225 24.6627 4.39655 23.5477 4.39655 22.2435C4.39655 20.9394 3.58232 19.8244 2.4383 19.3763L1.75593 19.109V19.8418V24.6453ZM1.92771 10.1324L1.92782 10.1325L19.4894 20.2716C19.6575 20.3687 19.8443 20.4187 20.0382 20.4187C20.4319 20.4187 20.8019 20.2111 21.0009 19.8669L21.001 19.8667L21.595 18.8378L21.5951 18.8379L21.5984 18.8319L24.1814 14.3581L24.1868 14.3488L24.1879 14.3467L24.1943 14.3356L24.1944 14.3355L24.8657 13.1728L24.8657 13.1728C25.1681 12.6489 24.9845 11.9636 24.4606 11.6611L24.2392 12.0446L24.4606 11.6611L6.89905 1.52203L6.66372 1.92963L6.89905 1.52202C6.73103 1.42502 6.54426 1.37494 6.35017 1.37494C5.95655 1.37494 5.58642 1.5824 5.38747 1.92705C5.38746 1.92707 5.38745 1.92709 5.38743 1.92711L1.5228 8.62086C1.22026 9.14486 1.40407 9.82994 1.92771 10.1324ZM25.1593 15.4141L24.7263 15.1641L24.4763 15.5971L22.822 18.4625L22.572 18.8955L23.005 19.1455L25.4127 20.5356L25.8457 20.7857L26.0957 20.3526L27.75 17.4872L28 17.0542L27.567 16.8042L25.1593 15.4141ZM11.0823 7.58709L11.0822 7.58712C11.0015 7.7269 10.8552 7.80602 10.7025 7.80602C10.6289 7.80602 10.5542 7.78745 10.4847 7.74727L10.4846 7.74726L7.7322 6.15814L7.73218 6.15813C7.52298 6.03736 7.45125 5.76984 7.5721 5.56051L7.57211 5.56049C7.69278 5.35143 7.96032 5.27961 8.1697 5.40042C8.16972 5.40043 8.16974 5.40044 8.16976 5.40045L10.9221 6.98954C11.1314 7.11033 11.203 7.37788 11.0823 7.58709Z" fill="#8D36AB" stroke="#666C75"/>
</svg>
