<?xml version="1.0" encoding="UTF-8"?>
<svg id="_Шар_2" data-name="Шар 2" xmlns="http://www.w3.org/2000/svg" xmlns:xlink="http://www.w3.org/1999/xlink" viewBox="0 0 919.84 904.27">
  <defs>
    <style>
      .cls-1 {
        fill: url(#_Градієнт_без_назви_13-5);
      }

      .cls-1, .cls-2, .cls-3 {
        stroke: #fff;
        stroke-miterlimit: 10;
        stroke-width: 23.63px;
      }

      .cls-4 {
        fill: url(#_Градієнт_без_назви_13-3);
      }

      .cls-4, .cls-5, .cls-6, .cls-7, .cls-8, .cls-9 {
        stroke-width: 0px;
      }

      .cls-5 {
        fill: url(#_Градієнт_без_назви_13);
      }

      .cls-6 {
        fill: url(#_Градієнт_без_назви_23);
      }

      .cls-7 {
        fill: url(#_Градієнт_без_назви_13-4);
      }

      .cls-2 {
        fill: url(#_Градієнт_без_назви_13-7);
      }

      .cls-8 {
        fill: #fff;
      }

      .cls-9 {
        fill: url(#_Градієнт_без_назви_13-2);
      }

      .cls-3 {
        fill: url(#_Градієнт_без_назви_13-6);
      }
    </style>
    <linearGradient id="_Градієнт_без_назви_23" data-name="Градієнт без назви 23" x1="0" y1="452.14" x2="919.84" y2="452.14" gradientUnits="userSpaceOnUse">
      <stop offset="0" stop-color="#a355fe"/>
      <stop offset="1" stop-color="#7560fe"/>
    </linearGradient>
    <linearGradient id="_Градієнт_без_назви_13" data-name="Градієнт без назви 13" x1="560.66" y1="341.91" x2="654.85" y2="341.91" gradientTransform="translate(-173.44 -492.1) rotate(27.14) scale(1.2 1.4)" gradientUnits="userSpaceOnUse">
      <stop offset="0" stop-color="#649c29"/>
      <stop offset="1" stop-color="#85ce36"/>
    </linearGradient>
    <linearGradient id="_Градієнт_без_назви_13-2" data-name="Градієнт без назви 13" x1="679.77" y1="341.61" x2="747.39" y2="341.61" xlink:href="#_Градієнт_без_назви_13"/>
    <linearGradient id="_Градієнт_без_назви_13-3" data-name="Градієнт без назви 13" x1="753.25" y1="341.61" x2="893.52" y2="341.61" xlink:href="#_Градієнт_без_назви_13"/>
    <linearGradient id="_Градієнт_без_назви_13-4" data-name="Градієнт без назви 13" x1="898.77" y1="341.53" x2="970.37" y2="341.53" xlink:href="#_Градієнт_без_назви_13"/>
    <linearGradient id="_Градієнт_без_назви_13-5" data-name="Градієнт без назви 13" x1="380.93" y1="502.99" x2="575.77" y2="602.86" gradientTransform="matrix(1,0,0,1,0,0)" xlink:href="#_Градієнт_без_назви_13"/>
    <linearGradient id="_Градієнт_без_назви_13-6" data-name="Градієнт без назви 13" x1="354.36" y1="549.12" x2="549.2" y2="649" gradientTransform="matrix(1,0,0,1,0,0)" xlink:href="#_Градієнт_без_назви_13"/>
    <linearGradient id="_Градієнт_без_назви_13-7" data-name="Градієнт без назви 13" x1="330.23" y1="602.36" x2="525.07" y2="702.23" gradientTransform="matrix(1,0,0,1,0,0)" xlink:href="#_Градієнт_без_назви_13"/>
  </defs>
  <g id="_Шар_1-2" data-name="Шар 1">
    <path class="cls-6" d="M197.98,0s36.2,75.24,8.52,124.92C178.82,174.61-1.47,473.01,1.37,532.49c2.84,59.47-22.71,72.25,65.3,116.26,88.01,44.01,519.57,255.52,519.57,255.52l333.6-330.76-21.29-34.07-114.99-76.66,25.55-72.4v-17.03l-36.91-1.42,39.75-38.33-31.23-44.01L197.98,0Z"/>
    <path class="cls-8" d="M762.26,322.24l-212.94,444.33s-25.55,69.56,0,96.53l25.55,26.97,322.24-310.89s2.84-22.71-17.03-28.39l-276.82,279.66s-7.1-31.23,24.13-73.82c31.23-42.59,150.48-282.5,150.48-282.5l-14.2-11.36,28.39-75.24h-39.75l29.81-52.52-19.87-12.78Z"/>
    <polygon class="cls-8" points="219.48 148.35 698.57 383.12 615.54 566.25 121.53 319.76 219.48 148.35"/>
    <polygon class="cls-8" points="113.52 357.3 360.03 478.1 302.42 578.85 57.74 462.47 113.52 357.3"/>
    <g>
      <path class="cls-5" d="M174.79,308.57l71.65-139.78,2.65,1.36,32.13,116.22,38.24-74.61,25.66,13.15-72.04,140.53-2.41-1.24-32.37-116.35-37.86,73.86-25.66-13.15Z"/>
      <path class="cls-9" d="M302.42,374l69.4-135.39,71.82,36.82-14.31,27.92-44.8-22.96-12.54,24.46,38.36,19.66-14.22,27.73-38.36-19.66-13.74,26.8,45.44,23.29-14.6,28.48-72.46-37.14Z"/>
      <path class="cls-4" d="M427.65,443.73l22.92-164.76,28.15,14.43-14.75,84.64,64.05-64.92,2.17,1.11-15.15,89.98,59.87-61.52,25.98,13.32-120.07,114.96-1.77-.91,14.75-90.19-64.05,64.92-2.09-1.07Z"/>
      <path class="cls-7" d="M557.69,456.51c4.57,8.79,8.83,15.49,12.79,20.12,3.96,4.62,8.32,8.16,13.1,10.6,4.83,2.47,9.33,3.23,13.51,2.27,4.18-.96,7.26-3.37,9.24-7.23,2.84-5.54.83-14.43-6.03-26.67-1.09-1.97-1.93-3.5-2.52-4.59l-5.25-9.18c-5.08-8.97-7.85-17.58-8.29-25.83-.44-8.25,1.39-16.38,5.51-24.41,5.58-10.89,13.7-18.01,24.35-21.36,10.65-3.34,21.58-2.14,32.79,3.6,4.13,2.12,8.32,4.97,12.57,8.57,4.25,3.59,8.72,8.09,13.4,13.47l-16.27,31.75c-3.52-6.99-7.23-12.9-11.12-17.73-3.89-4.82-7.61-8.14-11.14-9.96-3.92-2.01-7.5-2.61-10.76-1.8-3.26.81-5.75,2.89-7.47,6.25-1.21,2.37-1.68,4.92-1.39,7.66.29,2.74,1.34,5.64,3.16,8.69l9.17,15.79c7.65,13.2,11.86,23.92,12.61,32.17.75,8.25-1.06,16.63-5.43,25.16-6.77,13.2-16.1,21.87-28.02,26.02-11.91,4.15-24.27,2.94-37.09-3.63-4.34-2.23-8.79-5.17-13.34-8.84-4.55-3.67-9.31-8.19-14.27-13.56l16.19-37.33Z"/>
    </g>
    <line class="cls-1" x1="378.98" y1="506.79" x2="577.72" y2="599.06"/>
    <line class="cls-3" x1="352.41" y1="552.93" x2="551.15" y2="645.2"/>
    <line class="cls-2" x1="328.28" y1="606.16" x2="527.02" y2="698.43"/>
  </g>
</svg>