<svg width="15" height="20" viewBox="0 0 15 20" fill="none" xmlns="http://www.w3.org/2000/svg">
<path d="M12.6923 7.5909C12.6384 7.52332 12.573 7.5366 12.5388 7.55039C12.51 7.56203 12.4443 7.59922 12.4534 7.69242C12.4643 7.80434 12.4704 7.91844 12.4716 8.0316C12.4765 8.50105 12.2882 8.96098 11.955 9.29344C11.6239 9.62375 11.1884 9.80172 10.7247 9.79656C10.0914 9.78848 9.56605 9.45812 9.20555 8.84121C8.90746 8.33109 9.03848 7.67316 9.17719 6.97656C9.25836 6.56883 9.3423 6.14719 9.3423 5.7459C9.3423 2.62133 7.24176 0.818672 5.98965 0.0222266C5.96375 0.00578125 5.9391 0 5.91727 0C5.88176 0 5.85363 0.0153125 5.83977 0.0246875C5.81289 0.0428906 5.76988 0.084375 5.78371 0.157812C6.2623 2.6993 4.8348 4.22785 3.32348 5.84613C1.76566 7.51422 0 9.40488 0 12.8147C0 16.7768 3.22332 20.0001 7.18535 20.0001C10.4475 20.0001 13.3237 17.7257 14.1797 14.4692C14.7634 12.2488 14.1517 9.42035 12.6923 7.5909ZM7.36461 18.4664C6.3725 18.5116 5.42898 18.1558 4.70832 17.4667C3.99539 16.785 3.58648 15.8336 3.58648 14.8565C3.58648 13.0229 4.28758 11.6768 6.17328 9.88977C6.20414 9.86051 6.23574 9.85125 6.26328 9.85125C6.28824 9.85125 6.30988 9.85887 6.32477 9.86602C6.35613 9.88113 6.4077 9.91855 6.40074 9.99949C6.33332 10.7841 6.33449 11.4353 6.40418 11.9351C6.5823 13.2119 7.51695 14.0697 8.73004 14.0697C9.3248 14.0697 9.89133 13.8459 10.3253 13.4395C10.3756 13.3923 10.4319 13.3983 10.4534 13.4029C10.482 13.409 10.5202 13.4265 10.5403 13.4748C10.7202 13.9093 10.8121 14.3704 10.8136 14.8454C10.8193 16.7565 9.27211 18.3809 7.36461 18.4664Z" fill="#F2994A"/>
</svg>
