<svg width="27" height="21" viewBox="0 0 27 21" fill="none" xmlns="http://www.w3.org/2000/svg">
<path d="M26.7 2.17043C26.6096 2.10077 26.5047 2.05222 26.3931 2.02834C26.2815 2.00446 26.166 2.00586 26.055 2.03243L23.178 2.77043C22.116 2.71043 18.729 1.40843 16.8 0.580427L16.761 0.565427C14.199 -0.355573 11.982 -0.148573 10.128 1.16543C7.66201 0.322427 4.50301 2.10143 3.52801 2.71043L0.936007 2.04443C0.825251 2.01546 0.709319 2.01234 0.597164 2.0353C0.485009 2.05826 0.379632 2.1067 0.289173 2.17686C0.198713 2.24703 0.12559 2.33704 0.0754515 2.43996C0.025313 2.54288 -0.000499487 2.65595 7.32115e-06 2.77043V13.2704C7.32115e-06 13.4693 0.0790249 13.6601 0.219677 13.8008C0.360329 13.9414 0.551095 14.0204 0.750007 14.0204H2.34301L9.16201 19.3964C9.42373 19.6482 9.7425 19.8329 10.0911 19.9347C10.4397 20.0365 10.8078 20.0524 11.1639 19.9811C11.5199 19.9098 11.8535 19.7533 12.136 19.525C12.4184 19.2968 12.6415 19.0036 12.786 18.6704C13.1259 18.8651 13.5103 18.9685 13.902 18.9704C14.3416 18.9706 14.7717 18.842 15.139 18.6005C15.5064 18.359 15.7949 18.0151 15.969 17.6114C16.3082 17.8077 16.6931 17.9111 17.085 17.9114C17.5241 17.911 17.9535 17.7821 18.3203 17.5407C18.687 17.2992 18.9751 16.9556 19.149 16.5524C19.4953 16.7491 19.8878 16.85 20.286 16.8449C20.6843 16.8397 21.074 16.7287 21.4151 16.5231C21.7562 16.3176 22.0365 16.025 22.2272 15.6753C22.4178 15.3256 22.512 14.9315 22.5 14.5334L24.105 14.0204H26.25C26.4489 14.0204 26.6397 13.9414 26.7803 13.8008C26.921 13.6601 27 13.4693 27 13.2704V2.77043C27.0005 2.65391 26.9736 2.53891 26.9215 2.4347C26.8694 2.33048 26.7935 2.23996 26.7 2.17043ZM1.50001 3.73043L2.84101 4.07543L2.30401 9.07043L1.93201 12.5204H1.50001V3.73043ZM20.796 15.1184C20.6534 15.2559 20.4631 15.3327 20.265 15.3327C20.0669 15.3327 19.8766 15.2559 19.734 15.1184L18.675 14.0594L14.433 9.81443C14.2905 9.68628 14.1043 9.61756 13.9127 9.62237C13.7211 9.62718 13.5386 9.70516 13.4027 9.8403C13.2668 9.97544 13.1878 10.1575 13.1819 10.3491C13.176 10.5406 13.2437 10.7272 13.371 10.8704L17.616 15.1214C17.7524 15.2631 17.8278 15.4526 17.8258 15.6493C17.8238 15.8459 17.7447 16.0339 17.6054 16.1728C17.4662 16.3117 17.2779 16.3903 17.0813 16.3917C16.8846 16.3931 16.6953 16.3173 16.554 16.1804L15.492 15.1184L12.3 11.9354C12.2303 11.8657 12.1475 11.8104 12.0564 11.7726C11.9653 11.7349 11.8676 11.7155 11.769 11.7155C11.6704 11.7155 11.5727 11.7349 11.4816 11.7726C11.3905 11.8104 11.3077 11.8657 11.238 11.9354C11.1683 12.0052 11.113 12.0879 11.0752 12.1791C11.0375 12.2702 11.0181 12.3678 11.0181 12.4664C11.0181 12.565 11.0375 12.6627 11.0752 12.7538C11.113 12.8449 11.1683 12.9277 11.238 12.9974L14.433 16.1804C14.5045 16.2497 14.5615 16.3326 14.6007 16.4241C14.6399 16.5157 14.6604 16.6141 14.6612 16.7137C14.6619 16.8133 14.6428 16.912 14.6049 17.0041C14.5671 17.0962 14.5113 17.1799 14.4408 17.2502C14.3702 17.3205 14.2864 17.3761 14.1942 17.4137C14.102 17.4513 14.0032 17.4701 13.9036 17.4691C13.804 17.4681 13.7057 17.4473 13.6142 17.4078C13.5228 17.3684 13.4401 17.3112 13.371 17.2394L10.2 14.0594C10.1306 13.9897 10.0481 13.9343 9.95722 13.8966C9.86635 13.8588 9.76891 13.8393 9.67051 13.8393C9.5721 13.8393 9.47467 13.8588 9.3838 13.8966C9.29293 13.9343 9.21042 13.9897 9.14101 14.0594C9.07109 14.1283 9.01569 14.2106 8.97808 14.3013C8.94046 14.3919 8.9214 14.4893 8.92201 14.5874C8.92167 14.686 8.94084 14.7837 8.97843 14.8748C9.01602 14.966 9.07127 15.0487 9.14101 15.1184L11.262 17.2394C11.4023 17.3805 11.4811 17.5714 11.4811 17.7704C11.4811 17.9694 11.4023 18.1603 11.262 18.3014C11.1187 18.4375 10.9286 18.5134 10.731 18.5134C10.5334 18.5134 10.3433 18.4375 10.2 18.3014C10.1795 18.2799 10.1574 18.2598 10.134 18.2414L3.39301 12.9374L4.14601 5.98043L4.36501 3.95243C5.31901 3.35243 7.18201 2.42543 8.72701 2.45243C8.26785 2.98257 7.8572 3.55286 7.50001 4.15643C7.16913 4.72023 7.06378 5.38834 7.20513 6.0266C7.34647 6.66486 7.72403 7.22603 8.26201 7.59743C9.32401 8.32343 11.262 8.99843 13.662 6.92543L20.796 14.0564C20.9356 14.1979 21.0139 14.3887 21.0139 14.5874C21.0139 14.7862 20.9356 14.977 20.796 15.1184ZM21.975 13.1294C21.9385 13.0833 21.8994 13.0392 21.858 12.9974L14.718 5.85743C15.018 5.51543 15.318 5.13443 15.618 4.70243C15.6862 4.62331 15.7371 4.53082 15.7675 4.43088C15.7979 4.33094 15.807 4.22576 15.7944 4.12208C15.7818 4.0184 15.7476 3.9185 15.6941 3.82877C15.6407 3.73905 15.569 3.66149 15.4838 3.60106C15.3986 3.54063 15.3018 3.49866 15.1994 3.47783C15.0971 3.45701 14.9915 3.4578 14.8894 3.48015C14.7874 3.50249 14.6912 3.5459 14.6069 3.6076C14.5226 3.6693 14.4521 3.74792 14.4 3.83843C13.068 5.72543 11.076 7.69343 9.12001 6.35843C8.89791 6.20025 8.74365 5.96411 8.68804 5.69717C8.63243 5.43023 8.67955 5.15214 8.82001 4.91843C9.30619 4.04982 9.94195 3.27391 10.698 2.62643C10.7223 2.60908 10.7454 2.59003 10.767 2.56943C12.267 1.36943 14.067 1.18643 16.251 1.96943C16.818 2.20943 20.595 3.80843 22.575 4.18943L23.235 12.7364L21.975 13.1294ZM25.5 12.5204H24.696L24.045 4.09343L25.5 3.73043V12.5204Z" fill="#666C75"/>
</svg>
