<svg width="24" height="24" viewBox="0 0 24 24" fill="none" xmlns="http://www.w3.org/2000/svg">
<path d="M6.35988 23.8042C7.13594 23.065 7.88428 22.3532 8.66034 21.6139C8.71578 21.5866 8.74349 21.5318 8.77121 21.5044C8.85436 21.4223 8.90979 21.3128 8.90979 21.2306C9.9353 18.9856 10.9608 16.7132 11.9863 14.4681C12.8178 14.8514 13.6493 15.2073 14.4808 15.5906C14.6471 15.6728 14.7857 15.6728 14.8965 15.6454H14.9243C15.0351 15.618 15.146 15.5633 15.2014 15.4264C16.4487 12.7159 17.6682 10.0054 18.9154 7.2949C19.1926 7.40441 19.442 7.54131 19.7192 7.65082C19.8855 7.73296 20.0241 7.73296 20.1349 7.70558H20.1627C20.2735 7.6782 20.3844 7.62344 20.4398 7.48655C20.717 6.85684 20.9942 6.25451 21.299 5.6248C21.4099 5.40577 21.2436 5.13198 20.9387 4.99509C17.2802 3.32499 13.6216 1.68227 9.96301 0.0669257C9.68585 -0.0699678 9.35325 0.0121683 9.24239 0.231198C8.96522 0.860908 8.68806 1.46324 8.38318 2.09295C8.27231 2.31198 8.43861 2.58576 8.74349 2.72266C9.02066 2.83217 9.2701 2.96907 9.54727 3.07858C8.30003 5.78907 7.08051 8.49956 5.83327 11.21C5.7224 11.4291 5.8887 11.7029 6.19358 11.8398C7.02507 12.2231 7.85657 12.579 8.68806 12.9623C7.85657 14.7967 7.02507 16.631 6.16586 18.4654C5.91642 19.013 5.58382 19.5879 5.47295 20.1629C5.27894 21.1485 5.3898 22.2984 5.33437 23.3388C5.30665 23.9411 5.94413 24.2149 6.35988 23.8042ZM10.1293 1.10732C13.4276 2.58576 16.7535 4.03684 20.0518 5.51528C19.8855 5.87121 19.7192 6.22713 19.5529 6.58305C16.2546 5.1046 12.9287 3.62615 9.63042 2.17508C9.79672 1.81916 9.96301 1.46324 10.1293 1.10732ZM7.08051 11.2922C8.2446 8.71859 9.4364 6.11761 10.6005 3.54402C12.7069 4.47489 14.8134 5.40577 16.9198 6.33664C17.2247 6.47354 17.5573 6.61043 17.8622 6.74732C16.6981 9.32092 15.5063 11.9219 14.3422 14.4955C11.9032 13.4551 9.49183 12.3873 7.08051 11.2922ZM6.60933 20.5188C6.66476 20.1903 6.58161 20.4914 6.72019 20.0807C6.88649 19.6153 7.13594 19.1772 7.32995 18.7392C8.13373 16.987 8.93751 15.2073 9.74128 13.4551C10.1293 13.6194 10.5451 13.811 10.9331 13.9753C9.87986 16.2477 8.85436 18.5475 7.80113 20.82C7.35767 21.2306 6.94192 21.6413 6.49846 22.052C6.52618 21.5592 6.55389 21.039 6.60933 20.5188Z" fill="#4958CD"/>
</svg>
