<?xml version="1.0" encoding="UTF-8"?>
<svg id="_Шар_2" data-name="Шар 2" xmlns="http://www.w3.org/2000/svg" xmlns:xlink="http://www.w3.org/1999/xlink" viewBox="0 0 324.12 372.21">
  <defs>
    <style>
      .cls-1 {
        fill: url(#_Градієнт_без_назви_13);
      }

      .cls-1, .cls-2 {
        stroke-width: 0px;
      }

      .cls-2 {
        fill: url(#_Градієнт_без_назви_23);
      }
    </style>
    <linearGradient id="_Градієнт_без_назви_13" data-name="Градієнт без назви 13" x1="-26.76" y1="208.69" x2="280.14" y2="208.69" gradientTransform="translate(26.76 -17.68)" gradientUnits="userSpaceOnUse">
      <stop offset="0" stop-color="#649c29"/>
      <stop offset="1" stop-color="#85ce36"/>
    </linearGradient>
    <linearGradient id="_Градієнт_без_назви_23" data-name="Градієнт без назви 23" x1="-63.34" y1="1152.27" x2="101.74" y2="1152.27" gradientTransform="translate(-583 -685.33) rotate(-40.7)" gradientUnits="userSpaceOnUse">
      <stop offset="0" stop-color="#a355fe"/>
      <stop offset="1" stop-color="#7560fe"/>
    </linearGradient>
  </defs>
  <g id="_Шар_1-2" data-name="Шар 1">
    <path class="cls-1" d="M242.43,372.21c15.44,0,30.2-5.46,42.03-15.63,27-23.22,30.07-64.09,6.86-91.09L137.47,86.62c-7.2-8.38-17.24-13.46-28.27-14.28-10.95-.79-21.72,2.68-30.09,9.9-8.38,7.21-13.45,17.24-14.28,28.27-.83,11.02,2.69,21.72,9.9,30.1l131.91,153.38,20.73-17.83L95.45,122.76c-2.45-2.85-3.63-6.47-3.35-10.21.28-3.74,2-7.14,4.85-9.59,2.84-2.45,6.43-3.65,10.2-3.36,3.74.28,7.15,2,9.59,4.84l153.84,178.87c13.39,15.58,11.61,39.14-3.96,52.53-7.55,6.49-17.23,9.69-27.08,8.9-9.92-.74-18.96-5.31-25.46-12.86L41.05,130.71c-9.86-11.47-14.67-26.1-13.54-41.19,1.13-15.09,8.08-28.83,19.55-38.7,23.68-20.36,59.53-17.68,79.9,6.01l152.47,177.3,20.73-17.83L147.69,38.99C117.5,3.88,64.35-.12,29.23,30.08,12.22,44.71,1.93,65.09.24,87.46c-1.69,22.38,5.45,44.07,20.08,61.07l173.02,201.19c11.25,13.09,26.92,21,44.13,22.3,1.66.12,3.3.19,4.95.19Z"/>
    <path class="cls-2" d="M261.12,359.52c-1.6,0-3.22-.06-4.84-.18-16.82-1.27-32.13-9.01-43.13-21.79L40.12,136.36c-14.37-16.72-21.38-38.03-19.72-60.01,1.66-21.99,11.77-42.01,28.49-56.38C65.6,5.59,86.9-1.41,108.89.24c21.97,1.66,42.01,11.77,56.38,28.49l152.47,177.29-18.52,15.93L146.75,44.65c-10.12-11.77-24.22-18.89-39.7-20.06-15.39-1.15-30.47,3.76-42.25,13.89-11.77,10.12-18.9,24.22-20.06,39.7-1.16,15.48,3.77,30.48,13.9,42.25l173.03,201.19c6.74,7.84,16.13,12.58,26.44,13.36,10.3.79,20.31-2.52,28.15-9.25,16.17-13.92,18.02-38.41,4.1-54.6L136.54,92.28c-5.56-6.48-15.36-7.23-21.87-1.65-6.47,5.58-7.21,15.38-1.63,21.87l131.91,153.39-18.52,15.93L94.52,128.42c-14.35-16.69-12.45-41.95,4.23-56.3,16.7-14.36,41.95-12.45,56.31,4.24l153.84,178.87c22.69,26.4,19.69,66.34-6.71,89.04-11.55,9.94-25.98,15.27-41.07,15.27Z"/>
  </g>
</svg>