<?xml version="1.0" encoding="utf-8"?>
<!-- Generator: Adobe Illustrator 27.2.0, SVG Export Plug-In . SVG Version: 6.00 Build 0)  -->
<svg version="1.1" id="icons" xmlns="http://www.w3.org/2000/svg" xmlns:xlink="http://www.w3.org/1999/xlink" x="0px" y="0px"
	 width="128px" height="128px" viewBox="0 0 128 128" style="enable-background:new 0 0 128 128;" xml:space="preserve">
<style type="text/css">
	.st0{fill:#FFE300;}
	.st1{opacity:8.000000e-02;fill:#303442;enable-background:new    ;}
	.st2{display:none;fill:#EF5500;}
	.st3{display:none;fill:none;stroke:#303442;stroke-width:4;stroke-linecap:round;stroke-linejoin:round;}
</style>
<path class="st0" d="M64,18c25.4,0,46,20.6,46,46s-20.6,46-46,46S18,89.4,18,64C18,38.6,38.6,18,64,18C64,18,64,18,64,18z M83,65.7
	c0.9-0.5,1.3-1.7,0.7-2.7c-0.2-0.3-0.4-0.6-0.7-0.7l-28-16c-1-0.6-2.2-0.2-2.7,0.7c-0.2,0.3-0.3,0.6-0.3,1V80c0,1.1,0.9,2,2,2
	c0.3,0,0.7-0.1,1-0.3L83,65.7z"/>
<path class="st1" d="M64,100c-23.5,0-43.2-17.7-45.7-41c-0.2,1.7-0.3,3.3-0.3,5c0,25.4,20.6,46,46,46s46-20.6,46-46
	c0-1.7-0.1-3.3-0.3-5C107.2,82.3,87.5,100,64,100z"/>
<path class="st2" d="M83,62.3c0.9,0.5,1.3,1.7,0.7,2.7c-0.2,0.3-0.4,0.6-0.7,0.7l-28,16c-1,0.6-2.2,0.2-2.7-0.7
	c-0.2-0.3-0.3-0.6-0.3-1V48c0-1.1,0.9-2,2-2c0.3,0,0.7,0.1,1,0.3L83,62.3z"/>
<circle class="st3" cx="64" cy="64" r="46"/>
<path class="st3" d="M83,65.7l-28,16c-1,0.6-2.2,0.2-2.7-0.7c-0.2-0.3-0.3-0.6-0.3-1V48c0-1.1,0.9-2,2-2c0.3,0,0.7,0.1,1,0.3l28,16
	c0.9,0.5,1.3,1.7,0.7,2.7C83.6,65.3,83.3,65.5,83,65.7z"/>
</svg>
