<svg width="27" height="27" viewBox="0 0 27 27" fill="none" xmlns="http://www.w3.org/2000/svg">
<path fill-rule="evenodd" clip-rule="evenodd" d="M9.375 12.1875V14.6875C9.375 15.4338 9.67125 16.1487 10.1988 16.6762C10.7263 17.2037 11.4412 17.5 12.1875 17.5H14.6875C15.4338 17.5 16.1487 17.2037 16.6762 16.6762C17.2037 16.1487 17.5 15.4338 17.5 14.6875V12.1875C17.5 11.4412 17.2037 10.7263 16.6762 10.1988C16.1487 9.67125 15.4338 9.375 14.6875 9.375H12.1875C11.4412 9.375 10.7263 9.67125 10.1988 10.1988C9.67125 10.7263 9.375 11.4412 9.375 12.1875ZM11.25 12.1875C11.25 11.9387 11.3488 11.7 11.525 11.525C11.7 11.3488 11.9387 11.25 12.1875 11.25H14.6875C14.9363 11.25 15.175 11.3488 15.35 11.525C15.5262 11.7 15.625 11.9387 15.625 12.1875V14.6875C15.625 14.9363 15.5262 15.175 15.35 15.35C15.175 15.5262 14.9363 15.625 14.6875 15.625H12.1875C11.9387 15.625 11.7 15.5262 11.525 15.35C11.3488 15.175 11.25 14.9363 11.25 14.6875V12.1875Z" fill="#666C75"/>
<path fill-rule="evenodd" clip-rule="evenodd" d="M0 2.8125V5.3125C0 6.05875 0.29625 6.77375 0.82375 7.30125C1.35125 7.82875 2.06625 8.125 2.8125 8.125H5.3125C6.05875 8.125 6.77375 7.82875 7.30125 7.30125C7.82875 6.77375 8.125 6.05875 8.125 5.3125V2.8125C8.125 2.06625 7.82875 1.35125 7.30125 0.82375C6.77375 0.29625 6.05875 0 5.3125 0H2.8125C2.06625 0 1.35125 0.29625 0.82375 0.82375C0.29625 1.35125 0 2.06625 0 2.8125ZM1.875 2.8125C1.875 2.56375 1.97375 2.325 2.15 2.15C2.325 1.97375 2.56375 1.875 2.8125 1.875H5.3125C5.56125 1.875 5.8 1.97375 5.975 2.15C6.15125 2.325 6.25 2.56375 6.25 2.8125V5.3125C6.25 5.56125 6.15125 5.8 5.975 5.975C5.8 6.15125 5.56125 6.25 5.3125 6.25H2.8125C2.56375 6.25 2.325 6.15125 2.15 5.975C1.97375 5.8 1.875 5.56125 1.875 5.3125V2.8125Z" fill="#666C75"/>
<path fill-rule="evenodd" clip-rule="evenodd" d="M18.75 21.5625V24.0625C18.75 24.8088 19.0463 25.5237 19.5738 26.0512C20.1013 26.5787 20.8162 26.875 21.5625 26.875H24.0625C24.8088 26.875 25.5237 26.5787 26.0512 26.0512C26.5787 25.5237 26.875 24.8088 26.875 24.0625V21.5625C26.875 20.8162 26.5787 20.1013 26.0512 19.5738C25.5237 19.0463 24.8088 18.75 24.0625 18.75H21.5625C20.8162 18.75 20.1013 19.0463 19.5738 19.5738C19.0463 20.1013 18.75 20.8162 18.75 21.5625ZM20.625 21.5625C20.625 21.3137 20.7237 21.075 20.9 20.9C21.075 20.7237 21.3137 20.625 21.5625 20.625H24.0625C24.3113 20.625 24.55 20.7237 24.725 20.9C24.9013 21.075 25 21.3137 25 21.5625V24.0625C25 24.3113 24.9013 24.55 24.725 24.725C24.55 24.9013 24.3113 25 24.0625 25H21.5625C21.3137 25 21.075 24.9013 20.9 24.725C20.7237 24.55 20.625 24.3113 20.625 24.0625V21.5625Z" fill="#666C75"/>
<path fill-rule="evenodd" clip-rule="evenodd" d="M7.1875 5H23.4375C23.8525 5 24.2488 5.165 24.5425 5.4575C24.835 5.75125 25 6.1475 25 6.5625V10.9375C25 11.3525 24.835 11.7487 24.5425 12.0425C24.2488 12.335 23.8525 12.5 23.4375 12.5H19.6875C19.17 12.5 18.75 12.92 18.75 13.4375C18.75 13.955 19.17 14.375 19.6875 14.375H23.4375C24.3487 14.375 25.2237 14.0125 25.8687 13.3687C26.5125 12.7237 26.875 11.8487 26.875 10.9375C26.875 9.58375 26.875 7.91625 26.875 6.5625C26.875 5.65125 26.5125 4.77625 25.8687 4.13125C25.2237 3.4875 24.3487 3.125 23.4375 3.125C18.3325 3.125 7.1875 3.125 7.1875 3.125C6.67 3.125 6.25 3.545 6.25 4.0625C6.25 4.58 6.67 5 7.1875 5Z" fill="#666C75"/>
<path fill-rule="evenodd" clip-rule="evenodd" d="M14.6875 21.875H3.4375C3.0225 21.875 2.62625 21.71 2.3325 21.4175C2.04 21.1238 1.875 20.7275 1.875 20.3125C1.875 18.9588 1.875 17.2912 1.875 15.9375C1.875 15.5225 2.04 15.1263 2.3325 14.8325C2.62625 14.54 3.0225 14.375 3.4375 14.375H10.3125C10.83 14.375 11.25 13.955 11.25 13.4375C11.25 12.92 10.83 12.5 10.3125 12.5H3.4375C2.52625 12.5 1.65125 12.8625 1.00625 13.5063C0.3625 14.1513 0 15.0263 0 15.9375V20.3125C0 21.2237 0.3625 22.0987 1.00625 22.7437C1.65125 23.3875 2.52625 23.75 3.4375 23.75H14.6875C15.205 23.75 15.625 23.33 15.625 22.8125C15.625 22.295 15.205 21.875 14.6875 21.875Z" fill="#666C75"/>
<path fill-rule="evenodd" clip-rule="evenodd" d="M22.85 15.2751L21.0137 13.4376L22.85 11.6001C23.2162 11.2351 23.2162 10.6401 22.85 10.2751C22.485 9.9088 21.89 9.9088 21.525 10.2751L19.025 12.7751C18.6587 13.1413 18.6587 13.7338 19.025 14.1001L21.525 16.6001C21.89 16.9663 22.485 16.9663 22.85 16.6001C23.2162 16.2351 23.2162 15.6401 22.85 15.2751Z" fill="#666C75"/>
<path fill-rule="evenodd" clip-rule="evenodd" d="M14.1 25.9751L16.6 23.4751C16.9662 23.1088 16.9662 22.5163 16.6 22.1501L14.1 19.6501C13.735 19.2838 13.14 19.2838 12.775 19.6501C12.4087 20.0151 12.4087 20.6101 12.775 20.9751L14.6112 22.8126L12.775 24.6501C12.4087 25.0151 12.4087 25.6101 12.775 25.9751C13.14 26.3413 13.735 26.3413 14.1 25.9751Z" fill="#666C75"/>
</svg>
