<svg width="31" height="29" viewBox="0 0 31 29" fill="none" xmlns="http://www.w3.org/2000/svg">
<g filter="url(#filter0_d_2162_30)">
<path d="M26.7411 18.0474C27.4782 19.3597 26.553 21 25.0809 21H5.91883C4.44392 21 3.52304 19.3571 4.25864 18.0474L13.8398 0.98376C14.5772 -0.329109 16.4241 -0.32673 17.1602 0.98376L26.7411 18.0474ZM15.5 14.5195C14.4856 14.5195 13.6632 15.3642 13.6632 16.4062C13.6632 17.4483 14.4856 18.293 15.5 18.293C16.5144 18.293 17.3368 17.4483 17.3368 16.4062C17.3368 15.3642 16.5144 14.5195 15.5 14.5195ZM13.7561 7.73776L14.0523 13.3159C14.0662 13.5769 14.2763 13.7812 14.5308 13.7812H16.4692C16.7237 13.7812 16.9338 13.5769 16.9477 13.3159L17.2439 7.73776C17.2589 7.45582 17.0403 7.21875 16.7654 7.21875H14.2345C13.9596 7.21875 13.7411 7.45582 13.7561 7.73776Z" fill="url(#paint0_radial_2162_30)"/>
</g>
<defs>
<filter id="filter0_d_2162_30" x="0" y="0" width="31" height="29" filterUnits="userSpaceOnUse" color-interpolation-filters="sRGB">
<feFlood flood-opacity="0" result="BackgroundImageFix"/>
<feColorMatrix in="SourceAlpha" type="matrix" values="0 0 0 0 0 0 0 0 0 0 0 0 0 0 0 0 0 0 127 0" result="hardAlpha"/>
<feOffset dy="4"/>
<feGaussianBlur stdDeviation="2"/>
<feComposite in2="hardAlpha" operator="out"/>
<feColorMatrix type="matrix" values="0 0 0 0 0 0 0 0 0 0 0 0 0 0 0 0 0 0 0.25 0"/>
<feBlend mode="normal" in2="BackgroundImageFix" result="effect1_dropShadow_2162_30"/>
<feBlend mode="normal" in="SourceGraphic" in2="effect1_dropShadow_2162_30" result="shape"/>
</filter>
<radialGradient id="paint0_radial_2162_30" cx="0" cy="0" r="1" gradientUnits="userSpaceOnUse" gradientTransform="translate(15.5 36.6509) rotate(-91.2197) scale(56.8714 62.5847)">
<stop stop-color="#446DFE"/>
<stop offset="1" stop-color="#E444FE"/>
</radialGradient>
</defs>
</svg>
