<?xml version="1.0" encoding="UTF-8"?>
<svg id="_Шар_2" data-name="Шар 2" xmlns="http://www.w3.org/2000/svg" xmlns:xlink="http://www.w3.org/1999/xlink" viewBox="0 0 1191.49 965.16">
  <defs>
    <style>
      .cls-1 {
        fill: url(#_Градієнт_без_назви_13-3);
      }

      .cls-1, .cls-2, .cls-3, .cls-4, .cls-5, .cls-6, .cls-7, .cls-8, .cls-9, .cls-10 {
        stroke-width: 0px;
      }

      .cls-2 {
        fill: url(#_Градієнт_без_назви_13);
      }

      .cls-3 {
        fill: url(#_Градієнт_без_назви_23);
      }

      .cls-4 {
        fill: url(#_Градієнт_без_назви_23-3);
      }

      .cls-5 {
        fill: url(#_Градієнт_без_назви_13-4);
      }

      .cls-6 {
        fill: #fff;
      }

      .cls-7 {
        fill: url(#_Градієнт_без_назви_23-4);
      }

      .cls-8 {
        fill: url(#_Градієнт_без_назви_13-2);
      }

      .cls-9 {
        fill: url(#_Градієнт_без_назви_13-5);
      }

      .cls-10 {
        fill: url(#_Градієнт_без_назви_23-2);
      }
    </style>
    <linearGradient id="_Градієнт_без_назви_13" data-name="Градієнт без назви 13" x1="22" y1="543.07" x2="371.86" y2="543.07" gradientUnits="userSpaceOnUse">
      <stop offset="0" stop-color="#649c29"/>
      <stop offset="1" stop-color="#85ce36"/>
    </linearGradient>
    <linearGradient id="_Градієнт_без_назви_13-2" data-name="Градієнт без назви 13" x1="55.61" y1="408.67" x2="861.1" y2="408.67" xlink:href="#_Градієнт_без_назви_13"/>
    <linearGradient id="_Градієнт_без_назви_13-3" data-name="Градієнт без назви 13" x1="544.64" y1="548.32" x2="890" y2="548.32" xlink:href="#_Градієнт_без_назви_13"/>
    <linearGradient id="_Градієнт_без_назви_13-4" data-name="Градієнт без назви 13" x1="58.02" y1="702.65" x2="849.63" y2="702.65" xlink:href="#_Градієнт_без_назви_13"/>
    <linearGradient id="_Градієнт_без_назви_23" data-name="Градієнт без назви 23" x1="113.68" y1="639.27" x2="448.27" y2="639.27" gradientUnits="userSpaceOnUse">
      <stop offset="0" stop-color="#a355fe"/>
      <stop offset="1" stop-color="#7560fe"/>
    </linearGradient>
    <linearGradient id="_Градієнт_без_назви_23-2" data-name="Градієнт без назви 23" x1="150.84" y1="504.8" x2="937.68" y2="504.8" xlink:href="#_Градієнт_без_назви_23"/>
    <linearGradient id="_Градієнт_без_назви_23-3" data-name="Градієнт без назви 23" x1="639.53" y1="644.86" x2="969.68" y2="644.86" xlink:href="#_Градієнт_без_назви_23"/>
    <linearGradient id="_Градієнт_без_назви_23-4" data-name="Градієнт без назви 23" x1="153.41" y1="799.71" x2="925.24" y2="799.71" xlink:href="#_Градієнт_без_назви_23"/>
    <linearGradient id="_Градієнт_без_назви_13-5" data-name="Градієнт без назви 13" x1="627.31" y1="292.85" x2="1169.46" y2="292.85" xlink:href="#_Градієнт_без_назви_13"/>
  </defs>
  <g id="_Шар_1-2" data-name="Шар 1">
    <g>
      <g>
        <path class="cls-2" d="M42.25,790.51c-13.25-21.97-20.25-47.21-20.25-72.98v-351.67c0-24.2,6.23-48.1,18.02-69.12l13.05-23.28,318.79,270.19L55.63,812.68l-13.37-22.18Z"/>
        <path class="cls-6" d="M59.21,307.5l278.66,236.18L61.09,779.15c-10.85-17.99-17.09-39.07-17.09-61.62v-351.67c0-21.2,5.53-41.1,15.21-58.36M46.94,239.42l-26.11,46.56C7.2,310.28,0,337.9,0,365.86v351.67c0,29.77,8.1,58.93,23.41,84.34l26.74,44.35,39.45-33.56,276.77-235.46,39.47-33.58-39.53-33.5L87.65,273.94l-40.72-34.51h0Z"/>
      </g>
      <g>
        <path class="cls-8" d="M465.88,592.98c-19.11,0-37.74-6.87-52.45-19.33L55.61,270.38l21.54-16.61c24.94-19.23,54.8-29.4,86.34-29.4h585c34.61,0,67.93,12.64,93.82,35.58l18.79,16.65-342.1,296.47c-14.82,12.84-33.68,19.92-53.12,19.92h0Z"/>
        <path class="cls-6" d="M748.5,246.36c30.4,0,58.14,11.36,79.22,30.05l-323.13,280.03c-11.18,9.69-24.94,14.54-38.71,14.54s-27.11-4.7-38.22-14.12L90.59,271.18c20.18-15.56,45.46-24.82,72.91-24.82h585M748.5,202.36H163.5c-18.35,0-36.39,3.03-53.61,9.01-16.64,5.78-32.17,14.18-46.17,24.97l-43.09,33.23,41.51,35.18,337.07,285.68c18.68,15.83,42.36,24.55,66.67,24.55s48.71-8.98,67.53-25.29l323.13-280.03,37.94-32.88-37.57-33.3c-29.92-26.52-68.42-41.12-108.41-41.12h0Z"/>
      </g>
      <g>
        <path class="cls-1" d="M544.64,556.14l319.48-276.87,12.38,26.22c8.96,18.96,13.5,39.27,13.5,60.36v351.67c0,28.56-8.48,56.09-24.51,79.61l-13.79,20.23-307.06-261.23Z"/>
        <path class="cls-6" d="M856.61,314.89c7.3,15.46,11.39,32.74,11.39,50.97v351.67c0,24.93-7.64,48.07-20.69,67.22l-268.9-228.76,278.2-241.09M871.62,243.66l-43.83,37.99-278.2,241.09-38.72,33.56,39.03,33.2,268.9,228.76,37.29,31.73,27.58-40.46c18.54-27.19,28.34-59.01,28.34-92.01v-351.67c0-24.36-5.25-47.83-15.61-69.76l-24.77-52.45h0Z"/>
      </g>
      <g>
        <path class="cls-5" d="M163.5,859.03c-29.92,0-58.53-9.24-82.74-26.71l-22.74-16.42,316.93-269.63,35.9,30.43c15.36,13.01,34.9,20.18,55.03,20.18h.49c20.28-.11,39.91-7.5,55.25-20.79l19.96-17.3,308.05,262.07-25.09,16.01c-22.71,14.49-49,22.15-76.04,22.15H163.5Z"/>
        <path class="cls-6" d="M374.98,575.13l21.65,18.35c19.34,16.39,43.91,25.4,69.26,25.4.19,0,.39,0,.59,0,25.55-.14,50.25-9.43,69.56-26.17l5.68-4.92,270.99,230.54c-18.54,11.84-40.57,18.7-64.2,18.7H163.5c-26.09,0-50.21-8.36-69.86-22.55l281.34-239.35M374.92,517.41l-28.46,24.21-281.34,239.35-42.73,36.35,45.49,32.84c27.98,20.2,61.04,30.87,95.62,30.87h585c31.24,0,61.63-8.85,87.87-25.61l50.18-32.03-45.34-38.58-270.99-230.54-28.78-24.48-28.55,24.74-5.68,4.92c-11.38,9.86-25.93,15.34-40.99,15.42h-.35c-14.93,0-29.42-5.31-40.81-14.97l-21.65-18.35-28.5-24.16h0Z"/>
      </g>
    </g>
    <g>
      <g>
        <path class="cls-3" d="M133.08,883.54c-12.69-21.04-19.39-45.2-19.39-69.88v-351.67c0-23.18,5.97-46.06,17.25-66.19l9.49-16.93,307.84,260.91-305.47,259.88-9.72-16.13Z"/>
        <path class="cls-6" d="M144.89,403.63l278.66,236.18-276.77,235.46c-10.85-17.99-17.09-39.07-17.09-61.62v-351.67c0-21.2,5.53-41.1,15.21-58.36M135.97,354.12l-18.99,33.86c-12.62,22.51-19.3,48.1-19.3,74.01v351.67c0,27.59,7.5,54.61,21.69,78.14l19.45,32.26,28.69-24.41,276.77-235.46,28.7-24.42-28.75-24.37-278.66-236.18-29.61-25.1h0Z"/>
      </g>
      <g>
        <path class="cls-10" d="M551.57,683.11c-17.69,0-34.94-6.36-48.57-17.91L150.84,366.72l15.67-12.08c23.88-18.42,52.47-28.15,82.68-28.15h585c33.14,0,65.05,12.1,89.84,34.07l13.66,12.11-336.93,291.99c-13.73,11.9-31.2,18.45-49.19,18.45h0Z"/>
        <path class="cls-6" d="M834.18,342.49c30.4,0,58.14,11.36,79.22,30.05l-323.13,280.03c-11.18,9.69-24.94,14.54-38.71,14.54s-27.11-4.7-38.22-14.12L176.28,367.31c20.18-15.56,45.46-24.82,72.91-24.82h585M834.18,310.49H249.18c-17.01,0-33.72,2.81-49.67,8.34-15.41,5.35-29.81,13.13-42.77,23.14l-31.34,24.17,30.19,25.59,337.07,285.68c16.51,14,37.44,21.71,58.91,21.71s43.03-7.94,59.67-22.36l323.13-280.03,27.59-23.91-27.32-24.22c-27.72-24.57-63.39-38.1-100.45-38.1h0Z"/>
      </g>
      <g>
        <path class="cls-4" d="M639.53,652.23l308.22-267.11,9.01,19.07c8.58,18.16,12.92,37.61,12.92,57.8v351.67c0,27.35-8.12,53.71-23.47,76.23l-10.03,14.71-296.65-252.38Z"/>
        <path class="cls-6" d="M942.29,411.02c7.3,15.46,11.39,32.74,11.39,50.97v351.67c0,24.93-7.64,48.07-20.69,67.22l-268.9-228.76,278.2-241.09M953.21,359.21l-31.88,27.63-278.2,241.09-28.16,24.41,28.38,24.15,268.9,228.76,27.12,23.07,20.06-29.42c17.17-25.19,26.25-54.67,26.25-85.25v-351.67c0-22.58-4.86-44.32-14.46-64.63l-18.01-38.14h0Z"/>
      </g>
      <g>
        <path class="cls-7" d="M249.18,949.16c-28.65,0-56.05-8.84-79.23-25.57l-16.54-11.94,307.23-261.37,32.01,27.13c16.44,13.93,37.36,21.61,58.91,21.61h.51c21.72-.12,42.73-8.03,59.16-22.26l16.07-13.92,297.94,253.47-18.25,11.65c-21.74,13.88-46.92,21.21-72.81,21.21H249.18Z"/>
        <path class="cls-6" d="M460.66,671.26l21.65,18.35c19.34,16.39,43.91,25.4,69.26,25.4.19,0,.39,0,.59,0,25.55-.14,50.25-9.43,69.56-26.17l5.68-4.92,270.99,230.54c-18.54,11.84-40.57,18.7-64.2,18.7H249.18c-26.09,0-50.21-8.36-69.86-22.55l281.34-239.35M460.62,629.28l-20.7,17.61-281.34,239.35-31.08,26.44,33.08,23.88c25.92,18.71,56.56,28.6,88.59,28.6h585c28.95,0,57.1-8.2,81.42-23.72l36.5-23.29-32.98-28.05-270.99-230.54-20.93-17.8-20.76,17.99-5.68,4.92c-13.54,11.73-30.86,18.25-48.78,18.35h-.41c-17.77,0-35.01-6.33-48.57-17.81l-21.65-18.35-20.73-17.57h0Z"/>
      </g>
    </g>
    <g>
      <path class="cls-9" d="M690.97,563.7c-22.21,0-42.44-11.28-54.11-30.17-11.67-18.9-12.71-42.03-2.77-61.9L841.5,57.14c10.85-21.68,32.64-35.14,56.88-35.14s46.03,13.47,56.88,35.14l207.41,414.48c9.94,19.86,8.91,43-2.77,61.9-11.67,18.9-31.9,30.18-54.11,30.18h-414.83Z"/>
      <path class="cls-6" d="M898.39,44c14.77,0,29.54,7.66,37.21,22.99l207.41,414.48c13.84,27.66-6.27,60.23-37.21,60.23h-414.83c-30.94,0-51.05-32.56-37.21-60.23l207.41-414.48c7.67-15.32,22.44-22.99,37.21-22.99M898.39,0c-32.62,0-61.96,18.12-76.56,47.3l-207.41,414.48c-13.38,26.73-11.98,57.87,3.73,83.3,15.71,25.43,42.94,40.61,72.83,40.61h414.83c29.89,0,57.12-15.18,72.83-40.61,15.71-25.43,17.1-56.57,3.73-83.3L974.94,47.3c-14.6-29.17-43.93-47.3-76.56-47.3h0Z"/>
    </g>
    <path class="cls-6" d="M890.66,376.19c-7.89-38.79-13.98-74.78-18.27-107.99-4.29-33.21-6.84-64.37-7.66-93.5l80.64-11.23c-.27,35.39-11.3,105.34-33.07,209.86l-1.23,5.92-20.41-3.06ZM868,439.48c0-9.52,3.44-17.69,10.31-24.5,6.87-6.8,15-10.21,24.4-10.21,9.93,0,18.2,3.3,24.8,9.9,6.6,6.6,9.9,14.87,9.9,24.8s-3.37,17.69-10.11,24.5c-6.74,6.8-14.94,10.21-24.6,10.21s-17.35-3.47-24.29-10.41c-6.94-6.94-10.41-15.04-10.41-24.29Z"/>
  </g>
</svg>