<svg width="40" height="30" viewBox="0 0 40 30" fill="none" xmlns="http://www.w3.org/2000/svg">
<path d="M40 28.5C39.5 29.6875 39.0625 29.9792 37.7812 29.9792C25.9792 29.9792 14.1771 29.9687 2.36458 29.9896C1.23958 29.9896 0.416667 29.6771 0 28.5833C0 19.5208 0 10.4583 0 1.39583C0.0416667 1.32292 0.0833334 1.23958 0.125 1.16667C0.427083 0.447917 0.979167 0.0729167 1.73958 0.0104167C1.89583 3.95812e-08 2.05208 0 2.20833 0C14.0625 0 25.9167 0 37.7812 0C39.0729 0 39.5 0.28125 40 1.47917C40 10.4792 40 19.4896 40 28.5ZM1.09375 8.42708C1.09375 8.59375 1.09375 8.71875 1.09375 8.84375C1.09375 15.1979 1.09375 21.5521 1.09375 27.9062C1.09375 28.6562 1.3125 28.8854 2.07292 28.8854C14.0208 28.8854 25.9688 28.8854 37.9271 28.8854C38.6875 28.8854 38.9167 28.6562 38.9167 27.9167C38.9167 21.5625 38.9167 15.2083 38.9167 8.85417C38.9167 8.71875 38.9167 8.57292 38.9167 8.42708C26.2917 8.42708 13.7187 8.42708 1.09375 8.42708ZM38.9062 7.30208C38.9062 7.125 38.9062 6.97917 38.9062 6.84375C38.9062 5.28125 38.9062 3.71875 38.9062 2.15625C38.9062 1.29167 38.7188 1.09375 37.8542 1.09375C31.5417 1.09375 25.2292 1.09375 18.9167 1.09375C13.2917 1.09375 7.66667 1.09375 2.04167 1.09375C1.33333 1.09375 1.09375 1.32292 1.09375 2.02083C1.09375 3.65625 1.09375 5.30208 1.09375 6.9375C1.09375 7.05208 1.10417 7.16667 1.11458 7.29167C13.7083 7.30208 26.2812 7.30208 38.9062 7.30208Z" fill="white"/>
<path d="M20.0103 27.4998C14.5415 27.4998 9.07275 27.4998 3.61442 27.4998C2.89567 27.4998 2.76025 27.3644 2.76025 26.6353C2.76025 24.6665 2.76025 22.7082 2.76025 20.7394C2.76025 20.1144 2.92692 19.9478 3.5415 19.9478C14.5103 19.9478 25.4894 19.9478 36.4582 19.9478C37.0936 19.9478 37.2603 20.1144 37.2603 20.7707C37.2603 22.7498 37.2603 24.729 37.2603 26.7082C37.2603 27.354 37.104 27.5103 36.4582 27.5103C30.9686 27.4998 25.4894 27.4998 20.0103 27.4998ZM36.1352 21.0623C25.3644 21.0623 14.6248 21.0623 3.86442 21.0623C3.86442 22.854 3.86442 24.6144 3.86442 26.3748C14.6353 26.3748 25.3853 26.3748 36.1352 26.3748C36.1352 24.5832 36.1352 22.8332 36.1352 21.0623Z" fill="white"/>
<path d="M11.2707 14.1978C11.2707 15.354 11.2707 16.5103 11.2707 17.6665C11.2707 18.2186 11.104 18.3853 10.5415 18.3853C8.19775 18.3853 5.854 18.3853 3.52067 18.3853C2.95817 18.3853 2.80192 18.2186 2.7915 17.6665C2.7915 15.354 2.7915 13.0311 2.7915 10.7186C2.7915 10.1457 2.95817 9.979 3.53109 9.979C5.86442 9.979 8.18734 9.979 10.5207 9.979C11.104 9.979 11.2603 10.1457 11.2603 10.7186C11.2707 11.8853 11.2707 13.0415 11.2707 14.1978ZM10.1561 11.104C8.0415 11.104 5.979 11.104 3.9165 11.104C3.9165 13.1769 3.9165 15.2186 3.9165 17.2707C6.01025 17.2707 8.07275 17.2707 10.1561 17.2707C10.1561 15.2082 10.1561 13.1665 10.1561 11.104Z" fill="white"/>
<path d="M25.2284 11.6354C21.5618 11.6354 17.8847 11.6354 14.218 11.6354C14.093 11.6354 13.9576 11.6354 13.8326 11.625C13.5097 11.5937 13.3326 11.4063 13.3222 11.0938C13.3118 10.7917 13.4993 10.6146 13.7909 10.5521C13.9055 10.5312 14.0201 10.5417 14.1451 10.5417C21.5826 10.5417 29.0097 10.5417 36.4472 10.5417C36.5722 10.5417 36.7076 10.5312 36.8326 10.5625C37.1034 10.6354 37.2597 10.8229 37.2493 11.1042C37.2389 11.3958 37.0722 11.5833 36.7597 11.625C36.6347 11.6354 36.4993 11.6354 36.3743 11.6354C32.6555 11.6354 28.9472 11.6354 25.2284 11.6354Z" fill="white"/>
<path d="M25.3123 13.646C28.979 13.646 32.6561 13.646 36.3227 13.646C36.4373 13.646 36.5519 13.646 36.6769 13.646C37.0206 13.6564 37.229 13.8439 37.2394 14.1668C37.2498 14.5002 37.0311 14.6877 36.7081 14.7293C36.604 14.7397 36.4998 14.7397 36.3956 14.7397C28.9894 14.7397 21.5831 14.7397 14.1769 14.7397C14.0206 14.7397 13.8644 14.7397 13.7186 14.6981C13.4477 14.6252 13.3123 14.4168 13.3331 14.146C13.354 13.8752 13.5206 13.6877 13.8019 13.6564C13.9269 13.646 14.0623 13.646 14.1873 13.646C17.8956 13.646 21.604 13.646 25.3123 13.646Z" fill="white"/>
<path d="M25.2701 17.8227C21.6035 17.8227 17.9264 17.8227 14.2597 17.8227C14.1139 17.8227 13.968 17.8227 13.8326 17.8123C13.5097 17.7914 13.3222 17.5935 13.3222 17.281C13.3118 16.9893 13.4889 16.7914 13.7805 16.7393C13.8951 16.7185 14.0097 16.7289 14.1347 16.7289C21.5722 16.7289 28.9993 16.7289 36.4368 16.7289C36.5618 16.7289 36.6972 16.7289 36.8222 16.7602C37.1035 16.8227 37.2493 17.0206 37.2389 17.2914C37.2285 17.5831 37.0618 17.781 36.7597 17.8123C36.6139 17.8227 36.4785 17.8227 36.3326 17.8227C32.6451 17.8227 28.9576 17.8227 25.2701 17.8227Z" fill="white"/>
<path d="M6.95817 4.19775C6.95817 5.354 6.03109 6.2915 4.89567 6.30192C3.73942 6.30192 2.7915 5.354 2.7915 4.18734C2.7915 3.0415 3.73942 2.104 4.88525 2.104C6.0415 2.11442 6.95817 3.0415 6.95817 4.19775ZM5.87484 4.20817C5.87484 3.65609 5.44775 3.20817 4.89567 3.19775C4.34359 3.18734 3.88525 3.65609 3.89567 4.21859C3.89567 4.76025 4.354 5.20817 4.88525 5.20817C5.42692 5.20817 5.86442 4.76025 5.87484 4.20817Z" fill="white"/>
<path d="M11.9587 4.229C11.9483 5.37484 11.0004 6.32275 9.865 6.30192C8.69833 6.28109 7.78166 5.33317 7.79208 4.15609C7.8025 3.03109 8.74 2.104 9.87541 2.104C11.0421 2.104 11.9692 3.05192 11.9587 4.229ZM10.8754 4.20817C10.8754 3.65609 10.4483 3.20817 9.89625 3.19775C9.34416 3.18734 8.88583 3.65609 8.89625 4.21859C8.89625 4.76025 9.35458 5.20817 9.89625 5.20817C10.4275 5.20817 10.865 4.76025 10.8754 4.20817Z" fill="white"/>
<path d="M16.9576 4.19775C16.9576 5.354 16.0305 6.2915 14.8951 6.30192C13.7389 6.30192 12.7909 5.354 12.8014 4.18734C12.8014 3.0415 13.7493 2.104 14.8951 2.104C16.0409 2.11442 16.9576 3.0415 16.9576 4.19775ZM13.8951 4.19775C13.8847 4.74984 14.3222 5.19775 14.8639 5.20817C15.4055 5.21859 15.8639 4.78109 15.8743 4.23942C15.8847 3.6665 15.4472 3.20817 14.8847 3.20817C14.343 3.20817 13.8951 3.64567 13.8951 4.19775Z" fill="white"/>
</svg>
