<svg width="27" height="23" viewBox="0 0 27 23" fill="none" xmlns="http://www.w3.org/2000/svg">
<path d="M24.9801 22.0698C24.6679 22.8114 24.3946 22.9935 23.5945 22.9935C16.2241 22.9935 8.85363 22.987 1.47669 23C0.774123 23 0.260209 22.8049 0 22.1218C0 16.4623 0 10.8027 0 5.14316C0.0260209 5.09762 0.0520419 5.04558 0.0780629 5.00004C0.266715 4.55118 0.611492 4.31699 1.08637 4.27796C1.18395 4.27145 1.28153 4.27145 1.37911 4.27145C8.78207 4.27145 16.185 4.27145 23.5945 4.27145C24.4011 4.27145 24.6679 4.4471 24.9801 5.1952C24.9801 10.8157 24.9801 16.4427 24.9801 22.0698ZM0.68305 9.53419C0.68305 9.63827 0.68305 9.71634 0.68305 9.7944C0.68305 13.7626 0.68305 17.7308 0.68305 21.699C0.68305 22.1674 0.81966 22.3105 1.29454 22.3105C8.75605 22.3105 16.2176 22.3105 23.6856 22.3105C24.1604 22.3105 24.3036 22.1674 24.3036 21.7055C24.3036 17.7373 24.3036 13.7691 24.3036 9.8009C24.3036 9.71634 24.3036 9.62526 24.3036 9.53419C16.4192 9.53419 8.56739 9.53419 0.68305 9.53419ZM24.2971 8.83162C24.2971 8.72103 24.2971 8.62996 24.2971 8.54539C24.2971 7.56961 24.2971 6.59382 24.2971 5.61804C24.2971 5.0781 24.18 4.9545 23.64 4.9545C19.6979 4.9545 15.7557 4.9545 11.8135 4.9545C8.30068 4.9545 4.78785 4.9545 1.27503 4.9545C0.83267 4.9545 0.68305 5.09762 0.68305 5.53347C0.68305 6.55479 0.68305 7.58262 0.68305 8.60394C0.68305 8.6755 0.689555 8.74706 0.69606 8.82512C8.56089 8.83162 16.4127 8.83162 24.2971 8.83162Z" fill="white"/>
<path d="M12.4965 21.4452C9.0813 21.4452 5.66605 21.4452 2.25731 21.4452C1.80844 21.4452 1.72388 21.3606 1.72388 20.9052C1.72388 19.6758 1.72388 18.4528 1.72388 17.2233C1.72388 16.833 1.82796 16.7289 2.21177 16.7289C9.06178 16.7289 15.9183 16.7289 22.7683 16.7289C23.1651 16.7289 23.2692 16.833 23.2692 17.2428C23.2692 18.4788 23.2692 19.7148 23.2692 20.9508C23.2692 21.3541 23.1716 21.4517 22.7683 21.4517C19.3401 21.4452 15.9183 21.4452 12.4965 21.4452ZM22.5666 17.4249C15.8402 17.4249 9.13334 17.4249 2.41343 17.4249C2.41343 18.5438 2.41343 19.6432 2.41343 20.7426C9.13984 20.7426 15.8532 20.7426 22.5666 20.7426C22.5666 19.6237 22.5666 18.5308 22.5666 17.4249Z" fill="white"/>
<path d="M7.03842 13.1381C7.03842 13.8601 7.03842 14.5822 7.03842 15.3043C7.03842 15.6491 6.93434 15.7532 6.58306 15.7532C5.11938 15.7532 3.6557 15.7532 2.19853 15.7532C1.84725 15.7532 1.74967 15.6491 1.74316 15.3043C1.74316 13.8601 1.74316 12.4095 1.74316 10.9653C1.74316 10.6075 1.84725 10.5034 2.20504 10.5034C3.66221 10.5034 5.11288 10.5034 6.57005 10.5034C6.93434 10.5034 7.03192 10.6075 7.03192 10.9653C7.03843 11.6939 7.03842 12.416 7.03842 13.1381ZM6.34237 11.206C5.0218 11.206 3.73377 11.206 2.44573 11.206C2.44573 12.5006 2.44573 13.7756 2.44573 15.0571C3.75328 15.0571 5.04132 15.0571 6.34237 15.0571C6.34237 13.7691 6.34237 12.4941 6.34237 11.206Z" fill="white"/>
<path d="M15.7556 11.5378C13.4657 11.5378 11.1694 11.5378 8.87953 11.5378C8.80147 11.5378 8.7169 11.5378 8.63884 11.5313C8.43718 11.5117 8.32659 11.3946 8.32008 11.1995C8.31358 11.0108 8.43067 10.9003 8.61282 10.8612C8.68438 10.8482 8.75593 10.8547 8.834 10.8547C13.4787 10.8547 18.117 10.8547 22.7617 10.8547C22.8398 10.8547 22.9243 10.8482 23.0024 10.8677C23.1715 10.9133 23.2691 11.0304 23.2626 11.206C23.2561 11.3881 23.152 11.5052 22.9569 11.5313C22.8788 11.5378 22.7942 11.5378 22.7162 11.5378C20.3938 11.5378 18.0779 11.5378 15.7556 11.5378Z" fill="white"/>
<path d="M15.8078 12.7932C18.0976 12.7932 20.394 12.7932 22.6838 12.7932C22.7554 12.7932 22.8269 12.7932 22.905 12.7932C23.1197 12.7997 23.2498 12.9168 23.2563 13.1184C23.2628 13.3266 23.1262 13.4437 22.9245 13.4697C22.8594 13.4762 22.7944 13.4762 22.7293 13.4762C18.1041 13.4762 13.4789 13.4762 8.85367 13.4762C8.75609 13.4762 8.65851 13.4762 8.56744 13.4502C8.3983 13.4046 8.31373 13.2745 8.32674 13.1054C8.33975 12.9363 8.44384 12.8192 8.61948 12.7997C8.69754 12.7932 8.78211 12.7932 8.86017 12.7932C11.176 12.7932 13.4919 12.7932 15.8078 12.7932Z" fill="white"/>
<path d="M15.7816 15.4018C13.4918 15.4018 11.1954 15.4018 8.90557 15.4018C8.81449 15.4018 8.72342 15.4018 8.63885 15.3953C8.43719 15.3823 8.3201 15.2587 8.3201 15.0635C8.31359 14.8814 8.42418 14.7578 8.60633 14.7253C8.67788 14.7123 8.74944 14.7188 8.8275 14.7188C13.4722 14.7188 18.1105 14.7188 22.7552 14.7188C22.8333 14.7188 22.9178 14.7188 22.9959 14.7383C23.1715 14.7773 23.2626 14.9009 23.2561 15.07C23.2496 15.2522 23.1455 15.3758 22.9569 15.3953C22.8658 15.4018 22.7812 15.4018 22.6902 15.4018C20.3873 15.4018 18.0845 15.4018 15.7816 15.4018Z" fill="white"/>
<path d="M4.34526 6.893C4.34526 7.61508 3.76629 8.20055 3.05722 8.20706C2.33514 8.20706 1.74316 7.61508 1.74316 6.8865C1.74316 6.17092 2.33514 5.58545 3.05072 5.58545C3.7728 5.59195 4.34526 6.17092 4.34526 6.893ZM3.66871 6.89951C3.66871 6.55473 3.402 6.275 3.05722 6.2685C2.71244 6.26199 2.42621 6.55473 2.43272 6.90601C2.43272 7.24428 2.71895 7.52401 3.05072 7.52401C3.38899 7.52401 3.66221 7.24428 3.66871 6.89951Z" fill="white"/>
<path d="M7.46787 6.91252C7.46137 7.62809 6.86939 8.22007 6.16032 8.20706C5.43173 8.19405 4.85927 7.60207 4.86578 6.86698C4.87228 6.16442 5.45775 5.58545 6.16682 5.58545C6.89541 5.58545 7.47438 6.17743 7.46787 6.91252ZM6.79133 6.89951C6.79133 6.55473 6.52461 6.275 6.17983 6.2685C5.83506 6.26199 5.54883 6.55473 5.55533 6.90601C5.55533 7.24428 5.84156 7.52401 6.17983 7.52401C6.5116 7.52401 6.78482 7.24428 6.79133 6.89951Z" fill="white"/>
<path d="M10.5905 6.893C10.5905 7.61508 10.0115 8.20055 9.30248 8.20706C8.5804 8.20706 7.98842 7.61508 7.99493 6.8865C7.99493 6.17092 8.5869 5.58545 9.30248 5.58545C10.0181 5.59195 10.5905 6.17092 10.5905 6.893ZM8.67798 6.893C8.67147 7.23778 8.94469 7.5175 9.28296 7.52401C9.62124 7.53051 9.90747 7.25729 9.91397 6.91902C9.92048 6.56123 9.64726 6.275 9.29597 6.275C8.9577 6.275 8.67798 6.54822 8.67798 6.893Z" fill="white"/>
<path d="M21.9634 2.11301L17.4042 6.67165L17.3091 6.5765L22.6715 1.21108L25.4044 3.94525L25.3063 4.0433L23.3779 2.11333L22.6708 1.40572L21.9634 2.11301ZM18.8742 8.77998C18.8744 8.78024 18.8747 8.7805 18.8749 8.78076L18.8742 8.77998ZM24.4954 7.7591C24.4952 7.75889 24.495 7.75868 24.4948 7.75847L24.4954 7.7591Z" stroke="white" stroke-width="2"/>
</svg>
