<svg width="26" height="22" viewBox="0 0 26 22" fill="none" xmlns="http://www.w3.org/2000/svg">
<path d="M0 7.55619C0.0400042 7.41617 0.0733409 7.26949 0.120012 7.12948C0.440046 6.16938 1.31347 5.54264 2.36025 5.51597C2.54027 5.50931 2.72695 5.51597 2.92031 5.51597C3.00698 4.94925 3.227 4.46253 3.63371 4.07582C4.11376 3.61578 4.69382 3.40909 5.35389 3.40909C7.81415 3.40909 10.2677 3.41576 12.728 3.40242C13.0614 3.40242 13.4081 3.33575 13.7348 3.24907C16.0683 2.64901 18.4019 2.04228 20.7355 1.43555C20.8022 1.42221 20.8622 1.39554 20.9289 1.37554C20.9422 1.24886 20.9489 1.12218 20.9755 1.00884C21.1289 0.328767 21.7223 -0.0646079 22.4623 0.00873313C23.1024 0.0754068 23.5958 0.615463 23.5958 1.28887C23.6025 2.38898 23.5958 3.4891 23.5958 4.58921C23.5958 4.68255 23.5958 4.76923 23.5958 4.90258C23.7825 4.90258 23.9492 4.90258 24.1225 4.90258C24.8759 4.90258 25.296 5.20261 25.5493 5.90935C25.556 5.92935 25.576 5.94269 25.596 5.96269C25.596 7.29616 25.596 8.62963 25.596 9.96311C25.5293 10.1031 25.476 10.2565 25.396 10.3832C25.1493 10.7899 24.7826 11.0099 24.3025 11.0299C24.0758 11.0366 23.8558 11.0299 23.6091 11.0299C23.6025 11.1366 23.5958 11.2232 23.5958 11.3166C23.5958 12.41 23.5958 13.5035 23.5958 14.5903C23.5958 15.3437 23.0824 15.8971 22.3623 15.9237C21.5623 15.9571 21.0155 15.4837 20.9489 14.7036C20.9355 14.5569 20.8688 14.5302 20.7555 14.5036C18.2886 13.8635 15.8283 13.2234 13.3681 12.5834C13.3414 12.5767 13.3214 12.57 13.2947 12.57C12.6413 12.57 11.9813 12.57 11.3012 12.57C11.3012 13.0168 11.3012 13.4435 11.3012 13.8768C11.3012 14.7103 10.9878 15.0903 10.1411 15.257C10.1677 15.3503 10.1944 15.4437 10.2211 15.537C10.7678 17.3039 11.3212 19.0641 11.8679 20.8309C12.0013 21.2576 11.8746 21.431 11.4345 21.431C10.5344 21.431 9.63434 21.431 8.73425 21.431C8.36754 21.431 8.30753 21.3843 8.20086 21.0443C7.6208 19.1841 7.04074 17.3305 6.46734 15.4703C6.414 15.297 6.34733 15.237 6.16731 15.2237C5.60725 15.1837 5.16054 14.6903 5.15387 14.1169C5.1472 13.6102 5.15387 13.1034 5.15387 12.5767C5.02052 12.5567 4.90051 12.5367 4.7805 12.51C3.8004 12.2633 3.187 11.6433 2.96698 10.6565C2.93364 10.4965 2.87363 10.4565 2.72695 10.4565C2.44692 10.4498 2.15356 10.4632 1.8802 10.4032C0.893427 10.1765 0.286697 9.5564 0.0533389 8.56963C0.0400041 8.52295 0.0200021 8.47628 0.00666739 8.42961C2.53346e-08 8.12291 0 7.84288 0 7.55619ZM20.9422 13.8168C20.9422 9.89643 20.9422 6.01603 20.9422 2.11562C20.8422 2.14229 20.7555 2.16229 20.6688 2.18229C18.3819 2.77569 16.095 3.36908 13.8081 3.95581C13.5948 4.00915 13.5214 4.09583 13.5281 4.32252C13.5347 6.7561 13.5347 9.18969 13.5347 11.6233C13.5347 11.71 13.5347 11.8033 13.5347 11.8966C16.015 12.5367 18.4619 13.1768 20.9422 13.8168ZM5.7406 4.11583C5.7406 6.6961 5.7406 9.26303 5.7406 11.83C8.10751 11.83 10.4611 11.83 12.8147 11.83C12.8147 9.2497 12.8147 6.68943 12.8147 4.11583C10.4478 4.11583 8.10751 4.11583 5.7406 4.11583ZM21.6489 7.94289C21.6489 10.1365 21.6489 12.3234 21.6489 14.5169C21.6489 14.7436 21.6756 14.9503 21.8689 15.097C22.0823 15.257 22.3223 15.2637 22.5557 15.1636C22.7957 15.0636 22.8957 14.8569 22.9024 14.6036C22.9024 13.8702 22.9024 13.1368 22.9024 12.4034C22.9024 8.73631 22.9024 5.06926 22.9024 1.40221C22.9024 0.942164 22.689 0.702139 22.2823 0.695471C21.8756 0.695471 21.6489 0.928829 21.6489 1.36221C21.6489 3.56244 21.6489 5.756 21.6489 7.94289ZM11.0745 20.7176C11.0812 20.6842 11.0878 20.6642 11.0812 20.6509C10.5344 18.884 9.98771 17.1239 9.44099 15.357C9.40098 15.217 9.30764 15.217 9.19429 15.217C8.6009 15.217 8.01417 15.217 7.42077 15.217C7.3341 15.217 7.24742 15.217 7.15408 15.217C7.15408 15.277 7.14741 15.3037 7.15408 15.3237C7.7008 17.0705 8.24086 18.8174 8.79425 20.5642C8.81425 20.6309 8.9276 20.7042 9.00094 20.7042C9.68768 20.7176 10.3677 20.7176 11.0745 20.7176ZM5.00719 4.1425C4.90718 4.16917 4.82717 4.17584 4.75383 4.2025C4.07376 4.42919 3.62705 5.02926 3.62038 5.776C3.60704 7.24282 3.60704 8.70964 3.62038 10.1765C3.62705 10.9099 4.06709 11.5233 4.72049 11.75C4.80717 11.7833 4.90718 11.7966 5.00719 11.8166C5.00719 9.24303 5.00719 6.70943 5.00719 4.1425ZM10.6011 12.57C9.00094 12.57 7.43411 12.57 5.85394 12.57C5.85394 13.0968 5.84728 13.6035 5.86061 14.1102C5.86728 14.3436 6.0473 14.5169 6.28732 14.5169C7.58746 14.5236 8.88093 14.5236 10.1811 14.5169C10.4211 14.5169 10.6011 14.3436 10.6078 14.1102C10.6078 13.5968 10.6011 13.0901 10.6011 12.57ZM2.9003 9.72308C2.9003 8.54962 2.9003 7.40284 2.9003 6.23605C2.13356 6.16271 1.44015 6.26272 0.993437 6.94946C0.580061 7.58953 0.566726 8.27626 0.946766 8.93633C1.37348 9.67641 2.08688 9.80309 2.9003 9.72308ZM23.6225 5.60265C23.6225 7.19615 23.6225 8.75631 23.6225 10.3231C23.8558 10.3231 24.0758 10.3365 24.2892 10.3231C24.6426 10.3031 24.8959 10.0498 24.9026 9.68974C24.9093 8.53629 24.9093 7.37617 24.9026 6.22271C24.9026 5.88935 24.6492 5.62932 24.3292 5.60932C24.0958 5.58932 23.8625 5.60265 23.6225 5.60265Z" fill="white"/>
</svg>
