<svg width="27" height="30" viewBox="0 0 27 30" fill="none" xmlns="http://www.w3.org/2000/svg">
<path d="M19.7032 6.0951C19.6274 6.04876 19.5726 6.02348 19.5304 5.98556C18.9069 5.36622 18.2876 4.74266 17.664 4.12332C17.4997 3.959 17.4997 3.88316 17.664 3.71885C17.8662 3.5124 18.0727 3.31016 18.2791 3.10372C18.5909 2.78773 18.9701 2.63605 19.4125 2.63184C19.7369 2.63184 20.0655 2.63184 20.3899 2.63184C20.4405 2.63184 20.5037 2.62762 20.5374 2.59813C20.8997 2.24001 21.2579 1.87767 21.6413 1.49427C21.5065 1.36787 21.3758 1.25411 21.2537 1.13193C21.1273 1.00553 21.123 0.917056 21.2494 0.794872C21.4896 0.558932 21.7003 0.293499 22.0205 0.154463C22.6145 -0.102544 23.1833 -0.0477721 23.6552 0.38619C24.3462 1.0266 25.0119 1.6965 25.6565 2.38326C26.1831 2.94361 26.1578 3.81154 25.6438 4.38454C25.5132 4.52779 25.3742 4.66682 25.2352 4.80165C25.1256 4.91119 25.0329 4.90698 24.9192 4.79743C24.7928 4.67104 24.6706 4.54043 24.54 4.40139C24.1608 4.78058 23.7984 5.1387 23.4445 5.50525C23.415 5.53475 23.4108 5.60216 23.4108 5.65272C23.4066 5.97713 23.4108 6.30577 23.4108 6.63018C23.4108 7.06836 23.2592 7.44333 22.9516 7.7509C22.7409 7.96577 22.5261 8.17644 22.3154 8.3871C22.1637 8.53877 22.0837 8.53456 21.932 8.38288C21.3084 7.76354 20.6891 7.13998 20.0655 6.51643C20.0234 6.47429 19.9939 6.42374 19.9518 6.36896C19.8844 6.43216 19.8422 6.47008 19.7959 6.51643C18.3255 7.98684 16.8551 9.45725 15.3846 10.9277C15.3509 10.9614 15.3172 10.9951 15.2835 11.0288C15.1613 11.1468 15.056 11.1594 14.9675 11.0751C14.8833 10.9867 14.8959 10.8813 15.0181 10.7591C16.518 9.25923 18.0179 7.75933 19.5178 6.25942C19.5557 6.20886 19.6105 6.17516 19.7032 6.0951ZM18.0642 3.92951C19.3998 5.26931 20.7691 6.6344 22.1469 8.01633C22.2985 7.86044 22.4629 7.6877 22.6314 7.52339C22.901 7.26217 23.0316 6.95039 23.0274 6.57541C23.0232 6.2215 23.019 5.86759 23.0316 5.51789C23.0359 5.43784 23.0696 5.33672 23.1243 5.28195C23.533 4.86063 23.9459 4.45195 24.363 4.03905C24.4894 3.91266 24.5737 3.91266 24.7001 4.03905C24.8223 4.16124 24.936 4.29185 25.0877 4.45195C25.1804 4.3424 25.252 4.24971 25.3321 4.16545C25.7618 3.70621 25.7744 3.03209 25.3363 2.58128C24.7169 1.94087 24.0849 1.3131 23.4487 0.693755C22.9727 0.230301 22.1511 0.2303 21.6371 0.976041C21.7508 1.0898 21.8688 1.19934 21.9825 1.31731C22.13 1.46477 22.13 1.54061 21.9825 1.68807C21.5823 2.09254 21.182 2.49701 20.7734 2.89306C20.7102 2.95625 20.6006 2.99839 20.5121 3.0026C20.1498 3.01524 19.7875 3.00681 19.4209 3.00681C19.1555 3.00681 18.8943 3.06159 18.7004 3.24275C18.4645 3.46184 18.2623 3.71463 18.0642 3.92951Z" fill="white"/>
<path d="M22.8744 29.0753C15.7759 29.0753 8.67737 29.0753 1.57886 29.0753C0.986788 28.9352 0.502944 28.6487 0.216457 28.0948C0.127327 27.9229 0.0700301 27.732 0 27.5473C0 20.4043 0 13.2548 0 6.10539C0.133694 5.7234 0.273754 5.33505 0.617538 5.09313C0.884926 4.90851 1.19051 4.78118 1.48337 4.62839C8.64554 4.62839 15.8077 4.62839 22.9699 4.62839C23.3455 4.75571 23.7275 4.89578 23.9694 5.22683C24.1604 5.49421 24.2941 5.81253 24.4532 6.10539C24.4532 13.2357 24.4532 20.3661 24.4532 27.4964C24.3132 27.802 24.205 28.1267 24.0203 28.4068C23.7529 28.7951 23.3264 28.967 22.8744 29.0753ZM0.821262 10.3454C0.821262 10.4473 0.821262 10.5364 0.821262 10.6191C0.821262 16.1006 0.821262 21.582 0.821262 27.0635C0.821262 27.8657 1.21598 28.254 2.02451 28.254C8.83016 28.254 15.6294 28.254 22.4351 28.254C23.25 28.254 23.6383 27.8657 23.6383 27.0635C23.6383 21.582 23.6383 16.1006 23.6383 10.6191C23.6383 10.53 23.6383 10.4473 23.6383 10.3454C16.0242 10.3454 8.43544 10.3454 0.821262 10.3454ZM0.821262 9.50503C8.43544 9.50503 16.0242 9.50503 23.6383 9.50503C23.6383 9.4159 23.6383 9.3395 23.6383 9.26311C23.6383 8.37818 23.6383 7.49962 23.6383 6.6147C23.6383 5.86346 23.2245 5.44965 22.4733 5.44965C15.6485 5.44965 8.81743 5.44965 1.99268 5.44965C1.24144 5.44965 0.827629 5.86346 0.827629 6.6147C0.827629 7.49962 0.827629 8.37818 0.827629 9.26311C0.821262 9.33314 0.821262 9.40953 0.821262 9.50503Z" fill="white"/>
<path d="M17.9211 27.4454C16.4823 27.4454 15.0435 27.4454 13.6047 27.4454C13.1781 27.4454 13.0444 27.3117 13.0444 26.8916C13.0444 24.2686 13.0444 21.6393 13.0444 19.0164C13.0444 18.6089 13.1845 18.4752 13.5919 18.4752C16.4886 18.4752 19.3853 18.4752 22.2757 18.4752C22.6831 18.4752 22.8232 18.6089 22.8232 19.0164C22.8232 21.6393 22.8232 24.2686 22.8232 26.8916C22.8232 27.3117 22.6895 27.4454 22.2629 27.4454C20.8178 27.4454 19.3662 27.4454 17.9211 27.4454ZM17.0171 25.5483C17.7428 24.7588 18.4559 23.9821 19.1625 23.2118C19.4617 22.8807 19.6464 22.8808 19.9583 23.1927C20.5695 23.8039 21.187 24.4214 21.7982 25.0326C21.8555 25.0899 21.9192 25.1408 21.9956 25.2172C21.9956 23.2245 21.9956 21.2701 21.9956 19.3156C19.2771 19.3156 16.5778 19.3156 13.8721 19.3156C13.8721 21.4165 13.8721 23.5047 13.8721 25.6501C14.305 25.2172 14.6997 24.8161 15.0944 24.415C15.4 24.1095 15.5782 24.1095 15.8775 24.4087C16.2595 24.7843 16.6287 25.1599 17.0171 25.5483ZM21.9828 26.6369C22.0019 26.6178 22.0274 26.5923 22.0465 26.5732C21.9892 26.4714 21.951 26.3504 21.8746 26.2677C21.308 25.6883 20.7286 25.1217 20.162 24.5424C19.971 24.3514 19.7928 24.154 19.5954 23.9439C18.9142 24.6888 18.2585 25.4018 17.5646 26.1594C17.6728 26.2422 17.7746 26.2931 17.8447 26.3823C18.0102 26.5987 18.2203 26.6496 18.4877 26.6496C19.4426 26.6305 20.3976 26.6433 21.3462 26.6433C21.5563 26.6369 21.7727 26.6369 21.9828 26.6369ZM15.5019 25.2554C15.0562 25.7011 14.5851 26.1722 14.1394 26.6178C15.0244 26.6178 15.9539 26.6178 16.8961 26.6178C16.4122 26.1467 15.9475 25.6883 15.5019 25.2554Z" fill="white"/>
<path d="M6.52536 20.105C5.08656 20.105 3.64776 20.105 2.20896 20.105C1.75695 20.105 1.63599 19.984 1.63599 19.5447C1.63599 16.9218 1.63599 14.2925 1.63599 11.6695C1.63599 11.2876 1.76968 11.1475 2.15166 11.1475C5.06746 11.1475 7.98963 11.1475 10.9054 11.1475C11.281 11.1475 11.4147 11.2876 11.4147 11.6695C11.4147 14.3052 11.4147 16.9345 11.4147 19.5702C11.4147 19.9777 11.281 20.105 10.8672 20.105C9.42206 20.105 7.97053 20.105 6.52536 20.105ZM2.46361 11.9751C2.46361 14.0888 2.46361 16.1642 2.46361 18.2969C2.8838 17.8767 3.27214 17.4884 3.65413 17.1064C4.00428 16.7563 4.15707 16.7563 4.50722 17.1064C4.8701 17.4693 5.23299 17.8385 5.6086 18.2142C6.34074 17.412 7.06014 16.6353 7.77317 15.8522C8.04692 15.5594 8.25065 15.553 8.53713 15.8395C9.16104 16.4634 9.78494 17.0873 10.4088 17.7112C10.4598 17.7622 10.5171 17.8067 10.5871 17.8704C10.5871 15.8841 10.5871 13.9296 10.5871 11.9751C7.86867 11.9751 5.17569 11.9751 2.46361 11.9751ZM8.16788 16.6226C7.49305 17.3547 6.84368 18.0677 6.15611 18.819C6.25161 18.8954 6.3471 18.9399 6.4044 19.0163C6.58266 19.2455 6.79911 19.3092 7.0856 19.3028C8.16788 19.2837 9.25017 19.2964 10.3325 19.2964C10.4152 19.2964 10.5043 19.2964 10.6508 19.2964C10.5935 19.1564 10.5744 19.0418 10.5043 18.9718C9.74038 18.1951 8.97005 17.4247 8.16788 16.6226ZM4.10614 17.934C3.65413 18.3797 3.18938 18.8508 2.75647 19.2774C3.62229 19.2774 4.54542 19.2774 5.48128 19.2774C5.0038 18.8062 4.53269 18.3479 4.10614 17.934Z" fill="white"/>
<path d="M5.30296 25.0071C6.36615 25.0071 7.4357 25.0071 8.49888 25.0071C8.68351 25.0071 8.84903 25.0517 8.90633 25.2299C8.94453 25.3509 8.95089 25.5419 8.88086 25.6246C8.78537 25.7329 8.60074 25.8093 8.45432 25.8156C7.86861 25.8347 7.27654 25.822 6.69083 25.822C5.21383 25.822 3.73047 25.822 2.25347 25.822C2.18344 25.822 2.10704 25.8284 2.03701 25.8156C1.79509 25.7902 1.6232 25.6183 1.62957 25.4018C1.63593 25.179 1.80146 25.0135 2.05611 25.0135C2.75005 25.0071 3.43762 25.0135 4.13155 25.0135C4.52627 25.0071 4.91461 25.0071 5.30296 25.0071Z" fill="white"/>
<path d="M19.1308 15.222C18.0803 15.222 17.0299 15.222 15.9794 15.222C15.6484 15.222 15.4446 15.0119 15.4956 14.7445C15.5401 14.528 15.6993 14.4071 15.973 14.4071C16.9853 14.4071 17.9912 14.4071 19.0034 14.4071C20.1176 14.4071 21.2317 14.4071 22.3458 14.4071C22.6577 14.4071 22.8615 14.6108 22.8169 14.8655C22.7787 15.0883 22.6068 15.2156 22.3267 15.2156C21.2635 15.2283 20.1939 15.222 19.1308 15.222Z" fill="white"/>
<path d="M7.76675 23.371C8.78537 23.371 9.80399 23.371 10.8226 23.371C10.9117 23.371 11.0009 23.371 11.0836 23.3837C11.2937 23.4219 11.402 23.562 11.4147 23.7657C11.4211 23.9567 11.3192 24.0967 11.1282 24.1604C11.0709 24.1795 11.0009 24.1859 10.9436 24.1859C8.8172 24.1859 6.6972 24.1859 4.57083 24.1859C4.5008 24.1859 4.42441 24.1795 4.36074 24.154C4.16975 24.0904 4.08062 23.9439 4.08699 23.753C4.09972 23.562 4.20795 23.4219 4.40531 23.3901C4.5008 23.371 4.5963 23.3773 4.69179 23.3773C5.71678 23.371 6.74177 23.371 7.76675 23.371Z" fill="white"/>
<path d="M16.7243 12.7837C17.7684 12.7837 18.8061 12.7773 19.8502 12.79C19.9776 12.79 20.1431 12.8155 20.2258 12.8919C20.315 12.9747 20.3786 13.1466 20.3532 13.2612C20.3277 13.3758 20.2004 13.4904 20.0922 13.5604C20.0158 13.6113 19.8948 13.5986 19.7929 13.5986C17.743 13.5986 15.6866 13.5986 13.6366 13.5986C13.5921 13.5986 13.5412 13.5986 13.4966 13.5986C13.2356 13.5858 13.0573 13.4203 13.0509 13.1911C13.0446 12.9492 13.2292 12.7837 13.5093 12.7837C14.5789 12.7773 15.6484 12.7837 16.7243 12.7837Z" fill="white"/>
<path d="M5.30936 22.556C4.29074 22.556 3.27212 22.556 2.2535 22.556C2.16437 22.556 2.07524 22.556 1.99248 22.5433C1.78239 22.5115 1.64233 22.3587 1.63596 22.1613C1.62959 21.964 1.76329 21.7984 1.97338 21.7539C2.04977 21.7411 2.13254 21.7348 2.20893 21.7348C4.27164 21.7348 6.32798 21.7348 8.39068 21.7348C8.42888 21.7348 8.47345 21.7348 8.51164 21.7348C8.79813 21.7475 8.97639 21.9067 8.97639 22.1422C8.97639 22.3778 8.79813 22.5433 8.51164 22.5433C7.44209 22.556 6.37254 22.556 5.30936 22.556Z" fill="white"/>
<path d="M16.7115 16.0369C17.7746 16.0369 18.8442 16.0369 19.9074 16.0369C20.2766 16.0369 20.4867 16.3489 20.3212 16.6354C20.2193 16.82 20.0411 16.8454 19.8501 16.8454C18.3731 16.8454 16.8897 16.8454 15.4127 16.8454C14.7952 16.8454 14.1713 16.8454 13.5537 16.8454C13.2354 16.8454 13.0444 16.6863 13.0444 16.4316C13.0444 16.1833 13.2354 16.0305 13.5601 16.0305C14.6106 16.0369 15.661 16.0369 16.7115 16.0369Z" fill="white"/>
<path d="M21.9766 16.8518C21.8429 16.8518 21.7029 16.8645 21.5692 16.8518C21.34 16.8327 21.1935 16.6544 21.1999 16.438C21.2063 16.2279 21.3527 16.0624 21.5755 16.0496C21.862 16.0369 22.1485 16.0369 22.435 16.0496C22.6578 16.056 22.8233 16.2406 22.8233 16.4507C22.8233 16.6608 22.6514 16.8327 22.4286 16.8518C22.4159 16.8518 22.3968 16.8518 22.3841 16.8518C22.2504 16.8518 22.1103 16.8518 21.9766 16.8518Z" fill="white"/>
<path d="M13.8532 14.4135C13.9933 14.4135 14.1397 14.4071 14.2798 14.4135C14.5026 14.4262 14.6554 14.579 14.6618 14.7955C14.6745 15.0055 14.5344 15.1965 14.318 15.2156C14.0124 15.2347 13.7004 15.2347 13.3885 15.2156C13.1784 15.2029 13.0256 15.0055 13.0383 14.8018C13.0447 14.5854 13.2102 14.4262 13.4458 14.4135C13.5858 14.4071 13.7195 14.4135 13.8532 14.4135Z" fill="white"/>
<path d="M22.0212 12.7837C22.1613 12.7837 22.3077 12.7773 22.4478 12.7837C22.6579 12.8028 22.8043 12.9556 22.817 13.1529C22.8298 13.3439 22.7024 13.554 22.4987 13.5667C22.1677 13.5922 21.8303 13.5986 21.5056 13.5667C21.2955 13.5476 21.1872 13.3758 21.2 13.1529C21.2127 12.9492 21.3528 12.8028 21.5692 12.7837C21.722 12.7773 21.8685 12.7837 22.0212 12.7837Z" fill="white"/>
<path d="M10.6061 25.8157C10.4661 25.8157 10.3197 25.8284 10.1796 25.8157C9.93767 25.7902 9.78488 25.6119 9.79761 25.3827C9.81035 25.1663 9.96314 25.0135 10.2114 25.0071C10.4788 25.0008 10.7526 25.0008 11.02 25.0071C11.2555 25.0135 11.4147 25.179 11.421 25.3955C11.4274 25.5992 11.281 25.7775 11.0645 25.8029C10.9054 25.8284 10.7526 25.8093 10.6061 25.8157Z" fill="white"/>
<path d="M10.5934 22.5433C10.4406 22.5433 10.2878 22.5561 10.1414 22.5433C9.9313 22.5242 9.79761 22.3651 9.79124 22.1614C9.78488 21.9576 9.91221 21.773 10.1159 21.7603C10.4342 21.7348 10.7526 21.7348 11.0645 21.7603C11.281 21.773 11.4274 21.9704 11.4083 22.1741C11.3828 22.3906 11.2682 22.5306 11.0454 22.5497C10.899 22.5561 10.7462 22.5497 10.5934 22.5433Z" fill="white"/>
<path d="M2.46354 23.3773C2.6036 23.3773 2.75002 23.3646 2.89008 23.3773C3.10654 23.3964 3.24023 23.5238 3.25933 23.7466C3.27843 23.963 3.1511 24.154 2.92828 24.1668C2.60996 24.1922 2.29164 24.1922 1.97969 24.1668C1.76324 24.154 1.64864 23.9885 1.64227 23.772C1.63591 23.5683 1.79507 23.3964 2.01152 23.3773C2.15795 23.371 2.31074 23.3773 2.46354 23.3773Z" fill="white"/>
<path d="M6.12425 8.69645C5.86322 8.69645 5.6022 8.70282 5.33482 8.69645C5.05469 8.69009 4.9019 8.55003 4.89554 8.26991C4.8828 7.73513 4.8828 7.20672 4.89554 6.67195C4.9019 6.41092 5.06106 6.25813 5.32208 6.25813C5.84413 6.25177 6.37253 6.25177 6.89458 6.25813C7.16833 6.2645 7.32749 6.41092 7.33386 6.68468C7.34659 7.21945 7.34659 7.74786 7.33386 8.28264C7.32749 8.55003 7.1747 8.68372 6.90731 8.69645C6.64629 8.70282 6.38527 8.69645 6.12425 8.69645ZM6.50623 7.86882C6.50623 7.5887 6.50623 7.33405 6.50623 7.08576C6.23247 7.08576 5.98419 7.08576 5.72316 7.08576C5.72316 7.35315 5.72316 7.6078 5.72316 7.86882C5.98419 7.86882 6.23884 7.86882 6.50623 7.86882Z" fill="white"/>
<path d="M4.07444 7.4741C4.07444 7.73512 4.08081 7.99614 4.07444 8.26353C4.06808 8.54365 3.92802 8.69007 3.6479 8.69644C3.12585 8.70281 2.59744 8.70281 2.0754 8.69644C1.78892 8.69007 1.64249 8.53728 1.63612 8.24443C1.62976 7.73512 1.62976 7.22581 1.63612 6.7165C1.63612 6.41728 1.79528 6.25812 2.0945 6.25175C2.60381 6.24539 3.11312 6.24539 3.62243 6.25175C3.92802 6.25175 4.07444 6.40455 4.08081 6.71013C4.08081 6.96479 4.07444 7.21944 4.07444 7.4741ZM3.24682 7.86881C3.24682 7.60142 3.24682 7.34677 3.24682 7.08575C2.97943 7.08575 2.71841 7.08575 2.46375 7.08575C2.46375 7.3595 2.46375 7.61416 2.46375 7.86881C2.73751 7.86881 2.98579 7.86881 3.24682 7.86881Z" fill="white"/>
<path d="M9.37751 8.69645C9.11649 8.69645 8.85547 8.70282 8.58808 8.69645C8.30796 8.69009 8.16153 8.55003 8.15517 8.26991C8.1488 7.74786 8.1488 7.21945 8.15517 6.69741C8.16153 6.41092 8.31433 6.2645 8.60718 6.25813C9.11649 6.25177 9.6258 6.25177 10.1351 6.25813C10.4343 6.25813 10.5935 6.41729 10.5999 6.71651C10.6062 7.22582 10.6062 7.73513 10.5999 8.24444C10.5999 8.55003 10.4471 8.69645 10.1415 8.70282C9.88682 8.70282 9.63216 8.69645 9.37751 8.69645ZM8.98916 7.07939C8.98916 7.34678 8.98916 7.60144 8.98916 7.86246C9.25655 7.86246 9.5112 7.86246 9.77222 7.86246C9.77222 7.5887 9.77222 7.33405 9.77222 7.07939C9.49847 7.07939 9.25018 7.07939 8.98916 7.07939Z" fill="white"/>
<path d="M17.9276 21.7475C17.9212 22.6452 17.1954 23.371 16.2978 23.3646C15.4065 23.3646 14.668 22.6261 14.668 21.7412C14.668 20.8435 15.4192 20.0923 16.3169 20.105C17.2145 20.1178 17.9339 20.8562 17.9276 21.7475ZM16.2723 22.5497C16.7179 22.5688 17.0936 22.2314 17.1127 21.7921C17.1381 21.3274 16.788 20.939 16.3296 20.9263C15.8903 20.9135 15.502 21.2764 15.4892 21.7284C15.4765 22.1614 15.8266 22.5306 16.2723 22.5497Z" fill="white"/>
<path d="M4.88295 12.7837C5.78697 12.7773 6.50637 13.4903 6.5191 14.388C6.53184 15.2857 5.79334 16.0369 4.88931 16.0369C3.99802 16.0369 3.25952 15.2984 3.25952 14.4135C3.25952 13.5222 3.98529 12.79 4.88295 12.7837ZM4.89568 13.5986C4.44367 13.5986 4.07442 13.9615 4.07442 14.4135C4.07442 14.8591 4.4564 15.2347 4.90205 15.2284C5.34133 15.222 5.69784 14.8655 5.70421 14.4198C5.71058 13.9615 5.35406 13.5986 4.89568 13.5986Z" fill="white"/>
</svg>
