<svg width="30" height="24" viewBox="0 0 30 24" fill="none" xmlns="http://www.w3.org/2000/svg">
<g filter="url(#filter0_d_2029_972)">
<path d="M16.228 1.07192L17.0703 0.25836C17.427 -0.0861204 18.0037 -0.0861204 18.3565 0.25836L25.7325 7.37884C26.0892 7.72332 26.0892 8.28035 25.7325 8.62116L18.3603 15.7416C18.0037 16.0861 17.427 16.0861 17.0741 15.7416L16.2318 14.9281C15.8713 14.5799 15.8789 14.0119 16.247 13.6711L20.8152 9.46771L4.91061 9.4677C4.40598 9.4677 4 9.07558 4 8.58818L4 7.41548C4 6.92808 4.40598 6.53596 4.91061 6.53596L20.8152 6.53596L16.2432 2.3289C15.8713 1.98809 15.8637 1.42006 16.228 1.07192Z" fill="url(#paint0_radial_2029_972)"/>
</g>
<defs>
<filter id="filter0_d_2029_972" x="0" y="0" width="30" height="24" filterUnits="userSpaceOnUse" color-interpolation-filters="sRGB">
<feFlood flood-opacity="0" result="BackgroundImageFix"/>
<feColorMatrix in="SourceAlpha" type="matrix" values="0 0 0 0 0 0 0 0 0 0 0 0 0 0 0 0 0 0 127 0" result="hardAlpha"/>
<feOffset dy="4"/>
<feGaussianBlur stdDeviation="2"/>
<feComposite in2="hardAlpha" operator="out"/>
<feColorMatrix type="matrix" values="0 0 0 0 0 0 0 0 0 0 0 0 0 0 0 0 0 0 0.25 0"/>
<feBlend mode="normal" in2="BackgroundImageFix" result="effect1_dropShadow_2029_972"/>
<feBlend mode="normal" in="SourceGraphic" in2="effect1_dropShadow_2029_972" result="shape"/>
</filter>
<radialGradient id="paint0_radial_2029_972" cx="0" cy="0" r="1" gradientUnits="userSpaceOnUse" gradientTransform="translate(13.76 -27) rotate(85.0387) scale(62.9023 66.8143)">
<stop stop-color="#446DFE"/>
<stop offset="1" stop-color="#E444FE"/>
</radialGradient>
</defs>
</svg>
