<svg width="27" height="27" viewBox="0 0 27 27" fill="none" xmlns="http://www.w3.org/2000/svg">
<path d="M20.1562 26.2506C18.3469 26.2506 16.875 24.7788 16.875 22.9694V10.6572C15.1266 9.54252 14.0625 7.62533 14.0625 5.52627C14.0625 3.2294 15.3356 1.1519 17.385 0.102834C17.6766 -0.0452913 18.0234 -0.0331039 18.3019 0.137521C18.5803 0.309084 18.75 0.610959 18.75 0.938146V4.99096L20.1562 5.55346L21.5625 4.99096V0.938146C21.5625 0.610959 21.7322 0.309084 22.0106 0.137521C22.2891 -0.0331039 22.6359 -0.0452913 22.9275 0.102834C24.9769 1.15283 26.25 3.2294 26.25 5.52721C26.25 7.62533 25.1859 9.54252 23.4375 10.6581V22.9694C23.4375 24.7788 21.9656 26.2506 20.1562 26.2506ZM16.875 2.87502C16.2778 3.61096 15.9375 4.53908 15.9375 5.52627C15.9375 7.1144 16.8197 8.55346 18.24 9.28096C18.5531 9.44127 18.75 9.76377 18.75 10.1153V22.9694C18.75 23.7447 19.3809 24.3756 20.1562 24.3756C20.9316 24.3756 21.5625 23.7447 21.5625 22.9694V10.1153C21.5625 9.76377 21.7594 9.44127 22.0725 9.28096C23.4928 8.55346 24.375 7.11533 24.375 5.52721C24.375 4.54002 24.0347 3.6119 23.4375 2.87596V5.62565C23.4375 6.00908 23.2041 6.35315 22.8487 6.49658L20.505 7.43408C20.2809 7.52408 20.0325 7.52408 19.8084 7.43408L17.4647 6.49658C17.1084 6.35315 16.875 6.00908 16.875 5.62565V2.87502Z" fill="#666C75"/>
<path d="M14.1319 26.2505H12.1191C11.145 26.2505 10.3238 25.4902 10.2497 24.5199L10.1316 22.987C9.48844 22.792 8.86594 22.5333 8.27063 22.2146L7.1025 23.2149C6.36281 23.8495 5.24531 23.8055 4.55719 23.1183L3.13219 21.6924C2.44406 21.0042 2.40094 19.8858 3.03469 19.1461L4.035 17.9789C3.71625 17.3836 3.4575 16.7611 3.2625 16.118L1.73063 16.0008C0.760313 15.9277 0 15.1064 0 14.1324V12.1186C0 11.1446 0.760312 10.3233 1.73156 10.2492L3.26344 10.1321C3.45844 9.48799 3.71719 8.86549 4.03594 8.27111L3.03469 7.10205C2.40094 6.3633 2.44406 5.2458 3.13313 4.5558L4.55625 3.13174C5.24531 2.44268 6.36375 2.40049 7.1025 3.03424L8.27063 4.03455C8.86594 3.7158 9.48844 3.45705 10.1316 3.26205L10.2497 1.72924C10.3238 0.760801 11.145 0.000488281 12.1181 0.000488281H13.125C13.6425 0.000488281 14.0625 0.419551 14.0625 0.937988C14.0625 1.45643 13.6425 1.87549 13.125 1.87549H12.1181L11.9494 4.07018C11.9175 4.47893 11.6241 4.81924 11.2256 4.91111C10.3191 5.12018 9.45656 5.47736 8.6625 5.97518C8.31656 6.19361 7.8675 6.1608 7.55531 5.89174L5.88188 4.4583L4.45875 5.8833L5.89219 7.5558C6.15938 7.86705 6.19219 8.31611 5.97469 8.66299C5.47781 9.45799 5.11969 10.3205 4.91063 11.2261C4.81875 11.6255 4.4775 11.9189 4.06875 11.9499L1.875 12.1186V14.1324L4.06875 14.3011C4.4775 14.3321 4.81875 14.6264 4.91063 15.0249C5.11969 15.9314 5.47688 16.7939 5.97469 17.588C6.19219 17.9349 6.15844 18.3839 5.89219 18.6952L4.45875 20.3677L5.88281 21.7927L7.55531 20.3592C7.8675 20.0911 8.31656 20.0583 8.6625 20.2758C9.4575 20.7727 10.32 21.1308 11.2256 21.3399C11.625 21.4327 11.9184 21.773 11.9494 22.1808L12.1181 24.3755H14.1309C14.1703 23.8599 14.6194 23.4746 15.1378 23.513C15.6544 23.5524 16.0406 24.0033 16.0003 24.5199C15.9263 25.4902 15.105 26.2505 14.1319 26.2505Z" fill="#666C75"/>
<path d="M6.5625 13.1256C6.5625 9.90623 8.86312 7.18467 12.0328 6.65405C12.5419 6.56311 13.0275 6.9128 13.1119 7.42374C13.1972 7.93467 12.8531 8.41749 12.3422 8.5028C10.08 8.88249 8.4375 10.8269 8.4375 13.1256C8.4375 16.3628 11.6531 18.6203 14.6878 17.5469C15.1734 17.3734 15.7116 17.6284 15.885 18.1169C16.0575 18.6053 15.8025 19.1406 15.3141 19.3131C11.0456 20.8234 6.5625 17.6406 6.5625 13.1256Z" fill="#666C75"/>
</svg>
