<svg width="25" height="25" viewBox="0 0 25 25" fill="none" xmlns="http://www.w3.org/2000/svg">
<path d="M12.5 25L16.5087 19.7951H23.125C23.6221 19.7945 24.0986 19.5987 24.4501 19.2508C24.8016 18.903 24.9993 18.4313 25 17.9393V1.85579C24.9993 1.36381 24.8016 0.892159 24.4501 0.544272C24.0986 0.196385 23.6221 0.000654673 23.125 0H1.875C1.37792 0.000654673 0.901393 0.196385 0.549905 0.544272C0.198418 0.892159 0.000661448 1.36381 0 1.85579V17.9393C0.000661448 18.4313 0.198418 18.903 0.549905 19.2508C0.901393 19.5987 1.37792 19.7945 1.875 19.7951H8.49125L12.5 25ZM23.75 17.9393C23.75 18.1034 23.6842 18.2607 23.5669 18.3767C23.4497 18.4928 23.2908 18.5579 23.125 18.5579H15.89L12.5 22.9599L9.11 18.5579H1.875C1.70924 18.5579 1.55027 18.4928 1.43306 18.3767C1.31585 18.2607 1.25 18.1034 1.25 17.9393V1.85579C1.25 1.69173 1.31585 1.53439 1.43306 1.41838C1.55027 1.30237 1.70924 1.2372 1.875 1.2372H23.125C23.2908 1.2372 23.4497 1.30237 23.5669 1.41838C23.6842 1.53439 23.75 1.69173 23.75 1.85579V17.9393Z" fill="white"/>
</svg>
