<svg width="26" height="21" viewBox="0 0 26 21" fill="none" xmlns="http://www.w3.org/2000/svg">
<path d="M21.2874 20.2073C21.0213 20.8392 20.7885 20.9945 20.1066 20.9945C13.8257 20.9945 7.54483 20.9889 1.2584 21C0.659688 21 0.221744 20.8337 0 20.2516C0 15.4287 0 10.6058 0 5.78285C0.0221744 5.74404 0.0443488 5.6997 0.0665231 5.66089C0.227287 5.27838 0.521098 5.07881 0.92578 5.04555C1.00893 5.04001 1.09209 5.04001 1.17524 5.04001C7.48385 5.04001 13.7925 5.04001 20.1066 5.04001C20.794 5.04001 21.0213 5.18969 21.2874 5.8272C21.2874 10.6169 21.2874 15.4121 21.2874 20.2073ZM0.582077 9.52477C0.582077 9.61347 0.582077 9.68 0.582077 9.74652C0.582077 13.1281 0.582077 16.5097 0.582077 19.8913C0.582077 20.2904 0.698493 20.4124 1.10317 20.4124C7.46168 20.4124 13.8202 20.4124 20.1842 20.4124C20.5889 20.4124 20.7109 20.2904 20.7109 19.8968C20.7109 16.5152 20.7109 13.1337 20.7109 9.75206C20.7109 9.68 20.7109 9.60238 20.7109 9.52477C13.992 9.52477 7.30091 9.52477 0.582077 9.52477ZM20.7053 8.92607C20.7053 8.83183 20.7053 8.75422 20.7053 8.68215C20.7053 7.85061 20.7053 7.01907 20.7053 6.18753C20.7053 5.72741 20.6055 5.62209 20.1454 5.62209C16.786 5.62209 13.4266 5.62209 10.0672 5.62209C7.07362 5.62209 4.08008 5.62209 1.08654 5.62209C0.70958 5.62209 0.582077 5.74404 0.582077 6.11547C0.582077 6.98581 0.582077 7.8617 0.582077 8.73204C0.582077 8.79302 0.587621 8.854 0.593164 8.92052C7.29537 8.92607 13.9865 8.92607 20.7053 8.92607Z" fill="white"/>
<path d="M10.6489 19.6751C7.73855 19.6751 4.82817 19.6751 1.92332 19.6751C1.54082 19.6751 1.46875 19.603 1.46875 19.215C1.46875 18.1672 1.46875 17.125 1.46875 16.0773C1.46875 15.7447 1.55745 15.656 1.88452 15.656C7.72192 15.656 13.5649 15.656 19.4023 15.656C19.7404 15.656 19.8291 15.7447 19.8291 16.0939C19.8291 17.1472 19.8291 18.2005 19.8291 19.2538C19.8291 19.5975 19.746 19.6806 19.4023 19.6806C16.4808 19.6751 13.5649 19.6751 10.6489 19.6751ZM19.2304 16.2491C13.4983 16.2491 7.7829 16.2491 2.05637 16.2491C2.05637 17.2026 2.05637 18.1395 2.05637 19.0764C7.78844 19.0764 13.5094 19.0764 19.2304 19.0764C19.2304 18.1229 19.2304 17.1916 19.2304 16.2491Z" fill="white"/>
<path d="M5.99784 12.5959C5.99784 13.2112 5.99784 13.8266 5.99784 14.4419C5.99784 14.7357 5.90914 14.8244 5.60978 14.8244C4.36248 14.8244 3.11517 14.8244 1.8734 14.8244C1.57405 14.8244 1.4909 14.7357 1.48535 14.4419C1.48535 13.2112 1.48535 11.975 1.48535 10.7443C1.48535 10.4394 1.57405 10.3507 1.87895 10.3507C3.12071 10.3507 4.35693 10.3507 5.5987 10.3507C5.90914 10.3507 5.99229 10.4394 5.99229 10.7443C5.99784 11.3652 5.99784 11.9806 5.99784 12.5959ZM5.40467 10.9494C4.27932 10.9494 3.18169 10.9494 2.08406 10.9494C2.08406 12.0526 2.08406 13.1392 2.08406 14.2313C3.19832 14.2313 4.29595 14.2313 5.40467 14.2313C5.40467 13.1336 5.40467 12.0471 5.40467 10.9494Z" fill="white"/>
<path d="M13.4264 11.2321C11.475 11.2321 9.51816 11.2321 7.56681 11.2321C7.50029 11.2321 7.42822 11.2321 7.3617 11.2266C7.18985 11.2099 7.09561 11.1102 7.09006 10.9438C7.08452 10.7831 7.1843 10.6888 7.33953 10.6556C7.4005 10.6445 7.46148 10.65 7.52801 10.65C11.4861 10.65 15.4387 10.65 19.3968 10.65C19.4634 10.65 19.5354 10.6445 19.602 10.6611C19.7461 10.6999 19.8292 10.7997 19.8237 10.9494C19.8182 11.1046 19.7295 11.2044 19.5631 11.2266C19.4966 11.2321 19.4246 11.2321 19.358 11.2321C17.379 11.2321 15.4055 11.2321 13.4264 11.2321Z" fill="white"/>
<path d="M13.4707 12.3021C15.4221 12.3021 17.379 12.3021 19.3303 12.3021C19.3913 12.3021 19.4523 12.3021 19.5188 12.3021C19.7017 12.3076 19.8126 12.4074 19.8181 12.5792C19.8237 12.7566 19.7073 12.8564 19.5354 12.8786C19.48 12.8841 19.4245 12.8841 19.3691 12.8841C15.4276 12.8841 11.4861 12.8841 7.54463 12.8841C7.46147 12.8841 7.37832 12.8841 7.30071 12.862C7.15657 12.8232 7.08451 12.7123 7.09559 12.5682C7.10668 12.424 7.19538 12.3242 7.34506 12.3076C7.41158 12.3021 7.48365 12.3021 7.55017 12.3021C9.52369 12.3021 11.4972 12.3021 13.4707 12.3021Z" fill="white"/>
<path d="M13.4486 14.5251C11.4972 14.5251 9.54034 14.5251 7.589 14.5251C7.51139 14.5251 7.43378 14.5251 7.36171 14.5195C7.18986 14.5084 7.09008 14.4031 7.09008 14.2368C7.08453 14.0816 7.17877 13.9762 7.33399 13.9485C7.39497 13.9374 7.45595 13.943 7.52248 13.943C11.4806 13.943 15.4332 13.943 19.3913 13.943C19.4578 13.943 19.5299 13.943 19.5964 13.9596C19.7461 13.9929 19.8237 14.0982 19.8182 14.2423C19.8126 14.3976 19.7239 14.5029 19.5632 14.5195C19.4855 14.5251 19.4135 14.5251 19.3359 14.5251C17.3734 14.5251 15.411 14.5251 13.4486 14.5251Z" fill="white"/>
<path d="M3.70279 7.27402C3.70279 7.88936 3.20941 8.38828 2.60516 8.39383C1.98982 8.39383 1.48535 7.88936 1.48535 7.26848C1.48535 6.65868 1.98982 6.15976 2.59961 6.15976C3.21495 6.1653 3.70279 6.65868 3.70279 7.27402ZM3.12626 7.27957C3.12626 6.98575 2.89897 6.74738 2.60516 6.74184C2.31135 6.73629 2.06743 6.98575 2.07297 7.28511C2.07297 7.57338 2.31689 7.81175 2.59961 7.81175C2.88788 7.81175 3.12071 7.57338 3.12626 7.27957Z" fill="white"/>
<path d="M6.36372 7.29065C6.35818 7.90045 5.85371 8.40491 5.24946 8.39383C4.62858 8.38274 4.14074 7.87827 4.14629 7.25185C4.15183 6.65314 4.65075 6.15976 5.25501 6.15976C5.87589 6.15976 6.36927 6.66423 6.36372 7.29065ZM5.78719 7.27957C5.78719 6.98575 5.5599 6.74738 5.26609 6.74184C4.97228 6.73629 4.72836 6.98575 4.73391 7.28511C4.73391 7.57338 4.97783 7.81175 5.26609 7.81175C5.54882 7.81175 5.78165 7.57338 5.78719 7.27957Z" fill="white"/>
<path d="M9.02468 7.27402C9.02468 7.88936 8.5313 8.38828 7.92705 8.39383C7.31171 8.39383 6.80725 7.88936 6.81279 7.26848C6.81279 6.65868 7.31726 6.15976 7.92705 6.15976C8.53685 6.1653 9.02468 6.65868 9.02468 7.27402ZM7.39487 7.27402C7.38932 7.56783 7.62215 7.80621 7.91042 7.81175C8.19869 7.81729 8.44261 7.58446 8.44815 7.2962C8.45369 6.9913 8.22086 6.74738 7.92151 6.74738C7.63324 6.74738 7.39487 6.98021 7.39487 7.27402Z" fill="white"/>
<path d="M18.9356 6.63717C18.853 6.58671 18.7933 6.55918 18.7475 6.51789C18.0684 5.84346 17.394 5.16445 16.715 4.49003C16.5361 4.3111 16.5361 4.22851 16.715 4.04958C16.9352 3.82478 17.16 3.60456 17.3848 3.37975C17.7243 3.03565 18.1373 2.87049 18.619 2.8659C18.9723 2.8659 19.3301 2.8659 19.6834 2.8659C19.7384 2.8659 19.8073 2.86131 19.844 2.8292C20.2385 2.43922 20.6285 2.04466 21.046 1.62716C20.8992 1.48952 20.757 1.36565 20.6239 1.2326C20.4863 1.09496 20.4817 0.998614 20.6193 0.865564C20.8808 0.608641 21.1102 0.319601 21.4589 0.1682C22.1058 -0.111664 22.7252 -0.0520207 23.239 0.420536C23.9914 1.1179 24.7163 1.84738 25.4183 2.59521C25.9918 3.20541 25.9643 4.15052 25.4045 4.77448C25.2623 4.93047 25.1109 5.08187 24.9595 5.22868C24.8402 5.34797 24.7393 5.34338 24.6154 5.22409C24.4778 5.08646 24.3447 4.94423 24.2025 4.79283C23.7896 5.20574 23.395 5.59572 23.0096 5.99487C22.9775 6.02698 22.9729 6.10039 22.9729 6.15544C22.9683 6.50871 22.9729 6.86657 22.9729 7.21984C22.9729 7.69699 22.8078 8.10531 22.4728 8.44023C22.2434 8.67421 22.0095 8.90361 21.7801 9.13301C21.6149 9.29817 21.5277 9.29358 21.3626 9.12842C20.6836 8.45399 20.0091 7.77498 19.3301 7.09597C19.2842 7.05009 19.2521 6.99503 19.2062 6.93539C19.1328 7.00421 19.087 7.0455 19.0365 7.09597C17.4353 8.69715 15.8341 10.2983 14.2329 11.8995C14.1962 11.9362 14.1595 11.9729 14.1228 12.0096C13.9898 12.1381 13.8751 12.1519 13.7787 12.0601C13.687 11.9638 13.7007 11.8491 13.8338 11.716C15.4671 10.0827 17.1004 8.4494 18.7337 6.8161C18.775 6.76105 18.8346 6.72435 18.9356 6.63717ZM17.1509 4.27898C18.6052 5.73794 20.0963 7.22443 21.5966 8.72927C21.7617 8.55951 21.9406 8.37141 22.1242 8.19248C22.4178 7.90803 22.56 7.56852 22.5554 7.1602C22.5508 6.77481 22.5463 6.38943 22.56 6.00863C22.5646 5.92146 22.6013 5.81135 22.661 5.75171C23.106 5.29291 23.5556 4.84788 24.0098 4.39827C24.1474 4.26063 24.2392 4.26063 24.3768 4.39827C24.5099 4.53132 24.6338 4.67354 24.7989 4.84788C24.8999 4.7286 24.9779 4.62766 25.065 4.5359C25.533 4.03582 25.5468 3.30175 25.0696 2.81084C24.3952 2.11348 23.707 1.42988 23.0142 0.755454C22.4958 0.250782 21.6011 0.250782 21.0414 1.06285C21.1653 1.18672 21.2937 1.30601 21.4176 1.43447C21.5782 1.59504 21.5782 1.67763 21.4176 1.8382C20.9818 2.27865 20.5459 2.71909 20.1009 3.15035C20.0321 3.21917 19.9128 3.26505 19.8164 3.26964C19.4219 3.2834 19.0273 3.27423 18.6282 3.27423C18.3391 3.27423 18.0547 3.33387 17.8436 3.53115C17.5867 3.76972 17.3665 4.045 17.1509 4.27898Z" fill="white"/>
</svg>
