<svg width="15" height="15" viewBox="0 0 15 15" fill="none" xmlns="http://www.w3.org/2000/svg">
<path d="M10.5142 0.340933C10.384 0.293578 10.2419 0.246223 10.0999 0.198868C7.80315 -0.464102 6.52456 0.64874 6.19308 1.7971C5.73137 3.37165 6.52457 4.43714 8.57267 6.02353C11.0943 7.96509 12.1361 9.76458 11.4021 12.227C11.189 12.961 10.822 13.6122 10.3366 14.1568C12.3729 13.328 14.0303 11.6114 14.6933 9.33838C15.7706 5.68021 13.9238 1.84445 10.5142 0.340933Z" fill="#FF9700"/>
<path d="M6.95067 7.46788C4.48821 5.68023 3.22146 3.76235 3.91995 1.3946C4.0265 1.03944 4.16856 0.719795 4.3343 0.411987C2.45194 1.28805 0.948422 2.93364 0.30913 5.08829C-0.35384 7.32582 0.0841938 9.63437 1.29175 11.422C2.1323 12.452 2.93733 13.2215 4.59476 13.6714C6.83228 14.287 8.63177 13.4346 9.129 11.7417C9.59071 10.1671 8.96325 9.00692 6.95067 7.46788Z" fill="#2B3D52"/>
</svg>
