<svg width="137" height="163" viewBox="0 0 137 163" fill="none" xmlns="http://www.w3.org/2000/svg">
<g filter="url(#filter0_f_2103_42)">
<path d="M62.3568 138.305C64.8483 139.572 74.8146 140.839 84.158 142.106C93.5014 143.373 98.4846 142.739 102.222 142.106C105.959 141.472 110.32 132.603 112.188 126.268C114.057 119.934 115.926 101.562 116.548 98.3947C117.171 95.2273 116.548 88.8924 116.548 84.4579C116.548 80.0235 114.057 71.788 114.057 65.4531C114.057 59.1182 111.067 48.9822 108.451 44.5478C106.503 41.2459 103.312 42.8613 101.809 43.9017C101.414 44.1748 100.83 43.9958 100.704 43.5327C100.009 40.9647 98.1125 34.1625 96.6159 30.611C95.2214 27.3018 90.3049 26.2034 87.275 27.8949C86.6522 28.2425 84.7043 27.7467 84.5598 27.0482C84.2431 25.5167 83.7311 23.7636 82.9122 22.3756C81.0436 19.2081 74.1917 19.2081 72.9459 22.3756C72.4477 23.6425 72.0693 25.3147 71.7946 26.8653C71.666 27.5908 69.7164 27.8958 69.1611 27.4116C65.8197 24.4979 59.9048 26.8962 59.2423 31.2445C58.392 36.8249 56.7507 50.2493 56.7507 55.9507V67.9871C56.7507 71.1546 57.9965 83.191 56.7507 87.6254C55.7399 91.2235 54.3189 97.3242 53.8189 99.4973C53.7257 99.9024 53.2783 100.111 52.9118 99.9149C52.0337 99.4446 50.5174 98.6029 49.276 97.7613C47.4073 96.4943 41.1784 85.0914 38.6868 81.9239C36.1952 78.7565 31.835 76.2225 27.4747 76.2225C23.1145 76.2225 20 77.4895 20 80.0234C20 82.5574 24.3603 85.7249 26.8518 90.1593C29.3434 94.5938 36.1952 101.562 37.441 104.096C38.6868 106.63 40.5555 112.965 41.8013 115.499C43.0471 118.033 53.6362 128.169 54.882 130.069C56.1278 131.97 59.8652 137.038 62.3568 138.305Z" fill="url(#paint0_radial_2103_42)"/>
</g>
<path d="M62.3568 138.305C64.8483 139.572 74.8146 140.839 84.158 142.106C93.5014 143.373 98.4846 142.739 102.222 142.106C105.959 141.472 110.32 132.603 112.188 126.268C114.057 119.934 115.926 101.562 116.548 98.3947C117.171 95.2273 116.548 88.8924 116.548 84.4579C116.548 80.0235 114.057 71.788 114.057 65.4531C114.057 59.1182 111.067 48.9822 108.451 44.5478C106.503 41.2459 103.312 42.8613 101.809 43.9017C101.414 44.1748 100.83 43.9958 100.704 43.5327C100.009 40.9647 98.1125 34.1625 96.6159 30.611C95.0126 26.8063 89.2822 26.266 86.5069 27.7898C86.0204 28.0569 85.1992 27.841 85.0401 27.3093C84.6755 26.0906 84.0081 24.2331 82.9122 22.3756C81.0436 19.2081 74.1917 19.2081 72.9459 22.3756C72.3321 23.9364 71.8694 25.4972 71.558 26.6791C71.3976 27.288 70.2989 27.4689 69.7912 27.0964C66.6479 24.7898 59.9644 26.5053 59.2423 31.2445C58.392 36.8249 56.7507 50.2493 56.7507 55.9507V67.9871C56.7507 71.1546 57.9965 83.191 56.7507 87.6254C55.7399 91.2235 54.3189 97.3242 53.8189 99.4973C53.7257 99.9024 53.2783 100.111 52.9118 99.9149C52.0337 99.4446 50.5174 98.6029 49.276 97.7613C47.4073 96.4943 41.1784 85.0914 38.6868 81.9239C36.1952 78.7565 31.835 76.2225 27.4747 76.2225C23.1145 76.2225 20 77.4895 20 80.0234C20 82.5574 24.3603 85.7249 26.8518 90.1593C29.3434 94.5938 36.1952 101.562 37.441 104.096C38.6868 106.63 40.5555 112.965 41.8013 115.499C43.0471 118.033 53.6362 128.169 54.882 130.069C56.1278 131.97 59.8652 137.038 62.3568 138.305Z" fill="url(#paint1_radial_2103_42)"/>
<g filter="url(#filter1_f_2103_42)">
<path d="M57.6619 124.035C53.3506 120.659 46.8838 116.759 49.7386 111.696C52.5933 106.632 63.3132 110.59 63.3132 110.59C63.3132 110.59 80.3807 119.187 83.7599 118.43C87.1391 117.674 93.7847 106.609 95.3576 102.477C96.9306 98.3442 93.6086 93.0699 87.1417 94.1175C80.6747 95.1652 70.5376 98.1337 68.6149 98.1337C66.6922 98.1337 63.3132 95.1652 62.148 92.4296C60.9828 89.6939 61.6236 85.2122 63.3132 84.3973C65.0029 83.5824 76.5382 79.7991 85.7434 79.508C94.9486 79.217 104.678 83.1168 105.96 84.3973C107.241 85.6778 109.077 88.7045 109.194 92.4296C109.31 96.1547 108.115 116.211 107.766 120.053C107.416 123.894 105.074 130.205 101.462 133.988C97.8497 137.771 87.3165 132.475 84.4617 132.708C81.6068 132.94 75.4315 134.745 70.4792 133.988C65.527 133.231 61.9732 127.411 57.6619 124.035Z" fill="url(#paint2_radial_2103_42)"/>
</g>
<path d="M57.6619 124.035C53.3506 120.659 46.8838 116.759 49.7386 111.696C52.5933 106.632 63.3132 110.59 63.3132 110.59C63.3132 110.59 80.3807 119.187 83.7599 118.43C87.1391 117.674 93.7847 106.609 95.3576 102.477C96.9306 98.3442 93.6086 93.0699 87.1417 94.1175C80.6747 95.1652 70.5376 98.1337 68.6149 98.1337C66.6922 98.1337 63.3132 95.1652 62.148 92.4296C60.9828 89.6939 61.6236 85.2122 63.3132 84.3973C65.0029 83.5824 76.5382 79.7991 85.7434 79.508C94.9486 79.217 104.678 83.1168 105.96 84.3973C107.241 85.6778 109.077 88.7045 109.194 92.4296C109.31 96.1547 108.115 116.211 107.766 120.053C107.416 123.894 105.074 130.205 101.462 133.988C97.8497 137.771 87.3165 132.475 84.4617 132.708C81.6068 132.94 75.4315 134.745 70.4792 133.988C65.527 133.231 61.9732 127.411 57.6619 124.035Z" fill="url(#paint3_radial_2103_42)"/>
<g filter="url(#filter2_f_2103_42)">
<path d="M62.3279 34.8765C62.4636 33.5245 64.1591 31.5641 66.0582 31.1585C67.9572 30.7529 71.484 31.1585 71.484 32.7809C71.484 34.4033 72.6569 50.7062 72.6569 54.627C72.6569 58.5478 73.7424 82.5459 74.0137 84.5064C74.2851 86.4668 71.0295 88.5624 67.774 88.4948C64.5185 88.4272 63.4333 88.4948 62.416 83.7628C61.3986 79.0307 64.179 54.627 64.179 54.627C64.179 54.627 62.1923 36.2285 62.3279 34.8765Z" fill="url(#paint4_radial_2103_42)"/>
</g>
<g filter="url(#filter3_f_2103_42)">
<path d="M75.3196 28.977C75.4557 27.4543 76.9327 25.6145 79.0623 24.7895C81.1919 23.9645 83.5136 24.4975 84.0099 28.9771C84.5063 33.4566 84.5543 41.6033 84.5063 47.1738C84.4584 52.7442 86.1875 84.1638 86.4597 86.3718C86.7319 88.5798 82.7169 92.0059 79.4505 91.9298C76.1841 91.8536 74.4353 89.8866 74.2788 88.1229C74.1222 86.3593 75.3196 56.2216 75.3196 56.2216C75.3196 56.2216 75.1835 30.4998 75.3196 28.977Z" fill="url(#paint5_radial_2103_42)"/>
</g>
<g filter="url(#filter4_f_2103_42)">
<path d="M87.4902 37.6985C87.6258 36.3465 89.098 34.7301 91.2205 33.9976C93.3429 33.2651 95.575 34.4649 96.0697 38.4422C96.5644 42.4195 97.4847 54.5877 97.4369 59.5336C97.3891 64.4795 98.0473 81.7065 98.0473 84.2077C98.0473 86.709 95.8432 88.6018 92.5877 88.5342C89.3322 88.4666 87.5892 86.72 87.4332 85.1541C87.2772 83.5883 88.8574 54.1931 88.8574 54.1931C88.8574 54.1931 87.3546 39.0506 87.4902 37.6985Z" fill="url(#paint6_radial_2103_42)"/>
</g>
<g filter="url(#filter5_f_2103_42)">
<path d="M100.184 51.3034C100.32 49.9514 101.792 48.335 103.914 47.6025C106.037 46.87 107.137 48.0191 107.632 51.9965C108.127 55.9738 109.106 61.5048 109.058 66.4507C109.01 71.3966 108.176 85.9828 108.176 88.484C108.176 90.9852 105.463 90.9852 102.208 90.9176C98.9524 90.85 100.34 86.8096 100.184 85.2437C100.028 83.6778 100.784 66.4507 100.784 66.4507C100.784 66.4507 100.049 52.6555 100.184 51.3034Z" fill="url(#paint7_radial_2103_42)"/>
</g>
<g filter="url(#filter6_f_2103_42)">
<path d="M23.985 79.8353C24.5954 78.0777 30.6993 77.199 35.0399 79.8354C39.3806 82.4718 45.7655 97.5834 46.5794 99.2734C47.3933 100.964 51.4629 100.828 56.4138 102.789C61.3646 104.749 64.0102 116.038 65.2986 118.878C66.5871 121.717 62.9248 129.018 59.6693 129.423C56.4449 129.825 49.4944 120.412 45.8695 115.503L45.7655 115.362C42.1711 110.495 40.136 102.383 38.9154 100.828C37.6948 99.2734 31.0382 89.0291 29.5463 87.4742C28.0544 85.9194 23.3746 81.593 23.985 79.8353Z" fill="url(#paint8_radial_2103_42)"/>
</g>
<path d="M62.3279 34.8765C62.4636 33.5245 64.1591 31.5641 66.0582 31.1585C67.9572 30.7529 71.484 31.1585 71.484 32.7809C71.484 34.4033 72.6569 50.7062 72.6569 54.627C72.6569 58.5478 73.7424 82.5459 74.0137 84.5064C74.2851 86.4668 71.0295 88.5624 67.774 88.4948C64.5185 88.4272 63.4333 88.4948 62.416 83.7628C61.3986 79.0307 64.179 54.627 64.179 54.627C64.179 54.627 62.1923 36.2285 62.3279 34.8765Z" fill="url(#paint9_radial_2103_42)"/>
<path d="M75.3196 28.977C75.4557 27.4543 76.9327 25.6145 79.0623 24.7895C81.1919 23.9645 83.5136 24.4975 84.0099 28.9771C84.5063 33.4566 84.5543 41.6033 84.5063 47.1738C84.4584 52.7442 86.1875 84.1638 86.4597 86.3718C86.7319 88.5798 82.7169 92.0059 79.4505 91.9298C76.1841 91.8536 74.4353 89.8866 74.2788 88.1229C74.1222 86.3593 75.3196 56.2216 75.3196 56.2216C75.3196 56.2216 75.1835 30.4998 75.3196 28.977Z" fill="url(#paint10_radial_2103_42)"/>
<path d="M87.4902 37.6985C87.6258 36.3465 89.098 34.7301 91.2205 33.9976C93.3429 33.2651 95.575 34.4649 96.0697 38.4422C96.5644 42.4195 97.4847 54.5877 97.4369 59.5336C97.3891 64.4795 98.0473 81.7065 98.0473 84.2077C98.0473 86.709 95.8432 88.6018 92.5877 88.5342C89.3322 88.4666 87.5892 86.72 87.4332 85.1541C87.2772 83.5883 88.8574 54.1931 88.8574 54.1931C88.8574 54.1931 87.3546 39.0506 87.4902 37.6985Z" fill="url(#paint11_radial_2103_42)"/>
<path d="M100.184 51.3034C100.32 49.9514 101.792 48.335 103.914 47.6025C106.037 46.87 107.137 48.0191 107.632 51.9965C108.127 55.9738 109.106 61.5048 109.058 66.4507C109.01 71.3966 108.176 85.9828 108.176 88.484C108.176 90.9852 105.463 90.9852 102.208 90.9176C98.9524 90.85 100.34 86.8096 100.184 85.2437C100.028 83.6778 100.784 66.4507 100.784 66.4507C100.784 66.4507 100.049 52.6555 100.184 51.3034Z" fill="url(#paint12_radial_2103_42)"/>
<path d="M24.0409 79.9545C24.6513 78.1969 30.7552 77.3181 35.0959 79.9545C39.4365 82.5909 45.7655 97.5835 46.5794 99.2735C47.3933 100.964 51.4629 100.828 56.4137 102.789C61.3646 104.749 64.0102 116.038 65.2986 118.878C66.587 121.717 62.9248 129.018 59.6693 129.423C56.4449 129.825 49.4944 120.412 45.8695 115.503L45.7655 115.362C42.1711 110.495 40.136 102.383 38.9154 100.828C37.6948 99.2735 31.0941 89.1482 29.6022 87.5934C28.1103 86.0385 23.4305 81.7121 24.0409 79.9545Z" fill="url(#paint13_radial_2103_42)"/>
<path d="M59.1599 38.7971C59.2956 37.4451 60.9911 35.4847 62.8902 35.0791C64.7892 34.6735 68.316 35.0791 68.316 36.7015V58.818C68.316 62.7388 69.4016 86.737 69.6729 88.6974C69.9442 90.6578 66.6887 92.7534 63.4332 92.6858C60.1777 92.6182 59.0925 92.6858 58.0752 87.9538C57.0578 83.2218 59.8382 58.818 59.8382 58.818C59.8382 58.818 59.0243 40.1491 59.1599 38.7971Z" fill="url(#paint14_radial_2103_42)"/>
<path d="M96.6591 54.2607C96.7948 52.9087 98.2669 51.2923 100.389 50.5598C102.512 49.8273 103.612 50.9764 104.107 54.9537C104.602 58.9311 104.765 65.6958 104.717 70.6417C104.67 75.5876 104.717 85.987 104.717 88.4883C104.717 90.9895 103.09 92.0035 99.8341 91.9359C96.5786 91.8683 95.9993 91.0006 95.8433 89.4347C95.6873 87.8688 97.2696 69.4925 97.2696 69.4925C97.2696 69.4925 96.5235 55.6127 96.6591 54.2607Z" fill="url(#paint15_radial_2103_42)"/>
<path d="M70.9791 32.9424C71.1152 31.4959 72.5922 29.7483 74.7218 28.9646C76.8514 28.181 79.173 28.6873 79.6694 32.9424C80.1658 37.1975 80.5525 49.7299 80.5045 55.0213C80.4566 60.3127 81.8469 85.3643 82.1192 87.4617C82.3914 89.559 78.3764 92.8135 75.11 92.7412C71.8436 92.6689 70.0948 90.8003 69.9382 89.1251C69.7817 87.4498 72.0266 58.9421 72.0266 58.9421C72.0266 58.9421 70.843 34.3888 70.9791 32.9424Z" fill="url(#paint16_radial_2103_42)"/>
<path d="M84.5168 41.8899C84.6525 40.5379 86.1246 38.9215 88.2471 38.189C90.3696 37.4565 92.6016 38.6562 93.0964 42.6336C93.5911 46.6109 93.1442 58.779 93.0964 63.7249C93.0486 68.6708 93.7068 85.8979 93.7068 88.3991C93.7068 90.9003 91.5027 92.7931 88.2472 92.7255C84.9916 92.6579 83.2486 90.9114 83.0926 89.3455C82.9366 87.7796 84.5168 58.3845 84.5168 58.3845C84.5168 58.3845 84.3812 43.2419 84.5168 41.8899Z" fill="url(#paint17_radial_2103_42)"/>
<path d="M28.1996 82.5086C28.81 80.751 34.9139 79.8722 39.2545 82.5086C43.5952 85.1451 48.3428 97.5835 49.1567 99.2736C49.9706 100.964 54.0402 100.828 58.9911 102.789C63.9419 104.749 66.5875 116.038 67.8759 118.878C69.1644 121.717 63.9556 131.072 60.7001 131.477C57.4446 131.883 51.9372 120.23 48.3428 115.362C44.7484 110.495 42.7133 102.383 41.4927 100.828C40.2721 99.2736 35.2528 91.7024 33.7609 90.1475C32.269 88.5926 27.5892 84.2662 28.1996 82.5086Z" fill="url(#paint18_radial_2103_42)"/>
<path d="M63.5486 122.892C59.9144 120.048 53.7494 114.825 56.1559 110.559C58.5623 106.292 70.2947 110.559 70.2947 110.559C70.2947 110.559 86.7959 119.238 89.6444 118.601C92.4929 117.963 98.1407 107.028 99.4666 103.546C100.792 100.065 95.8324 95.7986 90.3811 96.6813C84.9297 97.5639 76.3846 100.065 74.7638 100.065C73.1431 100.065 59.1728 100.996 58.1906 98.6913C57.2084 96.3865 58.1227 92.4149 59.547 91.7284C60.9713 91.0419 81.4428 84.6182 89.2024 84.373C96.962 84.1278 107.503 86.526 108.583 87.6048C109.664 88.6836 110.926 92.1208 111.025 95.2592C111.123 98.3975 105.458 116.002 105.163 119.238C104.869 122.475 103.837 127.869 100.793 131.056C97.7478 134.243 90.5285 128.997 88.122 129.193C85.7155 129.389 80.5099 130.909 76.3354 130.271C72.1638 129.634 67.19 125.742 63.5564 122.898L63.5486 122.892Z" fill="url(#paint19_radial_2103_42)"/>
<path d="M63.5486 122.892C59.9144 120.048 53.7494 114.825 56.1559 110.559C58.5623 106.292 70.2947 110.559 70.2947 110.559C70.2947 110.559 86.7959 119.238 89.6444 118.601C92.4929 117.963 98.1407 107.028 99.4666 103.546C100.792 100.065 95.8325 95.7986 90.3811 96.6813C84.9297 97.5639 76.3846 100.065 74.7638 100.065C73.1431 100.065 57.1381 100.207 56.1559 97.9018C55.1736 95.5971 55.9515 89.104 59.7762 87.6048C63.6009 86.1056 81.4428 84.6182 89.2024 84.373C96.962 84.1278 107.503 86.526 108.583 87.6048C109.664 88.6836 110.926 92.1208 111.025 95.2592C111.123 98.3975 105.458 116.002 105.163 119.238C104.869 122.475 103.837 127.869 100.793 131.056C97.7478 134.243 90.5285 128.997 88.122 129.193C85.7155 129.389 80.5099 130.909 76.3354 130.271C72.1638 129.634 67.19 125.742 63.5564 122.898L63.5486 122.892Z" fill="url(#paint20_radial_2103_42)"/>
<defs>
<filter id="filter0_f_2103_42" x="0" y="0" width="136.825" height="162.837" filterUnits="userSpaceOnUse" color-interpolation-filters="sRGB">
<feFlood flood-opacity="0" result="BackgroundImageFix"/>
<feBlend mode="normal" in="SourceGraphic" in2="BackgroundImageFix" result="shape"/>
<feGaussianBlur stdDeviation="10" result="effect1_foregroundBlur_2103_42"/>
</filter>
<filter id="filter1_f_2103_42" x="29.0344" y="59.4926" width="100.167" height="95.8622" filterUnits="userSpaceOnUse" color-interpolation-filters="sRGB">
<feFlood flood-opacity="0" result="BackgroundImageFix"/>
<feBlend mode="normal" in="SourceGraphic" in2="BackgroundImageFix" result="shape"/>
<feGaussianBlur stdDeviation="10" result="effect1_foregroundBlur_2103_42"/>
</filter>
<filter id="filter2_f_2103_42" x="42.1921" y="11.0122" width="51.8374" height="97.4842" filterUnits="userSpaceOnUse" color-interpolation-filters="sRGB">
<feFlood flood-opacity="0" result="BackgroundImageFix"/>
<feBlend mode="normal" in="SourceGraphic" in2="BackgroundImageFix" result="shape"/>
<feGaussianBlur stdDeviation="10" result="effect1_foregroundBlur_2103_42"/>
</filter>
<filter id="filter3_f_2103_42" x="54.2646" y="4.46573" width="52.2083" height="107.465" filterUnits="userSpaceOnUse" color-interpolation-filters="sRGB">
<feFlood flood-opacity="0" result="BackgroundImageFix"/>
<feBlend mode="normal" in="SourceGraphic" in2="BackgroundImageFix" result="shape"/>
<feGaussianBlur stdDeviation="10" result="effect1_foregroundBlur_2103_42"/>
</filter>
<filter id="filter4_f_2103_42" x="67.4224" y="13.7948" width="50.625" height="94.7412" filterUnits="userSpaceOnUse" color-interpolation-filters="sRGB">
<feFlood flood-opacity="0" result="BackgroundImageFix"/>
<feBlend mode="normal" in="SourceGraphic" in2="BackgroundImageFix" result="shape"/>
<feGaussianBlur stdDeviation="10" result="effect1_foregroundBlur_2103_42"/>
</filter>
<filter id="filter5_f_2103_42" x="80.0205" y="27.3951" width="49.0393" height="83.5403" filterUnits="userSpaceOnUse" color-interpolation-filters="sRGB">
<feFlood flood-opacity="0" result="BackgroundImageFix"/>
<feBlend mode="normal" in="SourceGraphic" in2="BackgroundImageFix" result="shape"/>
<feGaussianBlur stdDeviation="10" result="effect1_foregroundBlur_2103_42"/>
</filter>
<filter id="filter6_f_2103_42" x="3.93042" y="58.1714" width="81.6331" height="91.2643" filterUnits="userSpaceOnUse" color-interpolation-filters="sRGB">
<feFlood flood-opacity="0" result="BackgroundImageFix"/>
<feBlend mode="normal" in="SourceGraphic" in2="BackgroundImageFix" result="shape"/>
<feGaussianBlur stdDeviation="10" result="effect1_foregroundBlur_2103_42"/>
</filter>
<radialGradient id="paint0_radial_2103_42" cx="0" cy="0" r="1" gradientUnits="userSpaceOnUse" gradientTransform="translate(37.1342 -11.589) rotate(70.8045) scale(164.058 154.685)">
<stop offset="0.00520833" stop-color="#3DE6F1"/>
<stop offset="1" stop-color="#973DF1"/>
</radialGradient>
<radialGradient id="paint1_radial_2103_42" cx="0" cy="0" r="1" gradientUnits="userSpaceOnUse" gradientTransform="translate(54.5512 -22.8708) rotate(79.9644) scale(168.801 139.794)">
<stop stop-color="#1A17B4"/>
<stop offset="1" stop-color="#BE03FF"/>
</radialGradient>
<radialGradient id="paint2_radial_2103_42" cx="0" cy="0" r="1" gradientUnits="userSpaceOnUse" gradientTransform="translate(79.118 176.988) rotate(-91.1994) scale(151.283 163.72)">
<stop stop-color="#446DFE"/>
<stop offset="1" stop-color="#E444FE"/>
</radialGradient>
<radialGradient id="paint3_radial_2103_42" cx="0" cy="0" r="1" gradientUnits="userSpaceOnUse" gradientTransform="translate(79.118 176.988) rotate(-91.1994) scale(151.283 163.72)">
<stop stop-color="#446DFE"/>
<stop offset="1" stop-color="#E444FE"/>
</radialGradient>
<radialGradient id="paint4_radial_2103_42" cx="0" cy="0" r="1" gradientUnits="userSpaceOnUse" gradientTransform="translate(68.1109 131.338) rotate(-90.2294) scale(155.642 32.2177)">
<stop stop-color="#446DFE"/>
<stop offset="1" stop-color="#E444FE"/>
</radialGradient>
<radialGradient id="paint5_radial_2103_42" cx="0" cy="0" r="1" gradientUnits="userSpaceOnUse" gradientTransform="translate(80.3687 142.212) rotate(-90.2015) scale(182.667 33.2267)">
<stop stop-color="#446DFE"/>
<stop offset="1" stop-color="#E444FE"/>
</radialGradient>
<radialGradient id="paint6_radial_2103_42" cx="0" cy="0" r="1" gradientUnits="userSpaceOnUse" gradientTransform="translate(92.7349 129.334) rotate(-90.2162) scale(148.215 28.9177)">
<stop stop-color="#446DFE"/>
<stop offset="1" stop-color="#E444FE"/>
</radialGradient>
<radialGradient id="paint7_radial_2103_42" cx="0" cy="0" r="1" gradientUnits="userSpaceOnUse" gradientTransform="translate(104.54 123.385) rotate(-90.2312) scale(117.888 24.6021)">
<stop stop-color="#446DFE"/>
<stop offset="1" stop-color="#E444FE"/>
</radialGradient>
<radialGradient id="paint8_radial_2103_42" cx="0" cy="0" r="1" gradientUnits="userSpaceOnUse" gradientTransform="translate(44.7469 167.642) rotate(-90.9044) scale(138.818 113.298)">
<stop stop-color="#446DFE"/>
<stop offset="1" stop-color="#E444FE"/>
</radialGradient>
<radialGradient id="paint9_radial_2103_42" cx="0" cy="0" r="1" gradientUnits="userSpaceOnUse" gradientTransform="translate(68.1109 131.338) rotate(-90.2294) scale(155.642 32.2177)">
<stop stop-color="#446DFE"/>
<stop offset="1" stop-color="#E444FE"/>
</radialGradient>
<radialGradient id="paint10_radial_2103_42" cx="0" cy="0" r="1" gradientUnits="userSpaceOnUse" gradientTransform="translate(80.3687 142.212) rotate(-90.2015) scale(182.667 33.2267)">
<stop stop-color="#446DFE"/>
<stop offset="1" stop-color="#E444FE"/>
</radialGradient>
<radialGradient id="paint11_radial_2103_42" cx="0" cy="0" r="1" gradientUnits="userSpaceOnUse" gradientTransform="translate(92.7349 129.334) rotate(-90.2162) scale(148.215 28.9177)">
<stop stop-color="#446DFE"/>
<stop offset="1" stop-color="#E444FE"/>
</radialGradient>
<radialGradient id="paint12_radial_2103_42" cx="0" cy="0" r="1" gradientUnits="userSpaceOnUse" gradientTransform="translate(104.54 123.385) rotate(-90.2312) scale(117.888 24.6021)">
<stop stop-color="#446DFE"/>
<stop offset="1" stop-color="#E444FE"/>
</radialGradient>
<radialGradient id="paint13_radial_2103_42" cx="0" cy="0" r="1" gradientUnits="userSpaceOnUse" gradientTransform="translate(44.7748 167.554) rotate(-90.9053) scale(138.495 113.146)">
<stop stop-color="#446DFE"/>
<stop offset="1" stop-color="#E444FE"/>
</radialGradient>
<radialGradient id="paint14_radial_2103_42" cx="0" cy="0" r="1" gradientUnits="userSpaceOnUse" gradientTransform="translate(63.1865 30.6893) rotate(89.4597) scale(66.1308 13.5844)">
<stop stop-color="#FF4085"/>
<stop offset="1" stop-color="#BE45F7"/>
</radialGradient>
<radialGradient id="paint15_radial_2103_42" cx="0" cy="0" r="1" gradientUnits="userSpaceOnUse" gradientTransform="translate(99.8405 47.2969) rotate(89.4363) scale(47.6182 10.2051)">
<stop stop-color="#FF4085"/>
<stop offset="1" stop-color="#BE45F7"/>
</radialGradient>
<radialGradient id="paint16_radial_2103_42" cx="0" cy="0" r="1" gradientUnits="userSpaceOnUse" gradientTransform="translate(75.4299 23.9485) rotate(89.4981) scale(73.3792 14.0027)">
<stop stop-color="#FF4085"/>
<stop offset="1" stop-color="#BE45F7"/>
</radialGradient>
<radialGradient id="paint17_radial_2103_42" cx="0" cy="0" r="1" gradientUnits="userSpaceOnUse" gradientTransform="translate(87.8705 33.964) rotate(89.4883) scale(62.68 12.1931)">
<stop stop-color="#FF4085"/>
<stop offset="1" stop-color="#BE45F7"/>
</radialGradient>
<radialGradient id="paint18_radial_2103_42" cx="0" cy="0" r="1" gradientUnits="userSpaceOnUse" gradientTransform="translate(46.1425 77.1237) rotate(87.9223) scale(58.0235 45.7968)">
<stop stop-color="#FF4085"/>
<stop offset="1" stop-color="#BE45F7"/>
</radialGradient>
<radialGradient id="paint19_radial_2103_42" cx="0" cy="0" r="1" gradientUnits="userSpaceOnUse" gradientTransform="translate(80.5881 80.8486) rotate(86.9425) scale(54.7283 63.5029)">
<stop stop-color="#FF4085"/>
<stop offset="1" stop-color="#BE45F7"/>
</radialGradient>
<radialGradient id="paint20_radial_2103_42" cx="0" cy="0" r="1" gradientUnits="userSpaceOnUse" gradientTransform="translate(80.5881 80.8486) rotate(86.9425) scale(54.7283 63.5029)">
<stop stop-color="#FF4085"/>
<stop offset="1" stop-color="#BE45F7"/>
</radialGradient>
</defs>
</svg>
