<svg width="16" height="16" viewBox="0 0 16 16" fill="none" xmlns="http://www.w3.org/2000/svg">
<g clip-path="url(#clip0_2001_4385)">
<path d="M15.6525 7.28186C15.9674 6.97493 16.0786 6.52447 15.9427 6.10573C15.8066 5.68698 15.4519 5.38806 15.0162 5.32463L11.1421 4.76171C10.9771 4.73768 10.8345 4.6342 10.7608 4.48458L9.02884 0.974448C8.83437 0.580055 8.43965 0.334961 7.99976 0.334961C7.5602 0.334961 7.16548 0.580055 6.97101 0.974448L5.23869 4.4849C5.165 4.63452 5.02211 4.738 4.85711 4.76203L0.983025 5.32495C0.547623 5.38806 0.192637 5.6873 0.0564737 6.10605C-0.0793693 6.52479 0.0318041 6.97525 0.346742 7.28218L3.14979 10.0144C3.26929 10.131 3.32407 10.2989 3.29588 10.463L2.63461 14.321C2.57598 14.6606 2.66504 14.9909 2.88483 15.2514C3.22636 15.6573 3.82259 15.781 4.29932 15.5305L7.76396 13.7088C7.90878 13.6328 8.09107 13.6335 8.23557 13.7088L11.7005 15.5305C11.869 15.6192 12.0488 15.6641 12.2343 15.6641C12.5729 15.6641 12.894 15.5135 13.1147 15.2514C13.3348 14.9909 13.4236 14.66 13.3649 14.321L12.7033 10.463C12.6751 10.2986 12.7299 10.131 12.8494 10.0144L15.6525 7.28186Z" fill="#FCD53F"/>
</g>
<defs>
<clipPath id="clip0_2001_4385">
<rect width="16" height="16" fill="white"/>
</clipPath>
</defs>
</svg>
