<svg width="28" height="20" viewBox="0 0 28 20" fill="none" xmlns="http://www.w3.org/2000/svg">
<path d="M26.7704 3.5703C26.4741 2.41474 25.5555 1.52585 24.4 1.19993C22.3259 0.636962 13.9704 0.636963 13.9704 0.636963C13.9704 0.636963 5.64443 0.636962 3.54073 1.19993C2.38517 1.49622 1.49628 2.41474 1.17035 3.5703C0.607391 5.64437 0.607391 9.99993 0.607391 9.99993C0.607391 9.99993 0.607391 14.3259 1.17035 16.4296C1.46665 17.5851 2.38517 18.474 3.54073 18.7999C5.6148 19.3629 13.9704 19.3629 13.9704 19.3629C13.9704 19.3629 22.2963 19.3629 24.4 18.7999C25.5555 18.5036 26.4444 17.5851 26.7704 16.4296C27.3333 14.3555 27.3333 9.99993 27.3333 9.99993C27.3333 9.99993 27.3333 5.674 26.7704 3.5703ZM11.3333 13.9999V5.99993L18.237 9.99993L11.3333 13.9999Z" fill="white"/>
</svg>
