<svg width="22" height="25" viewBox="0 0 22 25" fill="none" xmlns="http://www.w3.org/2000/svg">
<path d="M18.9452 5.36369C18.7776 5.26791 18.6099 5.17213 18.4423 5.07635C17.9874 4.76507 17.5564 4.40589 17.1732 3.99882C16.2394 2.9213 15.8802 1.81982 15.7605 1.05358C15.6408 0.407066 15.6886 0 15.7126 0H11.4264V16.5939C11.4264 16.8094 11.4264 17.0249 11.4264 17.2644C11.4264 17.2883 11.4264 17.3123 11.4264 17.3362C11.4264 17.3362 11.4264 17.3602 11.4264 17.3841C11.3306 18.5814 10.6362 19.6828 9.58266 20.2815C9.03192 20.5927 8.43329 20.7604 7.81072 20.7604C5.82328 20.7604 4.19502 19.1321 4.19502 17.1207C4.19502 15.1093 5.82328 13.4811 7.81072 13.4811C8.19384 13.4811 8.57696 13.529 8.93614 13.6487V9.29068C6.73319 9.00334 4.5063 9.64986 2.80621 11.0866C2.06391 11.7331 1.44134 12.4993 0.962436 13.3613C0.770876 13.6726 0.100414 14.9178 0.00463413 16.9531C-0.043256 18.1025 0.291975 19.2997 0.45959 19.8026C0.55537 20.0899 0.962436 21.0956 1.6329 21.9337C2.15969 22.6041 2.78226 23.2028 3.50061 23.6817C5.58383 25.0944 7.88256 24.9986 7.88256 24.9986C8.28962 24.9747 9.6066 24.9986 11.1391 24.2803C12.8152 23.4901 13.773 22.2928 13.773 22.2928C14.3956 21.5745 14.8745 20.7843 15.2097 19.8983C15.5929 18.8687 15.7365 17.6475 15.7365 17.1686V8.35682C15.7844 8.38077 16.4788 8.83572 16.4788 8.83572C16.4788 8.83572 17.4845 9.48224 19.041 9.88931C20.1664 10.1766 21.6749 10.2485 21.6749 10.2485V6.01021C21.1242 6.0581 20.0466 5.89048 18.9452 5.36369Z" fill="white"/>
</svg>
