<svg width="23" height="26" viewBox="0 0 23 26" fill="none" xmlns="http://www.w3.org/2000/svg">
<path d="M19.703 5.57824C19.5287 5.47863 19.3543 5.37902 19.18 5.27941C18.7069 4.95567 18.2586 4.58213 17.8602 4.15878C16.889 3.03815 16.5154 1.89262 16.3909 1.09573C16.2664 0.423349 16.3162 0 16.3411 0H11.8835V17.2577C11.8835 17.4818 11.8835 17.7059 11.8835 17.955C11.8835 17.9799 11.8835 18.0048 11.8835 18.0297C11.8835 18.0297 11.8835 18.0546 11.8835 18.0795C11.7839 19.3246 11.0617 20.4701 9.96596 21.0927C9.3932 21.4165 8.77063 21.5908 8.12315 21.5908C6.05621 21.5908 4.36282 19.8974 4.36282 17.8055C4.36282 15.7137 6.05621 14.0203 8.12315 14.0203C8.5216 14.0203 8.92004 14.0701 9.29359 14.1946V9.66231C7.00252 9.36347 4.68656 10.0359 2.91845 11.53C2.14647 12.2024 1.49899 12.9993 1.00093 13.8958C0.801711 14.2195 0.104431 15.5145 0.00481949 17.6312C-0.0449862 18.8266 0.303654 20.0717 0.477974 20.5947C0.577585 20.8935 1.00093 21.9394 1.69821 22.811C2.24608 23.5083 2.89355 24.1309 3.64064 24.6289C5.80719 26.0982 8.19786 25.9986 8.19786 25.9986C8.62121 25.9737 9.99087 25.9986 11.5846 25.2515C13.3278 24.4297 14.324 23.1846 14.324 23.1846C14.9714 22.4375 15.4695 21.6157 15.8181 20.6943C16.2166 19.6234 16.366 18.3534 16.366 17.8553V8.6911C16.4158 8.716 17.138 9.18915 17.138 9.18915C17.138 9.18915 18.1839 9.86153 19.8026 10.2849C20.973 10.5837 22.5419 10.6584 22.5419 10.6584V6.25062C21.9691 6.30042 20.8485 6.1261 19.703 5.57824Z" fill="url(#paint0_radial_2103_46)"/>
<defs>
<radialGradient id="paint0_radial_2103_46" cx="0" cy="0" r="1" gradientUnits="userSpaceOnUse" gradientTransform="translate(10.8527 48.75) rotate(-90) scale(74.75 64.808)">
<stop stop-color="#446DFE"/>
<stop offset="1" stop-color="#E444FE"/>
</radialGradient>
</defs>
</svg>
