<svg width="28" height="25" viewBox="0 0 28 25" fill="none" xmlns="http://www.w3.org/2000/svg">
<g filter="url(#filter0_i_2149_39)">
<path d="M17.2144 19.5867L13.8765 20.9932V2.79211L17.2144 1.40656V19.5867Z" fill="#85CE36"/>
<path d="M10.5386 19.5867L13.8765 20.9932V2.79211L10.5386 1.40656V19.5867Z" fill="#85CE36"/>
<path d="M13.8765 0L17.2144 1.40655L13.8765 2.7921L10.5386 1.40655L13.8765 0Z" fill="#85CE36"/>
<path d="M16.2698 21.3501V9.61487L18.9359 10.7275V22.4627L16.2698 21.3501Z" fill="#F1F1F1"/>
<path d="M16.6266 10.1397L18.6 10.9585V21.9589L16.6266 21.1402V10.1397ZM15.9338 9.09009V21.5811L19.2718 22.9876V10.4966L15.9338 9.09009Z" fill="#85CE36"/>
<path d="M16.2698 21.3501V14.4014L18.9359 15.514V22.4628L16.2698 21.3501Z" fill="#F1F1F1"/>
<path d="M16.6266 14.9262L18.6 15.7449V21.9379L16.6266 21.1192V14.9262ZM15.9338 13.8975V21.581L19.2718 22.9876V15.3041L15.9338 13.8975Z" fill="#85CE36"/>
<path d="M22.6098 21.5811L19.2719 22.9876V10.4966L22.6098 9.09009V21.5811Z" fill="#85CE36"/>
<path d="M19.2718 7.70453L15.9338 9.09008L19.2718 10.4966L22.6097 9.09008L19.2718 7.70453Z" fill="#85CE36"/>
<path d="M21.5601 23.3235V14.6743L24.2262 15.787V24.4362L21.5601 23.3235Z" fill="#F1F1F1"/>
<path d="M21.9169 15.1781L23.8903 15.9968V23.9113L21.9169 23.0926V15.1781ZM21.2241 14.1494V23.5544L24.562 24.961V15.556L21.2241 14.1494Z" fill="#85CE36"/>
<path d="M21.5601 23.3235V22.2948L24.2262 23.4074V24.4361L21.5601 23.3235Z" fill="#F1F1F1"/>
<path d="M21.9169 22.8196L23.8903 23.6384V23.9323L21.9169 23.1135V22.8196ZM21.2241 21.791V23.5754L24.562 24.9819V23.1975L21.2241 21.791Z" fill="#85CE36"/>
<path d="M27.8999 23.5544L24.562 24.961V15.556L27.8999 14.1494V23.5544Z" fill="#85CE36"/>
<path d="M24.562 12.7429L21.2241 14.1495L24.562 15.556L27.9 14.1495L24.562 12.7429Z" fill="#85CE36"/>
<path d="M9.0061 12.6379L11.6512 11.5253V21.3291L9.0061 22.4417V12.6379Z" fill="#F1F1F1"/>
<path d="M11.2943 12.0291V21.0772L9.32095 21.8959V12.8688L11.2943 12.0291ZM11.9871 11.0004L8.64917 12.407V22.9456L11.9871 21.539V11.0004Z" fill="#85CE36"/>
<path d="M9.0061 20.4894L11.6512 19.3767V21.3291L9.0061 22.4418V20.4894Z" fill="#F1F1F1"/>
<path d="M11.2943 19.8806V21.0772L9.32095 21.8959V20.6993L11.2943 19.8806ZM11.9871 18.8519L8.64917 20.2585V22.9456L11.9871 21.5391V18.8519Z" fill="#85CE36"/>
<path d="M5.31128 21.56L8.6492 22.9456V12.407L5.31128 11.0004V21.56Z" fill="#85CE36"/>
<path d="M8.6492 9.59393L11.9871 11.0005L8.6492 12.407L5.31128 11.0005L8.6492 9.59393Z" fill="#85CE36"/>
<path d="M3.67383 6.99075L6.33997 5.87811V23.3235L3.67383 24.4361V6.99075Z" fill="#F1F1F1"/>
<path d="M5.98304 6.40294V23.1135L4.00967 23.9323V7.22167L5.98304 6.40294ZM6.67581 5.37427L3.33789 6.78081V24.9819L6.67581 23.5754V5.37427Z" fill="#85CE36"/>
<path d="M3.67383 6.99075L6.33997 5.87811V12.9738L3.67383 14.0865V6.99075Z" fill="#F1F1F1"/>
<path d="M5.98304 6.40294V12.7429L4.00967 13.5616V7.22167L5.98304 6.40294ZM6.67581 5.37427L3.33789 6.78081V14.6113L6.67581 13.2047V5.37427Z" fill="#85CE36"/>
<path d="M0 23.5544L3.33792 24.9609V6.78081L0 5.37427V23.5544Z" fill="#85CE36"/>
<path d="M3.33792 3.96771L6.67585 5.37426L3.33792 6.7808L0 5.37426L3.33792 3.96771Z" fill="#85CE36"/>
</g>
<defs>
<filter id="filter0_i_2149_39" x="0" y="0" width="27.9" height="28.9819" filterUnits="userSpaceOnUse" color-interpolation-filters="sRGB">
<feFlood flood-opacity="0" result="BackgroundImageFix"/>
<feBlend mode="normal" in="SourceGraphic" in2="BackgroundImageFix" result="shape"/>
<feColorMatrix in="SourceAlpha" type="matrix" values="0 0 0 0 0 0 0 0 0 0 0 0 0 0 0 0 0 0 127 0" result="hardAlpha"/>
<feOffset dy="4"/>
<feGaussianBlur stdDeviation="2"/>
<feComposite in2="hardAlpha" operator="arithmetic" k2="-1" k3="1"/>
<feColorMatrix type="matrix" values="0 0 0 0 0 0 0 0 0 0 0 0 0 0 0 0 0 0 0.25 0"/>
<feBlend mode="normal" in2="shape" result="effect1_innerShadow_2149_39"/>
</filter>
</defs>
</svg>
