<?xml version="1.0" encoding="utf-8"?>
<!-- Generator: Adobe Illustrator 27.2.0, SVG Export Plug-In . SVG Version: 6.00 Build 0)  -->
<svg version="1.1" id="_Шар_2" xmlns="http://www.w3.org/2000/svg" xmlns:xlink="http://www.w3.org/1999/xlink" x="0px" y="0px"
	 width="686.6px" height="898.4px" viewBox="0 0 686.6 898.4" style="enable-background:new 0 0 686.6 898.4;" xml:space="preserve"
	>
<style type="text/css">
	.st0{fill:url(#SVGID_1_);}
	.st1{fill:url(#SVGID_00000119821423551143752210000014242752666488264108_);}
	.st2{fill:url(#SVGID_00000026141885354804873560000003086948972306500506_);}
	.st3{fill:url(#SVGID_00000000212039260063200490000018268953871648880267_);}
	.st4{fill:url(#SVGID_00000039834216111921639390000002460599585615218340_);}
</style>
<g id="_Шар_1-2">
	
		<linearGradient id="SVGID_1_" gradientUnits="userSpaceOnUse" x1="0" y1="721.3833" x2="686.6" y2="721.3833" gradientTransform="matrix(1 0 0 1 0 -77.3333)">
		<stop  offset="0" style="stop-color:#A355FE"/>
		<stop  offset="1" style="stop-color:#7560FE"/>
	</linearGradient>
	<path class="st0" d="M617.7,898.4H68.9c-38,0-68.9-30.8-68.9-68.9V458.6c0-38.1,30.9-68.9,68.9-68.9h117c14.3,0,28.3,4.5,40,12.8
		l47,33.5c11.5,8.2,25.4,12.7,39.5,12.8l305.7,1.9c37.9,0.2,68.5,31,68.5,68.9v309.9C686.6,867.6,655.7,898.4,617.7,898.4
		L617.7,898.4z"/>
	
		<linearGradient id="SVGID_00000170272170284383895890000000684706810019158423_" gradientUnits="userSpaceOnUse" x1="80.8" y1="306.7333" x2="628.33" y2="306.7333" gradientTransform="matrix(1 0 0 1 0 -77.3333)">
		<stop  offset="0" style="stop-color:#649C29"/>
		<stop  offset="1" style="stop-color:#85CE36"/>
	</linearGradient>
	<path style="fill:url(#SVGID_00000170272170284383895890000000684706810019158423_);" d="M405.3,101.3H101.5
		c-11.4,0-20.7,9.3-20.7,20.7v235.5h41.3V142.7h283.1L405.3,101.3L405.3,101.3z"/>
	
		<linearGradient id="SVGID_00000101824768948272471230000001043100806567000736_" gradientUnits="userSpaceOnUse" x1="80.82" y1="429.5333" x2="628.35" y2="429.5333" gradientTransform="matrix(1 0 0 1 0 -77.3333)">
		<stop  offset="0" style="stop-color:#649C29"/>
		<stop  offset="1" style="stop-color:#85CE36"/>
	</linearGradient>
	
		<rect x="587" y="289.2" style="fill:url(#SVGID_00000101824768948272471230000001043100806567000736_);" width="41.3" height="126"/>
	
		<linearGradient id="SVGID_00000106129842407962993190000013699522958541247138_" gradientUnits="userSpaceOnUse" x1="412.972" y1="222.9333" x2="676.1924" y2="222.9333" gradientTransform="matrix(1 0 0 1 0 -77.3333)">
		<stop  offset="0" style="stop-color:#649C29"/>
		<stop  offset="1" style="stop-color:#85CE36"/>
	</linearGradient>
	<path style="fill:url(#SVGID_00000106129842407962993190000013699522958541247138_);" d="M510.5,277.5c-7.1,0-12.9-5.8-12.9-12.9
		v-14.9c-6.7-3.4-13.1-7.5-19-12.2l-9.1,5.8c-2.2,1.4-4.6,2-6.9,2c-4.3,0-8.5-2.1-10.9-6L415,181.7c-1.8-2.9-2.5-6.4-1.7-9.8
		c0.7-3.4,2.8-6.3,5.7-8.1l16.6-10.6c-0.2-2.6-0.2-5.2-0.2-7.7c0-6.3,0.5-12.7,1.5-18.9L419,115.3c-2.9-1.8-4.9-4.8-5.7-8.1
		c-0.7-3.4-0.1-6.9,1.7-9.8l36.6-57.5c1.8-2.9,4.8-4.9,8.1-5.7c0.9-0.2,1.9-0.3,2.8-0.3c2.4,0,4.9,0.7,7,2l17.8,11.4
		c3.3-2.2,6.7-4.1,10.3-5.9V26.5c0-7.2,5.8-12.9,12.9-12.9h68.1c7.2,0,12.9,5.8,12.9,12.9v14.9c3.5,1.8,6.9,3.7,10.3,5.9L619.7,36
		c2.1-1.4,4.6-2,6.9-2c4.3,0,8.5,2.1,10.9,6l36.6,57.5c1.8,2.9,2.5,6.4,1.7,9.8s-2.8,6.3-5.7,8.1l-17.8,11.4
		c1,6.2,1.5,12.6,1.5,18.9c0,2.6-0.1,5.1-0.2,7.7l16.6,10.6c6,3.8,7.8,11.8,4,17.9l-36.6,57.5c-2.5,3.9-6.7,6-10.9,6
		c-2.4,0-4.8-0.7-6.9-2l-9.1-5.8c-5.9,4.8-12.3,8.9-19,12.2v14.9c0,7.1-5.8,12.9-12.9,12.9L510.5,277.5L510.5,277.5z M544.6,103.2
		c-23.3,0-42.3,19-42.3,42.3s19,42.3,42.3,42.3s42.3-19,42.3-42.3S567.9,103.2,544.6,103.2z"/>
</g>
<linearGradient id="SVGID_00000068663266000726209430000001546233648568820128_" gradientUnits="userSpaceOnUse" x1="109.1" y1="525.3" x2="599.9366" y2="525.3">
	<stop  offset="0" style="stop-color:#649C29"/>
	<stop  offset="1" style="stop-color:#85CE36"/>
</linearGradient>
<path style="fill:url(#SVGID_00000068663266000726209430000001546233648568820128_);" d="M541.8,443.4c-1.8-2.3-4.1-1.9-5.2-1.4
	c-1,0.4-3.2,1.7-2.9,4.8c0.4,3.8,0.6,7.7,0.6,11.6c0.2,16-6.3,31.7-17.6,43c-11.3,11.3-26.1,17.3-41.9,17.1
	c-21.6-0.3-39.5-11.5-51.8-32.6c-10.2-17.4-5.7-39.8-1-63.6c2.8-13.9,5.6-28.3,5.6-41.9c0-106.5-71.6-167.9-114.3-195.1
	c-0.9-0.6-1.7-0.8-2.5-0.8c-1.2,0-2.2,0.5-2.6,0.8c-0.9,0.6-2.4,2-1.9,4.5c16.3,86.6-32.3,138.7-83.9,193.9
	C169.3,440.6,109.1,505,109.1,621.2c0,135,109.9,244.9,244.9,244.9c111.2,0,209.2-77.5,238.4-188.5
	C612.4,602.2,591.6,505.8,541.8,443.4z M360.2,814.1c-33.8,1.5-66-10.6-90.5-34.1c-24.3-23.2-38.2-55.7-38.2-89
	c0-62.5,23.9-108.4,88.2-169.3c1.1-1,2.1-1.3,3.1-1.3c0.9,0,1.6,0.3,2.1,0.5c1.1,0.5,2.8,1.8,2.6,4.5c-2.3,26.7-2.3,48.9,0.1,66
	c6.1,43.5,37.9,72.8,79.3,72.8c20.3,0,39.6-7.6,54.4-21.5c1.7-1.6,3.6-1.4,4.4-1.2c1,0.2,2.3,0.8,3,2.5c6.1,14.8,9.3,30.5,9.3,46.7
	C478,755.8,425.2,811.2,360.2,814.1z"/>
</svg>
