<?xml version="1.0" encoding="utf-8"?>
<!-- Generator: Adobe Illustrator 27.2.0, SVG Export Plug-In . SVG Version: 6.00 Build 0)  -->
<svg version="1.1" id="Слой_1" xmlns="http://www.w3.org/2000/svg" xmlns:xlink="http://www.w3.org/1999/xlink" x="0px" y="0px"
	 width="16px" height="15px" viewBox="0 0 16 15" style="enable-background:new 0 0 16 15;" xml:space="preserve">
<style type="text/css">
	.st0{fill:#8BC643;stroke:#8BC643;stroke-miterlimit:10;}
</style>
<path class="st0" d="M1.5,6.4h2.2c0.3,0,0.5,0.2,0.5,0.5v6.5C4.2,13.8,4,14,3.7,14H1.5C1.2,14,1,13.8,1,13.5V6.9
	C1,6.7,1.2,6.4,1.5,6.4z M7.7,1.5c0.3-1.3,2.4-0.1,2.5,2c0,0.8,0,1.5-0.2,2.3h3.1c1.3,0,2.4,1,1.6,2.5c0.2,0.7,0.2,1.4-0.3,1.7
	c0.1,1-0.2,1.7-0.8,2.2c0,0.5-0.2,1-0.4,1.3c-0.4,0.6-0.8,0.5-1.4,0.5H6.8c-0.8,0-1.3-0.2-1.8-0.9V7.3c1.5-0.4,2.3-2.5,2.8-3.9V1.5z
	"/>
</svg>
