<svg width="16" height="15" viewBox="0 0 16 15" fill="none" xmlns="http://www.w3.org/2000/svg">
<path d="M14.5042 8.55293L12.3052 8.55293C12.025 8.55293 11.8094 8.33625 11.8094 8.05456L11.8094 1.51068C11.8094 1.22899 12.025 1.01231 12.3052 1.01231L14.5042 1.01231C14.7844 1.01231 15 1.22899 15 1.51068L15 8.05456C15 8.31458 14.7844 8.55293 14.5042 8.55293ZM8.27384 13.45C8.01514 14.7718 5.88088 13.5583 5.72998 11.4348C5.70842 10.6764 5.75153 9.91804 5.924 9.18132L2.86274 9.18131C1.5908 9.13798 0.469778 8.20623 1.26743 6.71111C1.09497 6.06106 1.05185 5.28099 1.54769 4.97763C1.48301 3.93755 1.78483 3.30916 2.30223 2.78912C2.34534 2.26908 2.45313 1.81404 2.69027 1.46735C3.09988 0.882297 3.44481 1.01231 4.09155 1.01231L9.24396 1.01231C10.0632 1.01231 10.5159 1.25066 11.0549 1.92238L11.0549 7.72953C9.52422 8.14123 8.70501 10.2647 8.27384 11.6515L8.27384 13.45Z" stroke="#CC0000" stroke-miterlimit="10"/>
</svg>
