<svg width="16" height="15" viewBox="0 0 16 15" fill="none" xmlns="http://www.w3.org/2000/svg">
<path d="M1.49584 6.44707H3.69477C3.97503 6.44707 4.19061 6.66375 4.19061 6.94544V13.4893C4.19061 13.771 3.97503 13.9877 3.69477 13.9877H1.49584C1.21558 13.9877 1 13.771 1 13.4893V6.94544C1 6.68542 1.21558 6.44707 1.49584 6.44707ZM7.72616 1.55C7.98485 0.228223 10.1191 1.44166 10.27 3.56517C10.2916 4.32356 10.2485 5.08196 10.076 5.81868H13.1373C14.4092 5.86202 15.5302 6.79377 14.7326 8.28889C14.905 8.93894 14.9482 9.71901 14.4523 10.0224C14.517 11.0625 14.2152 11.6908 13.6978 12.2109C13.6547 12.7309 13.5469 13.186 13.3097 13.5327C12.9001 14.1177 12.5552 13.9877 11.9084 13.9877H6.75604C5.93683 13.9877 5.4841 13.7493 4.94515 13.0776V7.27047C6.47578 6.85877 7.29499 4.73526 7.72616 3.34848V1.55Z" stroke="#A1A1A4" stroke-miterlimit="10"/>
</svg>
