<?xml version="1.0" encoding="utf-8"?>
<!-- Generator: Adobe Illustrator 27.2.0, SVG Export Plug-In . SVG Version: 6.00 Build 0)  -->
<svg version="1.1" id="Слой_1" xmlns="http://www.w3.org/2000/svg" xmlns:xlink="http://www.w3.org/1999/xlink" x="0px" y="0px"
	 width="16px" height="15px" viewBox="0 0 16 15" style="enable-background:new 0 0 16 15;" xml:space="preserve">
<style type="text/css">
	.st0{fill:#CC0000;stroke:#CC0000;stroke-miterlimit:10;}
</style>
<path class="st0" d="M14.5,8.6h-2.2c-0.3,0-0.5-0.2-0.5-0.5V1.5C11.8,1.2,12,1,12.3,1h2.2C14.8,1,15,1.2,15,1.5v6.5
	C15,8.3,14.8,8.6,14.5,8.6z M8.3,13.4c-0.3,1.3-2.4,0.1-2.5-2c0-0.8,0-1.5,0.2-2.3l-3.1,0c-1.3,0-2.4-1-1.6-2.5
	C1.1,6.1,1.1,5.3,1.5,5c-0.1-1,0.2-1.7,0.8-2.2c0-0.5,0.2-1,0.4-1.3C3.1,0.9,3.4,1,4.1,1h5.2c0.8,0,1.3,0.2,1.8,0.9v5.8
	c-1.5,0.4-2.3,2.5-2.8,3.9V13.4z"/>
</svg>
