<svg width="15" height="15" viewBox="0 0 15 15" fill="none" xmlns="http://www.w3.org/2000/svg">
<path d="M2.80947 10.6613L2.40581 11.2581L3.90743 12.7581L4.47255 12.3548L2.80947 10.6613ZM3.61679 8.93548C3.14855 8.22581 2.80947 7.48387 2.59957 6.74194L0.645856 6.12903V4.20968L0 5.37097V6.6129L2.0183 7.20968C2.2282 8.01613 2.66416 8.82258 3.16469 9.54839L3.61679 8.93548ZM8.97739 14.3548L8.36383 12.5323C7.57266 12.3065 6.84607 12.0323 6.18407 11.5968L5.6028 12.0323C6.32939 12.5323 7.10441 12.871 7.91173 13.0806L8.493 15H10.3983L10.9957 14.3548H8.97739ZM15 7.91935L14.564 6.40323L13.4177 5.96774C13.1432 5.33871 12.7879 4.74194 12.3681 4.19355L12.7557 3.37097L11.5931 2.22581L10.7696 2.62903C10.2207 2.20968 9.6394 1.85484 9.00969 1.59677L8.57373 0.435484L7.08827 0L6.99139 1.06452C6.34553 1.01613 5.73197 1.08065 5.18299 1.27419L3.85899 0.274194L2.59957 1L3.5845 2.32258C3.18084 2.79032 2.8902 3.35484 2.76103 4.03226L0.968784 4V5.90323L2.85791 6.5C3.08396 7.33871 3.47147 8.17742 4.00431 8.93548L3.00323 10.4194L4.71475 12.1452L6.16792 11.1129C6.9268 11.6452 7.75027 12.0484 8.60603 12.2581L9.20344 14.1935H11.1087L11.0603 12.371C11.7384 12.2258 12.3197 11.9194 12.7718 11.5161L14.1119 12.5161L14.8224 11.2258L13.789 9.8871C13.9666 9.32258 13.9989 8.69355 13.9343 8.03226L15 7.91935ZM9.55867 10.5323C7.08827 10.3548 4.74704 7.98387 4.55328 5.51613C4.37567 3.27419 6.10334 2.03226 8.23466 2.53226C10.1884 2.98387 12.0291 4.80645 12.5135 6.79032C13.014 8.93548 11.803 10.7097 9.55867 10.5323ZM3.19699 2.30645L2.43811 1.27419L2.21206 2L2.80947 2.91935C2.9225 2.70968 3.05167 2.5 3.19699 2.30645ZM12.7879 11.8871C12.5942 12.0323 12.3843 12.1613 12.1582 12.2742L13.1916 13.0484L13.8536 12.6774L12.7879 11.8871ZM8.60603 7.35484L8.26695 5.1129L8.78364 5.20968C8.92896 5.24194 9.07427 5.29032 9.20344 5.37097C9.33261 5.45161 9.44564 5.53226 9.55867 5.64516C9.65554 5.75806 9.75242 5.87097 9.81701 6.01613C9.88159 6.16129 9.93003 6.30645 9.96233 6.46774C9.99462 6.62903 9.99462 6.77419 9.97847 6.90323C9.96232 7.03226 9.91389 7.14516 9.83315 7.22581C9.76857 7.30645 9.67169 7.37097 9.55867 7.40323C9.44564 7.43548 9.30032 7.45161 9.15501 7.43548L8.60603 7.35484ZM8.62217 4.30645L7.169 3.96774L7.73412 8.27419L9.30032 8.43548C9.59096 8.46774 9.8493 8.43548 10.0753 8.35484C10.2853 8.27419 10.4629 8.14516 10.592 7.96774C10.7212 7.80645 10.8019 7.59677 10.8504 7.35484C10.8827 7.12903 10.8827 6.85484 10.8181 6.58064C10.7535 6.30645 10.6566 6.03226 10.5274 5.79032C10.3983 5.54839 10.2368 5.32258 10.0431 5.12903C9.8493 4.93548 9.6394 4.75806 9.3972 4.6129C9.17115 4.48387 8.89666 4.37097 8.62217 4.30645Z" fill="#8DC640"/>
</svg>
