<svg width="22" height="19" viewBox="0 0 22 19" fill="none" xmlns="http://www.w3.org/2000/svg">
<path d="M21.7185 0.881559C21.6296 0.644522 21.5407 0.585263 21.4222 0.555633C21.0963 0.437115 20.5926 0.614893 20.5926 0.614893C20.5926 0.614893 1.89629 7.31119 0.829628 8.05193C0.592591 8.20008 0.533332 8.3186 0.474072 8.40749C0.296295 8.94082 0.859257 9.17786 0.859257 9.17786L5.68889 10.7482C5.68889 10.7482 5.86667 10.7779 5.92592 10.7482C7.02222 10.0667 16.9481 3.78526 17.5111 3.57786C17.6 3.54823 17.6593 3.57786 17.6593 3.63712C17.4222 4.43712 8.8 12.1112 8.8 12.1112C8.8 12.1112 8.77037 12.1408 8.74074 12.2001L8.2963 16.9704C8.2963 16.9704 8.11852 18.4223 9.57037 16.9704C10.6074 15.9334 11.6148 15.0742 12.0889 14.6593C13.7481 15.8149 15.5259 17.0593 16.2963 17.7408C16.6815 18.0667 17.0074 18.126 17.2741 18.126C18.0148 18.0964 18.2222 17.2964 18.2222 17.2964C18.2222 17.2964 21.6296 3.57786 21.7481 1.74082C21.7481 1.56304 21.7778 1.44452 21.7778 1.326C21.7778 1.1186 21.7481 0.970448 21.7185 0.881559Z" fill="white"/>
</svg>
