<svg width="30" height="22" viewBox="0 0 30 22" fill="none" xmlns="http://www.w3.org/2000/svg">
<path d="M29.3681 3.29268C29.0355 1.99556 28.0044 0.997782 26.7073 0.631928C24.3792 -7.53318e-07 15 0 15 0C15 0 5.6541 -7.53318e-07 3.29268 0.631928C1.99557 0.964523 0.997783 1.99556 0.631929 3.29268C-1.18945e-07 5.62084 0 10.51 0 10.51C0 10.51 -1.18945e-07 15.3659 0.631929 17.7273C0.964523 19.0244 1.99557 20.0222 3.29268 20.388C5.62084 21.02 15 21.02 15 21.02C15 21.02 24.3459 21.02 26.7073 20.388C28.0044 20.0554 29.0022 19.0244 29.3681 17.7273C30 15.3991 30 10.51 30 10.51C30 10.51 30 5.6541 29.3681 3.29268ZM12.0399 15V6.01996L19.7894 10.51L12.0399 15Z" fill="url(#paint0_linear_2103_44)"/>
<defs>
<linearGradient id="paint0_linear_2103_44" x1="-5.33686" y1="35.1679" x2="49.9045" y2="11.229" gradientUnits="userSpaceOnUse">
<stop stop-color="#446DFE"/>
<stop offset="1" stop-color="#E444FE"/>
</linearGradient>
</defs>
</svg>
