<svg width="200" height="125" viewBox="0 0 200 125" fill="none" xmlns="http://www.w3.org/2000/svg">
<g filter="url(#filter0_di_2609_286)">
<path d="M180.144 29.584L176.688 46.16V46.288L180.144 66H174.768L172.208 48.592H172.08V66H166.768V19.344H172.08V44.88H172.208L174.768 29.584H180.144ZM185.948 29.52L187.1 49.168L187.356 56.4H187.484L187.74 49.168L188.892 29.52H194.14L188.572 76.24H183.324L184.604 66L180.188 29.52H185.948Z" fill="#FCFCFC"/>
</g>
<path d="M149.428 79.852H120.952V89.104H149.14V91.048H120.952V103H118.792V77.836H149.428V79.852ZM150.607 80.716V77.476H152.623V80.716H150.607ZM150.607 103V82.84H152.623V103H150.607ZM154.052 103V82.84H155.852L156.068 86.116H156.14C156.608 83.704 157.688 82.48 159.344 82.48C161.108 82.48 161.972 83.812 161.972 86.44V103H159.956V86.728C159.956 85.072 159.524 84.352 158.516 84.352C156.896 84.352 156.068 86.26 156.068 90.004V103H154.052ZM169.488 103L169.308 100.12H169.236C168.84 102.424 167.832 103.36 166.32 103.36C164.34 103.36 163.404 101.74 163.404 99.076V96.664C163.404 93.496 164.412 92.416 169.308 90.292V87.088C169.308 85.324 168.624 84.352 167.364 84.352C166.104 84.352 165.42 85.324 165.42 87.088V89.752H163.512V87.484C163.512 84.28 164.916 82.48 167.436 82.48C169.956 82.48 171.324 84.244 171.324 87.484V103H169.488ZM169.308 92.2C165.888 93.784 165.42 94.324 165.42 96.484V98.932C165.42 100.732 165.96 101.488 166.896 101.488C168.372 101.488 169.308 99.688 169.308 95.08V92.2ZM172.755 103V82.84H174.555L174.771 86.116H174.843C175.311 83.704 176.391 82.48 178.047 82.48C179.811 82.48 180.675 83.812 180.675 86.44V103H178.659V86.728C178.659 85.072 178.227 84.352 177.219 84.352C175.599 84.352 174.771 86.26 174.771 90.004V103H172.755ZM186.067 101.488C187.147 101.488 188.011 100.768 188.011 98.752V94.468H189.919V98.32C189.919 101.704 188.407 103.36 186.031 103.36C183.655 103.36 182.107 101.704 182.107 98.32V87.484C182.107 84.1 183.655 82.48 186.031 82.48C188.407 82.48 189.919 84.1 189.919 87.484V91.012H188.011V87.088C188.011 85.072 187.147 84.352 186.067 84.352C184.987 84.352 184.123 85.072 184.123 87.088V98.752C184.123 100.768 184.987 101.488 186.067 101.488ZM195.313 101.488C196.393 101.488 197.257 100.768 197.257 98.752V95.188H199.165V98.32C199.165 101.704 197.653 103.36 195.277 103.36C192.901 103.36 191.353 101.704 191.353 98.32V87.484C191.353 84.1 192.901 82.48 195.277 82.48C197.653 82.48 199.165 84.1 199.165 87.484V93.532H193.369V98.752C193.369 100.768 194.233 101.488 195.313 101.488ZM193.369 91.804H197.257V87.088C197.257 85.072 196.393 84.352 195.313 84.352C194.233 84.352 193.369 85.072 193.369 87.088V91.804Z" fill="#67C236"/>
<g filter="url(#filter1_di_2609_286)">
<path fill-rule="evenodd" clip-rule="evenodd" d="M133.301 64.2362C136.721 65.0221 140.222 65.415 143.806 65.415C148.132 65.415 151.799 64.7739 154.806 63.4917C157.039 62.5222 158.863 61.3198 160.278 59.8843C160.312 59.8499 160.346 59.8154 160.379 59.7808C160.855 59.287 161.284 58.7661 161.665 58.2181C161.856 57.9389 162.034 57.6558 162.201 57.3689C163.368 55.3603 163.952 53.1616 163.952 50.773C163.952 50.1742 163.921 49.5993 163.86 49.0485C163.858 49.0372 163.849 49.0286 163.837 49.0286V49.0286C163.826 49.0286 163.816 49.0196 163.815 49.0079C163.793 48.7327 163.754 48.4683 163.7 48.2175C162.779 43.9447 159.44 41.2364 155.627 39.4472C155.624 39.4461 155.621 39.445 155.618 39.4439C155.618 39.4438 155.617 39.4435 155.618 39.4432V39.4432C155.618 39.443 155.618 39.4427 155.617 39.4425C152.301 37.8879 148.628 37.028 145.876 36.4383C142.721 35.7622 140.193 35.5989 138.618 35.497C137.786 35.4433 137.22 35.4067 136.967 35.3209C135.32 34.7622 143.13 31.3872 157.408 33.831V33.831C157.698 33.8806 157.986 33.7269 158.098 33.4552L161.875 24.3235C162.002 24.0156 161.881 23.6601 161.587 23.5034C159.522 22.4022 157.159 21.5653 154.497 20.9927C151.654 20.3309 148.75 20 145.784 20C141.458 20 137.771 20.6411 134.723 21.9233C131.715 23.2055 129.449 24.9634 127.925 27.1969C127.916 27.2102 127.907 27.2234 127.898 27.2367C127.612 27.6585 127.933 28.2075 128.442 28.2266C129.812 28.2782 131.182 28.4518 132.48 28.7119C133.21 28.8581 133.075 29.8619 132.338 29.9679C127.287 30.6953 125.603 33.2122 125.694 36.0067C125.738 36.5356 125.808 37.0439 125.905 37.5316C127.743 45.3797 137.815 47.8695 143.688 49.1281C146.844 49.8042 149.371 49.9676 150.947 50.0694C151.778 50.1231 152.344 50.1597 152.597 50.2455C154.245 50.8042 146.434 54.1792 132.156 51.7354C130.268 51.4123 128.064 50.7568 125.912 49.7607C125.366 49.5083 124.791 50.017 125.073 50.5479C125.714 51.7563 126.589 52.8563 127.593 53.834C127.795 54.0309 127.859 54.3317 127.746 54.5901L125.188 60.425C125.056 60.7253 125.164 61.0777 125.447 61.2431C127.552 62.4717 130.17 63.4694 133.301 64.2362Z" fill="white"/>
</g>
<path d="M75.4747 120.231C76.5747 120.831 77.0747 121.731 77.8747 122.531C78.0747 122.731 78.3747 122.731 78.6747 122.731C82.7747 122.731 86.8747 122.831 90.9747 122.831C91.2747 122.831 91.4747 122.831 91.7747 122.831C94.3747 122.831 97.0747 122.931 99.6747 122.931C99.7747 122.931 99.8747 123.031 99.9747 123.031C100.975 123.131 101.975 123.131 102.875 123.131C103.675 123.131 104.575 123.231 105.375 123.231C104.675 124.231 103.275 123.931 102.175 124.031C98.3747 124.131 94.5747 124.031 90.7747 124.031C83.5747 124.031 76.4747 124.131 69.2747 124.031C63.6747 123.931 58.0747 123.831 52.4747 123.631C48.2747 123.531 44.0747 123.331 39.8747 123.031C35.1747 122.731 30.5747 122.331 25.8747 122.031C21.4747 121.731 17.1747 121.231 12.7747 121.131C11.1747 121.131 9.37474 121.031 7.67474 120.931C7.67474 120.831 7.67474 120.731 7.67474 120.731C9.37474 120.631 11.0747 120.531 12.6747 120.431C14.8747 120.431 17.0747 120.431 19.2747 120.431C34.0747 120.231 48.8747 120.231 63.6747 120.231C65.2747 120.231 66.9747 120.331 68.5747 120.431C70.9747 120.531 73.1747 120.131 75.4747 120.231Z" fill="#D6E1E4"/>
<path d="M4.17474 38.6316C4.17474 37.7316 4.17474 36.8316 4.67474 36.1316C5.07474 35.5316 5.77474 35.1316 6.47474 34.8316C10.6747 32.9316 15.0747 31.3316 19.5747 30.0316C19.7747 29.9316 19.9747 29.9316 20.1747 29.9316C20.3747 29.9316 20.4747 30.0316 20.6747 30.1316C21.6747 30.8316 22.1747 32.0316 22.2747 33.2316C22.3747 34.4316 22.0747 35.6316 21.7747 36.7316C20.9747 39.3316 19.6747 41.7316 18.2747 43.9316C17.1747 45.7316 15.8747 47.4316 14.5747 49.1316C13.2747 50.7316 11.8747 52.7316 10.1747 53.8316C6.97474 56.1316 5.47474 47.5316 5.07474 45.7316C4.57474 43.3316 4.27474 41.0316 4.17474 38.6316Z" fill="url(#paint0_linear_2609_286)"/>
<path d="M24.4748 106.531C36.7748 118.331 55.9748 124.631 72.5748 120.431C84.5748 117.331 94.0747 112.331 100.375 101.631C106.675 90.931 109.075 75.431 109.675 63.031C110.375 49.631 110.475 37.431 103.175 26.231C95.8748 15.031 80.2748 5.53099 67.0748 7.63099C63.3748 8.23099 59.7747 9.33099 56.2747 10.631C56.3747 10.831 52.5747 6.23099 50.0747 3.03099C49.2747 2.03099 48.5747 2.03099 47.5747 2.83099C43.4747 6.33099 38.4748 11.131 36.1748 13.231C31.2748 17.831 30.1748 18.431 25.4748 23.231C20.1748 28.631 14.7748 31.931 11.0748 38.631C7.37475 45.331 5.37475 55.431 6.57475 62.931C6.77475 64.131 7.07475 65.331 7.47475 66.431C5.67475 73.431 4.77475 80.031 5.17475 87.231C5.37475 91.231 5.97475 95.331 7.57475 99.031C9.17475 102.731 24.8748 106.431 24.4748 106.531Z" fill="url(#paint1_linear_2609_286)"/>
<path d="M15.7748 32.431C17.4748 35.031 30.4748 36.831 34.1748 36.931C34.5748 36.931 34.9748 36.931 35.2748 36.731C35.5748 36.531 35.8748 36.331 36.0748 36.031C39.6748 31.931 43.3748 27.731 46.9748 23.631C47.6748 22.831 48.3748 22.031 48.5748 20.931C48.7748 19.431 47.7748 18.131 46.7748 17.031C42.7748 12.631 44.6748 13.831 39.1748 11.531C37.3748 10.831 30.9748 17.831 24.7748 23.931C22.0748 26.731 15.4748 32.031 15.7748 32.431Z" fill="url(#paint2_linear_2609_286)"/>
<path d="M18.1748 56.131C17.6748 57.531 16.3748 58.231 15.0748 57.831C13.7748 57.431 13.1748 55.931 13.6748 54.631C14.1748 53.231 15.4748 52.531 16.7748 52.931C18.0748 53.331 18.5748 54.831 18.1748 56.131Z" fill="url(#paint3_linear_2609_286)"/>
<path d="M73.4747 12.0316C74.0747 12.6316 73.8747 13.9316 72.8747 15.0316C71.8747 16.1316 70.5747 16.5316 69.9747 15.9316C69.3747 15.3316 69.5747 14.0316 70.5747 12.9316C71.5747 11.8316 72.8747 11.4316 73.4747 12.0316Z" fill="url(#paint4_linear_2609_286)"/>
<path d="M70.813 13.5526C71.7533 12.5415 72.0565 11.295 71.4903 10.7685C70.9241 10.2419 69.7028 10.6347 68.7626 11.6458C67.8223 12.6569 67.5191 13.9034 68.0853 14.43C68.6515 14.9565 69.8727 14.5637 70.813 13.5526Z" fill="#A5DE55"/>
<mask id="mask0_2609_286" style="mask-type:luminance" maskUnits="userSpaceOnUse" x="67" y="10" width="5" height="5">
<path d="M70.813 13.5526C71.7532 12.5415 72.0564 11.295 71.4902 10.7685C70.924 10.242 69.7028 10.6348 68.7625 11.6458C67.8223 12.6569 67.5191 13.9034 68.0853 14.43C68.6515 14.9565 69.8727 14.5637 70.813 13.5526Z" fill="white"/>
</mask>
<g mask="url(#mask0_2609_286)">
<path d="M67.5748 14.9311C68.1748 15.7311 69.2747 16.0311 70.2747 15.7311C71.2747 15.4311 71.9747 14.6311 72.4747 13.7311C72.9747 12.9311 73.2748 12.0311 73.1748 11.1311C73.0748 10.4311 72.7748 9.63105 72.1748 9.33105C71.6748 10.4311 71.2747 11.4311 70.4747 12.4311C70.2747 12.7311 67.7748 15.1311 67.5748 14.9311Z" fill="#278115"/>
</g>
<path d="M15.3747 73.0313C15.3747 73.0313 15.0747 71.9313 15.6747 71.1313C16.1747 70.3313 21.4747 64.3313 21.4747 64.3313C21.4747 64.3313 21.6747 63.8313 22.1747 64.2313C22.5747 64.6313 28.5747 71.4313 28.8747 71.8313C29.1747 72.2313 29.6747 72.3313 29.1747 72.6313C28.6747 72.9313 15.3747 73.0313 15.3747 73.0313Z" fill="url(#paint5_linear_2609_286)"/>
<path d="M42.7747 57.3309C42.0747 55.1309 43.2747 52.7309 45.1747 51.3309C47.5747 49.4309 51.0747 49.1309 53.8747 50.4309C56.6747 51.7309 58.4747 54.7309 58.4747 57.8309C59.4747 57.7309 60.5747 58.3309 60.9747 59.2309C61.3747 60.1309 61.1747 61.3309 60.4747 62.0309C59.5747 62.9309 58.0747 62.9309 56.8747 62.9309C52.6747 62.8309 48.3747 62.7309 44.1747 62.6309C43.1747 62.6309 42.0747 62.5309 41.0747 62.5309C40.3747 62.5309 38.9747 62.7309 38.2747 62.3309C36.6747 61.3309 38.6747 60.0309 39.8747 60.3309C39.9747 59.5309 40.2747 58.8309 40.8747 58.2309C40.7747 58.0309 42.7747 57.0309 42.7747 57.3309Z" fill="url(#paint6_linear_2609_286)"/>
<path d="M84.9747 65.8309C84.7747 64.5309 85.3747 63.2309 86.3747 62.5309C87.3747 61.9309 88.6748 62.0309 89.5748 62.8309C88.9748 61.0309 89.5748 59.0309 90.6748 57.6309C92.3748 55.4309 95.1748 54.3309 97.6748 55.2309C100.175 56.1309 101.975 58.9309 101.875 61.9309C102.675 61.2309 103.875 61.4309 104.775 62.1309C105.575 62.8309 106.075 64.0309 106.175 65.1309C107.575 64.8309 109.175 66.1309 109.275 67.8309C109.275 68.1309 109.275 68.3309 109.175 68.5309C108.975 68.8309 108.675 68.9309 108.275 69.0309C107.275 69.2309 106.175 69.2309 105.175 69.2309C101.175 69.2309 97.2748 69.2309 93.2748 69.1309C91.2748 69.0309 89.2748 68.9309 87.2748 68.7309C86.2748 68.6309 85.2748 68.5309 84.2748 68.4309C83.5748 68.3309 82.0748 68.4309 81.5748 67.8309C80.9748 67.1309 81.5748 66.2309 82.1748 65.8309C82.9748 65.2309 84.0747 65.4309 84.9747 65.8309Z" fill="url(#paint7_linear_2609_286)"/>
<path d="M66.1748 23.4309C65.7748 23.1309 56.2747 10.6309 56.2747 10.6309L57.5747 10.1309C57.5747 10.1309 67.0747 23.2309 67.2747 23.3309H66.1748V23.4309Z" fill="url(#paint8_linear_2609_286)"/>
<path d="M81.2748 62.4308C81.0748 61.3308 81.6748 60.1308 82.6748 59.5308C83.6748 58.9308 84.9747 59.1308 85.8747 59.8308C85.2747 58.3308 85.8747 56.5308 86.9747 55.2308C88.6747 53.2308 91.4747 52.4308 93.9747 53.1308C96.4747 53.9308 98.2748 56.4308 98.1748 58.9308C98.9748 58.3308 100.175 58.5308 101.075 59.1308C101.875 59.7308 102.375 60.7308 102.475 61.7308C103.875 61.4308 105.475 62.6308 105.575 64.0308C105.575 64.2308 105.575 64.5308 105.475 64.6308C105.275 64.9308 104.975 65.0308 104.575 65.0308C103.575 65.2308 102.475 65.2308 101.475 65.2308C97.4747 65.2308 93.5748 65.2308 89.5748 65.1308C87.5748 65.0308 85.5748 64.9308 83.5748 64.8308C82.5748 64.7308 81.5748 64.6308 80.5748 64.5308C79.8748 64.4308 78.3747 64.5308 77.8747 64.0308C77.2747 63.4308 77.8747 62.6308 78.4747 62.2308C79.3747 62.0308 80.4748 62.1308 81.2748 62.4308Z" fill="#F6FBEB"/>
<mask id="mask1_2609_286" style="mask-type:luminance" maskUnits="userSpaceOnUse" x="77" y="52" width="29" height="14">
<path d="M81.2748 62.4308C81.0748 61.3308 81.6748 60.1308 82.6748 59.5308C83.6748 58.9308 84.9747 59.1308 85.8747 59.8308C85.2747 58.3308 85.8747 56.5308 86.9747 55.2308C88.6747 53.2308 91.4747 52.4308 93.9747 53.1308C96.4747 53.9308 98.2748 56.4308 98.1748 58.9308C98.9748 58.3308 100.175 58.5308 101.075 59.1308C101.875 59.7308 102.375 60.7308 102.475 61.7308C103.875 61.4308 105.475 62.6308 105.575 64.0308C105.575 64.2308 105.575 64.5308 105.475 64.6308C105.275 64.9308 104.975 65.0308 104.575 65.0308C103.575 65.2308 102.475 65.2308 101.475 65.2308C97.4747 65.2308 93.5748 65.2308 89.5748 65.1308C87.5748 65.0308 85.5748 64.9308 83.5748 64.8308C82.5748 64.7308 81.5748 64.6308 80.5748 64.5308C79.8748 64.4308 78.3747 64.5308 77.8747 64.0308C77.2747 63.4308 77.8747 62.6308 78.4747 62.2308C79.3747 62.0308 80.4748 62.1308 81.2748 62.4308Z" fill="white"/>
</mask>
<g mask="url(#mask1_2609_286)">
<path d="M90.7748 62.2308C90.4748 62.1308 90.1748 61.8308 89.8748 61.5308C88.6748 60.6308 86.5748 61.5308 86.4748 63.1308C84.8748 62.1308 82.4748 63.1308 81.8748 64.9308C81.2748 62.4308 78.4748 65.0308 77.8748 64.2308C77.2748 63.5308 76.2748 62.2308 75.2748 62.4308C73.4748 62.7308 75.9748 63.8308 76.5748 65.5308C77.1748 67.3308 78.5748 68.8308 80.3748 69.5308C82.6748 70.4308 85.2748 70.0308 87.6748 69.6308C92.4748 68.8308 97.2748 68.0308 102.075 67.2308C103.275 67.0308 104.575 66.8308 105.475 66.0308C106.475 65.1308 106.875 63.6308 106.875 62.2308C106.875 57.6308 103.175 53.7308 99.1748 51.3308C97.5748 50.3308 88.6748 47.4308 90.9748 51.8308C91.8748 53.5308 93.1748 54.4308 93.4748 56.4308C93.6748 57.8308 93.3748 63.2308 90.7748 62.2308Z" fill="#E6E6E8"/>
</g>
<path d="M60.0748 46.0317C59.8748 44.1317 60.5748 42.0317 62.0748 40.9317C63.4748 39.8317 65.6747 39.8317 66.8747 41.2317C66.8747 39.5317 67.7748 37.9317 69.0748 37.1317C70.3748 36.3317 72.0748 36.3317 73.3748 37.1317C72.3748 32.0317 74.4748 26.3317 78.3748 23.3317C82.2748 20.3317 87.7747 20.0317 91.8747 22.7317C93.2747 23.6317 94.4748 24.8317 95.5748 26.1317C96.2748 27.0317 96.9747 27.9317 97.3747 28.9317C98.0747 30.7317 98.1747 32.7317 98.2747 34.6317C101.375 33.0317 105.375 34.0317 107.475 37.0317C109.575 39.9317 109.475 44.5317 107.375 47.4317C106.875 48.1317 106.275 48.7317 105.575 48.9317C104.975 49.1317 104.275 49.1317 103.675 49.1317C93.9748 49.4317 84.2748 49.5317 74.5748 49.6317C70.6748 49.6317 66.6748 49.7317 62.7748 49.5317C61.7748 49.4317 58.0748 49.7317 57.4748 48.8317C56.4748 47.4317 59.1748 46.0317 60.0748 46.0317Z" fill="url(#paint9_linear_2609_286)"/>
<path d="M51.9748 40.5308C51.7748 38.7308 52.4748 36.8308 53.9748 35.7308C55.4748 34.7308 57.6748 34.7308 58.9748 36.0308C58.9748 34.4308 59.8748 32.9308 61.2748 32.2308C62.6748 31.4308 64.3748 31.4308 65.7748 32.2308C64.7748 27.4308 66.8748 22.1307 70.8748 19.2307C74.8748 16.3307 80.5748 16.2307 84.7748 18.6307C86.1748 19.5307 87.4748 20.6307 88.6748 21.8307C89.3748 22.6307 90.0748 23.5307 90.5748 24.5307C91.3748 26.2307 91.3748 28.0307 91.4748 29.9307C94.6748 28.4307 98.7748 29.4307 100.875 32.1307C102.975 34.8307 102.975 39.1307 100.775 41.8307C100.275 42.4307 99.6748 43.0308 98.8748 43.2308C98.1748 43.5308 97.4748 43.5308 96.8748 43.5308C86.8748 43.6308 76.8748 43.7307 66.7748 43.8307C62.6748 43.8307 58.6748 43.9308 54.5748 43.7308C53.5748 43.6308 49.6748 43.9308 49.0748 43.0308C48.2748 41.7308 51.0748 40.4308 51.9748 40.5308Z" fill="#F6FBEB"/>
<mask id="mask2_2609_286" style="mask-type:luminance" maskUnits="userSpaceOnUse" x="48" y="16" width="55" height="28">
<path d="M51.9748 40.5308C51.7748 38.7308 52.4748 36.8308 53.9748 35.7308C55.4748 34.7308 57.6748 34.7308 58.9748 36.0308C58.9748 34.4308 59.8748 32.9308 61.2748 32.2308C62.6748 31.4308 64.3748 31.4308 65.7748 32.2308C64.7748 27.4308 66.8748 22.1307 70.8748 19.2307C74.8748 16.3307 80.5748 16.2307 84.7748 18.6307C86.1748 19.5307 87.4748 20.6307 88.6748 21.8307C89.3748 22.6307 90.0748 23.5307 90.5748 24.5307C91.3748 26.2307 91.3748 28.0307 91.4748 29.9307C94.6748 28.4307 98.7748 29.4307 100.875 32.1307C102.975 34.8307 102.975 39.1307 100.775 41.8307C100.275 42.4307 99.6748 43.0308 98.8748 43.2308C98.1748 43.5308 97.4748 43.5308 96.8748 43.5308C86.8748 43.6308 76.8748 43.7307 66.7748 43.8307C62.6748 43.8307 58.6748 43.9308 54.5748 43.7308C53.5748 43.6308 49.6748 43.9308 49.0748 43.0308C48.2748 41.7308 51.0748 40.4308 51.9748 40.5308Z" fill="white"/>
</mask>
<g mask="url(#mask2_2609_286)">
<path d="M81.1748 16.9303C83.0748 18.7303 84.6748 21.0303 85.1748 23.5303C85.7748 26.5303 84.6748 29.6303 83.6748 32.6303C86.0748 32.9303 87.8747 35.4303 87.9747 37.8303C88.0747 40.3303 86.7747 42.6303 84.9747 44.3303C84.6747 44.6303 84.2747 45.0303 84.2747 45.5303C84.2747 46.1303 84.8747 46.5303 85.3747 46.8303C89.0747 48.8303 93.5748 49.2303 97.6748 48.1303C100.875 47.3303 104.075 45.5303 105.475 42.5303C107.075 39.1303 106.075 35.1303 104.575 31.7303C102.575 27.2303 99.6748 23.0303 95.5748 20.2303C93.2748 18.7303 90.7748 17.6303 88.1748 16.6303C85.9748 15.7303 83.6747 14.8303 81.2747 14.6303C80.0747 14.5303 78.7748 14.6303 77.5748 14.7303C78.8748 14.8303 80.1748 15.9303 81.1748 16.9303Z" fill="#D6E1E4"/>
</g>
<path d="M39.3747 52.531C38.7747 50.531 39.8747 48.431 41.4747 47.131C43.6747 45.431 46.7747 45.131 49.2747 46.331C51.7747 47.531 53.3747 50.231 53.3747 52.931C54.2747 52.831 55.1747 53.331 55.5747 54.131C55.9747 54.931 55.7747 56.031 55.0747 56.631C54.2747 57.531 52.9747 57.531 51.7747 57.531C47.9747 57.431 44.1747 57.331 40.3747 57.231C39.4747 57.231 38.4747 57.231 37.5747 57.131C36.9747 57.131 35.6747 57.331 35.0747 56.931C33.6747 56.031 35.3747 54.831 36.4747 55.131C36.5747 54.431 36.8747 53.731 37.3747 53.231C37.5747 53.231 39.3747 52.231 39.3747 52.531Z" fill="#F6FBEB"/>
<mask id="mask3_2609_286" style="mask-type:luminance" maskUnits="userSpaceOnUse" x="34" y="45" width="22" height="13">
<path d="M39.3747 52.531C38.7747 50.531 39.8747 48.431 41.4747 47.131C43.6747 45.431 46.7747 45.131 49.2747 46.331C51.7747 47.531 53.3747 50.231 53.3747 52.931C54.2747 52.831 55.1747 53.331 55.5747 54.131C55.9747 54.931 55.7747 56.031 55.0747 56.631C54.2747 57.531 52.9747 57.531 51.7747 57.531C47.9747 57.431 44.1747 57.331 40.3747 57.231C39.4747 57.231 38.4747 57.231 37.5747 57.131C36.9747 57.131 35.6747 57.331 35.0747 56.931C33.6747 56.031 35.3747 54.831 36.4747 55.131C36.5747 54.431 36.8747 53.731 37.3747 53.231C37.5747 53.231 39.3747 52.231 39.3747 52.531Z" fill="white"/>
</mask>
<g mask="url(#mask3_2609_286)">
<path d="M48.7747 51.0313C50.1747 50.6313 52.0747 52.6313 51.8747 54.1313C51.7747 54.9313 51.0747 55.6313 50.5747 56.2313C49.9747 56.9313 48.2747 57.1313 47.5747 57.8313C47.3747 58.1313 47.9747 58.3313 47.9747 58.6313C47.9747 59.3313 48.7747 59.6313 49.4747 59.7313C51.3747 60.0313 53.4747 59.8313 55.1747 58.9313C56.8747 58.0313 58.3747 56.5313 58.8747 54.6313C59.3747 52.5313 58.7747 50.3313 57.4747 48.6313C56.1747 46.9313 54.4747 45.6313 52.5747 44.5313C51.5747 43.9313 45.0747 41.1313 45.7747 43.9313C46.0747 45.0313 47.6747 45.9313 48.1747 47.0313C48.8747 48.1313 49.0747 49.6313 48.7747 51.0313Z" fill="#E6E6E8"/>
</g>
<path d="M15.8231 54.3117C16.2872 52.9529 15.6466 51.504 14.3923 51.0756C13.138 50.6472 11.745 51.4015 11.2809 52.7603C10.8168 54.1192 11.4574 55.568 12.7117 55.9964C13.966 56.4248 15.359 55.6705 15.8231 54.3117Z" fill="#86D643"/>
<mask id="mask4_2609_286" style="mask-type:luminance" maskUnits="userSpaceOnUse" x="11" y="50" width="5" height="7">
<path d="M15.8233 54.3117C16.2874 52.9528 15.6468 51.5039 14.3925 51.0755C13.1381 50.6471 11.745 51.4014 11.2809 52.7603C10.8168 54.1191 11.4574 55.568 12.7118 55.9964C13.9661 56.4248 15.3592 55.6705 15.8233 54.3117Z" fill="white"/>
</mask>
<g mask="url(#mask4_2609_286)">
<path d="M12.1748 56.6316C13.1748 57.7316 15.0748 57.9316 16.3748 57.2316C17.6748 56.4316 18.3748 54.8316 17.9748 53.3316C17.7748 52.8316 17.5748 52.3316 17.1748 51.8316C15.8748 49.9316 14.7748 48.3316 14.4748 51.1316C14.1748 53.2316 13.7748 55.1316 12.1748 56.6316Z" fill="#278115"/>
</g>
<path d="M12.1748 70.3311C12.1748 70.3311 11.9748 69.3311 12.3748 68.5311C12.8748 67.7311 17.6748 62.1311 17.6748 62.1311C17.6748 62.1311 17.8748 61.6311 18.2748 62.0311C18.6748 62.3311 24.1748 68.8311 24.4748 69.1311C24.7748 69.4311 25.1748 69.6311 24.7748 69.9311C24.4748 70.1311 12.1748 70.3311 12.1748 70.3311Z" fill="#86D643"/>
<mask id="mask5_2609_286" style="mask-type:luminance" maskUnits="userSpaceOnUse" x="12" y="61" width="13" height="10">
<path d="M12.1748 70.3311C12.1748 70.3311 11.9748 69.3311 12.3748 68.5311C12.8748 67.7311 17.6748 62.1311 17.6748 62.1311C17.6748 62.1311 17.8748 61.6311 18.2748 62.0311C18.6748 62.3311 24.1748 68.8311 24.4748 69.1311C24.7748 69.4311 25.1748 69.6311 24.7748 69.9311C24.4748 70.1311 12.1748 70.3311 12.1748 70.3311Z" fill="white"/>
</mask>
<g mask="url(#mask5_2609_286)">
<path d="M19.1748 63.4309C19.8748 65.9309 19.8748 68.7309 18.3748 70.8309C19.5748 70.9309 20.7748 70.9309 21.9748 70.9309C23.0748 70.9309 24.1748 70.9309 25.2748 70.5309C25.4748 70.4309 25.6748 70.3309 25.7748 70.2309C25.9748 70.0309 25.9748 69.6309 25.8748 69.3309C25.6748 68.0309 24.5748 66.9309 23.5748 66.0309C22.7748 65.2309 21.8748 64.5309 20.9748 63.7309C20.5748 63.4309 18.8748 61.6309 18.3748 61.8309C18.7748 62.4309 19.0748 62.8309 19.1748 63.4309Z" fill="#3BA025"/>
</g>
<mask id="mask6_2609_286" style="mask-type:luminance" maskUnits="userSpaceOnUse" x="12" y="61" width="13" height="10">
<path d="M12.1748 70.3311C12.1748 70.3311 11.9748 69.3311 12.3748 68.5311C12.8748 67.7311 17.6748 62.1311 17.6748 62.1311C17.6748 62.1311 17.8748 61.6311 18.2748 62.0311C18.6748 62.3311 24.1748 68.8311 24.4748 69.1311C24.7748 69.4311 25.1748 69.6311 24.7748 69.9311C24.4748 70.1311 12.1748 70.3311 12.1748 70.3311Z" fill="white"/>
</mask>
<g mask="url(#mask6_2609_286)">
<path d="M12.4748 71.3307C12.0748 71.1307 11.7748 70.8307 11.3748 70.6307C11.7748 70.5307 11.6748 70.2307 12.0748 70.2307C12.6748 70.1307 15.5748 70.0307 16.2748 70.0307C16.8748 70.0307 17.3748 70.0307 17.9748 70.0307C19.9748 70.0307 21.9748 69.9307 23.9748 69.9307C24.4748 69.9307 24.9748 69.9307 25.4748 69.9307C25.6748 69.9307 25.7748 69.9307 25.9748 70.0307C26.0748 70.1307 26.1748 70.3307 26.1748 70.4307C26.0748 70.5307 25.9748 70.6307 25.8748 70.7307C25.3748 70.9307 24.8748 71.0307 24.3748 71.1307C21.3748 71.6307 18.2748 71.9307 15.2748 71.8307C14.2748 71.8307 13.1748 71.7307 12.3748 71.0307C12.2748 70.9307 12.0748 70.8307 11.9748 70.8307" fill="#158460"/>
</g>
<path d="M59.8747 87.5312H23.8747C23.4747 87.5312 23.2747 87.1313 23.5747 86.8313L41.5747 62.9313C41.7747 62.7313 42.0747 62.7313 42.2747 62.9313L60.1747 86.8313C60.3747 87.1313 60.1747 87.5312 59.8747 87.5312Z" fill="url(#paint10_linear_2609_286)"/>
<path d="M49.7747 87.531H23.8747C23.4747 87.531 23.2747 87.131 23.5747 86.831L41.4747 63.031C41.6747 62.731 41.9747 62.531 42.1747 62.831L50.2747 86.831C50.2747 87.231 50.0747 87.531 49.7747 87.531Z" fill="url(#paint11_linear_2609_286)"/>
<path d="M19.4747 89.831C19.6747 89.231 32.8747 70.731 32.4747 71.331C32.2747 71.631 32.9747 70.331 34.0747 72.031C34.2747 72.331 43.6747 84.231 47.1747 88.831C46.8747 88.531 35.1747 94.131 35.1747 94.131L19.4747 89.831Z" fill="url(#paint12_linear_2609_286)"/>
<path d="M49.3248 91.6311L33.1748 70.8311L35.7748 94.0311" fill="url(#paint13_linear_2609_286)"/>
<path d="M23.8747 80.3314C23.8747 80.3314 23.2747 79.1314 22.2747 80.7314C21.2747 82.3314 14.4747 93.7314 14.4747 93.6314L33.8747 94.0314C33.7747 94.2314 23.8747 80.3314 23.8747 80.3314Z" fill="#86D643"/>
<path d="M21.2747 96.4314C21.6747 96.5314 24.8747 96.5314 25.4747 96.4314C28.7747 95.4314 32.2747 94.5314 35.5747 94.0314C33.5747 89.3314 28.3747 81.6314 23.9747 79.6314C23.6747 79.5314 23.0747 79.6314 23.0747 80.2314C23.4747 87.1314 21.6747 96.4314 21.2747 96.4314Z" fill="url(#paint14_linear_2609_286)"/>
<path d="M51.6748 94.2313C51.6748 94.2313 74.0748 69.7313 74.0748 69.6313C74.0748 69.5313 70.0748 57.5312 70.0748 57.5312C70.0748 57.5312 38.3748 93.5312 38.0748 94.4312C38.1748 94.4312 51.6748 94.2313 51.6748 94.2313Z" fill="url(#paint15_linear_2609_286)"/>
<path d="M51.6748 94.2314C51.6748 94.2314 71.7748 114.231 72.1748 115.231C72.2748 115.631 63.7748 121.931 63.7748 121.931L38.1748 94.4314L51.6748 94.2314Z" fill="url(#paint16_linear_2609_286)"/>
<path d="M74.0748 69.6313L70.0748 57.5312L71.1748 57.6312L99.8747 88.6313C99.8747 88.6313 92.6748 89.9312 92.1748 89.5312C91.6748 89.2312 74.0748 69.6313 74.0748 69.6313Z" fill="url(#paint17_linear_2609_286)"/>
<path d="M92.1748 89.6314L99.8748 88.7314C99.8748 88.7314 72.8748 123.531 72.7748 122.331C72.5748 121.131 72.1748 115.331 72.1748 115.331L92.1748 89.6314Z" fill="url(#paint18_linear_2609_286)"/>
<path d="M72.1748 115.231L63.7747 121.931C63.7747 121.931 72.8747 122.831 72.7747 122.231C72.6747 121.531 72.1748 115.231 72.1748 115.231Z" fill="url(#paint19_linear_2609_286)"/>
<path d="M51.6748 94.2309L74.0748 69.6309L72.7748 77.1309C72.7748 77.1309 59.6748 93.4309 58.6748 93.6309C57.6748 93.8309 51.6748 94.2309 51.6748 94.2309Z" fill="url(#paint20_linear_2609_286)"/>
<path d="M74.0748 69.6309L72.7747 77.2309L86.0748 90.8309L92.1748 89.6309L74.0748 69.6309Z" fill="url(#paint21_linear_2609_286)"/>
<path d="M58.6748 93.6309C58.6748 93.6309 72.7748 107.331 72.7748 108.131C72.6748 109.031 72.1748 115.231 72.1748 115.231L51.6748 94.2309L58.6748 93.6309Z" fill="url(#paint22_linear_2609_286)"/>
<path d="M72.7748 108.131L86.0748 90.8309L92.2748 89.6309C92.2748 89.6309 72.1748 116.731 72.2748 115.331C72.2748 113.831 72.7748 108.131 72.7748 108.131Z" fill="url(#paint23_linear_2609_286)"/>
<path d="M58.6748 93.6309L72.7748 77.1309L86.0748 90.8309L72.7748 108.231L58.6748 93.6309Z" fill="url(#paint24_linear_2609_286)"/>
<g filter="url(#filter2_f_2609_286)">
<path fill-rule="evenodd" clip-rule="evenodd" d="M75.6139 91.9496V89.1496C75.6139 89.1496 75.6139 89.0496 75.5139 89.0496C75.3139 89.0496 75.2139 89.0496 75.2139 89.0496C75.1139 89.0496 75.0139 89.1496 75.0139 89.2496C75.0139 89.2496 74.8139 89.4496 74.5139 89.3496C74.2139 89.1496 73.1139 88.8496 72.4139 88.8496C72.0139 88.8496 68.2139 89.0496 67.9139 93.2496C67.9139 93.2496 67.6139 97.6496 72.2139 98.0496C72.2139 98.0496 73.0139 98.1496 74.2139 97.5496C75.4139 97.0496 75.6139 96.8496 75.6139 96.8496V95.0496C75.6139 95.0496 75.8139 94.5496 76.3139 94.4496V94.0496L73.4139 93.9496V94.4496C73.4139 94.4496 74.1139 94.5496 74.1139 94.9496C74.1139 95.3496 74.4139 96.0496 73.4139 96.8496C72.4139 97.6496 69.8139 97.1496 69.8139 94.9496C69.8139 92.7496 69.3139 89.6496 72.5139 89.6496C72.5139 89.6496 74.9139 89.5496 74.9139 91.8496C74.9139 91.8496 75.0139 92.0496 75.1139 92.0496C75.4139 92.0496 75.6139 92.0496 75.6139 91.9496Z" fill="url(#paint25_linear_2609_286)"/>
<path fill-rule="evenodd" clip-rule="evenodd" d="M75.6139 91.9496V89.1496C75.6139 89.1496 75.6139 89.0496 75.5139 89.0496C75.3139 89.0496 75.2139 89.0496 75.2139 89.0496C75.1139 89.0496 75.0139 89.1496 75.0139 89.2496C75.0139 89.2496 74.8139 89.4496 74.5139 89.3496C74.2139 89.1496 73.1139 88.8496 72.4139 88.8496C72.0139 88.8496 68.2139 89.0496 67.9139 93.2496C67.9139 93.2496 67.6139 97.6496 72.2139 98.0496C72.2139 98.0496 73.0139 98.1496 74.2139 97.5496C75.4139 97.0496 75.6139 96.8496 75.6139 96.8496V95.0496C75.6139 95.0496 75.8139 94.5496 76.3139 94.4496V94.0496L73.4139 93.9496V94.4496C73.4139 94.4496 74.1139 94.5496 74.1139 94.9496C74.1139 95.3496 74.4139 96.0496 73.4139 96.8496C72.4139 97.6496 69.8139 97.1496 69.8139 94.9496C69.8139 92.7496 69.3139 89.6496 72.5139 89.6496C72.5139 89.6496 74.9139 89.5496 74.9139 91.8496C74.9139 91.8496 75.0139 92.0496 75.1139 92.0496C75.4139 92.0496 75.6139 92.0496 75.6139 91.9496Z" stroke="url(#paint26_linear_2609_286)" stroke-miterlimit="10"/>
</g>
<path fill-rule="evenodd" clip-rule="evenodd" d="M75.6139 91.9496V89.1496C75.6139 89.1496 75.6139 89.0496 75.5139 89.0496C75.3139 89.0496 75.2139 89.0496 75.2139 89.0496C75.1139 89.0496 75.0139 89.1496 75.0139 89.2496C75.0139 89.2496 74.8139 89.4496 74.5139 89.3496C74.2139 89.1496 73.1139 88.8496 72.4139 88.8496C72.0139 88.8496 68.2139 89.0496 67.9139 93.2496C67.9139 93.2496 67.6139 97.6496 72.2139 98.0496C72.2139 98.0496 73.0139 98.1496 74.2139 97.5496C75.4139 97.0496 75.6139 96.8496 75.6139 96.8496V95.0496C75.6139 95.0496 75.8139 94.5496 76.3139 94.4496V94.0496L73.4139 93.9496V94.4496C73.4139 94.4496 74.1139 94.5496 74.1139 94.9496C74.1139 95.3496 74.4139 96.0496 73.4139 96.8496C72.4139 97.6496 69.8139 97.1496 69.8139 94.9496C69.8139 92.7496 69.3139 89.6496 72.5139 89.6496C72.5139 89.6496 74.9139 89.5496 74.9139 91.8496C74.9139 91.8496 75.0139 92.0496 75.1139 92.0496C75.4139 92.0496 75.6139 92.0496 75.6139 91.9496Z" fill="url(#paint27_linear_2609_286)" stroke="url(#paint28_linear_2609_286)" stroke-width="0.7" stroke-miterlimit="10"/>
<path fill-rule="evenodd" clip-rule="evenodd" d="M61.2139 90.6494L72.3139 101.749L83.4139 90.6494L85.5139 92.7494L72.3139 106.049L59.1139 92.8494L61.2139 90.6494Z" fill="url(#paint29_linear_2609_286)"/>
<path d="M60.1139 93.8494L60.8139 93.1494Z" fill="url(#paint30_linear_2609_286)"/>
<path d="M61.3139 94.9502L62.3139 93.9502Z" fill="url(#paint31_linear_2609_286)"/>
<path d="M62.3139 96.0496L63.0139 95.3496Z" fill="url(#paint32_linear_2609_286)"/>
<path d="M64.6139 98.3494L65.3139 97.6494Z" fill="url(#paint33_linear_2609_286)"/>
<path d="M66.8139 100.55L67.5139 99.8496Z" fill="url(#paint34_linear_2609_286)"/>
<path d="M69.0139 102.75L69.7139 102.05Z" fill="url(#paint35_linear_2609_286)"/>
<path d="M71.2139 104.95L71.9139 104.25Z" fill="url(#paint36_linear_2609_286)"/>
<path d="M73.4139 105.05L72.7139 104.35Z" fill="url(#paint37_linear_2609_286)"/>
<path d="M75.6139 102.75L74.9139 102.05Z" fill="url(#paint38_linear_2609_286)"/>
<path d="M77.9139 100.55L77.2139 99.8496Z" fill="url(#paint39_linear_2609_286)"/>
<path d="M80.1139 98.3494L79.4139 97.6494Z" fill="url(#paint40_linear_2609_286)"/>
<path d="M82.3139 96.0496L81.6139 95.3496Z" fill="url(#paint41_linear_2609_286)"/>
<path d="M84.5139 93.85L83.9139 93.25Z" fill="url(#paint42_linear_2609_286)"/>
<path d="M65.7139 99.4502L66.7139 98.4502Z" fill="url(#paint43_linear_2609_286)"/>
<path d="M67.9139 101.649L68.9139 100.649Z" fill="url(#paint44_linear_2609_286)"/>
<path d="M70.1139 103.85L71.1139 102.85Z" fill="url(#paint45_linear_2609_286)"/>
<path d="M74.5139 103.85L73.5139 102.85Z" fill="url(#paint46_linear_2609_286)"/>
<path d="M76.7139 101.649L75.7139 100.649Z" fill="url(#paint47_linear_2609_286)"/>
<path d="M78.9139 99.3496L77.9139 98.3496Z" fill="url(#paint48_linear_2609_286)"/>
<path fill-rule="evenodd" clip-rule="evenodd" d="M74.1139 80.75L83.2139 99.75C83.2139 99.75 82.5139 98.75 81.8139 98.65L77.4139 89.55C77.4139 89.55 76.3139 87.15 75.0139 87.25L71.9139 81.95L73.2139 81.55L74.1139 80.75Z" fill="url(#paint49_linear_2609_286)"/>
<path fill-rule="evenodd" clip-rule="evenodd" d="M70.7139 80.75L61.6139 99.75C61.6139 99.75 62.3139 98.75 63.0139 98.65L67.4139 89.55C67.4139 89.55 68.5139 87.15 69.8139 87.25L72.9139 81.95L71.5139 81.55L70.7139 80.75Z" fill="url(#paint50_linear_2609_286)"/>
<path d="M83.4139 94.9502L82.4139 93.9502Z" fill="url(#paint51_linear_2609_286)"/>
<path d="M72.3139 78.0498C71.1139 78.0498 70.2139 78.9498 70.2139 80.1498C70.2139 81.3498 71.1139 82.2498 72.3139 82.2498C73.5139 82.2498 74.4139 81.3498 74.4139 80.1498C74.4139 79.0498 73.5139 78.0498 72.3139 78.0498ZM72.3139 78.8498C73.1139 78.8498 73.7139 79.4498 73.7139 80.2498C73.7139 81.0498 73.1139 81.6498 72.3139 81.6498C71.5139 81.6498 70.9139 81.0498 70.9139 80.2498C70.9139 79.4498 71.6139 78.8498 72.3139 78.8498Z" fill="url(#paint52_linear_2609_286)"/>
<path d="M70.6748 99.5312C70.5748 100.331 71.3747 123.131 71.3747 123.131L105.475 123.431C105.475 123.431 105.275 99.8313 105.175 99.8313C105.175 100.031 70.6748 99.5312 70.6748 99.5312Z" fill="url(#paint53_linear_2609_286)"/>
<path d="M105.175 99.9316C105.575 100.232 105.875 100.832 105.875 101.032C105.175 108.632 105.375 115.532 105.375 122.432C105.375 122.532 105.375 123.332 105.375 123.432C105.375 123.532 101.775 123.432 100.575 123.432V123.332C100.575 121.832 100.475 120.432 100.575 119.032C100.675 117.832 100.375 116.332 102.175 115.532C103.575 114.932 103.375 113.732 103.075 112.332C103.275 112.132 103.275 101.832 105.175 99.9316Z" fill="url(#paint54_linear_2609_286)"/>
<path d="M75.9747 105.131C75.5747 107.231 75.5747 109.431 75.8747 111.631C75.9747 112.431 76.1747 113.231 76.4747 114.131C77.1747 116.031 78.3747 117.631 79.9747 119.031C81.4747 120.531 83.2747 121.631 84.9747 122.831C80.0747 119.131 76.9747 113.231 77.3747 107.431C77.4747 106.331 77.6747 105.131 77.8747 104.031C78.0747 103.031 78.3748 102.031 78.6748 101.131C78.7748 100.931 79.2748 99.9314 79.1748 99.7314C78.9748 99.4314 78.4747 100.231 78.3747 100.231C77.0747 101.731 76.3747 103.431 75.9747 105.131Z" fill="url(#paint55_linear_2609_286)"/>
<path d="M92.8747 121.532C92.8747 121.632 92.8747 121.632 92.8747 121.732C92.9747 121.932 93.2748 122.032 93.5748 122.032C93.6748 122.032 93.6747 122.032 93.7747 122.032C93.7747 122.032 93.7747 122.032 93.7747 121.932C93.9747 120.732 94.0748 119.432 94.0748 118.132C94.0748 118.032 94.0747 117.832 93.9747 117.832C93.7747 117.632 93.4747 117.732 93.2747 117.932C93.0747 118.132 93.1748 118.732 93.0748 118.932C92.9748 119.832 92.8747 120.632 92.8747 121.532Z" fill="url(#paint56_linear_2609_286)"/>
<path d="M95.2747 121.831C95.2747 121.931 95.2747 122.031 95.3747 122.031H95.4747C95.7747 122.031 95.9747 122.031 96.2747 122.031H96.3747C96.3747 122.031 96.4747 121.931 96.4747 121.831C96.5747 120.531 96.6748 119.231 96.6748 117.931C96.6748 117.831 96.6748 117.731 96.5748 117.631H96.4747C96.1747 117.631 95.9748 117.531 95.6748 117.531C95.8748 117.731 95.6748 118.131 95.6748 118.331C95.5748 118.731 95.5748 119.131 95.5748 119.531C95.2748 120.331 95.2747 121.131 95.2747 121.831Z" fill="url(#paint57_linear_2609_286)"/>
<path d="M98.2748 118.531C98.2748 119.031 98.2748 119.531 98.1748 120.031C98.0748 120.631 97.8747 121.231 97.9747 121.831C97.9747 121.931 97.9748 121.931 98.0748 122.031C98.1748 122.231 98.4748 122.131 98.6748 122.131C98.6748 122.131 98.7748 122.131 98.7748 122.031V121.931C98.5748 120.631 98.7747 119.231 98.8747 117.831C98.8747 117.631 98.6747 117.131 98.4747 117.431C98.1747 117.731 98.2748 118.331 98.2748 118.531Z" fill="url(#paint58_linear_2609_286)"/>
<path d="M85.1748 119.131L85.6748 117.531C84.0748 116.931 82.9748 116.131 82.2748 115.031C81.6748 113.931 81.5747 112.631 81.9747 111.231L85.4747 112.331C85.2747 113.031 85.2747 113.631 85.3747 114.031C85.4747 114.431 85.8747 114.731 86.3747 114.931L87.3747 111.831C85.7747 110.931 84.6748 109.931 84.1748 109.031C83.5748 108.131 83.4747 107.131 83.8747 106.031C84.2747 104.831 85.0748 103.931 86.1748 103.531C87.3748 103.031 88.6748 103.131 90.2748 103.531L90.6748 102.331L92.1748 102.831L91.7748 104.031C93.2748 104.531 94.2747 105.331 94.8747 106.331C95.4747 107.331 95.5748 108.531 95.1748 109.831L91.8747 108.731C91.9747 108.131 91.9747 107.731 91.8747 107.331C91.6747 106.931 91.3747 106.731 90.9747 106.531L90.0748 109.431C91.7748 110.431 92.8747 111.431 93.4747 112.331C93.9747 113.231 94.0748 114.331 93.7748 115.431C93.3748 116.731 92.5747 117.631 91.4747 118.131C90.3747 118.531 88.9748 118.531 87.1748 118.131L86.6748 119.731L85.1748 119.131ZM88.7748 108.431L89.5748 105.831H89.4747C88.8747 105.631 88.4748 105.631 88.1748 105.731C87.8748 105.831 87.5747 106.131 87.4747 106.531C87.3747 106.831 87.3748 107.131 87.5748 107.431C87.7748 107.831 88.1748 108.131 88.7748 108.431ZM87.8747 115.331C88.4747 115.531 88.9747 115.531 89.3747 115.431C89.7747 115.331 89.9748 115.031 90.1748 114.631C90.2748 114.231 90.2748 113.931 90.0748 113.631C89.8748 113.331 89.4748 112.931 88.7748 112.531L87.8747 115.331Z" fill="url(#paint59_linear_2609_286)"/>
<path d="M83.9747 118.131L84.4747 116.531C82.8747 115.931 81.7748 115.131 81.0748 114.031C80.4748 112.931 80.3748 111.631 80.7748 110.231L84.2748 111.331C84.0748 112.031 84.0748 112.631 84.1748 113.031C84.2748 113.431 84.6748 113.731 85.1748 113.931L86.1748 110.831C84.5748 109.931 83.4747 108.931 82.9747 108.031C82.3747 107.131 82.2748 106.131 82.6748 105.031C83.0748 103.831 83.8747 102.931 84.9747 102.531C86.1747 102.031 87.4748 102.131 89.0748 102.531L89.4747 101.331L90.9747 101.831L90.5748 103.031C92.0748 103.531 93.0748 104.331 93.6748 105.331C94.2748 106.331 94.3747 107.531 93.9747 108.831L90.6748 107.731C90.7748 107.131 90.7748 106.731 90.6748 106.331C90.4748 105.931 90.1748 105.731 89.7748 105.531L88.8747 108.431C90.5747 109.431 91.6748 110.431 92.2748 111.331C92.7748 112.231 92.8748 113.331 92.5748 114.431C92.1748 115.731 91.3748 116.631 90.2748 117.131C89.1748 117.531 87.7747 117.531 85.9747 117.131L85.4747 118.731L83.9747 118.131ZM87.6748 107.431L88.4747 104.831H88.3747C87.7747 104.631 87.3748 104.631 87.0748 104.731C86.7748 104.831 86.4747 105.131 86.3747 105.531C86.2747 105.831 86.2747 106.131 86.4747 106.431C86.6747 106.731 87.0748 107.131 87.6748 107.431ZM86.6748 114.331C87.2748 114.531 87.7748 114.531 88.1748 114.431C88.5748 114.331 88.7747 114.031 88.9747 113.631C89.0747 113.231 89.0747 112.931 88.8747 112.631C88.6747 112.331 88.2748 111.931 87.5748 111.531L86.6748 114.331Z" fill="#F6FBEB"/>
<path d="M42.8747 104.132C42.2747 103.932 41.4747 104.132 40.8747 103.832C40.1747 102.732 39.3748 101.732 38.1748 101.332C37.0748 100.932 35.5748 101.232 34.9748 102.432C34.8748 100.432 33.9747 98.332 32.3747 97.232C30.7747 96.132 28.3748 96.332 27.1748 97.932C28.0748 94.032 23.6747 98.132 20.5747 95.932C17.4748 93.732 15.8748 85.332 12.6748 87.532C10.9748 88.632 9.77475 90.332 8.97475 92.232C9.97475 92.832 10.9748 93.432 11.9748 93.832C13.9748 94.732 15.5748 94.932 16.9748 96.932C18.3748 98.932 17.6748 99.932 17.8748 102.132C17.9748 102.132 15.7748 103.732 15.9748 103.832C16.4748 104.132 23.5748 106.232 24.3748 106.532C32.1748 106.532 38.0747 106.632 42.3747 106.832C42.6747 106.832 42.9748 106.832 43.1748 106.632C43.7748 106.032 43.5747 104.332 42.8747 104.132Z" fill="url(#paint60_linear_2609_286)"/>
<path d="M2.07475 101.332C2.07475 98.8316 4.27475 96.5316 6.77475 96.3316C6.47475 92.7316 8.27475 88.9316 11.3748 86.9316C14.4748 84.9316 18.8748 84.9316 21.9748 86.9316C25.0748 88.9316 26.7748 92.9316 25.8748 96.4316C27.0748 95.0316 29.4748 94.8316 31.0748 95.8316C32.6748 96.8316 33.6748 98.7316 33.6748 100.632C34.1748 99.5316 35.6747 99.2316 36.8747 99.6316C37.9747 100.032 38.8747 101.032 39.5747 101.932C40.1747 102.132 40.8747 102.032 41.5747 102.132C42.2747 102.232 42.7747 103.132 42.2747 103.632C42.0747 103.832 41.7748 103.832 41.4748 103.832C32.3748 103.432 7.67475 104.132 0.874751 103.232C-0.125249 103.132 -0.325249 101.732 0.574751 101.332C1.27475 101.132 2.07475 101.032 2.07475 101.332Z" fill="#F6FBEB"/>
<mask id="mask7_2609_286" style="mask-type:luminance" maskUnits="userSpaceOnUse" x="0" y="85" width="43" height="19">
<path d="M2.07475 101.332C2.07475 98.8316 4.27475 96.5316 6.77475 96.3316C6.47475 92.7316 8.27475 88.9316 11.3748 86.9316C14.4748 84.9316 18.8748 84.9316 21.9748 86.9316C25.0748 88.9316 26.7748 92.9316 25.8748 96.4316C27.0748 95.0316 29.4748 94.8316 31.0748 95.8316C32.6748 96.8316 33.6748 98.7316 33.6748 100.632C34.1748 99.5316 35.6747 99.2316 36.8747 99.6316C37.9747 100.032 38.8747 101.032 39.5747 101.932C40.1747 102.132 40.8747 102.032 41.5747 102.132C42.2747 102.232 42.7747 103.132 42.2747 103.632C42.0747 103.832 41.7748 103.832 41.4748 103.832C32.3748 103.432 7.67475 104.132 0.874751 103.232C-0.125249 103.132 -0.325249 101.732 0.574751 101.332C1.27475 101.132 2.07475 101.032 2.07475 101.332Z" fill="white"/>
</mask>
<g mask="url(#mask7_2609_286)">
<path d="M19.0747 86.0316C20.1747 88.0316 20.1748 90.6316 18.8748 92.3316C20.5748 92.2316 21.9748 94.0316 21.8748 95.7316C21.7748 97.4316 20.3748 98.8316 18.8748 99.5316C18.9748 101.132 17.8747 102.632 16.5747 103.432C15.1747 104.232 13.5748 104.432 11.9748 104.332C13.9748 106.632 16.0748 109.132 18.8748 110.232C21.3748 111.232 24.2748 111.232 26.9748 111.132C31.8748 110.932 36.8747 110.732 41.3747 108.732C43.9747 107.632 46.4747 105.432 46.5747 102.632C46.5747 100.432 45.0748 98.4316 43.4748 96.9316C39.4748 92.9316 34.7748 89.7316 29.6748 87.3316C26.8748 86.0316 23.9748 85.0316 20.9748 84.0316C18.9748 83.3316 16.9748 82.5316 14.8748 81.9316C15.6748 83.2316 19.0747 84.2316 19.0747 86.0316Z" fill="#D6E1E4"/>
</g>
<path d="M8.87475 10.3312C7.47475 14.1312 7.37475 18.4312 8.87475 22.2312C9.27475 23.2312 9.77475 24.2312 10.3747 25.0312C12.2747 27.5312 15.1747 29.0312 18.0747 30.0312C21.5747 31.2312 25.2748 31.9312 28.9748 32.0312C29.3748 32.0312 29.7747 32.0312 30.0747 31.8312C30.3747 31.6312 30.6747 31.4312 30.8747 31.1312C34.4747 27.0312 38.1747 22.8312 41.7747 18.7312C42.4747 17.9312 43.1747 17.1312 43.3747 16.0312C43.5747 14.5312 42.5747 13.2312 41.5747 12.1312C37.5747 7.7312 32.5747 4.2312 27.0747 1.9312C23.9747 0.631199 20.5747 -0.368801 17.2747 0.131199C14.8747 0.431199 12.5747 3.7312 11.2747 5.6312C10.2747 7.1312 9.47475 8.6312 8.87475 10.3312Z" fill="url(#paint61_linear_2609_286)"/>
<mask id="mask8_2609_286" style="mask-type:luminance" maskUnits="userSpaceOnUse" x="7" y="0" width="37" height="33">
<path d="M8.87475 10.3312C7.47475 14.1312 7.37475 18.4312 8.87475 22.2312C9.27475 23.2312 9.77475 24.2312 10.3747 25.0312C12.2747 27.5312 15.1747 29.0312 18.0747 30.0312C21.5747 31.2312 25.2748 31.9312 28.9748 32.0312C29.3748 32.0312 29.7747 32.0312 30.0747 31.8312C30.3747 31.6312 30.6747 31.4312 30.8747 31.1312C34.4747 27.0312 38.1747 22.8312 41.7747 18.7312C42.4747 17.9312 43.1747 17.1312 43.3747 16.0312C43.5747 14.5312 42.5747 13.2312 41.5747 12.1312C37.5747 7.7312 32.5747 4.2312 27.0747 1.9312C23.9747 0.631199 20.5747 -0.368801 17.2747 0.131199C14.8747 0.431199 12.5747 3.7312 11.2747 5.6312C10.2747 7.1312 9.47475 8.6312 8.87475 10.3312Z" fill="white"/>
</mask>
<g mask="url(#mask8_2609_286)">
<path d="M18.0747 30.1309C20.3747 30.6309 27.2747 32.5309 29.7747 31.0309C30.4747 30.6309 33.4747 26.7309 34.3747 25.6309C36.2747 23.3309 38.1748 20.9309 39.9748 18.6309C40.9748 17.3309 41.9748 16.1309 42.4748 14.5309C42.8748 13.3309 42.8747 11.9309 42.7747 10.6309C43.2747 11.2309 43.6747 11.9309 44.0747 12.6309C44.5747 13.5309 44.9748 14.4309 45.1748 15.4309C45.2748 16.3309 45.1748 17.2309 44.9748 18.1309C44.3748 20.1309 43.3748 21.9309 42.1748 23.6309C40.6748 25.7309 39.0747 27.8309 37.2747 29.6309C36.2747 30.6309 35.0747 31.6309 33.7747 32.1309C32.4747 32.6309 31.0747 32.7309 29.7747 32.6309C28.0747 32.5309 26.4747 32.2309 24.7747 31.9309C24.0747 31.8309 23.3747 31.6309 22.6747 31.5309" fill="#3BA025"/>
</g>
<path d="M24.2747 25.8314C29.411 25.8314 33.5747 21.6677 33.5747 16.5314C33.5747 11.3952 29.411 7.23145 24.2747 7.23145C19.1385 7.23145 14.9747 11.3952 14.9747 16.5314C14.9747 21.6677 19.1385 25.8314 24.2747 25.8314Z" fill="#67C236"/>
<path d="M21.4747 23.7309C26.611 23.7309 30.7747 19.5671 30.7747 14.4309C30.7747 9.29461 26.611 5.13086 21.4747 5.13086C16.3385 5.13086 12.1747 9.29461 12.1747 14.4309C12.1747 19.5671 16.3385 23.7309 21.4747 23.7309Z" fill="#1D5D1C"/>
<path d="M21.4747 23.3314C26.611 23.3314 30.7747 19.1677 30.7747 14.0314C30.7747 8.8952 26.611 4.73145 21.4747 4.73145C16.3385 4.73145 12.1747 8.8952 12.1747 14.0314C12.1747 19.1677 16.3385 23.3314 21.4747 23.3314Z" fill="#278115"/>
<path d="M21.4747 22.4311C26.611 22.4311 30.7747 18.2673 30.7747 13.1311C30.7747 7.99481 26.611 3.83105 21.4747 3.83105C16.3385 3.83105 12.1747 7.99481 12.1747 13.1311C12.1747 18.2673 16.3385 22.4311 21.4747 22.4311Z" fill="url(#paint62_linear_2609_286)"/>
<path d="M23.6747 19.3314L23.1747 18.2314C22.0747 18.7314 21.0747 18.9314 20.2747 18.6314C19.3747 18.4314 18.7747 17.8314 18.2747 16.9314L20.5747 15.7314C20.8747 16.2314 21.0747 16.5314 21.3747 16.6314C21.6747 16.7314 21.9747 16.7314 22.2747 16.5314L21.1747 14.5314C19.8747 14.8314 18.8747 14.9314 18.1747 14.7314C17.4747 14.5314 16.8747 14.1314 16.4747 13.4314C16.0747 12.6314 16.0747 11.8314 16.3747 11.0314C16.7747 10.2314 17.3747 9.53145 18.3747 9.03145L17.9747 8.23145L18.9747 7.73145L19.3747 8.53145C20.3747 8.03145 21.2747 7.93145 22.0747 8.13145C22.8747 8.33145 23.4747 8.83145 23.9747 9.73145L21.7747 10.8314C21.5747 10.4314 21.3747 10.2314 21.0747 10.1314C20.7747 10.0314 20.4747 10.0314 20.1747 10.2314L21.1747 12.1314C22.5747 11.8314 23.5747 11.7314 24.2747 11.9314C24.9747 12.1314 25.5747 12.6314 25.9747 13.3314C26.4747 14.2314 26.4747 15.0314 26.1747 15.8314C25.8747 16.6314 25.1747 17.3314 23.9747 17.9314L24.4747 19.0314L23.6747 19.3314ZM20.1747 12.2314L19.3747 10.5314C18.9747 10.7314 18.7747 10.9314 18.6747 11.1314C18.5747 11.3314 18.5747 11.6314 18.7747 11.9314C18.8747 12.1314 19.0747 12.2314 19.2747 12.3314C19.3747 12.3314 19.7747 12.3314 20.1747 12.2314ZM23.1747 16.0314C23.5747 15.8314 23.8747 15.6314 23.9747 15.3314C24.0747 15.1314 24.0747 14.8314 23.9747 14.5314C23.8747 14.3314 23.6747 14.1314 23.3747 14.1314C23.1747 14.0314 22.7747 14.1314 22.1747 14.2314L23.1747 16.0314Z" fill="#337C60"/>
<path d="M23.9748 18.6312L23.4748 17.5313C22.3748 18.0313 21.3748 18.2313 20.5748 17.9313C19.6748 17.7313 19.0748 17.1312 18.5748 16.2312L20.8748 15.0313C21.1748 15.5313 21.3748 15.8313 21.6748 15.9313C21.9748 16.0313 22.2748 16.0313 22.5748 15.8313L21.4748 13.7312C20.1748 14.0312 19.1748 14.1313 18.4748 13.9313C17.7748 13.7313 17.1748 13.3313 16.7748 12.6313C16.3748 11.8313 16.3748 11.0312 16.6748 10.2312C17.0748 9.43125 17.6748 8.73125 18.6748 8.23125L18.3748 7.53125L19.3748 7.03125L19.7748 7.83125C20.7748 7.33125 21.6748 7.23125 22.4748 7.43125C23.2748 7.63125 23.8748 8.13125 24.3748 9.03125L22.1748 10.1313C21.9748 9.73125 21.7748 9.53125 21.4748 9.43125C21.1748 9.33125 20.8748 9.33125 20.5748 9.53125L21.5748 11.4313C22.9748 11.1313 23.9748 11.0312 24.6748 11.2312C25.3748 11.4312 25.9748 11.9313 26.3748 12.6313C26.8748 13.5313 26.8747 14.3312 26.5747 15.1312C26.2747 15.9312 25.5748 16.6312 24.3748 17.2312L24.8748 18.3313L23.9748 18.6312ZM20.4748 11.5312L19.5748 9.83125C19.1748 10.0313 18.9748 10.2313 18.8748 10.4313C18.7748 10.6313 18.7748 10.9312 18.9748 11.2312C19.0748 11.4312 19.2748 11.5313 19.4748 11.6313C19.6748 11.7313 20.0748 11.6313 20.4748 11.5312ZM23.4748 15.4313C23.8748 15.2313 24.1748 15.0312 24.2748 14.7312C24.3748 14.5312 24.3748 14.2313 24.2748 13.9313C24.1748 13.7313 23.9748 13.5312 23.6748 13.5312C23.4748 13.4312 23.0748 13.5313 22.4748 13.6313L23.4748 15.4313Z" fill="#F6FBEB"/>
<defs>
<filter id="filter0_di_2609_286" x="162.768" y="19.3438" width="35.3715" height="64.8965" filterUnits="userSpaceOnUse" color-interpolation-filters="sRGB">
<feFlood flood-opacity="0" result="BackgroundImageFix"/>
<feColorMatrix in="SourceAlpha" type="matrix" values="0 0 0 0 0 0 0 0 0 0 0 0 0 0 0 0 0 0 127 0" result="hardAlpha"/>
<feOffset dy="4"/>
<feGaussianBlur stdDeviation="2"/>
<feComposite in2="hardAlpha" operator="out"/>
<feColorMatrix type="matrix" values="0 0 0 0 0 0 0 0 0 0 0 0 0 0 0 0 0 0 0.25 0"/>
<feBlend mode="normal" in2="BackgroundImageFix" result="effect1_dropShadow_2609_286"/>
<feBlend mode="normal" in="SourceGraphic" in2="effect1_dropShadow_2609_286" result="shape"/>
<feColorMatrix in="SourceAlpha" type="matrix" values="0 0 0 0 0 0 0 0 0 0 0 0 0 0 0 0 0 0 127 0" result="hardAlpha"/>
<feOffset dy="4"/>
<feGaussianBlur stdDeviation="2"/>
<feComposite in2="hardAlpha" operator="arithmetic" k2="-1" k3="1"/>
<feColorMatrix type="matrix" values="0 0 0 0 0 0 0 0 0 0 0 0 0 0 0 0 0 0 0.04 0"/>
<feBlend mode="normal" in2="shape" result="effect2_innerShadow_2609_286"/>
</filter>
<filter id="filter1_di_2609_286" x="120.999" y="20" width="46.9525" height="53.415" filterUnits="userSpaceOnUse" color-interpolation-filters="sRGB">
<feFlood flood-opacity="0" result="BackgroundImageFix"/>
<feColorMatrix in="SourceAlpha" type="matrix" values="0 0 0 0 0 0 0 0 0 0 0 0 0 0 0 0 0 0 127 0" result="hardAlpha"/>
<feOffset dy="4"/>
<feGaussianBlur stdDeviation="2"/>
<feComposite in2="hardAlpha" operator="out"/>
<feColorMatrix type="matrix" values="0 0 0 0 0 0 0 0 0 0 0 0 0 0 0 0 0 0 0.25 0"/>
<feBlend mode="normal" in2="BackgroundImageFix" result="effect1_dropShadow_2609_286"/>
<feBlend mode="normal" in="SourceGraphic" in2="effect1_dropShadow_2609_286" result="shape"/>
<feColorMatrix in="SourceAlpha" type="matrix" values="0 0 0 0 0 0 0 0 0 0 0 0 0 0 0 0 0 0 127 0" result="hardAlpha"/>
<feOffset dx="13" dy="4"/>
<feGaussianBlur stdDeviation="2"/>
<feComposite in2="hardAlpha" operator="arithmetic" k2="-1" k3="1"/>
<feColorMatrix type="matrix" values="0 0 0 0 0.126036 0 0 0 0 0.0543056 0 0 0 0 0.566667 0 0 0 0.44 0"/>
<feBlend mode="normal" in2="shape" result="effect2_innerShadow_2609_286"/>
</filter>
<filter id="filter2_f_2609_286" x="63.4099" y="84.3496" width="17.404" height="18.2061" filterUnits="userSpaceOnUse" color-interpolation-filters="sRGB">
<feFlood flood-opacity="0" result="BackgroundImageFix"/>
<feBlend mode="normal" in="SourceGraphic" in2="BackgroundImageFix" result="shape"/>
<feGaussianBlur stdDeviation="2" result="effect1_foregroundBlur_2609_286"/>
</filter>
<linearGradient id="paint0_linear_2609_286" x1="8.79495" y1="45.176" x2="17.3921" y2="28.982" gradientUnits="userSpaceOnUse">
<stop offset="0.1509" stop-color="#67C43B"/>
<stop offset="0.6392" stop-color="#8DDB3A"/>
</linearGradient>
<linearGradient id="paint1_linear_2609_286" x1="54.513" y1="19.9618" x2="66.1695" y2="208.341" gradientUnits="userSpaceOnUse">
<stop offset="0.1033" stop-color="#37C394"/>
<stop offset="0.4432" stop-color="#2BA579"/>
<stop offset="0.6641" stop-color="#158460"/>
<stop offset="0.8852" stop-color="#158460"/>
</linearGradient>
<linearGradient id="paint2_linear_2609_286" x1="52.7981" y1="35.8202" x2="11.1609" y2="13.0264" gradientUnits="userSpaceOnUse">
<stop offset="0.2385" stop-color="#37C394" stop-opacity="0"/>
<stop offset="0.4105" stop-color="#2BA579"/>
<stop offset="0.652" stop-color="#158460"/>
<stop offset="0.9183" stop-color="#158460"/>
</linearGradient>
<linearGradient id="paint3_linear_2609_286" x1="13.5042" y1="55.4154" x2="18.265" y2="55.4154" gradientUnits="userSpaceOnUse">
<stop offset="0.1509" stop-color="#2BA579" stop-opacity="0.6"/>
<stop offset="0.6392" stop-color="#158460"/>
</linearGradient>
<linearGradient id="paint4_linear_2609_286" x1="65.765" y1="13.7397" x2="77.5426" y2="13.1867" gradientUnits="userSpaceOnUse">
<stop offset="0.1033" stop-color="#37C394"/>
<stop offset="0.4432" stop-color="#2BA579"/>
<stop offset="0.6641" stop-color="#158460"/>
<stop offset="0.7753" stop-color="#158460"/>
<stop offset="0.8852" stop-color="#158460"/>
</linearGradient>
<linearGradient id="paint5_linear_2609_286" x1="21.3387" y1="76.0903" x2="24.2374" y2="64.693" gradientUnits="userSpaceOnUse">
<stop offset="0.1509" stop-color="#2BA579" stop-opacity="0.6"/>
<stop offset="0.6392" stop-color="#158460"/>
</linearGradient>
<linearGradient id="paint6_linear_2609_286" x1="48.9796" y1="67.0937" x2="51.2441" y2="33.5879" gradientUnits="userSpaceOnUse">
<stop offset="0.1033" stop-color="#37C394" stop-opacity="0"/>
<stop offset="0.2405" stop-color="#2BA579"/>
<stop offset="0.4263" stop-color="#158460"/>
<stop offset="0.7194" stop-color="#158460"/>
</linearGradient>
<linearGradient id="paint7_linear_2609_286" x1="94.8541" y1="72.6734" x2="97.2863" y2="43.0472" gradientUnits="userSpaceOnUse">
<stop offset="0.0214191" stop-color="#37C394"/>
<stop offset="0.3904" stop-color="#158460"/>
</linearGradient>
<linearGradient id="paint8_linear_2609_286" x1="60.8661" y1="29.3822" x2="65.1593" y2="-31.2736" gradientUnits="userSpaceOnUse">
<stop offset="0.1033" stop-color="#37C394"/>
<stop offset="0.1638" stop-color="#2BA579"/>
<stop offset="0.3168" stop-color="#158460"/>
<stop offset="0.4957" stop-color="#158460"/>
<stop offset="0.9134" stop-color="#158460"/>
</linearGradient>
<linearGradient id="paint9_linear_2609_286" x1="82.1266" y1="57.247" x2="86.402" y2="4.78526" gradientUnits="userSpaceOnUse">
<stop offset="0.1033" stop-color="#37C394"/>
<stop offset="0.2405" stop-color="#2BA579"/>
<stop offset="0.4263" stop-color="#158460"/>
<stop offset="0.7194" stop-color="#158460"/>
</linearGradient>
<linearGradient id="paint10_linear_2609_286" x1="42.0296" y1="90.8018" x2="39.7335" y2="52.3427" gradientUnits="userSpaceOnUse">
<stop offset="0.3161" stop-color="#31871D"/>
<stop offset="0.4183" stop-color="#3BA025"/>
<stop offset="0.8231" stop-color="#399A23"/>
</linearGradient>
<linearGradient id="paint11_linear_2609_286" x1="37.3463" y1="86.0112" x2="55.7703" y2="62.3141" gradientUnits="userSpaceOnUse">
<stop offset="0.1509" stop-color="#67C236"/>
<stop offset="0.8135" stop-color="#95DB48"/>
</linearGradient>
<linearGradient id="paint12_linear_2609_286" x1="33.3328" y1="89.1525" x2="38.5631" y2="67.317" gradientUnits="userSpaceOnUse">
<stop offset="0.1509" stop-color="#67C236"/>
<stop offset="0.6392" stop-color="#95DB48"/>
</linearGradient>
<linearGradient id="paint13_linear_2609_286" x1="42.6847" y1="90.3311" x2="38.4447" y2="67.5811" gradientUnits="userSpaceOnUse">
<stop offset="0.37" stop-color="#31871D"/>
<stop offset="0.89" stop-color="#4CC12F"/>
</linearGradient>
<linearGradient id="paint14_linear_2609_286" x1="28.5042" y1="96.0572" x2="26.2345" y2="79.3397" gradientUnits="userSpaceOnUse">
<stop offset="0.3693" stop-color="#31871D"/>
<stop offset="0.886" stop-color="#4CC12F"/>
</linearGradient>
<linearGradient id="paint15_linear_2609_286" x1="51.244" y1="69.9614" x2="66.3116" y2="102.57" gradientUnits="userSpaceOnUse">
<stop offset="0.0863671" stop-color="#80D139"/>
<stop offset="0.4649" stop-color="#95DB48"/>
</linearGradient>
<linearGradient id="paint16_linear_2609_286" x1="41.2729" y1="99.0001" x2="84.4372" y2="122.965" gradientUnits="userSpaceOnUse">
<stop offset="0.1509" stop-color="#3BA025"/>
<stop offset="0.7524" stop-color="#86D643"/>
</linearGradient>
<linearGradient id="paint17_linear_2609_286" x1="91.2035" y1="89.5722" x2="77.9191" y2="57.1359" gradientUnits="userSpaceOnUse">
<stop offset="0.1509" stop-color="#3BA025"/>
<stop offset="0.6392" stop-color="#50BC35"/>
</linearGradient>
<linearGradient id="paint18_linear_2609_286" x1="87.3619" y1="90.8227" x2="82.249" y2="132.769" gradientUnits="userSpaceOnUse">
<stop offset="0.1509" stop-color="#1D5D1C"/>
<stop offset="0.6392" stop-color="#3BA025"/>
</linearGradient>
<linearGradient id="paint19_linear_2609_286" x1="69.7204" y1="118.869" x2="78.6919" y2="118.869" gradientUnits="userSpaceOnUse">
<stop offset="0.1509" stop-color="#1D5D1C"/>
<stop offset="0.6392" stop-color="#3BA025"/>
</linearGradient>
<linearGradient id="paint20_linear_2609_286" x1="60.9945" y1="108.06" x2="69.8983" y2="-17.7353" gradientUnits="userSpaceOnUse">
<stop offset="0.1509" stop-color="#1D5D1C"/>
<stop offset="0.6392" stop-color="#3BA025"/>
</linearGradient>
<linearGradient id="paint21_linear_2609_286" x1="81.2182" y1="100.748" x2="83.8943" y2="62.9401" gradientUnits="userSpaceOnUse">
<stop offset="0.2838" stop-color="#2A8215"/>
<stop offset="0.5639" stop-color="#3C911D"/>
</linearGradient>
<linearGradient id="paint22_linear_2609_286" x1="60.5189" y1="124.846" x2="63.2371" y2="86.4428" gradientUnits="userSpaceOnUse">
<stop offset="0.2838" stop-color="#3BA025"/>
<stop offset="0.5639" stop-color="#2F7F14"/>
</linearGradient>
<linearGradient id="paint23_linear_2609_286" x1="80.3032" y1="129.547" x2="83.8731" y2="79.111" gradientUnits="userSpaceOnUse">
<stop offset="0.1509" stop-color="#3BA025"/>
<stop offset="0.6392" stop-color="#50BC35"/>
</linearGradient>
<linearGradient id="paint24_linear_2609_286" x1="60.7658" y1="106.379" x2="92.228" y2="70.4816" gradientUnits="userSpaceOnUse">
<stop offset="0.1033" stop-color="#37C394"/>
<stop offset="0.4432" stop-color="#2BA579"/>
<stop offset="0.6641" stop-color="#158460"/>
<stop offset="0.8852" stop-color="#158460"/>
</linearGradient>
<linearGradient id="paint25_linear_2609_286" x1="67.9711" y1="93.3664" x2="76.493" y2="93.3664" gradientUnits="userSpaceOnUse">
<stop offset="0.1788" stop-color="#F9B233"/>
<stop offset="0.6392" stop-color="#FFD600"/>
</linearGradient>
<linearGradient id="paint26_linear_2609_286" x1="67.4711" y1="93.3664" x2="76.993" y2="93.3664" gradientUnits="userSpaceOnUse">
<stop offset="0.1788" stop-color="#F9D699"/>
<stop offset="0.6392" stop-color="#FFD600"/>
</linearGradient>
<linearGradient id="paint27_linear_2609_286" x1="64.3547" y1="100.566" x2="78.3282" y2="91.8206" gradientUnits="userSpaceOnUse">
<stop offset="0.36" stop-color="#33AF22"/>
<stop offset="0.75" stop-color="#213B0F"/>
</linearGradient>
<linearGradient id="paint28_linear_2609_286" x1="64.3547" y1="100.566" x2="78.3282" y2="91.8206" gradientUnits="userSpaceOnUse">
<stop offset="0.36" stop-color="#33AF22"/>
<stop offset="0.75" stop-color="#213B0F"/>
</linearGradient>
<linearGradient id="paint29_linear_2609_286" x1="47.9455" y1="110.248" x2="73.5989" y2="80.0977" gradientUnits="userSpaceOnUse">
<stop offset="0.36" stop-color="#33AF22"/>
<stop offset="0.75" stop-color="#213B0F"/>
</linearGradient>
<linearGradient id="paint30_linear_2609_286" x1="60.1634" y1="93.5607" x2="60.8171" y2="93.5607" gradientUnits="userSpaceOnUse">
<stop offset="0.1788" stop-color="#F9B233"/>
<stop offset="0.6392" stop-color="#FFD600"/>
</linearGradient>
<linearGradient id="paint31_linear_2609_286" x1="61.2777" y1="94.4719" x2="62.3073" y2="94.4719" gradientUnits="userSpaceOnUse">
<stop offset="0.1788" stop-color="#F9B233"/>
<stop offset="0.6392" stop-color="#FFD600"/>
</linearGradient>
<linearGradient id="paint32_linear_2609_286" x1="62.3563" y1="95.7705" x2="63.01" y2="95.7705" gradientUnits="userSpaceOnUse">
<stop offset="0.1788" stop-color="#F9B233"/>
<stop offset="0.6392" stop-color="#FFD600"/>
</linearGradient>
<linearGradient id="paint33_linear_2609_286" x1="64.6115" y1="98.0255" x2="65.2652" y2="98.0255" gradientUnits="userSpaceOnUse">
<stop offset="0.1788" stop-color="#F9B233"/>
<stop offset="0.6392" stop-color="#FFD600"/>
</linearGradient>
<linearGradient id="paint34_linear_2609_286" x1="66.7884" y1="100.196" x2="67.4421" y2="100.196" gradientUnits="userSpaceOnUse">
<stop offset="0.1788" stop-color="#F9B233"/>
<stop offset="0.6392" stop-color="#FFD600"/>
</linearGradient>
<linearGradient id="paint35_linear_2609_286" x1="69.0239" y1="102.438" x2="69.6776" y2="102.438" gradientUnits="userSpaceOnUse">
<stop offset="0.1788" stop-color="#F9B233"/>
<stop offset="0.6392" stop-color="#FFD600"/>
</linearGradient>
<linearGradient id="paint36_linear_2609_286" x1="71.2631" y1="104.664" x2="71.9168" y2="104.664" gradientUnits="userSpaceOnUse">
<stop offset="0.1788" stop-color="#F9B233"/>
<stop offset="0.6392" stop-color="#FFD600"/>
</linearGradient>
<linearGradient id="paint37_linear_2609_286" x1="72.753" y1="104.687" x2="73.4067" y2="104.687" gradientUnits="userSpaceOnUse">
<stop offset="0.1788" stop-color="#F9B233"/>
<stop offset="0.6392" stop-color="#FFD600"/>
</linearGradient>
<linearGradient id="paint38_linear_2609_286" x1="74.9854" y1="102.451" x2="75.6391" y2="102.451" gradientUnits="userSpaceOnUse">
<stop offset="0.1788" stop-color="#F9B233"/>
<stop offset="0.6392" stop-color="#FFD600"/>
</linearGradient>
<linearGradient id="paint39_linear_2609_286" x1="77.2277" y1="100.216" x2="77.8814" y2="100.216" gradientUnits="userSpaceOnUse">
<stop offset="0.1788" stop-color="#F9B233"/>
<stop offset="0.6392" stop-color="#FFD600"/>
</linearGradient>
<linearGradient id="paint40_linear_2609_286" x1="79.4176" y1="97.9928" x2="80.0713" y2="97.9928" gradientUnits="userSpaceOnUse">
<stop offset="0.1788" stop-color="#F9B233"/>
<stop offset="0.6392" stop-color="#FFD600"/>
</linearGradient>
<linearGradient id="paint41_linear_2609_286" x1="81.6728" y1="95.7705" x2="82.3265" y2="95.7705" gradientUnits="userSpaceOnUse">
<stop offset="0.1788" stop-color="#F9B233"/>
<stop offset="0.6392" stop-color="#FFD600"/>
</linearGradient>
<linearGradient id="paint42_linear_2609_286" x1="83.8855" y1="93.5613" x2="84.5392" y2="93.5613" gradientUnits="userSpaceOnUse">
<stop offset="0.1788" stop-color="#F9B233"/>
<stop offset="0.6392" stop-color="#FFD600"/>
</linearGradient>
<linearGradient id="paint43_linear_2609_286" x1="65.6901" y1="98.9169" x2="66.7197" y2="98.9169" gradientUnits="userSpaceOnUse">
<stop offset="0.1788" stop-color="#F9B233"/>
<stop offset="0.6392" stop-color="#FFD600"/>
</linearGradient>
<linearGradient id="paint44_linear_2609_286" x1="67.9126" y1="101.139" x2="68.9422" y2="101.139" gradientUnits="userSpaceOnUse">
<stop offset="0.1788" stop-color="#F9B233"/>
<stop offset="0.6392" stop-color="#FFD600"/>
</linearGradient>
<linearGradient id="paint45_linear_2609_286" x1="70.1352" y1="103.361" x2="71.1647" y2="103.361" gradientUnits="userSpaceOnUse">
<stop offset="0.1788" stop-color="#F9B233"/>
<stop offset="0.6392" stop-color="#FFD600"/>
</linearGradient>
<linearGradient id="paint46_linear_2609_286" x1="73.469" y1="103.361" x2="74.4986" y2="103.361" gradientUnits="userSpaceOnUse">
<stop offset="0.1788" stop-color="#F9B233"/>
<stop offset="0.6392" stop-color="#FFD600"/>
</linearGradient>
<linearGradient id="paint47_linear_2609_286" x1="75.7242" y1="101.106" x2="76.7538" y2="101.106" gradientUnits="userSpaceOnUse">
<stop offset="0.1788" stop-color="#F9B233"/>
<stop offset="0.6392" stop-color="#FFD600"/>
</linearGradient>
<linearGradient id="paint48_linear_2609_286" x1="77.8814" y1="98.8837" x2="78.911" y2="98.8837" gradientUnits="userSpaceOnUse">
<stop offset="0.1788" stop-color="#F9B233"/>
<stop offset="0.6392" stop-color="#FFD600"/>
</linearGradient>
<linearGradient id="paint49_linear_2609_286" x1="67.1335" y1="104.93" x2="89.5541" y2="95.7885" gradientUnits="userSpaceOnUse">
<stop offset="0.36" stop-color="#33AF22"/>
<stop offset="0.75" stop-color="#213B0F"/>
</linearGradient>
<linearGradient id="paint50_linear_2609_286" x1="56.8335" y1="104.93" x2="79.2541" y2="95.7885" gradientUnits="userSpaceOnUse">
<stop offset="0.36" stop-color="#33AF22"/>
<stop offset="0.75" stop-color="#213B0F"/>
</linearGradient>
<linearGradient id="paint51_linear_2609_286" x1="82.3919" y1="94.4719" x2="83.4214" y2="94.4719" gradientUnits="userSpaceOnUse">
<stop offset="0.1788" stop-color="#F9B233"/>
<stop offset="0.6392" stop-color="#FFD600"/>
</linearGradient>
<linearGradient id="paint52_linear_2609_286" x1="68.4371" y1="83.395" x2="75.0484" y2="78.8623" gradientUnits="userSpaceOnUse">
<stop offset="0.36" stop-color="#33AF22"/>
<stop offset="0.75" stop-color="#213B0F"/>
</linearGradient>
<linearGradient id="paint53_linear_2609_286" x1="70.5933" y1="111.516" x2="105.402" y2="111.516" gradientUnits="userSpaceOnUse">
<stop offset="0.0863671" stop-color="#80D139"/>
<stop offset="0.4649" stop-color="#95DB48"/>
</linearGradient>
<linearGradient id="paint54_linear_2609_286" x1="95.0997" y1="119.011" x2="111.591" y2="107.12" gradientUnits="userSpaceOnUse">
<stop offset="0.1509" stop-color="#1D5D1C"/>
<stop offset="0.8683" stop-color="#3BA025"/>
</linearGradient>
<linearGradient id="paint55_linear_2609_286" x1="75.6519" y1="111.225" x2="84.9299" y2="111.225" gradientUnits="userSpaceOnUse">
<stop offset="0.1509" stop-color="#3BA025"/>
<stop offset="0.6392" stop-color="#50BC35"/>
</linearGradient>
<linearGradient id="paint56_linear_2609_286" x1="92.8273" y1="119.912" x2="93.9435" y2="119.912" gradientUnits="userSpaceOnUse">
<stop offset="0.2838" stop-color="#3BA025"/>
<stop offset="0.5639" stop-color="#2F7F14"/>
</linearGradient>
<linearGradient id="paint57_linear_2609_286" x1="95.1978" y1="119.816" x2="96.5422" y2="119.816" gradientUnits="userSpaceOnUse">
<stop offset="0.2838" stop-color="#3BA025"/>
<stop offset="0.5639" stop-color="#2F7F14"/>
</linearGradient>
<linearGradient id="paint58_linear_2609_286" x1="97.9332" y1="119.782" x2="98.7705" y2="119.782" gradientUnits="userSpaceOnUse">
<stop offset="0.2838" stop-color="#3BA025"/>
<stop offset="0.5639" stop-color="#2F7F14"/>
</linearGradient>
<linearGradient id="paint59_linear_2609_286" x1="81.7014" y1="111.065" x2="95.4994" y2="111.065" gradientUnits="userSpaceOnUse">
<stop offset="0.1509" stop-color="#1D5D1C"/>
<stop offset="0.6392" stop-color="#3BA025"/>
</linearGradient>
<linearGradient id="paint60_linear_2609_286" x1="23.5946" y1="119.439" x2="30.8073" y2="63.2503" gradientUnits="userSpaceOnUse">
<stop offset="0.1033" stop-color="#37C394"/>
<stop offset="0.219" stop-color="#2BA579" stop-opacity="0"/>
<stop offset="0.2942" stop-color="#158460"/>
<stop offset="0.475" stop-color="#158460"/>
<stop offset="0.9134" stop-color="#158460"/>
</linearGradient>
<linearGradient id="paint61_linear_2609_286" x1="7.75355" y1="16.05" x2="43.4269" y2="16.05" gradientUnits="userSpaceOnUse">
<stop offset="0.1509" stop-color="#86D643"/>
<stop offset="0.6392" stop-color="#8DDB3A"/>
</linearGradient>
<linearGradient id="paint62_linear_2609_286" x1="11.9889" y1="13.1655" x2="60.0345" y2="13.1655" gradientUnits="userSpaceOnUse">
<stop offset="0.1033" stop-color="#37C394"/>
<stop offset="0.4432" stop-color="#2BA579"/>
<stop offset="0.6641" stop-color="#158460"/>
<stop offset="0.8852" stop-color="#158460"/>
</linearGradient>
</defs>
</svg>
