<svg width="197" height="121" viewBox="0 0 197 121" fill="none" xmlns="http://www.w3.org/2000/svg">
<g filter="url(#filter0_di_2580_676)">
<path d="M177.144 27.584L173.688 44.16V44.288L177.144 64H171.768L169.208 46.592H169.08V64H163.768V17.344H169.08V42.88H169.208L171.768 27.584H177.144ZM182.948 27.52L184.1 47.168L184.356 54.4H184.484L184.74 47.168L185.892 27.52H191.14L185.572 74.24H180.324L181.604 64L177.188 27.52H182.948Z" fill="#FCFCFC"/>
</g>
<path d="M146.428 77.852H117.952V87.104H146.14V89.048H117.952V101H115.792V75.836H146.428V77.852ZM147.607 78.716V75.476H149.623V78.716H147.607ZM147.607 101V80.84H149.623V101H147.607ZM151.052 101V80.84H152.852L153.068 84.116H153.14C153.608 81.704 154.688 80.48 156.344 80.48C158.108 80.48 158.972 81.812 158.972 84.44V101H156.956V84.728C156.956 83.072 156.524 82.352 155.516 82.352C153.896 82.352 153.068 84.26 153.068 88.004V101H151.052ZM166.488 101L166.308 98.12H166.236C165.84 100.424 164.832 101.36 163.32 101.36C161.34 101.36 160.404 99.74 160.404 97.076V94.664C160.404 91.496 161.412 90.416 166.308 88.292V85.088C166.308 83.324 165.624 82.352 164.364 82.352C163.104 82.352 162.42 83.324 162.42 85.088V87.752H160.512V85.484C160.512 82.28 161.916 80.48 164.436 80.48C166.956 80.48 168.324 82.244 168.324 85.484V101H166.488ZM166.308 90.2C162.888 91.784 162.42 92.324 162.42 94.484V96.932C162.42 98.732 162.96 99.488 163.896 99.488C165.372 99.488 166.308 97.688 166.308 93.08V90.2ZM169.755 101V80.84H171.555L171.771 84.116H171.843C172.311 81.704 173.391 80.48 175.047 80.48C176.811 80.48 177.675 81.812 177.675 84.44V101H175.659V84.728C175.659 83.072 175.227 82.352 174.219 82.352C172.599 82.352 171.771 84.26 171.771 88.004V101H169.755ZM183.067 99.488C184.147 99.488 185.011 98.768 185.011 96.752V92.468H186.919V96.32C186.919 99.704 185.407 101.36 183.031 101.36C180.655 101.36 179.107 99.704 179.107 96.32V85.484C179.107 82.1 180.655 80.48 183.031 80.48C185.407 80.48 186.919 82.1 186.919 85.484V89.012H185.011V85.088C185.011 83.072 184.147 82.352 183.067 82.352C181.987 82.352 181.123 83.072 181.123 85.088V96.752C181.123 98.768 181.987 99.488 183.067 99.488ZM192.313 99.488C193.393 99.488 194.257 98.768 194.257 96.752V93.188H196.165V96.32C196.165 99.704 194.653 101.36 192.277 101.36C189.901 101.36 188.353 99.704 188.353 96.32V85.484C188.353 82.1 189.901 80.48 192.277 80.48C194.653 80.48 196.165 82.1 196.165 85.484V91.532H190.369V96.752C190.369 98.768 191.233 99.488 192.313 99.488ZM190.369 89.804H194.257V85.088C194.257 83.072 193.393 82.352 192.313 82.352C191.233 82.352 190.369 83.072 190.369 85.088V89.804Z" fill="#67C236"/>
<g filter="url(#filter1_di_2580_676)">
<path fill-rule="evenodd" clip-rule="evenodd" d="M130.301 62.2362C133.721 63.0221 137.222 63.415 140.806 63.415C145.132 63.415 148.799 62.7739 151.806 61.4917C154.039 60.5222 155.863 59.3198 157.278 57.8843C157.312 57.8499 157.346 57.8154 157.379 57.7808C157.855 57.287 158.284 56.7661 158.665 56.2181C158.856 55.9389 159.034 55.6558 159.201 55.3689C160.368 53.3603 160.952 51.1616 160.952 48.773C160.952 48.1742 160.921 47.5993 160.86 47.0485C160.858 47.0372 160.849 47.0286 160.837 47.0286V47.0286C160.826 47.0286 160.816 47.0196 160.815 47.0079C160.793 46.7327 160.754 46.4683 160.7 46.2175C159.779 41.9447 156.44 39.2364 152.627 37.4472C152.624 37.4461 152.621 37.445 152.618 37.4439C152.618 37.4438 152.617 37.4435 152.618 37.4432V37.4432C152.618 37.443 152.618 37.4427 152.617 37.4425C149.301 35.8879 145.628 35.028 142.876 34.4383C139.721 33.7622 137.193 33.5989 135.618 33.497L135.618 33.497C134.786 33.4433 134.22 33.4067 133.967 33.3209C132.32 32.7622 140.13 29.3872 154.408 31.831V31.831C154.698 31.8806 154.986 31.7269 155.098 31.4552L158.875 22.3235C159.002 22.0156 158.881 21.6601 158.587 21.5034C156.522 20.4022 154.159 19.5653 151.497 18.9927C148.654 18.3309 145.75 18 142.784 18C138.458 18 134.771 18.6411 131.723 19.9233C128.715 21.2055 126.449 22.9634 124.925 25.1969C124.916 25.2102 124.907 25.2234 124.898 25.2367C124.612 25.6585 124.933 26.2075 125.442 26.2266C126.812 26.2782 128.182 26.4518 129.48 26.7119C130.21 26.8581 130.075 27.8619 129.338 27.9679C124.287 28.6953 122.603 31.2122 122.694 34.0067C122.738 34.5356 122.808 35.0439 122.905 35.5316C124.743 43.3797 134.815 45.8695 140.688 47.1281C143.844 47.8042 146.371 47.9676 147.947 48.0694C148.778 48.1231 149.344 48.1597 149.597 48.2455C151.245 48.8042 143.434 52.1792 129.156 49.7354C127.268 49.4123 125.064 48.7568 122.912 47.7607C122.366 47.5083 121.791 48.017 122.073 48.5479C122.714 49.7563 123.589 50.8563 124.593 51.834C124.795 52.0309 124.859 52.3317 124.746 52.5901L122.188 58.425C122.056 58.7253 122.164 59.0777 122.447 59.2431C124.552 60.4717 127.17 61.4694 130.301 62.2362Z" fill="white"/>
</g>
<path d="M73.4288 116.972C74.499 117.556 74.9855 118.431 75.7638 119.209C75.9584 119.404 76.2502 119.404 76.5421 119.404C80.5309 119.404 84.5198 119.501 88.5087 119.501C88.8005 119.501 88.9951 119.501 89.287 119.501C91.8165 119.501 94.4433 119.599 96.9728 119.599C97.0701 119.599 97.1674 119.696 97.2647 119.696C98.2376 119.793 99.2105 119.793 100.086 119.793C100.864 119.793 101.74 119.89 102.518 119.89C101.837 120.863 100.475 120.572 99.4051 120.669C95.7081 120.766 92.0111 120.669 88.3141 120.669C81.3093 120.669 74.4017 120.766 67.3969 120.669C61.9487 120.572 56.5005 120.474 51.0523 120.28C46.9661 120.182 42.88 119.988 38.7938 119.696C34.2212 119.404 29.7459 119.015 25.1733 118.723C20.8926 118.431 16.7091 117.945 12.4284 117.847C10.8718 117.847 9.12056 117.75 7.46664 117.653C7.46664 117.556 7.46664 117.458 7.46664 117.458C9.12056 117.361 10.7745 117.264 12.3311 117.166C14.4715 117.166 16.6118 117.166 18.7522 117.166C33.151 116.972 47.5499 116.972 61.9487 116.972C63.5053 116.972 65.1592 117.069 66.7159 117.166C69.0508 117.264 71.1912 116.875 73.4288 116.972Z" fill="#D6E1E4"/>
<path d="M4.06158 37.5843C4.06158 36.7087 4.06158 35.8331 4.54803 35.1521C4.93719 34.5683 5.61821 34.1792 6.29924 33.8873C10.3854 32.0388 14.6661 30.4822 19.0441 29.2174C19.2387 29.1201 19.4333 29.1201 19.6279 29.1201C19.8225 29.1201 19.9198 29.2174 20.1143 29.3147C21.0872 29.9957 21.5737 31.1632 21.671 32.3307C21.7682 33.4981 21.4764 34.6656 21.1845 35.7358C20.4062 38.2653 19.1414 40.6003 17.7794 42.7406C16.7092 44.4918 15.4444 46.1458 14.1797 47.7997C12.9149 49.3563 11.5529 51.3021 9.89895 52.3723C6.78569 54.6099 5.32635 46.243 4.93719 44.4918C4.45074 42.1569 4.15887 39.9192 4.06158 37.5843Z" fill="url(#paint0_linear_2580_676)"/>
<path d="M23.8113 103.643C35.7779 115.123 54.4575 121.252 70.6075 117.166C82.2822 114.15 91.5247 109.286 97.654 98.8757C103.783 88.4657 106.118 73.3859 106.702 61.322C107.383 48.2852 107.48 36.4159 100.378 25.5195C93.2759 14.6231 78.0988 5.38064 65.2566 7.42372C61.6569 8.00745 58.1545 9.07764 54.7493 10.3424C54.8466 10.537 51.1496 6.06167 48.7174 2.94841C47.9391 1.97551 47.2581 1.97551 46.2852 2.75383C42.2963 6.15896 37.4318 10.8288 35.1942 12.8719C30.427 17.3472 29.3568 17.931 24.7842 22.6009C19.6279 27.8545 14.3743 31.065 10.7746 37.5834C7.17485 44.1018 5.22906 53.928 6.39653 61.2247C6.59111 62.3922 6.88298 63.5597 7.27214 64.6299C5.52093 71.4401 4.64532 77.8612 5.03448 84.866C5.22906 88.7576 5.8128 92.7465 7.36943 96.3462C8.92606 99.9459 24.2005 103.546 23.8113 103.643Z" fill="url(#paint1_linear_2580_676)"/>
<path d="M15.3472 31.5526C17.0011 34.0821 29.6487 35.8333 33.2484 35.9306C33.6376 35.9306 34.0267 35.9306 34.3186 35.736C34.6104 35.5415 34.9023 35.3469 35.0969 35.055C38.5993 31.0662 42.199 26.98 45.7014 22.9911C46.3825 22.2128 47.0635 21.4345 47.2581 20.3643C47.4526 18.905 46.4797 17.6402 45.5069 16.57C41.6153 12.2893 43.4638 13.4568 38.1129 11.2191C36.3617 10.5381 30.1351 17.3484 24.1032 23.283C21.4764 26.0071 15.0553 31.1634 15.3472 31.5526Z" fill="url(#paint2_linear_2580_676)"/>
<path d="M17.6821 54.6095C17.1956 55.9716 15.9309 56.6526 14.6661 56.2635C13.4014 55.8743 12.8176 54.415 13.3041 53.1502C13.7905 51.7882 15.0553 51.1071 16.32 51.4963C17.5848 51.8855 18.0713 53.3448 17.6821 54.6095Z" fill="url(#paint3_linear_2580_676)"/>
<path d="M71.4831 11.7057C72.0669 12.2895 71.8723 13.5542 70.8994 14.6244C69.9265 15.6946 68.6618 16.0837 68.078 15.5C67.4943 14.9163 67.6889 13.6515 68.6618 12.5813C69.6346 11.5111 70.8994 11.122 71.4831 11.7057Z" fill="url(#paint4_linear_2580_676)"/>
<path d="M68.8844 13.1541C69.7991 12.1704 70.0942 10.9577 69.5433 10.4454C68.9924 9.93315 67.8043 10.3153 66.8895 11.299C65.9748 12.2827 65.6798 13.4954 66.2306 14.0076C66.7815 14.5199 67.9696 14.1377 68.8844 13.1541Z" fill="#A5DE55"/>
<mask id="mask0_2580_676" style="mask-type:luminance" maskUnits="userSpaceOnUse" x="65" y="10" width="5" height="5">
<path d="M68.8844 13.155C69.7992 12.1714 70.0942 10.9587 69.5433 10.4464C68.9925 9.93412 67.8043 10.3163 66.8896 11.3C65.9748 12.2836 65.6798 13.4963 66.2307 14.0086C66.7815 14.5209 67.9696 14.1387 68.8844 13.155Z" fill="white"/>
</mask>
<g mask="url(#mask0_2580_676)">
<path d="M65.743 14.5273C66.3268 15.3056 67.397 15.5975 68.3699 15.3056C69.3428 15.0138 70.0238 14.2354 70.5102 13.3598C70.9967 12.5815 71.2885 11.7059 71.1912 10.8303C71.094 10.1493 70.8021 9.37097 70.2184 9.0791C69.7319 10.1493 69.3427 11.1222 68.5644 12.0951C68.3699 12.3869 65.9376 14.7219 65.743 14.5273Z" fill="#278115"/>
</g>
<path d="M14.958 71.0512C14.958 71.0512 14.6661 69.981 15.2498 69.2027C15.7363 68.4244 20.8926 62.5871 20.8926 62.5871C20.8926 62.5871 21.0872 62.1006 21.5737 62.4898C21.9628 62.8789 27.8002 69.4946 28.092 69.8838C28.3839 70.2729 28.8704 70.3702 28.3839 70.6621C27.8975 70.9539 14.958 71.0512 14.958 71.0512Z" fill="url(#paint5_linear_2580_676)"/>
<path d="M41.6153 55.7766C40.9342 53.6363 42.1017 51.3013 43.9502 49.9393C46.2852 48.0908 49.6903 47.7989 52.4144 49.0637C55.1385 50.3284 56.8897 53.2471 56.8897 56.2631C57.8626 56.1658 58.9328 56.7495 59.3219 57.6251C59.7111 58.5008 59.5165 59.6682 58.8355 60.3492C57.9599 61.2249 56.5005 61.2249 55.3331 61.2249C51.2469 61.1276 47.0635 61.0303 42.9773 60.933C42.0044 60.933 40.9342 60.8357 39.9613 60.8357C39.2803 60.8357 37.9183 61.0303 37.2372 60.6411C35.6806 59.6682 37.6264 58.4035 38.7939 58.6953C38.8912 57.917 39.183 57.236 39.7668 56.6523C39.6695 56.4577 41.6153 55.4848 41.6153 55.7766Z" fill="url(#paint6_linear_2580_676)"/>
<path d="M82.6714 64.0458C82.4768 62.781 83.0606 61.5162 84.0334 60.8352C85.0063 60.2515 86.2711 60.3488 87.1467 61.1271C86.563 59.3759 87.1467 57.4301 88.2169 56.068C89.8708 53.9277 92.5949 52.8575 95.0271 53.7331C97.4594 54.6087 99.2106 57.3328 99.1133 60.2515C99.8916 59.5705 101.059 59.765 101.935 60.4461C102.713 61.1271 103.199 62.2946 103.297 63.3647C104.659 63.0729 106.215 64.3376 106.313 65.9916C106.313 66.2834 106.313 66.478 106.215 66.6726C106.021 66.9644 105.729 67.0617 105.34 67.159C104.367 67.3536 103.297 67.3536 102.324 67.3536C98.4323 67.3536 94.638 67.3536 90.7464 67.2563C88.8006 67.159 86.8548 67.0617 84.9091 66.8672C83.9362 66.7699 82.9633 66.6726 81.9904 66.5753C81.3093 66.478 79.85 66.5753 79.3636 65.9916C78.7798 65.3105 79.3636 64.4349 79.9473 64.0458C80.7256 63.462 81.7958 63.6566 82.6714 64.0458Z" fill="url(#paint7_linear_2580_676)"/>
<path d="M64.381 22.7959C63.9918 22.5041 54.7494 10.3429 54.7494 10.3429L56.0141 9.85645C56.0141 9.85645 65.2566 22.6013 65.4512 22.6986H64.381V22.7959Z" fill="url(#paint8_linear_2580_676)"/>
<path d="M79.0718 60.7393C78.8772 59.6692 79.4609 58.5017 80.4338 57.9179C81.4067 57.3342 82.6715 57.5288 83.5471 58.2098C82.9633 56.7505 83.5471 54.9993 84.6172 53.7345C86.2712 51.7887 88.9953 51.0104 91.4275 51.6914C93.8597 52.4697 95.6109 54.902 95.5137 57.3342C96.292 56.7505 97.4594 56.945 98.335 57.5288C99.1134 58.1125 99.5998 59.0854 99.6971 60.0583C101.059 59.7664 102.616 60.9339 102.713 62.296C102.713 62.4905 102.713 62.7824 102.616 62.8797C102.421 63.1716 102.129 63.2689 101.74 63.2689C100.767 63.4634 99.6971 63.4634 98.7242 63.4634C94.8326 63.4634 91.0383 63.4634 87.1468 63.3661C85.201 63.2689 83.2552 63.1716 81.3094 63.0743C80.3365 62.977 79.3636 62.8797 78.3907 62.7824C77.7097 62.6851 76.2504 62.7824 75.7639 62.296C75.1802 61.7122 75.7639 60.9339 76.3477 60.5448C77.2233 60.3502 78.2934 60.4475 79.0718 60.7393Z" fill="#F6FBEB"/>
<mask id="mask1_2580_676" style="mask-type:luminance" maskUnits="userSpaceOnUse" x="75" y="51" width="28" height="13">
<path d="M79.0718 60.7393C78.8772 59.6692 79.4609 58.5017 80.4338 57.9179C81.4067 57.3342 82.6715 57.5288 83.5471 58.2098C82.9633 56.7505 83.5471 54.9993 84.6172 53.7345C86.2712 51.7887 88.9953 51.0104 91.4275 51.6914C93.8597 52.4697 95.6109 54.902 95.5137 57.3342C96.292 56.7505 97.4594 56.945 98.335 57.5288C99.1134 58.1125 99.5998 59.0854 99.6971 60.0583C101.059 59.7664 102.616 60.9339 102.713 62.296C102.713 62.4905 102.713 62.7824 102.616 62.8797C102.421 63.1716 102.129 63.2689 101.74 63.2689C100.767 63.4634 99.6971 63.4634 98.7242 63.4634C94.8326 63.4634 91.0383 63.4634 87.1468 63.3661C85.201 63.2689 83.2552 63.1716 81.3094 63.0743C80.3365 62.977 79.3636 62.8797 78.3907 62.7824C77.7097 62.6851 76.2504 62.7824 75.7639 62.296C75.1802 61.7122 75.7639 60.9339 76.3477 60.5448C77.2233 60.3502 78.2934 60.4475 79.0718 60.7393Z" fill="white"/>
</mask>
<g mask="url(#mask1_2580_676)">
<path d="M88.3143 60.545C88.0224 60.4477 87.7305 60.1558 87.4387 59.864C86.2712 58.9883 84.2281 59.8639 84.1308 61.4206C82.5742 60.4477 80.2392 61.4206 79.6555 63.1718C79.0718 60.7396 76.3477 63.2691 75.7639 62.4908C75.1802 61.8097 74.2073 60.545 73.2344 60.7396C71.4832 61.0314 73.9154 62.1016 74.4992 63.7555C75.0829 65.5067 76.445 66.9661 78.1962 67.6471C80.4338 68.5227 82.9633 68.1335 85.2983 67.7444C89.9682 66.9661 94.6381 66.1878 99.308 65.4094C100.475 65.2149 101.74 65.0203 102.616 64.242C103.589 63.3664 103.978 61.907 103.978 60.545C103.978 56.0697 100.378 52.2754 96.4866 49.9404C94.9299 48.9675 86.2712 46.1462 88.5088 50.4269C89.3844 52.0808 90.6492 52.9564 90.9411 54.9022C91.1357 56.2642 90.8438 61.5179 88.3143 60.545Z" fill="#E6E6E8"/>
</g>
<path d="M58.4463 44.7845C58.2518 42.936 58.9328 40.8929 60.3921 39.8227C61.7542 38.7525 63.8945 38.7525 65.062 40.1146C65.062 38.4607 65.9376 36.904 67.2024 36.1257C68.4671 35.3474 70.1211 35.3474 71.3858 36.1257C70.4129 31.164 72.456 25.6185 76.2503 22.6998C80.0446 19.7811 85.3955 19.4893 89.3844 22.1161C90.7464 22.9917 91.9139 24.1591 92.9841 25.4239C93.6651 26.2995 94.3461 27.1751 94.7353 28.148C95.4163 29.8992 95.5136 31.845 95.6109 33.6935C98.6268 32.1369 102.518 33.1098 104.561 36.0284C106.605 38.8498 106.507 43.3251 104.464 46.1465C103.978 46.8276 103.394 47.4113 102.713 47.6059C102.129 47.8005 101.448 47.8005 100.864 47.8005C91.4274 48.0923 81.9904 48.1896 72.5533 48.2869C68.759 48.2869 64.8674 48.3842 61.0732 48.1896C60.1003 48.0923 56.5006 48.3842 55.9168 47.5086C54.9439 46.1465 57.5707 44.7845 58.4463 44.7845Z" fill="url(#paint9_linear_2580_676)"/>
<path d="M50.5659 39.4331C50.3713 37.6819 51.0524 35.8334 52.5117 34.7632C53.971 33.7904 56.1114 33.7904 57.3762 35.0551C57.3762 33.4985 58.2518 32.0391 59.6138 31.3581C60.9759 30.5798 62.6298 30.5798 63.9918 31.3581C63.0189 26.6882 65.062 21.5319 68.9536 18.7105C72.8452 15.8891 78.3907 15.7918 82.4768 18.1268C83.8389 19.0024 85.1036 20.0725 86.2711 21.24C86.9521 22.0183 87.6332 22.8939 88.1196 23.8668C88.8979 25.5208 88.8979 27.272 88.9952 29.1205C92.1085 27.6611 96.0973 28.634 98.1404 31.2608C100.183 33.8876 100.183 38.0711 98.0431 40.6979C97.5567 41.2816 96.9729 41.8654 96.1946 42.0599C95.5136 42.3518 94.8326 42.3518 94.2488 42.3518C84.5199 42.4491 74.791 42.5464 64.9647 42.6437C60.9759 42.6437 57.0843 42.741 53.0954 42.5464C52.1225 42.4491 48.3283 42.741 47.7445 41.8654C46.9662 40.6006 49.6903 39.3358 50.5659 39.4331Z" fill="#F6FBEB"/>
<mask id="mask2_2580_676" style="mask-type:luminance" maskUnits="userSpaceOnUse" x="47" y="16" width="53" height="27">
<path d="M50.5659 39.4341C50.3713 37.6829 51.0524 35.8344 52.5117 34.7642C53.971 33.7913 56.1114 33.7913 57.3762 35.0561C57.3762 33.4995 58.2518 32.0401 59.6138 31.3591C60.9759 30.5808 62.6298 30.5808 63.9918 31.3591C63.0189 26.6892 65.062 21.5329 68.9536 18.7115C72.8452 15.8901 78.3907 15.7928 82.4768 18.1277C83.8389 19.0033 85.1036 20.0735 86.2711 21.241C86.9521 22.0193 87.6332 22.8949 88.1196 23.8678C88.8979 25.5217 88.8979 27.2729 88.9952 29.1214C92.1085 27.6621 96.0973 28.635 98.1404 31.2618C100.183 33.8886 100.183 38.0721 98.0431 40.6989C97.5567 41.2826 96.9729 41.8663 96.1946 42.0609C95.5136 42.3528 94.8326 42.3528 94.2488 42.3528C84.5199 42.4501 74.791 42.5474 64.9647 42.6447C60.9759 42.6447 57.0843 42.7419 53.0954 42.5474C52.1225 42.4501 48.3283 42.7419 47.7445 41.8663C46.9662 40.6016 49.6903 39.3368 50.5659 39.4341Z" fill="white"/>
</mask>
<g mask="url(#mask2_2580_676)">
<path d="M78.9744 16.4733C80.8229 18.2245 82.3795 20.4621 82.866 22.8944C83.4497 25.813 82.3795 28.829 81.4066 31.7477C83.7416 32.0396 85.4928 34.4718 85.5901 36.8067C85.6874 39.239 84.4226 41.4766 82.6714 43.1305C82.3795 43.4224 81.9904 43.8116 81.9904 44.298C81.9904 44.8818 82.5741 45.2709 83.0606 45.5628C86.6603 47.5086 91.0383 47.8977 95.0271 46.8275C98.1404 46.0492 101.254 44.298 102.616 41.3793C104.172 38.0715 103.199 34.1799 101.74 30.8721C99.7943 26.4941 96.9729 22.4079 92.9841 19.6838C90.7464 18.2245 88.3142 17.1543 85.7847 16.1814C83.6443 15.3058 81.4066 14.4302 79.0717 14.2356C77.9042 14.1383 76.6395 14.2356 75.472 14.3329C76.7367 14.4302 78.0015 15.5004 78.9744 16.4733Z" fill="#D6E1E4"/>
</g>
<path d="M38.3074 51.1069C37.7237 49.1612 38.7939 47.1181 40.3505 45.8533C42.4908 44.1994 45.5068 43.9075 47.9391 45.075C50.3713 46.2425 51.9279 48.8693 51.9279 51.4961C52.8035 51.3988 53.6791 51.8853 54.0683 52.6636C54.4574 53.4419 54.2629 54.5121 53.5818 55.0958C52.8035 55.9714 51.5388 55.9714 50.3713 55.9714C46.6743 55.8741 42.9773 55.7768 39.2803 55.6795C38.4047 55.6795 37.4318 55.6795 36.5562 55.5823C35.9725 55.5823 34.7077 55.7768 34.124 55.3877C32.7619 54.5121 34.4158 53.3446 35.486 53.6365C35.5833 52.9554 35.8752 52.2744 36.3616 51.788C36.5562 51.788 38.3074 50.8151 38.3074 51.1069Z" fill="#F6FBEB"/>
<mask id="mask3_2580_676" style="mask-type:luminance" maskUnits="userSpaceOnUse" x="33" y="44" width="22" height="12">
<path d="M38.3074 51.106C37.7237 49.1602 38.7939 47.1171 40.3505 45.8523C42.4908 44.1984 45.5068 43.9066 47.9391 45.074C50.3713 46.2415 51.9279 48.8683 51.9279 51.4951C52.8035 51.3978 53.6791 51.8843 54.0683 52.6626C54.4574 53.4409 54.2629 54.5111 53.5818 55.0948C52.8035 55.9704 51.5388 55.9704 50.3713 55.9704C46.6743 55.8731 42.9773 55.7759 39.2803 55.6786C38.4047 55.6786 37.4318 55.6786 36.5562 55.5813C35.9725 55.5813 34.7077 55.7759 34.124 55.3867C32.7619 54.5111 34.4158 53.3436 35.486 53.6355C35.5833 52.9545 35.8752 52.2734 36.3616 51.787C36.5562 51.787 38.3074 50.8141 38.3074 51.106Z" fill="white"/>
</mask>
<g mask="url(#mask3_2580_676)">
<path d="M47.4526 49.6475C48.8147 49.2584 50.6632 51.2041 50.4686 52.6635C50.3713 53.4418 49.6903 54.1228 49.2039 54.7066C48.6201 55.3876 46.9662 55.5822 46.2852 56.2632C46.0906 56.5551 46.6743 56.7496 46.6743 57.0415C46.6743 57.7225 47.4526 58.0144 48.1337 58.1117C49.9822 58.4036 52.0252 58.209 53.6792 57.3334C55.3331 56.4578 56.7924 54.9984 57.2789 53.1499C57.7653 51.1068 57.1816 48.9665 55.9168 47.3126C54.6521 45.6586 52.9981 44.3939 51.1496 43.3237C50.1767 42.74 43.8529 40.0159 44.534 42.74C44.8258 43.8102 46.3825 44.6858 46.8689 45.7559C47.5499 46.8261 47.7445 48.2855 47.4526 49.6475Z" fill="#E6E6E8"/>
</g>
<path d="M15.4417 52.8168C15.8932 51.4947 15.27 50.0851 14.0496 49.6683C12.8293 49.2515 11.474 49.9854 11.0225 51.3074C10.5709 52.6295 11.1942 54.0391 12.4145 54.4558C13.6349 54.8726 14.9902 54.1388 15.4417 52.8168Z" fill="#86D643"/>
<mask id="mask4_2580_676" style="mask-type:luminance" maskUnits="userSpaceOnUse" x="10" y="49" width="6" height="6">
<path d="M15.4417 52.8168C15.8932 51.4947 15.27 50.0851 14.0496 49.6683C12.8293 49.2515 11.474 49.9854 11.0225 51.3074C10.5709 52.6295 11.1942 54.0391 12.4145 54.4558C13.6349 54.8726 14.9902 54.1388 15.4417 52.8168Z" fill="white"/>
</mask>
<g mask="url(#mask4_2580_676)">
<path d="M11.8447 55.0949C12.8176 56.1651 14.6661 56.3597 15.9308 55.6786C17.1956 54.9003 17.8766 53.3437 17.4875 51.8843C17.2929 51.3979 17.0983 50.9114 16.7092 50.425C15.4444 48.5765 14.3742 47.0199 14.0824 49.744C13.7905 51.787 13.4013 53.6355 11.8447 55.0949Z" fill="#278115"/>
</g>
<path d="M11.8447 68.4251C11.8447 68.4251 11.6501 67.4522 12.0393 66.6739C12.5258 65.8956 17.1956 60.4474 17.1956 60.4474C17.1956 60.4474 17.3902 59.961 17.7794 60.3501C18.1685 60.642 23.5194 66.9658 23.8113 67.2577C24.1032 67.5495 24.4923 67.7441 24.1032 68.036C23.8113 68.2306 11.8447 68.4251 11.8447 68.4251Z" fill="#86D643"/>
<mask id="mask5_2580_676" style="mask-type:luminance" maskUnits="userSpaceOnUse" x="11" y="60" width="14" height="9">
<path d="M11.8447 68.4261C11.8447 68.4261 11.6501 67.4532 12.0393 66.6749C12.5258 65.8966 17.1956 60.4484 17.1956 60.4484C17.1956 60.4484 17.3902 59.9619 17.7794 60.3511C18.1685 60.643 23.5194 66.9668 23.8113 67.2586C24.1032 67.5505 24.4923 67.7451 24.1032 68.037C23.8113 68.2315 11.8447 68.4261 11.8447 68.4261Z" fill="white"/>
</mask>
<g mask="url(#mask5_2580_676)">
<path d="M18.655 61.7123C19.336 64.1445 19.336 66.8686 17.8767 68.9117C19.0442 69.009 20.2116 69.009 21.3791 69.009C22.4493 69.009 23.5195 69.009 24.5896 68.6198C24.7842 68.5226 24.9788 68.4253 25.0761 68.328C25.2707 68.1334 25.2707 67.7442 25.1734 67.4524C24.9788 66.1876 23.9086 65.1174 22.9357 64.2418C22.1574 63.4635 21.2818 62.7825 20.4062 62.0042C20.017 61.7123 18.3631 59.9611 17.8767 60.1557C18.2658 60.7394 18.5577 61.1286 18.655 61.7123Z" fill="#3BA025"/>
</g>
<mask id="mask6_2580_676" style="mask-type:luminance" maskUnits="userSpaceOnUse" x="11" y="60" width="14" height="9">
<path d="M11.8447 68.4261C11.8447 68.4261 11.6501 67.4532 12.0393 66.6749C12.5258 65.8966 17.1956 60.4484 17.1956 60.4484C17.1956 60.4484 17.3902 59.9619 17.7794 60.3511C18.1685 60.643 23.5194 66.9668 23.8113 67.2586C24.1032 67.5505 24.4923 67.7451 24.1032 68.037C23.8113 68.2315 11.8447 68.4261 11.8447 68.4261Z" fill="white"/>
</mask>
<g mask="url(#mask6_2580_676)">
<path d="M12.1366 69.3982C11.7474 69.2036 11.4556 68.9117 11.0664 68.7172C11.4556 68.6199 11.3583 68.328 11.7474 68.328C12.3312 68.2307 15.1526 68.1334 15.8336 68.1334C16.4173 68.1334 16.9038 68.1334 17.4875 68.1334C19.4333 68.1334 21.3791 68.0361 23.3249 68.0361C23.8113 68.0361 24.2978 68.0361 24.7842 68.0361C24.9788 68.0361 25.0761 68.0361 25.2707 68.1334C25.3679 68.2307 25.4652 68.4253 25.4652 68.5226C25.3679 68.6199 25.2707 68.7172 25.1734 68.8144C24.6869 69.009 24.2005 69.1063 23.714 69.2036C20.7953 69.69 17.7794 69.9819 14.8607 69.8846C13.8878 69.8846 12.8176 69.7873 12.0393 69.1063C11.942 69.009 11.7474 68.9117 11.6501 68.9117" fill="#158460"/>
</g>
<path d="M20.8926 75.8192C20.8926 75.8192 20.5035 75.0409 19.8224 76.1111C19.1414 77.1813 14.5688 84.6725 14.5688 84.5753C14.5688 84.478 13.6932 86.2292 13.6932 86.2292L27.6056 84.8671C27.5083 84.9644 20.8926 75.8192 20.8926 75.8192Z" fill="#86D643"/>
<mask id="mask7_2580_676" style="mask-type:luminance" maskUnits="userSpaceOnUse" x="13" y="75" width="15" height="12">
<path d="M20.8926 75.8192C20.8926 75.8192 20.5035 75.0409 19.8224 76.1111C19.1414 77.1813 14.5688 84.6725 14.5688 84.5753C14.5688 84.478 13.6932 86.2292 13.6932 86.2292L27.6056 84.8671C27.5083 84.9644 20.8926 75.8192 20.8926 75.8192Z" fill="white"/>
</mask>
<g mask="url(#mask7_2580_676)">
<path d="M19.1414 86.4233C19.4333 86.5206 21.5736 86.5206 21.9628 86.4233C24.2004 85.7423 26.5354 85.1586 28.773 84.8667C27.411 81.7534 23.9086 76.6944 20.9899 75.4296C20.7953 75.3323 20.4061 75.4296 20.4061 75.8188C20.6007 80.2941 19.4333 86.4233 19.1414 86.4233Z" fill="#3BA025"/>
</g>
<path d="M33.5402 79.2244C33.7348 78.7379 45.1177 63.0744 44.7285 63.5608C44.5339 63.8527 45.1177 62.6852 46.0906 64.1445C46.2851 64.4364 62.3379 84.3807 62.046 84.1861C61.7541 83.8943 51.3442 90.6072 50.7604 90.4127C50.1767 90.2181 44.8258 91.6774 44.8258 91.6774L33.5402 79.2244Z" fill="url(#paint10_linear_2580_676)"/>
<mask id="mask8_2580_676" style="mask-type:luminance" maskUnits="userSpaceOnUse" x="33" y="63" width="30" height="29">
<path d="M33.5402 79.2254C33.7347 78.7389 45.1176 63.0753 44.7284 63.5618C44.5339 63.8536 45.1176 62.6862 46.0905 64.1455C46.2851 64.4374 62.3378 84.3817 62.0459 84.1871C61.7541 83.8952 51.3441 90.6082 50.7604 90.4136C50.1766 90.2191 44.8257 91.6784 44.8257 91.6784L33.5402 79.2254Z" fill="white"/>
</mask>
<g mask="url(#mask8_2580_676)">
<path d="M47.4525 97.71C55.0411 91.6781 62.5324 85.6461 70.121 79.6142C68.5643 76.7928 64.089 75.9172 60.6839 74.3606C57.9598 73.0958 55.8194 71.15 53.7764 69.3015C52.6089 68.2313 47.1607 61.9075 45.1176 63.1723C43.8528 63.9506 46.2851 72.9012 46.3824 74.3606C46.7715 78.2522 47.0634 82.241 47.258 86.1326C47.3553 88.0784 47.4525 90.0242 47.4525 91.8727C47.4525 92.8456 48.2309 97.029 47.4525 97.71Z" fill="url(#paint11_linear_2580_676)"/>
</g>
<path d="M19.4333 89.4388C19.4333 89.2442 30.5243 70.9538 30.6216 70.9538C30.6216 70.9538 31.4972 70.37 32.4701 70.9538C33.443 71.5375 50.5659 91.19 50.3713 91.6764C50.1767 92.1628 46.577 93.1357 46.3824 93.233C46.1879 93.233 33.443 97.4165 33.443 97.4165C33.443 97.3192 19.4333 89.4388 19.4333 89.4388Z" fill="#86D643"/>
<mask id="mask9_2580_676" style="mask-type:luminance" maskUnits="userSpaceOnUse" x="19" y="70" width="32" height="28">
<path d="M19.4333 89.4378C19.4333 89.2432 30.5242 70.9528 30.6215 70.9528C30.6215 70.9528 31.4971 70.3691 32.47 70.9528C33.4429 71.5365 50.5659 91.189 50.3713 91.6754C50.1767 92.1619 46.577 93.1348 46.3824 93.2321C46.1878 93.2321 33.4429 97.4155 33.4429 97.4155C33.4429 97.3182 19.4333 89.4378 19.4333 89.4378Z" fill="white"/>
</mask>
<g mask="url(#mask9_2580_676)">
<path d="M34.1239 76.3044C37.5291 83.2119 40.6423 90.4113 43.6583 97.5135C45.3122 95.7623 48.7173 94.5948 50.3713 92.8436C50.6631 92.5517 51.0523 92.1626 51.1496 91.6761C51.3442 91.1897 51.2469 90.8005 51.2469 90.3141C50.7604 86.2279 46.7716 81.8499 44.0475 78.7366C41.6152 76.0125 38.6965 73.5803 35.486 71.7318C34.7077 71.3426 31.3998 69.105 31.0107 70.2725C30.8161 71.3426 33.5402 75.2342 34.1239 76.3044Z" fill="url(#paint12_linear_2580_676)"/>
</g>
<path d="M46.6743 97.2227C46.1878 97.2227 34.6104 96.7363 34.6104 96.7363L46.577 92.8447L46.6743 97.2227Z" fill="url(#paint13_linear_2580_676)"/>
<path d="M50.274 91.6769C50.274 91.6769 72.0668 67.841 72.0668 67.7437C72.0668 67.6464 68.1752 55.9717 68.1752 55.9717C68.1752 55.9717 37.3345 90.9959 37.0426 91.8715C37.1399 91.8715 50.274 91.6769 50.274 91.6769Z" fill="url(#paint14_linear_2580_676)"/>
<path d="M50.274 91.6768C50.274 91.6768 69.8292 111.135 70.2183 112.108C70.3156 112.497 62.046 118.626 62.046 118.626L37.14 91.8713L50.274 91.6768Z" fill="url(#paint15_linear_2580_676)"/>
<path d="M72.0668 67.7437L68.1752 55.9717L69.2454 56.069L97.1675 86.2287C97.1675 86.2287 90.1626 87.4934 89.6762 87.1043C89.1897 86.8124 72.0668 67.7437 72.0668 67.7437Z" fill="url(#paint16_linear_2580_676)"/>
<path d="M89.6762 87.2018L97.1675 86.3262C97.1675 86.3262 70.8994 120.183 70.8021 119.015C70.6075 117.848 70.2183 112.205 70.2183 112.205L89.6762 87.2018Z" fill="url(#paint17_linear_2580_676)"/>
<path d="M70.2183 112.107L62.046 118.626C62.046 118.626 70.8994 119.501 70.8021 118.918C70.7048 118.237 70.2183 112.107 70.2183 112.107Z" fill="url(#paint18_linear_2580_676)"/>
<path d="M50.274 91.6763L72.0668 67.7432L70.802 75.0399C70.802 75.0399 58.0571 90.898 57.0842 91.0926C56.1113 91.2872 50.274 91.6763 50.274 91.6763Z" fill="url(#paint19_linear_2580_676)"/>
<path d="M72.0668 67.7432L70.8021 75.1372L83.7415 88.3685L89.6762 87.201L72.0668 67.7432Z" fill="url(#paint20_linear_2580_676)"/>
<path d="M57.0842 91.0928C57.0842 91.0928 70.802 104.421 70.802 105.2C70.7048 106.075 70.2183 112.107 70.2183 112.107L50.274 91.6765L57.0842 91.0928Z" fill="url(#paint21_linear_2580_676)"/>
<path d="M70.8021 105.2L83.7415 88.3686L89.7735 87.2012C89.7735 87.2012 70.2183 113.567 70.3156 112.205C70.3156 110.745 70.8021 105.2 70.8021 105.2Z" fill="url(#paint22_linear_2580_676)"/>
<path d="M57.0843 91.0928L70.8021 75.04L83.7416 88.3687L70.8021 105.297L57.0843 91.0928Z" fill="url(#paint23_linear_2580_676)"/>
<path d="M68.759 93.4277C68.6617 94.3033 69.4401 119.793 69.4401 119.793L102.616 120.085C102.616 120.085 102.421 93.8169 102.324 93.8169C102.324 93.9142 68.759 93.4277 68.759 93.4277Z" fill="url(#paint24_linear_2580_676)"/>
<path d="M102.324 93.9141C102.713 94.2059 103.005 94.887 103.005 95.1788C102.324 103.643 102.518 111.329 102.518 119.015C102.518 119.112 102.518 119.988 102.518 120.085C102.518 120.182 99.016 120.085 97.8485 120.085V119.988C97.8485 118.334 97.7512 116.777 97.8485 115.22C97.9458 113.858 97.654 112.204 99.4052 111.329C100.767 110.648 100.573 109.286 100.281 107.826C100.475 107.437 100.475 96.0544 102.324 93.9141Z" fill="url(#paint25_linear_2580_676)"/>
<path d="M73.9154 100.53C73.5262 102.767 73.5262 105.102 73.8181 107.437C73.9154 108.313 74.11 109.189 74.4018 110.064C75.0829 112.107 76.2503 113.858 77.807 115.318C79.2663 116.874 81.0175 118.139 82.6714 119.404C77.9042 115.415 74.8883 109.189 75.2774 102.962C75.3747 101.795 75.5693 100.53 75.7639 99.3623C75.9585 98.2921 76.2503 97.222 76.5422 96.2491C76.6395 96.0545 77.1259 94.9843 77.0286 94.7897C76.8341 94.4979 76.3476 95.2762 76.2503 95.3735C74.9856 96.9301 74.3045 98.6813 73.9154 100.53Z" fill="url(#paint26_linear_2580_676)"/>
<path d="M90.3573 118.237C90.3573 118.334 90.3573 118.334 90.3573 118.432C90.4546 118.626 90.7464 118.723 91.0383 118.723C91.1356 118.723 91.1356 118.723 91.2329 118.723C91.2329 118.723 91.2329 118.723 91.2329 118.626C91.4275 117.459 91.5247 116.194 91.5247 114.929C91.5247 114.832 91.5247 114.637 91.4275 114.637C91.2329 114.443 90.941 114.54 90.7464 114.735C90.5518 114.929 90.6491 115.513 90.5518 115.707C90.4546 116.583 90.3573 117.361 90.3573 118.237Z" fill="url(#paint27_linear_2580_676)"/>
<path d="M92.6922 118.528C92.6922 118.625 92.6922 118.723 92.7895 118.723H92.8868C93.1787 118.723 93.3733 118.723 93.6651 118.723H93.7624C93.7624 118.723 93.8597 118.625 93.8597 118.528C93.957 117.263 94.0543 115.999 94.0543 114.734C94.0543 114.637 94.0543 114.539 93.957 114.442H93.8597C93.5678 114.442 93.3732 114.345 93.0814 114.345C93.276 114.539 93.0814 114.928 93.0814 115.123C92.9841 115.512 92.9841 115.901 92.9841 116.291C92.6922 117.069 92.6922 117.847 92.6922 118.528Z" fill="url(#paint28_linear_2580_676)"/>
<path d="M95.6109 115.318C95.6109 115.805 95.6109 116.291 95.5136 116.778C95.4163 117.362 95.2217 117.945 95.319 118.529C95.319 118.626 95.319 118.626 95.4163 118.724C95.5136 118.918 95.8055 118.821 96 118.821C96 118.821 96.0973 118.821 96.0973 118.724V118.626C95.9028 117.362 96.0973 115.999 96.1946 114.637C96.1946 114.443 96.0001 113.956 95.8055 114.248C95.5136 114.54 95.6109 115.124 95.6109 115.318Z" fill="url(#paint29_linear_2580_676)"/>
<path d="M82.866 113.956L83.3525 112.399C81.7958 111.816 80.7256 111.037 80.0446 109.967C79.4609 108.897 79.3636 107.632 79.7528 106.27L83.1579 107.34C82.9633 108.021 82.9633 108.605 83.0606 108.994C83.1579 109.383 83.547 109.675 84.0335 109.87L85.0064 106.854C83.4497 105.978 82.3796 105.005 81.8931 104.13C81.3094 103.254 81.2121 102.281 81.6012 101.211C81.9904 100.044 82.7687 99.168 83.8389 98.7788C85.0064 98.2924 86.2711 98.3896 87.8278 98.7788L88.2169 97.6113L89.6763 98.0978L89.2871 99.2652C90.7464 99.7517 91.7193 100.53 92.3031 101.503C92.8868 102.476 92.9841 103.643 92.5949 104.908L89.3844 103.838C89.4817 103.254 89.4817 102.865 89.3844 102.476C89.1898 102.087 88.8979 101.892 88.5088 101.697L87.6332 104.519C89.2871 105.492 90.3573 106.465 90.941 107.34C91.4275 108.216 91.5248 109.286 91.2329 110.356C90.8437 111.621 90.0654 112.497 88.9952 112.983C87.9251 113.372 86.563 113.372 84.8118 112.983L84.3253 114.54L82.866 113.956ZM86.3684 103.546L87.1467 101.016H87.0495C86.4657 100.822 86.0766 100.822 85.7847 100.919C85.4928 101.016 85.201 101.308 85.1037 101.697C85.0064 101.989 85.0064 102.281 85.201 102.573C85.3955 102.962 85.7847 103.254 86.3684 103.546ZM85.4928 110.259C86.0766 110.454 86.563 110.454 86.9522 110.356C87.3413 110.259 87.5359 109.967 87.7305 109.578C87.8278 109.189 87.8278 108.897 87.6332 108.605C87.4386 108.313 87.0495 107.924 86.3684 107.535L85.4928 110.259Z" fill="url(#paint30_linear_2580_676)"/>
<path d="M81.6985 112.982L82.1849 111.426C80.6283 110.842 79.5581 110.064 78.8771 108.993C78.2934 107.923 78.1961 106.658 78.5852 105.296L81.9904 106.367C81.7958 107.048 81.7958 107.631 81.8931 108.021C81.9904 108.41 82.3795 108.702 82.866 108.896L83.8389 105.88C82.2822 105.005 81.2121 104.032 80.7256 103.156C80.1419 102.28 80.0446 101.308 80.4337 100.237C80.8229 99.0699 81.6012 98.1943 82.6714 97.8052C83.8389 97.3187 85.1036 97.416 86.6603 97.8052L87.0494 96.6377L88.5088 97.1241L88.1196 98.2916C89.5789 98.7781 90.5518 99.5564 91.1356 100.529C91.7193 101.502 91.8166 102.67 91.4274 103.934L88.2169 102.864C88.3142 102.28 88.3142 101.891 88.2169 101.502C88.0223 101.113 87.7304 100.918 87.3413 100.724L86.4657 103.545C88.1196 104.518 89.1898 105.491 89.7735 106.367C90.26 107.242 90.3572 108.312 90.0654 109.383C89.6762 110.647 88.8979 111.523 87.8277 112.009C86.7575 112.399 85.3955 112.399 83.6443 112.009L83.1578 113.566L81.6985 112.982ZM85.2982 102.572L86.0765 100.043H85.9792C85.3955 99.8482 85.0063 99.8482 84.7145 99.9455C84.4226 100.043 84.1307 100.335 84.0334 100.724C83.9362 101.016 83.9362 101.308 84.1307 101.599C84.3253 101.891 84.7145 102.28 85.2982 102.572ZM84.3253 109.285C84.909 109.48 85.3955 109.48 85.7846 109.383C86.1738 109.285 86.3684 108.993 86.563 108.604C86.6603 108.215 86.6603 107.923 86.4657 107.631C86.2711 107.34 85.8819 106.95 85.2009 106.561L84.3253 109.285Z" fill="#F6FBEB"/>
<path d="M41.7126 101.31C41.1288 101.115 40.3505 101.31 39.7668 101.018C39.0858 99.9478 38.3074 98.9749 37.14 98.5857C36.0698 98.1966 34.6104 98.4885 34.0267 99.6559C33.9294 97.7101 33.0538 95.6671 31.4972 94.5969C29.9406 93.5267 27.6056 93.7213 26.4381 95.2779C27.3137 91.4836 23.033 95.4725 20.017 93.3321C17.0011 91.1918 15.4444 83.0194 12.3312 85.1598C10.6773 86.23 9.50979 87.8839 8.73148 89.7324C9.70437 90.3161 10.6773 90.8999 11.6502 91.289C13.5959 92.1647 15.1526 92.3592 16.5146 94.305C17.8767 96.2508 17.1956 97.2237 17.3902 99.3641C17.4875 99.3641 15.3472 100.921 15.5417 101.018C16.0282 101.31 22.9357 103.353 23.714 103.645C31.3026 103.645 37.0427 103.742 41.2261 103.937C41.518 103.937 41.8099 103.937 42.0044 103.742C42.5882 103.158 42.3936 101.504 41.7126 101.31Z" fill="url(#paint31_linear_2580_676)"/>
<path d="M2.01851 98.5852C2.01851 96.153 4.15888 93.9153 6.59111 93.7208C6.29924 90.2183 8.05045 86.5213 11.0664 84.5756C14.0824 82.6298 18.3631 82.6298 21.3791 84.5756C24.3951 86.5213 26.049 90.4129 25.1734 93.818C26.3408 92.456 28.6758 92.2614 30.2324 93.2343C31.7891 94.2072 32.7619 96.0557 32.7619 97.9042C33.2484 96.834 34.7077 96.5421 35.8752 96.9313C36.9454 97.3205 37.821 98.2934 38.502 99.169C39.0858 99.3635 39.7668 99.2662 40.4478 99.3635C41.1288 99.4608 41.6153 100.336 41.1288 100.823C40.9343 101.017 40.6424 101.017 40.3505 101.017C31.4972 100.628 7.46672 101.309 0.85104 100.434C-0.121854 100.336 -0.316432 98.9744 0.559172 98.5852C1.2402 98.3906 2.01851 98.2934 2.01851 98.5852Z" fill="#F6FBEB"/>
<mask id="mask10_2580_676" style="mask-type:luminance" maskUnits="userSpaceOnUse" x="0" y="83" width="42" height="19">
<path d="M2.01851 98.5852C2.01851 96.153 4.15888 93.9153 6.59111 93.7208C6.29924 90.2183 8.05045 86.5213 11.0664 84.5756C14.0824 82.6298 18.3631 82.6298 21.3791 84.5756C24.3951 86.5213 26.049 90.4129 25.1734 93.818C26.3408 92.456 28.6758 92.2614 30.2324 93.2343C31.7891 94.2072 32.7619 96.0557 32.7619 97.9042C33.2484 96.834 34.7077 96.5421 35.8752 96.9313C36.9454 97.3205 37.821 98.2934 38.502 99.169C39.0858 99.3635 39.7668 99.2662 40.4478 99.3635C41.1288 99.4608 41.6153 100.336 41.1288 100.823C40.9343 101.017 40.6424 101.017 40.3505 101.017C31.4972 100.628 7.46672 101.309 0.85104 100.434C-0.121854 100.336 -0.316432 98.9744 0.559172 98.5852C1.2402 98.3906 2.01851 98.2934 2.01851 98.5852Z" fill="white"/>
</mask>
<g mask="url(#mask10_2580_676)">
<path d="M18.5577 83.6998C19.6279 85.6456 19.6279 88.1751 18.3631 89.829C20.017 89.7317 21.3791 91.4829 21.2818 93.1369C21.1845 94.7908 19.8225 96.1528 18.3631 96.8339C18.4604 98.3905 17.3902 99.8498 16.1255 100.628C14.7634 101.406 13.2068 101.601 11.6501 101.504C13.5959 103.741 15.639 106.174 18.3631 107.244C20.7953 108.217 23.6167 108.217 26.2436 108.119C31.0107 107.925 35.8752 107.73 40.2532 105.784C42.7827 104.714 45.215 102.574 45.3123 99.8498C45.3123 97.7095 43.8529 95.7637 42.2963 94.3043C38.4047 90.4128 33.8321 87.2995 28.8704 84.9646C26.1463 83.6998 23.3249 82.7269 20.4062 81.754C18.4604 81.073 16.5146 80.2947 14.4715 79.7109C15.2499 80.9757 18.5577 81.9486 18.5577 83.6998Z" fill="#D6E1E4"/>
</g>
<path d="M8.63417 10.0512C7.27212 13.7482 7.17483 17.9316 8.63417 21.6286C9.02333 22.6015 9.50978 23.5744 10.0935 24.3527C11.942 26.7849 14.7634 28.2443 17.5848 29.2172C20.9899 30.3846 24.5896 31.0657 28.1893 31.1629C28.5785 31.1629 28.9676 31.1629 29.2595 30.9684C29.5514 30.7738 29.8433 30.5792 30.0378 30.2873C33.5402 26.2985 37.14 22.2123 40.6424 18.2235C41.3234 17.4451 42.0044 16.6668 42.199 15.5966C42.3936 14.1373 41.4207 12.8725 40.4478 11.8024C36.5562 7.52163 31.6917 4.11651 26.3408 1.87885C23.3249 0.61409 20.017 -0.358804 16.8065 0.127643C14.4715 0.419511 12.2339 3.63006 10.9691 5.47856C9.99622 6.9379 9.21791 8.39724 8.63417 10.0512Z" fill="url(#paint32_linear_2580_676)"/>
<mask id="mask11_2580_676" style="mask-type:luminance" maskUnits="userSpaceOnUse" x="7" y="0" width="36" height="32">
<path d="M8.63417 10.0512C7.27212 13.7482 7.17483 17.9316 8.63417 21.6286C9.02333 22.6015 9.50978 23.5744 10.0935 24.3527C11.942 26.7849 14.7634 28.2443 17.5848 29.2172C20.9899 30.3846 24.5896 31.0657 28.1893 31.1629C28.5785 31.1629 28.9676 31.1629 29.2595 30.9684C29.5514 30.7738 29.8433 30.5792 30.0378 30.2873C33.5402 26.2985 37.14 22.2123 40.6424 18.2235C41.3234 17.4451 42.0044 16.6668 42.199 15.5966C42.3936 14.1373 41.4207 12.8725 40.4478 11.8024C36.5562 7.52163 31.6917 4.11651 26.3408 1.87885C23.3249 0.61409 20.017 -0.358804 16.8065 0.127643C14.4715 0.419511 12.2339 3.63006 10.9691 5.47856C9.99622 6.9379 9.21791 8.39724 8.63417 10.0512Z" fill="white"/>
</mask>
<g mask="url(#mask11_2580_676)">
<path d="M17.5848 29.3142C19.8225 29.8006 26.5354 31.6491 28.9677 30.1898C29.6487 29.8006 32.5674 26.0064 33.443 24.9362C35.2915 22.6985 37.14 20.3636 38.8912 18.1259C39.8641 16.8612 40.837 15.6937 41.3234 14.1371C41.7126 12.9696 41.7126 11.6075 41.6153 10.3428C42.1017 10.9265 42.4909 11.6075 42.88 12.2886C43.3665 13.1642 43.7556 14.0398 43.9502 15.0127C44.0475 15.8883 43.9502 16.7639 43.7556 17.6395C43.1719 19.5853 42.199 21.3365 41.0315 22.9904C39.5722 25.0335 38.0156 27.0765 36.2644 28.8278C35.2915 29.8006 34.124 30.7735 32.8592 31.26C31.5945 31.7464 30.2324 31.8437 28.9677 31.7464C27.3137 31.6491 25.7571 31.3573 24.1032 31.0654C23.4222 30.9681 22.7411 30.7735 22.0601 30.6762" fill="#3BA025"/>
</g>
<path d="M23.6168 25.131C28.6138 25.131 32.6647 21.0801 32.6647 16.0831C32.6647 11.086 28.6138 7.03516 23.6168 7.03516C18.6197 7.03516 14.5688 11.086 14.5688 16.0831C14.5688 21.0801 18.6197 25.131 23.6168 25.131Z" fill="#67C236"/>
<path d="M20.8926 23.088C25.8897 23.088 29.9405 19.0371 29.9405 14.0401C29.9405 9.04307 25.8897 4.99219 20.8926 4.99219C15.8956 4.99219 11.8447 9.04307 11.8447 14.0401C11.8447 19.0371 15.8956 23.088 20.8926 23.088Z" fill="#1D5D1C"/>
<path d="M20.8926 22.6993C25.8897 22.6993 29.9405 18.6484 29.9405 13.6514C29.9405 8.6544 25.8897 4.60352 20.8926 4.60352C15.8956 4.60352 11.8447 8.6544 11.8447 13.6514C11.8447 18.6484 15.8956 22.6993 20.8926 22.6993Z" fill="#278115"/>
<path d="M20.8926 21.8234C25.8897 21.8234 29.9405 17.7725 29.9405 12.7754C29.9405 7.77843 25.8897 3.72754 20.8926 3.72754C15.8956 3.72754 11.8447 7.77843 11.8447 12.7754C11.8447 17.7725 15.8956 21.8234 20.8926 21.8234Z" fill="url(#paint33_linear_2580_676)"/>
<path d="M23.033 18.807L22.5466 17.7369C21.4764 18.2233 20.5035 18.4179 19.7252 18.126C18.8496 17.9314 18.2658 17.3477 17.7794 16.4721L20.017 15.3046C20.3089 15.7911 20.5035 16.0829 20.7954 16.1802C21.0872 16.2775 21.3791 16.2775 21.671 16.0829L20.6008 14.1372C19.336 14.429 18.3631 14.5263 17.6821 14.3317C17.0011 14.1372 16.4173 13.748 16.0282 13.067C15.639 12.2887 15.639 11.5103 15.9309 10.732C16.32 9.95372 16.9038 9.27269 17.8767 8.78625L17.4875 8.00793L18.4604 7.52148L18.8496 8.2998C19.8225 7.81335 20.6981 7.71606 21.4764 7.91064C22.2547 8.10522 22.8384 8.59167 23.3249 9.46727L21.1845 10.5375C20.9899 10.1483 20.7954 9.95372 20.5035 9.85643C20.2116 9.75914 19.9198 9.75914 19.6279 9.95372L20.6008 11.8022C21.9628 11.5103 22.9357 11.4131 23.6167 11.6076C24.2978 11.8022 24.8815 12.2887 25.2707 12.9697C25.7571 13.8453 25.7571 14.6236 25.4652 15.4019C25.1734 16.1802 24.4923 16.8613 23.3249 17.445L23.8113 18.5152L23.033 18.807ZM19.6279 11.8995L18.8496 10.2456C18.4604 10.4402 18.2658 10.6347 18.1685 10.8293C18.0713 11.0239 18.0713 11.3158 18.2658 11.6076C18.3631 11.8022 18.5577 11.8995 18.7523 11.9968C18.8496 11.9968 19.2387 11.9968 19.6279 11.8995ZM22.5466 15.5965C22.9357 15.4019 23.2276 15.2073 23.3249 14.9155C23.4222 14.7209 23.4222 14.429 23.3249 14.1372C23.2276 13.9426 23.033 13.748 22.7411 13.748C22.5466 13.6507 22.1574 13.748 21.5737 13.8453L22.5466 15.5965Z" fill="#337C60"/>
<path d="M23.3249 18.1264L22.8384 17.0562C21.7683 17.5426 20.7954 17.7372 20.017 17.4454C19.1414 17.2508 18.5577 16.667 18.0713 15.7914L20.3089 14.624C20.6008 15.1104 20.7954 15.4023 21.0872 15.4996C21.3791 15.5969 21.671 15.5969 21.9628 15.4023L20.8926 13.3592C19.6279 13.6511 18.655 13.7484 17.974 13.5538C17.2929 13.3592 16.7092 12.97 16.32 12.289C15.9309 11.5107 15.9309 10.7324 16.2228 9.95408C16.6119 9.17576 17.1957 8.49474 18.1685 8.00829L17.8767 7.32727L18.8496 6.84082L19.2387 7.61914C20.2116 7.13269 21.0872 7.0354 21.8655 7.22998C22.6439 7.42456 23.2276 7.911 23.714 8.78661L21.5737 9.85679C21.3791 9.46763 21.1845 9.27305 20.8926 9.17576C20.6008 9.07848 20.3089 9.07848 20.017 9.27305L20.9899 11.1216C22.352 10.8297 23.3249 10.7324 24.0059 10.927C24.6869 11.1216 25.2707 11.608 25.6598 12.289C26.1463 13.1646 26.1463 13.9429 25.8544 14.7213C25.5625 15.4996 24.8815 16.1806 23.714 16.7643L24.2005 17.8345L23.3249 18.1264ZM19.9198 11.2188L19.0441 9.56492C18.655 9.7595 18.4604 9.95408 18.3631 10.1487C18.2658 10.3432 18.2658 10.6351 18.4604 10.927C18.5577 11.1216 18.7523 11.2188 18.9469 11.3161C19.1414 11.4134 19.5306 11.3161 19.9198 11.2188ZM22.8384 15.0131C23.2276 14.8185 23.5195 14.624 23.6167 14.3321C23.714 14.1375 23.714 13.8457 23.6167 13.5538C23.5195 13.3592 23.3249 13.1646 23.033 13.1646C22.8384 13.0673 22.4493 13.1646 21.8655 13.2619L22.8384 15.0131Z" fill="#F6FBEB"/>
<defs>
<filter id="filter0_di_2580_676" x="159.768" y="17.3438" width="35.3715" height="64.8965" filterUnits="userSpaceOnUse" color-interpolation-filters="sRGB">
<feFlood flood-opacity="0" result="BackgroundImageFix"/>
<feColorMatrix in="SourceAlpha" type="matrix" values="0 0 0 0 0 0 0 0 0 0 0 0 0 0 0 0 0 0 127 0" result="hardAlpha"/>
<feOffset dy="4"/>
<feGaussianBlur stdDeviation="2"/>
<feComposite in2="hardAlpha" operator="out"/>
<feColorMatrix type="matrix" values="0 0 0 0 0 0 0 0 0 0 0 0 0 0 0 0 0 0 0.25 0"/>
<feBlend mode="normal" in2="BackgroundImageFix" result="effect1_dropShadow_2580_676"/>
<feBlend mode="normal" in="SourceGraphic" in2="effect1_dropShadow_2580_676" result="shape"/>
<feColorMatrix in="SourceAlpha" type="matrix" values="0 0 0 0 0 0 0 0 0 0 0 0 0 0 0 0 0 0 127 0" result="hardAlpha"/>
<feOffset dy="4"/>
<feGaussianBlur stdDeviation="2"/>
<feComposite in2="hardAlpha" operator="arithmetic" k2="-1" k3="1"/>
<feColorMatrix type="matrix" values="0 0 0 0 0 0 0 0 0 0 0 0 0 0 0 0 0 0 0.04 0"/>
<feBlend mode="normal" in2="shape" result="effect2_innerShadow_2580_676"/>
</filter>
<filter id="filter1_di_2580_676" x="117.999" y="18" width="46.9525" height="53.415" filterUnits="userSpaceOnUse" color-interpolation-filters="sRGB">
<feFlood flood-opacity="0" result="BackgroundImageFix"/>
<feColorMatrix in="SourceAlpha" type="matrix" values="0 0 0 0 0 0 0 0 0 0 0 0 0 0 0 0 0 0 127 0" result="hardAlpha"/>
<feOffset dy="4"/>
<feGaussianBlur stdDeviation="2"/>
<feComposite in2="hardAlpha" operator="out"/>
<feColorMatrix type="matrix" values="0 0 0 0 0 0 0 0 0 0 0 0 0 0 0 0 0 0 0.25 0"/>
<feBlend mode="normal" in2="BackgroundImageFix" result="effect1_dropShadow_2580_676"/>
<feBlend mode="normal" in="SourceGraphic" in2="effect1_dropShadow_2580_676" result="shape"/>
<feColorMatrix in="SourceAlpha" type="matrix" values="0 0 0 0 0 0 0 0 0 0 0 0 0 0 0 0 0 0 127 0" result="hardAlpha"/>
<feOffset dx="13" dy="4"/>
<feGaussianBlur stdDeviation="2"/>
<feComposite in2="hardAlpha" operator="arithmetic" k2="-1" k3="1"/>
<feColorMatrix type="matrix" values="0 0 0 0 0.126036 0 0 0 0 0.0543056 0 0 0 0 0.566667 0 0 0 0.44 0"/>
<feBlend mode="normal" in2="shape" result="effect2_innerShadow_2580_676"/>
</filter>
<linearGradient id="paint0_linear_2580_676" x1="8.58933" y1="43.918" x2="16.9535" y2="28.163" gradientUnits="userSpaceOnUse">
<stop offset="0.1509" stop-color="#67C43B"/>
<stop offset="0.6392" stop-color="#8DDB3A"/>
</linearGradient>
<linearGradient id="paint1_linear_2580_676" x1="53.0963" y1="19.3851" x2="64.4368" y2="202.658" gradientUnits="userSpaceOnUse">
<stop offset="0.1033" stop-color="#37C394"/>
<stop offset="0.4432" stop-color="#2BA579"/>
<stop offset="0.6641" stop-color="#158460"/>
<stop offset="0.8852" stop-color="#158460"/>
</linearGradient>
<linearGradient id="paint2_linear_2580_676" x1="51.39" y1="34.8334" x2="10.8815" y2="12.6575" gradientUnits="userSpaceOnUse">
<stop offset="0.2385" stop-color="#37C394" stop-opacity="0"/>
<stop offset="0.4105" stop-color="#2BA579"/>
<stop offset="0.652" stop-color="#158460"/>
<stop offset="0.9183" stop-color="#158460"/>
</linearGradient>
<linearGradient id="paint3_linear_2580_676" x1="13.1705" y1="53.9018" x2="17.8022" y2="53.9018" gradientUnits="userSpaceOnUse">
<stop offset="0.1509" stop-color="#2BA579" stop-opacity="0.6"/>
<stop offset="0.6392" stop-color="#158460"/>
</linearGradient>
<linearGradient id="paint4_linear_2580_676" x1="64.0137" y1="13.3108" x2="75.4721" y2="12.7727" gradientUnits="userSpaceOnUse">
<stop offset="0.1033" stop-color="#37C394"/>
<stop offset="0.4432" stop-color="#2BA579"/>
<stop offset="0.6641" stop-color="#158460"/>
<stop offset="0.7753" stop-color="#158460"/>
<stop offset="0.8852" stop-color="#158460"/>
</linearGradient>
<linearGradient id="paint5_linear_2580_676" x1="20.7693" y1="73.9879" x2="23.5894" y2="62.8995" gradientUnits="userSpaceOnUse">
<stop offset="0.1509" stop-color="#2BA579" stop-opacity="0.6"/>
<stop offset="0.6392" stop-color="#158460"/>
</linearGradient>
<linearGradient id="paint6_linear_2580_676" x1="47.5306" y1="65.2309" x2="49.7338" y2="32.6334" gradientUnits="userSpaceOnUse">
<stop offset="0.1033" stop-color="#37C394" stop-opacity="0"/>
<stop offset="0.2405" stop-color="#2BA579"/>
<stop offset="0.4263" stop-color="#158460"/>
<stop offset="0.7194" stop-color="#158460"/>
</linearGradient>
<linearGradient id="paint7_linear_2580_676" x1="92.2973" y1="70.6679" x2="94.6636" y2="41.8447" gradientUnits="userSpaceOnUse">
<stop offset="0.0214191" stop-color="#37C394"/>
<stop offset="0.3904" stop-color="#158460"/>
</linearGradient>
<linearGradient id="paint8_linear_2580_676" x1="59.2411" y1="28.5519" x2="63.4179" y2="-30.4598" gradientUnits="userSpaceOnUse">
<stop offset="0.1033" stop-color="#37C394"/>
<stop offset="0.1638" stop-color="#2BA579"/>
<stop offset="0.3168" stop-color="#158460"/>
<stop offset="0.4957" stop-color="#158460"/>
<stop offset="0.9134" stop-color="#158460"/>
</linearGradient>
<linearGradient id="paint9_linear_2580_676" x1="79.9597" y1="55.6644" x2="84.1193" y2="4.6248" gradientUnits="userSpaceOnUse">
<stop offset="0.1033" stop-color="#37C394"/>
<stop offset="0.2405" stop-color="#2BA579"/>
<stop offset="0.4263" stop-color="#158460"/>
<stop offset="0.7194" stop-color="#158460"/>
</linearGradient>
<linearGradient id="paint10_linear_2580_676" x1="46.6466" y1="86.3949" x2="53.27" y2="58.743" gradientUnits="userSpaceOnUse">
<stop offset="0.1509" stop-color="#67C236"/>
<stop offset="0.6392" stop-color="#95DB48"/>
</linearGradient>
<linearGradient id="paint11_linear_2580_676" x1="53.5446" y1="98.5538" x2="58.4139" y2="64.834" gradientUnits="userSpaceOnUse">
<stop offset="0.1509" stop-color="#31871D"/>
<stop offset="0.6392" stop-color="#3BA025"/>
</linearGradient>
<linearGradient id="paint12_linear_2580_676" x1="42.0241" y1="88.6588" x2="40.0196" y2="70.21" gradientUnits="userSpaceOnUse">
<stop offset="0.2008" stop-color="#31871D"/>
<stop offset="0.6392" stop-color="#3BA025"/>
</linearGradient>
<linearGradient id="paint13_linear_2580_676" x1="34.6532" y1="95.0464" x2="55.8734" y2="95.0464" gradientUnits="userSpaceOnUse">
<stop offset="0.1509" stop-color="#1D5D1C"/>
<stop offset="0.6392" stop-color="#3BA025"/>
</linearGradient>
<linearGradient id="paint14_linear_2580_676" x1="49.9333" y1="68.0103" x2="64.5925" y2="99.7351" gradientUnits="userSpaceOnUse">
<stop offset="0.0863671" stop-color="#80D139"/>
<stop offset="0.4649" stop-color="#95DB48"/>
</linearGradient>
<linearGradient id="paint15_linear_2580_676" x1="40.1694" y1="96.3134" x2="82.1637" y2="119.629" gradientUnits="userSpaceOnUse">
<stop offset="0.1509" stop-color="#3BA025"/>
<stop offset="0.7524" stop-color="#86D643"/>
</linearGradient>
<linearGradient id="paint16_linear_2580_676" x1="88.7543" y1="87.1146" x2="75.83" y2="55.5574" gradientUnits="userSpaceOnUse">
<stop offset="0.1509" stop-color="#3BA025"/>
<stop offset="0.6392" stop-color="#50BC35"/>
</linearGradient>
<linearGradient id="paint17_linear_2580_676" x1="85.0198" y1="88.3265" x2="80.0455" y2="129.136" gradientUnits="userSpaceOnUse">
<stop offset="0.1509" stop-color="#1D5D1C"/>
<stop offset="0.6392" stop-color="#3BA025"/>
</linearGradient>
<linearGradient id="paint18_linear_2580_676" x1="67.8629" y1="115.659" x2="76.5912" y2="115.659" gradientUnits="userSpaceOnUse">
<stop offset="0.1509" stop-color="#1D5D1C"/>
<stop offset="0.6392" stop-color="#3BA025"/>
</linearGradient>
<linearGradient id="paint19_linear_2580_676" x1="59.3628" y1="105.097" x2="68.0252" y2="-17.2891" gradientUnits="userSpaceOnUse">
<stop offset="0.1509" stop-color="#1D5D1C"/>
<stop offset="0.6392" stop-color="#3BA025"/>
</linearGradient>
<linearGradient id="paint20_linear_2580_676" x1="79.0444" y1="97.9829" x2="81.648" y2="61.2" gradientUnits="userSpaceOnUse">
<stop offset="0.2838" stop-color="#2A8215"/>
<stop offset="0.5639" stop-color="#3C911D"/>
</linearGradient>
<linearGradient id="paint21_linear_2580_676" x1="58.8889" y1="121.426" x2="61.5334" y2="84.0645" gradientUnits="userSpaceOnUse">
<stop offset="0.2838" stop-color="#3BA025"/>
<stop offset="0.5639" stop-color="#2F7F14"/>
</linearGradient>
<linearGradient id="paint22_linear_2580_676" x1="78.0896" y1="125.997" x2="81.5627" y2="76.9281" gradientUnits="userSpaceOnUse">
<stop offset="0.1509" stop-color="#3BA025"/>
<stop offset="0.6392" stop-color="#50BC35"/>
</linearGradient>
<linearGradient id="paint23_linear_2580_676" x1="59.1323" y1="103.446" x2="89.7417" y2="68.5211" gradientUnits="userSpaceOnUse">
<stop offset="0.1033" stop-color="#37C394"/>
<stop offset="0.4432" stop-color="#2BA579"/>
<stop offset="0.6641" stop-color="#158460"/>
<stop offset="0.8852" stop-color="#158460"/>
</linearGradient>
<linearGradient id="paint24_linear_2580_676" x1="68.7121" y1="106.776" x2="102.582" y2="106.776" gradientUnits="userSpaceOnUse">
<stop offset="0.0863671" stop-color="#80D139"/>
<stop offset="0.4649" stop-color="#95DB48"/>
</linearGradient>
<linearGradient id="paint25_linear_2580_676" x1="91.6326" y1="114.797" x2="109.44" y2="101.957" gradientUnits="userSpaceOnUse">
<stop offset="0.1509" stop-color="#1D5D1C"/>
<stop offset="0.8683" stop-color="#3BA025"/>
</linearGradient>
<linearGradient id="paint26_linear_2580_676" x1="73.6337" y1="107.037" x2="82.6602" y2="107.037" gradientUnits="userSpaceOnUse">
<stop offset="0.1509" stop-color="#3BA025"/>
<stop offset="0.6392" stop-color="#50BC35"/>
</linearGradient>
<linearGradient id="paint27_linear_2580_676" x1="90.3436" y1="116.652" x2="91.4294" y2="116.652" gradientUnits="userSpaceOnUse">
<stop offset="0.2838" stop-color="#3BA025"/>
<stop offset="0.5639" stop-color="#2F7F14"/>
</linearGradient>
<linearGradient id="paint28_linear_2580_676" x1="92.6498" y1="116.552" x2="93.9577" y2="116.552" gradientUnits="userSpaceOnUse">
<stop offset="0.2838" stop-color="#3BA025"/>
<stop offset="0.5639" stop-color="#2F7F14"/>
</linearGradient>
<linearGradient id="paint29_linear_2580_676" x1="95.311" y1="116.557" x2="96.1257" y2="116.557" gradientUnits="userSpaceOnUse">
<stop offset="0.2838" stop-color="#3BA025"/>
<stop offset="0.5639" stop-color="#2F7F14"/>
</linearGradient>
<linearGradient id="paint30_linear_2580_676" x1="79.509" y1="105.949" x2="92.9329" y2="105.949" gradientUnits="userSpaceOnUse">
<stop offset="0.1509" stop-color="#1D5D1C"/>
<stop offset="0.6392" stop-color="#3BA025"/>
</linearGradient>
<linearGradient id="paint31_linear_2580_676" x1="22.9917" y1="116.169" x2="30.0088" y2="61.5033" gradientUnits="userSpaceOnUse">
<stop offset="0.1033" stop-color="#37C394"/>
<stop offset="0.219" stop-color="#2BA579" stop-opacity="0"/>
<stop offset="0.2942" stop-color="#158460"/>
<stop offset="0.475" stop-color="#158460"/>
<stop offset="0.9134" stop-color="#158460"/>
</linearGradient>
<linearGradient id="paint32_linear_2580_676" x1="7.56671" y1="15.6502" x2="42.2731" y2="15.6502" gradientUnits="userSpaceOnUse">
<stop offset="0.1509" stop-color="#86D643"/>
<stop offset="0.6392" stop-color="#8DDB3A"/>
</linearGradient>
<linearGradient id="paint33_linear_2580_676" x1="11.6964" y1="12.7793" x2="58.4396" y2="12.7793" gradientUnits="userSpaceOnUse">
<stop offset="0.1033" stop-color="#37C394"/>
<stop offset="0.4432" stop-color="#2BA579"/>
<stop offset="0.6641" stop-color="#158460"/>
<stop offset="0.8852" stop-color="#158460"/>
</linearGradient>
</defs>
</svg>
